<?xml version="1.0" encoding="UTF-8" standalone="no"?>
<!-- Created with Inkscape (http://www.inkscape.org/) -->

<svg
   xmlns:dc="http://purl.org/dc/elements/1.1/"
   xmlns:cc="http://creativecommons.org/ns#"
   xmlns:rdf="http://www.w3.org/1999/02/22-rdf-syntax-ns#"
   xmlns:svg="http://www.w3.org/2000/svg"
   xmlns="http://www.w3.org/2000/svg"
   xmlns:sodipodi="http://sodipodi.sourceforge.net/DTD/sodipodi-0.dtd"
   xmlns:inkscape="http://www.inkscape.org/namespaces/inkscape"
   width="1200"
   height="300"
   viewBox="0 0 317.49999 79.375002"
   version="1.1"
   id="svg8"
   inkscape:version="0.92.1 15371"
   sodipodi:docname="banner.svg">
  <defs
     id="defs2" />
  <sodipodi:namedview
     id="base"
     pagecolor="#ffffff"
     bordercolor="#666666"
     borderopacity="1.0"
     inkscape:pageopacity="0.0"
     inkscape:pageshadow="2"
     inkscape:zoom="1.0066667"
     inkscape:cx="600"
     inkscape:cy="150"
     inkscape:document-units="px"
     inkscape:current-layer="layer1"
     showgrid="false"
     units="px"
     inkscape:window-width="1366"
     inkscape:window-height="709"
     inkscape:window-x="0"
     inkscape:window-y="35"
     inkscape:window-maximized="1" />
  <metadata
     id="metadata5">
    <rdf:RDF>
      <cc:Work
         rdf:about="">
        <dc:format>image/svg+xml</dc:format>
        <dc:type
           rdf:resource="http://purl.org/dc/dcmitype/StillImage" />
        <dc:title></dc:title>
      </cc:Work>
    </rdf:RDF>
  </metadata>
  <g
     inkscape:label="Layer 1"
     inkscape:groupmode="layer"
     id="layer1"
     transform="translate(0,-217.62498)">
    <rect
       style="fill:#f5f5f5;fill-opacity:1;stroke:none;stroke-width:1.05007744;stroke-miterlimit:4;stroke-dasharray:none;stroke-opacity:1"
       id="rect10"
       width="317.5"
       height="79.375"
       x="0.25789568"
       y="217.62994" />
    <rect
       style="fill:#b3b3b3;fill-opacity:1;stroke:none;stroke-width:1.53549433;stroke-miterlimit:4;stroke-dasharray:none;stroke-opacity:1"
       id="rect838"
       width="1.2931565"
       height="88.609474"
       x="34.37677"
       y="259.46671"
       transform="matrix(0.85909223,-0.51182081,0.4222499,0.90647947,0,0)" />
    <g
       style="fill:#002451"
       id="g1596"
       transform="matrix(0.91728062,0,0,0.99123409,6.5707802,209.19635)">
      <g
         id="g1584">
        <path
           id="path1582"
           d="m 21,64.5 h 28 v 9 H 37 v 2 h 26 v -2 H 51 v -9 h 28 c 0.6,0 1,-0.4 1,-1 v -38 c 0,-0.6 -0.4,-1 -1,-1 H 21 c -0.6,0 -1,0.4 -1,1 v 38 c 0,0.6 0.4,1 1,1 z m 1,-38 h 56 v 36 H 51 49 22 Z"
           inkscape:connector-curvature="0" />
      </g>
    </g>
  </g>
</svg>
