<svg fill="#70C041" xmlns="http://www.w3.org/2000/svg" xmlns:xlink="http://www.w3.org/1999/xlink" version="1.1" x="0px" y="0px" viewBox="-255 347 100 100" style="enable-background:new -255 347 100 100;" xml:space="preserve"><path d="M-194.9,383.8l-10.1,10.1l-10.1-10.1l-3.1,3.1l10.1,10.1l-10.1,10.1l3.1,3.1l10.1-10.1l10.1,10.1l3.1-3.1l-10.1-10.1  l10.1-10.1L-194.9,383.8z M-243.2,397l17.7-17.7l-3.5-3.5l-21.3,21.3l21.3,21.3l3.5-3.5L-243.2,397z M-205,358.8l17.7,17.7l3.5-3.5  l-21.3-21.3l-21.3,21.3l3.5,3.5L-205,358.8z M-181,375.7l-3.5,3.5l17.7,17.7l-17.7,17.7l3.5,3.5l21.3-21.3L-181,375.7z M-205,435.2  l-17.7-17.7l-3.5,3.5l21.3,21.3l21.3-21.3l-3.5-3.5L-205,435.2z"></path></svg>