<svg fill="#FFFFFF" xmlns="http://www.w3.org/2000/svg" xmlns:xlink="http://www.w3.org/1999/xlink" version="1.1" x="0px" y="0px" viewBox="0 0 100 100" enable-background="new 0 0 100 100" xml:space="preserve"><path d="M17.001,17.002c-18.225,18.224-18.225,47.772,0,65.997C35.226,101.224,64.774,101.224,82.999,83  c18.225-18.225,18.225-47.774,0-65.999C64.774-1.223,35.226-1.223,17.001,17.002z M78.902,78.902  C62.965,94.84,37.034,94.84,21.097,78.903c-15.937-15.937-15.937-41.869,0-57.806c15.937-15.937,41.868-15.937,57.806,0  C94.839,37.035,94.839,62.966,78.902,78.902z M36.831,32.735l-4.097,4.097L45.903,50L32.734,63.169l4.097,4.097L50,54.097  l13.168,13.169l4.097-4.097L54.096,50l13.169-13.168l-4.097-4.097L50,45.904L36.831,32.735z"></path></svg>