<?xml version="1.0" encoding="UTF-8" standalone="no"?>
<!-- Created with Inkscape (http://www.inkscape.org/) -->

<svg
   xmlns:dc="http://purl.org/dc/elements/1.1/"
   xmlns:cc="http://creativecommons.org/ns#"
   xmlns:rdf="http://www.w3.org/1999/02/22-rdf-syntax-ns#"
   xmlns:svg="http://www.w3.org/2000/svg"
   xmlns="http://www.w3.org/2000/svg"
   xmlns:sodipodi="http://sodipodi.sourceforge.net/DTD/sodipodi-0.dtd"
   xmlns:inkscape="http://www.inkscape.org/namespaces/inkscape"
   width="256"
   height="256"
   viewBox="0 0 67.733331 67.733335"
   version="1.1"
   id="svg8"
   inkscape:version="0.92.1 15371"
   sodipodi:docname="cloud1.svg">
  <defs
     id="defs2" />
  <sodipodi:namedview
     id="base"
     pagecolor="#ffffff"
     bordercolor="#666666"
     borderopacity="1.0"
     inkscape:pageopacity="0.0"
     inkscape:pageshadow="2"
     inkscape:zoom="2.0898438"
     inkscape:cx="128"
     inkscape:cy="128"
     inkscape:document-units="mm"
     inkscape:current-layer="layer1"
     showgrid="false"
     units="px"
     inkscape:window-width="1366"
     inkscape:window-height="709"
     inkscape:window-x="0"
     inkscape:window-y="35"
     inkscape:window-maximized="1" />
  <metadata
     id="metadata5">
    <rdf:RDF>
      <cc:Work
         rdf:about="">
        <dc:format>image/svg+xml</dc:format>
        <dc:type
           rdf:resource="http://purl.org/dc/dcmitype/StillImage" />
        <dc:title />
      </cc:Work>
    </rdf:RDF>
  </metadata>
  <g
     inkscape:label="Layer 1"
     inkscape:groupmode="layer"
     id="layer1"
     transform="translate(0,-229.26663)">
    <g
       style="fill:#002451"
       id="g2845"
       transform="matrix(0.6865844,0,0,0.73262194,0.02069497,227.59647)">
      <path
         id="path2834"
         d="m 58.1,57.77 v 0 A 1,1 0 0 0 58,59.1 10.51,10.51 0 0 1 50.3,76.36 l 2.51,-2.51 A 1,1 0 1 0 51.4,72.44 l -4.24,4.24 v 0 a 1,1 0 0 0 0,1.41 l 4.24,4.24 a 1,1 0 0 0 1.41,-1.41 l -2.56,-2.56 a 12.35,12.35 0 0 0 3.09,-0.47 12.49,12.49 0 0 0 6.22,-20.06 1,1 0 0 0 -1.46,-0.06 z m -8.39,-2.39 -2.54,2.54 a 1,1 0 0 0 1.41,1.41 l 4.24,-4.24 a 1,1 0 0 0 0,-1.41 v 0 l -4.24,-4.24 a 1,1 0 1 0 -1.41,1.41 l 2.53,2.53 A 12.49,12.49 0 0 0 40.42,73.9 1,1 0 0 0 41.9,74 v 0 A 1,1 0 0 0 42,72.64 10.49,10.49 0 0 1 49.73,55.39 Z m -20.9,9 a 1.5,1.5 0 1 0 1.5,1.5 1.5,1.5 0 0 0 -1.5,-1.51 z m -5,0 a 1.5,1.5 0 1 0 1.5,1.5 1.5,1.5 0 0 0 -1.5,-1.51 z m 48.64,-27 a 1,1 0 0 0 1,-1.1 13.5,13.5 0 0 0 -22.2,-9.19 1,1 0 0 0 -0.07,1.48 v 0 a 1,1 0 0 0 1.33,0.08 11.49,11.49 0 0 1 18.94,7.83 1,1 0 0 0 1.01,0.89 z m 7.54,0 a 20,20 0 0 0 -36,-12 15,15 0 0 0 -24,12 15,15 0 0 0 -14.88,16.82 15.2,15.2 0 0 0 13.62,13.08 1.5074813,1.5074813 0 0 0 0.3,-3 12.18,12.18 0 0 1 -11,-10.75 12,12 0 0 1 11.89,-13.16 3.16,3.16 0 0 0 3.08,-3.14 12,12 0 0 1 12,-11.86 11.88,11.88 0 0 1 7.2,2.42 3,3 0 0 0 1.81,0.6 h 0.42 a 3,3 0 0 0 2,-1.17 A 17,17 0 0 1 77,37.43 3,3 0 0 0 80,40.37 12,12 0 0 1 91.94,53.6 12.23,12.23 0 0 1 79.66,64.37 H 71.5 a 1.5,1.5 0 0 0 0,3 h 8.1 A 15.27,15.27 0 0 0 94.89,54.2 15,15 0 0 0 80,37.37 Z"
         inkscape:connector-curvature="0" />
    </g>
  </g>
  <style
     id="style2350"
     type="text/css">
	.st0{fill:#002451;}
</style>
</svg>
