<?xml version="1.0" encoding="UTF-8" standalone="no"?>
<!-- Created with Inkscape (http://www.inkscape.org/) -->

<svg
   xmlns:dc="http://purl.org/dc/elements/1.1/"
   xmlns:cc="http://creativecommons.org/ns#"
   xmlns:rdf="http://www.w3.org/1999/02/22-rdf-syntax-ns#"
   xmlns:svg="http://www.w3.org/2000/svg"
   xmlns="http://www.w3.org/2000/svg"
   xmlns:sodipodi="http://sodipodi.sourceforge.net/DTD/sodipodi-0.dtd"
   xmlns:inkscape="http://www.inkscape.org/namespaces/inkscape"
   width="256"
   height="256"
   viewBox="0 0 67.733331 67.733335"
   version="1.1"
   id="svg8"
   inkscape:version="0.92.1 15371"
   sodipodi:docname="cloud.svg">
  <defs
     id="defs2" />
  <sodipodi:namedview
     id="base"
     pagecolor="#ffffff"
     bordercolor="#666666"
     borderopacity="1.0"
     inkscape:pageopacity="0.0"
     inkscape:pageshadow="2"
     inkscape:zoom="2.0898438"
     inkscape:cx="128"
     inkscape:cy="128"
     inkscape:document-units="mm"
     inkscape:current-layer="layer1"
     showgrid="false"
     units="px"
     inkscape:window-width="1366"
     inkscape:window-height="709"
     inkscape:window-x="0"
     inkscape:window-y="35"
     inkscape:window-maximized="1" />
  <metadata
     id="metadata5">
    <rdf:RDF>
      <cc:Work
         rdf:about="">
        <dc:format>image/svg+xml</dc:format>
        <dc:type
           rdf:resource="http://purl.org/dc/dcmitype/StillImage" />
        <dc:title></dc:title>
      </cc:Work>
    </rdf:RDF>
  </metadata>
  <g
     inkscape:label="Layer 1"
     inkscape:groupmode="layer"
     id="layer1"
     transform="translate(0,-229.26663)">
    <g
       style="fill:#002451"
       id="g2374"
       transform="matrix(0.67956429,0,0,0.73589691,0.01505563,230.61273)">
      <path
         id="path2356"
         d="M 86.7,43.6 C 85.5,44.9 84.1,46.1 82.5,47 87,49 90,53.5 90,58.5 90,65.4 84.4,71 77.5,71 H 72 v 0 H 28 v 0 H 22.5 C 15.6,71 10,65.4 10,58.5 10,52.2 14.7,46.9 20.9,46.1 l 5.4,-0.7 -1.1,-5.3 C 25.1,39.6 25,39 25,38.5 25,34.4 28.4,31 32.5,31 c 1.1,0 2.1,0.2 3.1,0.7 l 3.7,1.7 2.4,-3.3 c 2.9,-3.9 7.1,-6.6 11.8,-7.6 0.8,-2 1.9,-3.8 3.3,-5.4 -7.6,0.2 -14.7,4 -19.1,10.1 C 36,26.4 34.3,26 32.5,26 25.6,26 20,31.6 20,38.5 c 0,0.9 0.1,1.8 0.3,2.6 C 11.6,42.2 5,49.7 5,58.5 5,68.3 13.2,76.3 23,76 h 51.5 1.5 1 c 0.2,0 0.3,0 0.5,0 C 87.2,76 95,68.2 95,58.5 95,52.3 91.7,46.7 86.7,43.6 Z"
         inkscape:connector-curvature="0" />
      <path
         id="path2358"
         d="m 72,15.3 c -3,0 -5.8,0.9 -8.2,2.5 -1.7,1.1 -3.1,2.6 -4.2,4.3 -1.5,2.3 -2.3,5 -2.3,7.9 0,8.1 6.6,14.7 14.7,14.7 1.8,0 3.4,-0.3 5,-0.9 1.9,-0.7 3.6,-1.7 5,-3.1 C 84.9,38 86.7,34.2 86.7,30 86.7,21.9 80.1,15.3 72,15.3 Z M 70,36.1 63.9,30 66,27.9 l 3.9,3.9 8.9,-8.9 2.1,2.1 z"
         class="st0"
         inkscape:connector-curvature="0"
         style="fill:#002451" />
      <path
         id="path2360"
         d="m 72,15.3 c -3,0 -5.8,0.9 -8.2,2.5 -1.7,1.1 -3.1,2.6 -4.2,4.3 -1.5,2.3 -2.3,5 -2.3,7.9 0,8.1 6.6,14.7 14.7,14.7 1.8,0 3.4,-0.3 5,-0.9 1.9,-0.7 3.6,-1.7 5,-3.1 C 84.9,38 86.7,34.2 86.7,30 86.7,21.9 80.1,15.3 72,15.3 Z M 70,36.1 63.9,30 66,27.9 l 3.9,3.9 8.9,-8.9 2.1,2.1 z"
         inkscape:connector-curvature="0" />
    </g>
  </g>
  <style
     id="style2350"
     type="text/css">
	.st0{fill:#002451;}
</style>
</svg>
