<svg fill="#002451" xmlns:dc="http://purl.org/dc/elements/1.1/" xmlns:cc="http://creativecommons.org/ns#" xmlns:rdf="http://www.w3.org/1999/02/22-rdf-syntax-ns#" xmlns:svg="http://www.w3.org/2000/svg" xmlns="http://www.w3.org/2000/svg" xmlns:sodipodi="http://sodipodi.sourceforge.net/DTD/sodipodi-0.dtd" xmlns:inkscape="http://www.inkscape.org/namespaces/inkscape" version="1.1" x="0px" y="0px" viewBox="0 0 100 100"><g transform="translate(0,-952.36218)"><path style="text-indent:0;text-transform:none;direction:ltr;block-progression:tb;baseline-shift:baseline;color:#000000;enable-background:accumulate;" d="m 8.9374999,966.3622 c -4.4783,0.17088 -6.9115,2.73631 -6.9375,7 0,12.66547 0,25.33882 0,38 0.2045,4.4078 2.6895,6.9688 6.9688,7 l 21.0312001,0 -0.3125,1.125 c -2.0991,0.1235 -4.5235,0.3623 -7.0312,1.0938 -3.8296,1.1399 -7.5752,3.9296 -7.6563,7.7812 0.5959,4.8714 4.5941,7.0887 8.5313,8.25 4.3432,1.2609 9.7869,1.75 15.4687,1.75 5.6818,0 11.0943,-0.4891 15.4375,-1.75 4.1078,-1.1666 8.4732,-4.0668 8.5625,-8.25 -0.5478,-4.4588 -3.9634,-6.6779 -7.6875,-7.7812 -2.5205,-0.7352 -4.9266,-0.9717 -7.0312,-1.0938 l -0.3125,-1.125 16.0312,0 0,9 c 0.01,1.4521 1.2137,2.8023 2.6563,2.9688 1.2669,0.1407 2.5466,0.2728 3.8437,0.375 0.1677,1.4529 1.5375,2.6657 3,2.6562 l 15,0 c 1.4625,0.01 2.8323,-1.2033 3,-2.6562 1.2866,-0.1017 2.5556,-0.2354 3.8125,-0.375 1.4535,-0.1524 2.6801,-1.5074 2.6875,-2.9688 l 0,-50 c -2e-4,-1.57075 -1.4293,-2.99984 -3,-3 l -19,0 c -0.1348,-4.88414 -2.75,-8.01282 -7.0312,-8 z m 0,6 60.0313001,0 c 0.9974,-0.0433 0.9856,0.23332 1.0312,0.9687 l 0,38.0313 c 0.054,1.0379 -0.3709,0.9435 -1.0937,0.9999 -19.9792,0 -39.9583,0 -59.9375001,0 -0.9724,0.076 -0.8864,-0.3683 -0.9687,-1.0625 0,-12.64583 0,-25.29167 0,-37.9375 -0.043,-0.91313 0.1869,-0.95149 0.9374,-0.9999 z m 1.8438001,2 c -0.4472,0.10014 -0.7923001,0.5419 -0.7813001,1 l 0,34 c 1.001e-4,0.5236 0.4764001,1 1.0000001,1 l 56,0 c 0.5236,0 1,-0.4764 1,-1 l 0,-34 c 0,-0.52358 -0.4764,-0.99995 -1,-1 -18.7344,0 -37.5006,0 -56.2187,0 z m 65.2187,6 16,0 0,44.1563 c -7.1961,0.6305 -14.8025,0.6291 -22,0 l 0,-6.2188 c 3.8904,-0.4935 5.9722,-3.2683 6,-6.9375 l 0,-14 c 4.25,-0.0128 9.25,-0.0128 12.4688,-0.15625 1.0193,-0.30156 1.2814,-0.96567 1.5312,-1.84375 l 0,-2 c -0.1077,-1.0733 -0.6669,-1.45855 -1.5312,-1.84375 C 84.25,991.34938 80.2326,991.3622 76,991.3622 l 0,-2 c 4.25,-0.0128 9.25,-0.0128 12.4688,-0.15625 1.0193,-0.30156 1.2814,-0.96567 1.5312,-1.84375 l 0,-2 c -0.1077,-1.0733 -0.6669,-1.45855 -1.5312,-1.84375 C 85.25,983.34938 80.2326,983.3622 76,983.3622 z m 0,5 c 3.9906,0.11845 8.25,-0.0128 12,0.0937 l 0,1.8125 c -2.75,0.081 -7.9561,0.0937 -12,0.0937 z m 0,8 c 4.25,-0.0128 8.25,-0.0128 12,0.0937 l 0,1.8125 c -3.7884,0.21745 -7.9561,0.0937 -12,0.0937 z m 5,20 c -1.1046,0 -2,0.8954 -2,2 0,1.1046 0.8954,2 2,2 1.1046,0 2,-0.8954 2,-2 0,-1.1046 -0.8954,-2 -2,-2 z" fill="#002451" fill-opacity="1" stroke="none" marker="none" visibility="visible" display="inline" overflow="visible"></path></g></svg>