<svg fill="#002451" xmlns:dc="http://purl.org/dc/elements/1.1/" xmlns:cc="http://creativecommons.org/ns#" xmlns:rdf="http://www.w3.org/1999/02/22-rdf-syntax-ns#" xmlns:svg="http://www.w3.org/2000/svg" xmlns="http://www.w3.org/2000/svg" xmlns:sodipodi="http://sodipodi.sourceforge.net/DTD/sodipodi-0.dtd" xmlns:inkscape="http://www.inkscape.org/namespaces/inkscape" version="1.1" x="0px" y="0px" viewBox="0 0 100 100"><g transform="translate(0,-952.36218)"><g transform="translate(4.0078745,964.36021)"><path d="m 28.027559,0 c 2.799212,0.28346457 4.429133,1.8425197 5.562992,4.003937 l 50.456692,0 c 2.30315,0 4.393701,0.6377953 5.846457,2.0905512 1.488189,1.4881889 2.090551,3.5787401 2.090551,5.9173228 0,11.338583 0,22.677165 0,33.980315 -0.03543,2.338583 -0.637795,4.464567 -2.090551,5.917323 C 88.405511,53.362205 86.31496,54 83.976377,54 l -18.283464,0 0.885826,3.082677 c 2.125985,0.106299 4.818898,0.318898 7.511811,1.098425 3.366142,1.027559 6.838583,3.366142 6.909449,6.838583 -0.531496,4.358268 -4.322835,6.23622 -7.795276,7.263779 -4.181102,1.204725 -9.566929,1.736221 -15.165354,1.736221 -5.633858,0 -11.019685,-0.531496 -15.200787,-1.736221 -3.649606,-1.098425 -7.724409,-3.437008 -7.795275,-7.263779 0.46063,-4.003937 3.649606,-5.846457 6.944881,-6.838583 2.657481,-0.779527 5.350394,-0.992126 7.476378,-1.098425 L 50.350393,54 l -16.370078,0 0,16.051181 c -0.318898,3.295275 -3.047245,5.917323 -5.988189,5.952756 l -22.0039371,0 C 2.7637795,75.685039 0.10629921,73.027559 0,70.086614 L 0,5.988189 C 0.56692913,2.7283464 2.9055118,0.07086614 5.9881889,0 z m 0,4.003937 -22.0393701,0 C 4.8188976,4.2519685 4.3937007,4.9606299 4.003937,5.988189 l 0,64.062992 C 4.2874015,71.149606 5.031496,71.645669 5.9881889,72 l 22.0039371,0 c 1.133858,-0.248032 1.594488,-0.885827 1.984252,-1.913386 l 0,-16.192913 C 28.594488,53.751968 27.318897,53.326771 26.220472,52.405512 24.23622,49.889764 24.023622,49.003937 24.059055,45 l -16.0511811,0 0,-1.984252 16.0511811,0 0,-13.003937 -15.0590551,0 C 6.4842519,29.905512 5.031496,28.27559 4.9960629,26.007874 l 0,-2.019685 c 0.1062992,-2.515748 1.7007874,-3.968504 4.003937,-3.968504 l 15.0590551,0 0,-2.019685 -15.0590551,0 C 6.4842519,17.893701 5.031496,16.263779 4.9960629,13.996063 l 0,-1.984252 C 5.1023621,9.4606299 6.6968503,8.0433071 8.9999999,8.007874 l 15.7677161,0 C 25.086614,7.2637795 25.511811,6.6259842 26.07874,6.0590551 26.858267,5.2440945 27.850393,4.7125984 28.984252,4.3937008 28.629921,4.1456693 28.27559,4.003937 28.027559,4.003937 z m 56.019684,4.003937 -52.15748,0 c -1.594488,0 -2.444881,0.3543307 -2.976378,0.8858268 -0.496063,0.4960629 -0.885826,1.3818902 -0.885826,3.0118112 l 0,34.192913 c 0,2.19685 0.389763,2.905512 0.779527,3.259843 0.425197,0.318897 1.417323,0.637795 3.295276,0.637795 l 51.874015,0 c 1.665354,0 2.551181,-0.389764 3.047244,-0.885827 0.531496,-0.531496 0.92126,-1.417323 0.956693,-3.11811 0,-11.30315 0,-22.641732 0.03543,-33.944882 C 87.980314,10.346457 87.59055,9.4606299 87.059054,8.8937008 85.889763,8.2204724 85.074802,8.007874 84.047243,8.007874 z m 0.956693,3.011811 0,36 -53.964566,0 0,-36 53.964566,0 z m -1.984252,1.984252 -49.996062,0 0,31.996063 49.996062,0 z m -66.01181,39.968504 c 2.19685,0 3.968504,1.842519 3.968504,4.03937 0,1.559055 -0.885827,2.905512 -2.196851,3.543307 0.744095,0.566929 1.204725,1.452756 1.204725,2.444882 0,1.665354 -1.346457,3.011811 -3.011811,3.011811 -1.629922,0 -2.976378,-1.346457 -2.976378,-3.011811 0,-0.992126 0.496063,-1.877953 1.240157,-2.444882 -1.311023,-0.637795 -2.19685,-1.984252 -2.19685,-3.543307 0,-2.196851 1.771653,-4.03937 3.968504,-4.03937 z m 0,2.019685 c -1.098425,0 -2.019685,0.885827 -2.019685,2.019685 0,1.098425 0.92126,1.948819 2.019685,1.948819 1.133858,0 2.019685,-0.850394 2.019685,-1.948819 0,-1.133858 -0.885827,-2.019685 -2.019685,-2.019685 z" style="" fill="#002451" fill-opacity="1" fill-rule="nonzero" stroke="none"></path></g></g></svg>