<?xml version="1.0" encoding="UTF-8" standalone="no"?>
<!-- Created with Inkscape (http://www.inkscape.org/) -->

<svg
   xmlns:dc="http://purl.org/dc/elements/1.1/"
   xmlns:cc="http://creativecommons.org/ns#"
   xmlns:rdf="http://www.w3.org/1999/02/22-rdf-syntax-ns#"
   xmlns:svg="http://www.w3.org/2000/svg"
   xmlns="http://www.w3.org/2000/svg"
   xmlns:sodipodi="http://sodipodi.sourceforge.net/DTD/sodipodi-0.dtd"
   xmlns:inkscape="http://www.inkscape.org/namespaces/inkscape"
   width="256"
   height="256"
   viewBox="0 0 67.733332 67.733335"
   version="1.1"
   id="svg479"
   inkscape:version="0.92.1 15371"
   sodipodi:docname="crm.svg">
  <defs
     id="defs473" />
  <sodipodi:namedview
     id="base"
     pagecolor="#ffffff"
     bordercolor="#666666"
     borderopacity="1.0"
     inkscape:pageopacity="0.0"
     inkscape:pageshadow="2"
     inkscape:zoom="2.0898438"
     inkscape:cx="128"
     inkscape:cy="128"
     inkscape:document-units="mm"
     inkscape:current-layer="layer1"
     showgrid="false"
     units="px"
     inkscape:window-width="1366"
     inkscape:window-height="709"
     inkscape:window-x="0"
     inkscape:window-y="35"
     inkscape:window-maximized="1" />
  <metadata
     id="metadata476">
    <rdf:RDF>
      <cc:Work
         rdf:about="">
        <dc:format>image/svg+xml</dc:format>
        <dc:type
           rdf:resource="http://purl.org/dc/dcmitype/StillImage" />
        <dc:title />
      </cc:Work>
    </rdf:RDF>
  </metadata>
  <g
     inkscape:label="Layer 1"
     inkscape:groupmode="layer"
     id="layer1"
     transform="translate(0,-229.26665)">
    <g
       style="fill:#002451"
       id="g8878"
       transform="matrix(0.12196231,0,0,0.14944839,1.9974692,242.24583)">
      <g
         id="g8829">
        <path
           id="path8753"
           d="m 209.887,119.129 c 11.322,0 20.501,-9.178 20.501,-20.499 0,-11.323 -9.179,-20.5 -20.501,-20.5 -4.729,0 -9.071,1.618 -12.54,4.308 -1.332,4.732 -3.975,8.8 -7.489,11.854 -0.302,1.399 -0.47,2.849 -0.47,4.339 0,11.32 9.178,20.498 20.499,20.498 z"
           inkscape:connector-curvature="0" />
        <path
           id="path8755"
           d="m 124.889,132.695 c -9.535,0.062 -19.362,-4.746 -26.693,-9.959 -1.699,-1.197 -3.252,-2.398 -4.644,-3.54 -4.506,-6.314 -10.102,-10.134 -17.049,-10.134 -9.93,0 -17.098,7.804 -22.266,19.546 9.345,-5.827 17.138,-8.246 19.614,-8.915 l 0.015,-0.004 0.087,-0.025 c 0.771,-0.195 1.563,-0.295 2.351,-0.295 4.344,0 8.126,2.945 9.201,7.16 1.288,5.075 -1.79,10.256 -6.865,11.547 l -0.173,0.05 c -0.22,0.064 -0.567,0.169 -1.03,0.32 -0.894,0.295 -2.338,0.809 -4.138,1.577 -3.259,1.389 -8.241,3.855 -13.473,7.729 -5.886,4.398 -10.772,9.526 -14.649,15.342 -2.445,15.858 -3.466,32.541 -3.849,46.04 h 9.673 2.469 l -0.512,2.415 -5.394,25.427 H 64.1 v 43.258 c 0,6.626 5.373,12 12.001,12 6.626,0 12,-5.374 12,-12 v -43.258 h 23.581 c 0,0 2.205,-56.058 -7.972,-93.953 5.824,2.515 12.365,4.333 19.462,4.617 0.329,-5.011 1.043,-9.888 2.153,-14.96 -0.144,0.004 -0.291,0.015 -0.436,0.015 z"
           inkscape:connector-curvature="0" />
        <path
           id="path8757"
           d="m 419.474,184.502 h 10.616 l 8.051,-10.114 -14.482,-11.527 -3.098,3.891 c -0.785,5.9 -1.257,11.915 -1.087,17.75 z"
           inkscape:connector-curvature="0" />
        <path
           id="path8759"
           d="m 327.279,171.865 v -17.333 h -42.92 v 0.038 c 5.302,2.695 11.262,4.264 18.109,4.732 2.661,0.178 5.098,1.381 6.857,3.393 0.369,0.422 0.689,0.873 0.978,1.34 h 7.266 2.001 v 0.002 1.999 8.492 l 0.497,2.309 1.651,7.665 h 22.482 2.662 0.07 c -1.152,-2.288 -1.393,-4.881 -0.657,-7.343 1.614,-5.418 3.737,-10.301 6.178,-14.718 v -4.409 H 332.4 v 11.832 2.001 z"
           inkscape:connector-curvature="0" />
        <path
           id="path8761"
           d="m 264.88,175.024 0.004,0.073 c 0.071,1.238 0.109,2.355 0.105,3.401 0.615,1.504 1.387,3.523 2.22,6.004 h 39.65 l -1.285,-5.966 c -1.167,0.479 -2.439,0.744 -3.769,0.744 -0.224,0 -0.449,-0.008 -0.676,-0.023 -4.837,-0.316 -9.458,-1.075 -13.85,-2.255 h -0.268 v -0.072 c -6.424,-1.755 -12.352,-4.424 -17.711,-8.001 -1.735,-1.155 -3.402,-2.408 -5.01,-3.741 -0.013,3.315 0.151,6.59 0.577,9.764 z"
           inkscape:connector-curvature="0" />
        <path
           id="path8763"
           d="m 225.171,173.01 -0.015,-0.073 -0.009,-0.076 c -0.039,-0.34 -0.069,-0.659 -0.107,-0.995 h -0.014 v 12.637 h 5.022 c -2.334,-2.979 -3.969,-6.813 -4.877,-11.493 z"
           inkscape:connector-curvature="0" />
        <path
           id="path8765"
           d="m 322.934,259.128 -1.931,-8.967 h -48.446 c -0.444,2.996 -0.979,5.985 -1.607,8.967 z"
           inkscape:connector-curvature="0" />
        <path
           id="path8767"
           d="m 273.875,237.713 43.041,-6.521 -9.626,-44.689 h -39.431 c 2.932,9.281 6.295,23.857 6.314,41.939 10e-4,3.091 -0.104,6.182 -0.298,9.271 z"
           inkscape:connector-curvature="0" />
        <path
           id="path8769"
           d="m 238.62,190.661 c -2.608,-0.94 -4.863,-2.332 -6.767,-4.158 h -12.749 l -2.534,-11.764 v -8.703 h -6.307 c 0.425,1.239 0.605,2.562 0.516,3.909 -0.211,3.171 -1.907,5.917 -4.372,7.597 l 17.573,81.586 h 17.173 c 0.781,-2.979 1.454,-5.97 2.008,-8.967 h -10.345 l -1.299,-6.031 12.846,-1.946 c 0.535,-4.575 0.808,-9.159 0.81,-13.739 0.016,-18.343 -4.335,-32.013 -6.553,-37.784 z"
           inkscape:connector-curvature="0" />
        <path
           id="path8771"
           d="m 237.336,271.247 c 0.246,-0.665 0.48,-1.331 0.715,-1.998 -0.812,-0.221 -1.661,-0.349 -2.542,-0.349 -5.346,0 -9.679,4.334 -9.679,9.678 0,5.346 4.333,9.679 9.679,9.679 1.965,0 3.791,-0.59 5.317,-1.597 -3.973,-3.881 -5.539,-9.88 -3.49,-15.413 z"
           inkscape:connector-curvature="0" />
        <path
           id="path8773"
           d="m 324.831,278.578 c 0,-2.511 0.804,-4.832 2.158,-6.738 -1.759,-1.81 -4.216,-2.939 -6.939,-2.939 -5.344,0 -9.678,4.334 -9.678,9.678 0,5.346 4.334,9.679 9.678,9.679 2.724,0 5.181,-1.129 6.939,-2.939 -1.353,-1.908 -2.158,-4.23 -2.158,-6.741 z"
           inkscape:connector-curvature="0" />
        <ellipse
           id="ellipse8775"
           ry="22.495001"
           rx="22.493"
           cy="75.778999"
           cx="173.797"
           transform="matrix(0.2268,-0.9739,0.9739,0.2268,60.5788,227.8626)" />
        <path
           id="path8777"
           d="m 149.912,149.723 c -7.338,-11.874 -9.531,-23.149 -10.028,-26.324 l -0.018,-0.119 c -0.373,-2.722 0.319,-5.35 1.936,-7.475 1.616,-2.128 3.965,-3.496 6.611,-3.854 0.451,-0.063 0.91,-0.094 1.362,-0.094 4.968,0 9.223,3.721 9.895,8.653 l 0.021,0.121 0.086,0.484 c 0.092,0.494 0.263,1.322 0.538,2.428 0.499,1.981 1.408,5.076 2.914,8.567 0.465,1.08 1.008,2.237 1.629,3.439 0.811,-4.156 1.636,-8.07 2.326,-11.598 2.869,-9.953 -0.885,-21.865 -9.42,-23.992 -8.537,-2.129 -20.912,2.508 -25.947,17.15 -6.805,20.174 -8.268,33.305 -5.682,55.519 1.985,10.217 7.155,14.612 13.009,16.434 2.157,5.381 7.049,19.801 7.029,39.381 -0.005,12.592 -1.981,27.331 -7.961,43.496 -2.396,6.474 0.909,13.664 7.383,16.063 1.431,0.529 2.896,0.78 4.338,0.781 5.08,0 9.857,-3.121 11.725,-8.164 7.093,-19.148 9.52,-36.954 9.518,-52.176 -0.025,-24.669 -6.257,-42.503 -9.186,-49.554 0.012,-1.113 -0.021,-2.333 -0.101,-3.675 -0.51,-3.807 -0.654,-7.757 -0.563,-11.749 -4.335,-3.924 -8.164,-8.513 -11.414,-13.742 z"
           inkscape:connector-curvature="0" />
        <path
           id="path8779"
           d="m 208.782,169.813 c 0.294,-4.408 -3.042,-8.222 -7.449,-8.514 -9.955,-0.681 -17.288,-3.533 -23.06,-7.355 -8.62,-5.717 -13.848,-13.993 -16.882,-21.04 -1.513,-3.505 -2.461,-6.657 -3.018,-8.875 -0.278,-1.108 -0.458,-1.981 -0.564,-2.548 -0.054,-0.283 -0.087,-0.487 -0.106,-0.608 -0.007,-0.042 -0.012,-0.073 -0.016,-0.094 h 10e-4 c -0.598,-4.378 -4.63,-7.445 -9.007,-6.847 -4.378,0.594 -7.443,4.627 -6.848,9.005 v -0.002 c 0.115,0.646 1.722,12.696 9.777,25.731 4.038,6.499 9.768,13.254 17.8,18.599 8.017,5.351 18.314,9.177 30.857,9.997 0.18,0.013 0.359,0.019 0.536,0.019 4.178,-0.001 7.698,-3.241 7.979,-7.468 z"
           inkscape:connector-curvature="0" />
        <path
           id="path8781"
           d="m 377.575,161.532 c -5.669,6.194 -9.738,13.326 -12.131,21.343 -0.169,0.567 -0.392,1.109 -0.652,1.627 h 14.973 c -0.793,-8.505 -0.905,-15.826 -0.236,-22.97 z"
           inkscape:connector-curvature="0" />
        <path
           id="path8783"
           d="m 431.135,250.161 h -24.7 c -1.813,3.066 -3.838,6.059 -6.068,8.967 h 30.768 z"
           inkscape:connector-curvature="0" />
        <path
           id="path8785"
           d="m 419.559,186.503 c 0.059,1.045 0.133,2.085 0.237,3.113 5.645,4.868 11.129,10.305 16.308,16.169 0.89,1.008 1.756,2.027 2.617,3.048 l 6.482,-22.33 z"
           inkscape:connector-curvature="0" />
        <path
           id="path8787"
           d="m 415.964,226.816 c -0.398,1.638 -0.848,3.263 -1.343,4.875 l 4.753,-0.72 c -1.164,-1.471 -2.308,-2.864 -3.41,-4.155 z"
           inkscape:connector-curvature="0" />
        <path
           id="path8789"
           d="m 355.864,190.019 c -0.966,0 -1.929,-0.14 -2.861,-0.418 -1.879,-0.562 -3.512,-1.639 -4.751,-3.098 h -4.049 -24.099 l -2.534,-11.764 v -8.703 h -6.307 c 0.425,1.239 0.604,2.562 0.516,3.909 -0.211,3.171 -1.907,5.917 -4.372,7.597 l 17.573,81.586 h 5.154 28.136 c 4.188,-2.836 7.941,-5.819 11.277,-8.967 h -35.731 l -1.299,-6.031 48.069,-7.283 c 0.822,-1.31 1.6,-2.64 2.319,-3.999 4.254,-8.093 6.415,-16.749 6.424,-25.718 0,-0.707 -0.014,-1.421 -0.044,-2.13 -4.588,-3.146 -7.605,-8.314 -8.982,-15.382 l -0.015,-0.076 -0.009,-0.074 c -0.117,-1.012 -0.218,-1.987 -0.318,-2.965 h -16.509 c -1.864,2.17 -4.621,3.516 -7.588,3.516 z"
           inkscape:connector-curvature="0" />
        <path
           id="path8791"
           d="m 336.509,268.901 c -5.346,0 -9.679,4.334 -9.679,9.678 0,5.346 4.333,9.679 9.679,9.679 3.74,0 6.979,-2.127 8.591,-5.233 -1.738,-3.366 -2.041,-7.127 -1.083,-10.548 -1.776,-2.181 -4.479,-3.576 -7.508,-3.576 z"
           inkscape:connector-curvature="0" />
        <circle
           id="circle8793"
           r="9.6780005"
           cy="278.578"
           cx="421.04999" />
        <ellipse
           id="ellipse8795"
           ry="22.495001"
           rx="22.493"
           cy="75.778999"
           cx="274.797"
           transform="matrix(0.2268,-0.9739,0.9739,0.2268,138.667,326.2274)" />
        <path
           id="path8797"
           d="m 272.174,228.444 c -0.025,-24.669 -6.257,-42.503 -9.186,-49.554 0.012,-1.113 -0.021,-2.333 -0.101,-3.675 -0.51,-3.807 -0.654,-7.757 -0.563,-11.749 -4.333,-3.926 -8.162,-8.515 -11.412,-13.744 -7.338,-11.874 -9.531,-23.149 -10.028,-26.324 l -0.018,-0.119 c -0.373,-2.722 0.319,-5.35 1.936,-7.475 1.616,-2.128 3.965,-3.496 6.611,-3.854 0.451,-0.063 0.91,-0.094 1.362,-0.094 4.968,0 9.223,3.721 9.895,8.653 l 0.02,0.121 0.086,0.484 c 0.092,0.494 0.263,1.322 0.538,2.428 0.499,1.981 1.408,5.076 2.914,8.567 0.465,1.08 1.008,2.237 1.629,3.439 0.81,-4.156 1.636,-8.07 2.326,-11.598 2.869,-9.953 -0.885,-21.865 -9.42,-23.992 -8.537,-2.129 -20.912,2.508 -25.947,17.15 -6.805,20.174 -8.268,33.305 -5.682,55.519 1.985,10.217 7.155,14.612 13.009,16.434 2.157,5.381 7.049,19.801 7.029,39.381 -0.005,12.592 -1.981,27.331 -7.961,43.496 -2.396,6.474 0.909,13.664 7.383,16.063 1.431,0.529 2.896,0.78 4.338,0.781 5.08,0 9.857,-3.121 11.725,-8.164 7.092,-19.146 9.519,-36.952 9.517,-52.174 z"
           inkscape:connector-curvature="0" />
        <path
           id="path8799"
           d="m 262.392,132.903 c -1.513,-3.505 -2.461,-6.657 -3.018,-8.875 -0.278,-1.108 -0.458,-1.981 -0.564,-2.548 -0.054,-0.283 -0.087,-0.487 -0.106,-0.608 -0.007,-0.042 -0.012,-0.073 -0.016,-0.094 h 0.001 c -0.598,-4.378 -4.63,-7.445 -9.007,-6.847 -4.378,0.594 -7.443,4.627 -6.848,9.005 v -0.002 c 0.115,0.646 1.722,12.696 9.777,25.731 4.038,6.499 9.768,13.254 17.8,18.599 8.017,5.351 18.314,9.177 30.857,9.997 0.18,0.013 0.359,0.019 0.536,0.019 4.177,0 7.696,-3.24 7.978,-7.468 0.294,-4.408 -3.042,-8.222 -7.449,-8.514 -9.955,-0.681 -17.288,-3.533 -23.06,-7.355 -8.62,-5.716 -13.847,-13.993 -16.881,-21.04 z"
           inkscape:connector-curvature="0" />
        <ellipse
           id="ellipse8801"
           ry="22.495001"
           rx="22.493999"
           cy="90.281998"
           cx="425.983"
           transform="matrix(0.2268,-0.9739,0.9739,0.2268,241.4455,484.6913)" />
        <path
           id="path8803"
           d="m 492.7,134.251 c -1.251,-4.236 -5.7,-6.657 -9.936,-5.406 -8.454,2.492 -16.104,3.454 -22.957,3.454 -12.991,0 -23.201,-3.465 -30.177,-6.9 -3.483,-1.717 -6.138,-3.421 -7.873,-4.655 -0.866,-0.616 -1.503,-1.114 -1.895,-1.434 -0.196,-0.16 -0.333,-0.276 -0.407,-0.339 -0.02,-0.018 -0.036,-0.032 -0.047,-0.041 -0.013,-0.013 -0.016,-0.014 -0.016,-0.014 h -10e-4 c -1.267,-1.146 -2.802,-1.806 -4.38,-2 -0.363,-0.134 -0.732,-0.256 -1.115,-0.351 -7.289,-1.817 -17.372,1.303 -23.3,11.366 6.742,-3.159 11.948,-4.638 13.833,-5.114 l 0.014,-0.005 0.092,-0.021 c 0.766,-0.185 1.55,-0.276 2.331,-0.276 4.642,0 8.638,3.156 9.718,7.676 0.623,2.595 0.195,5.277 -1.202,7.555 -1.395,2.278 -3.597,3.873 -6.194,4.493 l -0.163,0.047 c -0.219,0.057 -0.554,0.15 -1,0.284 -1.278,0.389 -2.62,0.851 -3.983,1.368 -3.138,1.197 -7.96,3.303 -13.108,6.541 -3.24,2.047 -6.208,4.266 -8.897,6.65 -1.395,9.741 -1.241,19.449 0.232,32.105 1.511,7.773 4.866,12.173 8.962,14.638 0.062,0.994 0.101,2.081 0.101,3.259 -0.007,6.844 -1.271,16.405 -6.655,26.653 -5.42,10.24 -14.931,21.475 -32.889,31.733 -6.001,3.415 -8.097,11.047 -4.682,17.048 3.413,6.001 11.045,8.097 17.046,4.682 21.615,-12.263 35.035,-27.271 42.653,-41.834 4.225,-8.037 6.689,-15.845 8.049,-22.895 0.688,0.762 1.381,1.547 2.079,2.355 11.04,12.767 23.168,31.212 29.083,54.694 1.431,5.667 6.522,9.444 12.111,9.445 1.013,0 2.041,-0.124 3.067,-0.383 6.693,-1.689 10.751,-8.484 9.063,-15.176 l -0.003,-0.003 c -7.396,-29.262 -22.496,-51.448 -35.646,-66.345 -6.328,-7.157 -12.224,-12.656 -16.716,-16.491 -1.933,-16.92 2.748,-36.387 5.424,-50.06 0.038,-0.131 0.069,-0.263 0.104,-0.395 8.663,4.148 21.023,8.137 36.387,8.137 4.801,0 9.895,-0.408 15.23,-1.295 l -0.654,2.136 -3.828,12.496 h -13.388 l 7,33 h 37 l 7,-33 h -13.388 l -5.001,-16.324 -0.603,-1.966 c 3.03,-1.836 4.576,-5.535 3.525,-9.092 z m -18.158,53.47 h -4.5 v -19.25 h 4.5 z m 10.375,0 h -4.5 v -19.25 h 4.5 z m 5.875,-19.25 h 4.5 v 19.25 h -4.5 z m -15.793,-6.834 4.09,-13.353 0.665,-2.171 c 1.778,-0.384 3.588,-0.839 5.416,-1.338 l 0.586,1.914 4.579,14.947 h -15.336 z"
           inkscape:connector-curvature="0" />
        <path
           id="path8805"
           d="m 353.574,187.684 c 0.763,0.227 1.532,0.335 2.289,0.335 3.446,0.001 6.629,-2.244 7.664,-5.716 4.965,-16.634 16.061,-27.023 26.341,-33.516 5.114,-3.217 9.96,-5.383 13.464,-6.717 1.753,-0.668 3.17,-1.128 4.113,-1.415 0.471,-0.142 0.824,-0.238 1.045,-0.298 0.108,-0.03 0.184,-0.049 0.226,-0.06 l 0.007,-0.003 c 4.296,-1.028 6.946,-5.346 5.918,-9.641 -1.029,-4.297 -5.347,-6.946 -9.641,-5.918 h -0.003 c -0.544,0.143 -11.202,2.703 -23.645,10.507 -12.387,7.757 -26.791,21.12 -33.159,42.487 -1.262,4.234 1.147,8.691 5.381,9.955 z"
           inkscape:connector-curvature="0" />
        <circle
           id="circle8807"
           r="18.834"
           cy="102.204"
           cx="327.802" />
        <circle
           id="circle8809"
           r="18.833"
           cy="72.871002"
           cx="368.802" />
        <circle
           id="ellipse8811"
           cy="82.462997"
           cx="89.361"
           transform="matrix(0.2268,-0.9739,0.9739,0.2268,-11.2191,150.7944)"
           r="22.495001" />
        <path
           id="path8813"
           d="m 37.612,211.137 -5.316,-17.355 c -1.089,0.95 -2.392,1.651 -3.824,2.026 l 4.696,15.328 H 17.832 l 4.795,-15.652 c -1.435,-0.553 -2.679,-1.439 -3.663,-2.548 l -5.576,18.2 H 0 l 7,33 h 37 l 7,-33 H 37.612 Z m -20.237,26.084 h -4.5 v -19.25 h 4.5 z m 10.375,0 h -4.5 v -19.25 h 4.5 z m 10.375,0 h -4.5 v -19.25 h 4.5 z"
           inkscape:connector-curvature="0" />
        <path
           id="path8815"
           d="m 24.788,194.015 c 0.425,0.072 0.848,0.107 1.266,0.107 3.592,0 6.766,-2.586 7.387,-6.243 3.68,-21.362 14.774,-33.945 25.195,-41.732 5.202,-3.854 10.221,-6.406 13.877,-7.963 1.825,-0.779 3.311,-1.311 4.301,-1.637 0.494,-0.162 0.864,-0.274 1.095,-0.341 0.114,-0.033 0.192,-0.056 0.232,-0.066 l 0.006,-0.002 c 4.014,-1.021 6.439,-5.102 5.418,-9.115 -1.022,-4.017 -5.103,-6.441 -9.116,-5.42 -0.598,0.166 -12.01,3.088 -24.739,12.49 -12.703,9.338 -26.735,25.63 -31.055,51.27 -0.697,4.081 2.051,7.956 6.133,8.652 z"
           inkscape:connector-curvature="0" />
        <path
           id="path8817"
           d="m 521.529,42.233 c -0.596,-8.262 -7.982,-10.811 -14.9,-9.982 5.338,-8.085 -0.633,-16.124 -10.168,-18.908 -4.709,-1.375 -10.167,-1.188 -14.456,1.324 -5.172,3.029 -6.109,9.139 -5.57,14.631 -8.306,-2.389 -16.107,1.265 -17.009,11.032 -0.961,10.424 7.699,17.288 17.602,15.886 2.271,-0.322 0.063,-2.21 -1.314,-2.016 -18.598,2.633 -15.788,-30.163 1.925,-22.462 0.564,0.245 2.541,0.551 2.371,-0.601 -1.521,-10.321 4.297,-18.617 15.358,-16.124 3.844,0.866 7.485,3.139 9.402,6.638 2.397,4.375 -0.513,9.012 -3.597,12.084 -0.999,0.996 1.961,1.852 2.611,1.607 7.009,-2.64 13.794,-1.178 14.396,7.186 0.45,6.242 -4.352,11.162 -10.559,9.141 -1.618,-0.527 -2.66,0.848 -0.905,1.687 5.421,2.592 6.716,7.803 3.082,12.516 -4.81,6.238 -12.661,4.318 -17.506,-0.642 -0.415,-0.425 -1.434,-0.614 -2.185,-0.522 1.033,-0.996 2.001,-2.058 2.868,-3.205 0.433,-0.572 -1.87,-2.932 -1.832,-2.982 -4.425,5.854 -11.228,9.727 -18.337,11.599 4.256,-4.407 8.777,-9.923 8.738,-15.255 -0.007,-0.955 -1.871,-2.49 -1.873,-2.811 0.051,7.014 -8.144,14.55 -12.778,19.164 -0.288,0.287 1.383,3.03 1.832,2.982 7.318,-0.779 14.913,-3.698 20.543,-8.706 0.052,0.127 0.142,0.267 0.297,0.427 5.526,5.658 14.81,8.728 21.544,3.048 5.618,-4.739 5.037,-10.762 0.57,-14.77 6.038,-0.152 10.356,-4.94 9.85,-11.966 z"
           inkscape:connector-curvature="0" />
        <path
           id="path8819"
           d="m 482.65,48.294 c 5.283,-3.319 12.591,-1.267 14.737,4.89 0.459,1.319 2.183,2.641 1.391,0.369 -2.52,-7.23 -10.205,-13.084 -17.63,-8.42 -0.772,0.485 0.885,3.549 1.502,3.161 z"
           inkscape:connector-curvature="0" />
        <path
           id="path8821"
           d="m 341.781,22.48 c 4.007,-2.223 5.23,-6.961 2.421,-11.509 -3.304,-5.349 -9.168,-4.468 -13.53,-1.479 0.75,-7.314 -6.091,-10.624 -13.482,-9.146 -3.651,0.73 -7.257,2.773 -9.26,5.969 -2.415,3.855 -0.898,8.295 1.394,11.8 -6.427,1.311 -10.391,6.51 -7.565,13.397 3.016,7.35 11.252,8.924 17.421,4.502 1.415,-1.014 -0.734,-1.509 -1.592,-0.894 -11.586,8.305 -21.218,-14.743 -6.598,-15.787 0.465,-0.033 1.903,-0.522 1.384,-1.237 -4.65,-6.409 -3.65,-14.033 4.665,-16.243 2.89,-0.768 6.138,-0.518 8.657,1.162 3.15,2.1 2.821,6.243 1.826,9.392 -0.322,1.021 1.97,0.557 2.321,0.164 3.787,-4.239 8.865,-5.639 12.209,-0.224 2.496,4.04 0.993,9.038 -3.891,9.858 -1.275,0.214 -1.492,1.505 -0.017,1.453 4.558,-0.161 7.259,2.889 6.471,7.337 -1.043,5.885 -7,7.353 -12.001,5.719 -0.43,-0.14 -1.181,0.09 -1.653,0.416 0.345,-1.032 0.623,-2.087 0.803,-3.163 0.09,-0.537 -2.287,-1.315 -2.28,-1.362 -0.919,5.492 -4.135,10.488 -8.26,14.245 1.315,-4.46 2.419,-9.759 0.518,-13.332 -0.34,-0.64 -2.133,-1.017 -2.247,-1.232 2.499,4.701 -0.366,12.648 -1.862,17.381 -0.093,0.294 1.995,1.552 2.28,1.362 4.649,-3.095 8.732,-7.727 10.76,-13.074 0.08,0.067 0.189,0.13 0.35,0.183 5.706,1.864 13.029,0.668 15.563,-5.52 2.114,-5.164 -0.392,-9.011 -4.805,-10.138 z"
           inkscape:connector-curvature="0" />
        <path
           id="path8823"
           d="m 331.811,26.819 c 0.773,0.726 2.396,1.01 1.065,-0.24 -4.236,-3.978 -11.463,-5.216 -14.818,0.53 -0.349,0.598 1.843,2.077 2.121,1.599 2.387,-4.089 8.024,-5.276 11.632,-1.889 z"
           inkscape:connector-curvature="0" />
        <path
           id="path8825"
           d="m 119.954,36.013 c 1.415,-1.014 -0.734,-1.509 -1.592,-0.894 -11.586,8.305 -21.218,-14.743 -6.598,-15.787 0.465,-0.033 1.903,-0.522 1.384,-1.237 -4.65,-6.409 -3.65,-14.033 4.665,-16.243 2.89,-0.768 6.138,-0.518 8.657,1.162 3.149,2.1 2.821,6.243 1.826,9.392 -0.322,1.021 1.97,0.557 2.321,0.164 3.787,-4.239 8.865,-5.639 12.209,-0.224 2.496,4.04 0.993,9.038 -3.891,9.858 -1.274,0.214 -1.492,1.505 -0.017,1.453 4.558,-0.161 7.259,2.889 6.471,7.337 -1.043,5.885 -7,7.353 -12.001,5.719 -0.43,-0.14 -1.181,0.09 -1.653,0.416 0.345,-1.032 0.623,-2.087 0.803,-3.163 0.09,-0.537 -2.287,-1.315 -2.28,-1.362 -0.919,5.492 -4.135,10.488 -8.26,14.245 1.315,-4.46 2.419,-9.759 0.518,-13.332 -0.34,-0.64 -2.133,-1.017 -2.247,-1.232 2.499,4.701 -0.366,12.648 -1.862,17.381 -0.093,0.294 1.995,1.552 2.28,1.362 4.649,-3.095 8.732,-7.727 10.76,-13.074 0.08,0.067 0.189,0.13 0.35,0.183 5.706,1.864 13.029,0.668 15.562,-5.52 2.114,-5.162 -0.392,-9.009 -4.805,-10.136 4.007,-2.223 5.23,-6.961 2.421,-11.509 -3.304,-5.349 -9.168,-4.468 -13.53,-1.479 0.75,-7.314 -6.091,-10.624 -13.482,-9.146 -3.651,0.73 -7.257,2.773 -9.26,5.969 -2.415,3.855 -0.899,8.295 1.393,11.8 -6.427,1.311 -10.391,6.51 -7.564,13.397 3.017,7.348 11.253,8.922 17.422,4.5 z"
           inkscape:connector-curvature="0" />
        <path
           id="path8827"
           d="m 132.585,26.819 c 0.773,0.726 2.396,1.01 1.065,-0.24 -4.236,-3.978 -11.463,-5.216 -14.818,0.53 -0.349,0.598 1.843,2.077 2.121,1.599 2.388,-4.089 8.025,-5.276 11.632,-1.889 z"
           inkscape:connector-curvature="0" />
      </g>
    </g>
  </g>
</svg>
