<svg fill="#FFFFFF" xmlns="http://www.w3.org/2000/svg" xmlns:xlink="http://www.w3.org/1999/xlink" version="1.1" x="0px" y="0px" viewBox="0 0 96 96" enable-background="new 0 0 96 96" xml:space="preserve"><g><path d="M81.716,33.061l5.742,3.379c0.305,0.18,0.64,0.266,0.97,0.266c0.657,0,1.297-0.338,1.653-0.945   c0.537-0.912,0.232-2.086-0.68-2.623L48.972,9.348c-0.6-0.352-1.344-0.352-1.943,0L6.599,33.137   c-0.912,0.537-1.217,1.711-0.68,2.623c0.536,0.912,1.711,1.217,2.623,0.68l5.742-3.379v53.855H37.68H58.32h23.396V33.061z    M58.572,65.291l2.814,1.021l5.318,5.318l-3.46,3.461l-5.318-5.318l-1.021-2.816l-7.724-7.725L34.566,73.848   c-1.343,1.344-3.521,1.348-4.866,0.002c-1.341-1.342-1.344-3.523,0.003-4.863l12.84-12.842L29.926,43.527   c-1.441-1.439-1.444-3.775-0.001-5.219c1.439-1.438,3.778-1.441,5.217,0.002l12.617,12.617l2.679-2.678   c-0.527-1.133-0.846-2.387-0.846-3.719c0-3.314,1.821-6.197,4.513-7.719l0.004,7.76l4.342,3.006l4.343-3.004l-0.001-7.76   c2.692,1.52,4.514,4.402,4.514,7.713c0,4.893-3.964,8.861-8.858,8.857c-1.017,0-2.896-0.523-2.896-0.523l-4.704,4.705   L58.572,65.291z"></path><circle cx="32.12" cy="71.431" r="0.915"></circle><path d="M49.835,52.197L49.432,52.6l-1.775,1.775l-1.666,1.666l-1.775,1.775l-0.403,0.404c-0.357,0.357-0.357,0.936,0,1.293   c0.356,0.357,0.937,0.357,1.294,0l2.179-2.178l1.666-1.666l2.179-2.18c0.357-0.357,0.357-0.938,0-1.293   C50.771,51.84,50.192,51.84,49.835,52.197z"></path></g></svg>