<svg fill="#FFFFFF" xmlns="http://www.w3.org/2000/svg" xmlns:xlink="http://www.w3.org/1999/xlink" viewBox="0 0 60 60" version="1.1" x="0px" y="0px"><title>41 -Crane- (Solid)</title><desc>Created with Sketch.</desc><g stroke="none" stroke-width="1" fill="none" fill-rule="evenodd"><g transform="translate(-118.000000, -829.000000)" fill="#FFFFFF"><g transform="translate(118.000000, 829.000000)"><path d="M42.9987,39.5216 L46.9997,36.7206 L50.9997,39.5206 L50.9997,41.9996 L42.9997,41.9996 L42.9987,39.5216 Z M2.7667,12.0006 L9.5077,12.0006 L12.7077,16.0006 L9.5077,20.0006 L7.5667,20.0006 L2.7667,12.0006 Z M46.0457,1.9996 L47.9417,1.9996 L50.8147,10.6086 L46.9997,13.2796 L43.1747,10.6016 L46.0457,1.9996 Z M50.9997,33.9206 L50.9997,37.0796 L48.7437,35.4996 L50.9997,33.9206 Z M43.7437,31.9996 L46.9997,29.7206 L50.2567,31.9996 L46.9997,34.2796 L43.7437,31.9996 Z M42.9967,33.9176 L45.2567,35.4996 L42.9977,37.0806 L42.9967,33.9176 Z M42.9917,21.1186 C42.9927,21.1066 42.9907,21.0946 42.9917,21.0816 L42.9917,21.0426 C42.9927,21.0276 42.9997,21.0156 42.9997,21.0006 L42.9997,19.9206 L45.2567,21.4996 L42.9927,23.0846 L42.9917,21.1186 Z M37.9997,17.6006 L39.9197,20.0006 L36.0807,20.0006 L37.9997,17.6006 Z M29.9937,17.6086 L31.9077,20.0006 L28.0807,20.0006 L29.9937,17.6086 Z M21.9877,17.6006 L23.9077,20.0006 L20.0687,20.0006 L21.9877,17.6006 Z M13.9877,14.3996 L12.0687,12.0006 L15.9077,12.0006 L13.9877,14.3996 Z M17.9877,12.6006 L20.7077,16.0006 L17.9877,19.3996 L15.2687,16.0006 L17.9877,12.6006 Z M21.9877,14.3996 L20.0687,12.0006 L23.9077,12.0006 L21.9877,14.3996 Z M29.9937,14.3926 L28.0807,12.0006 L31.9077,12.0006 L29.9937,14.3926 Z M31.2807,16.0006 L33.9997,12.6006 L36.7197,16.0006 L33.9997,19.3996 L31.2807,16.0006 Z M28.7077,16.0006 L25.9877,19.3996 L23.2687,16.0006 L25.9877,12.6006 L28.7077,16.0006 Z M37.9997,14.3996 L36.0807,12.0006 L39.9197,12.0006 L37.9997,14.3996 Z M42.9997,16.0796 L42.9997,12.9206 L45.2567,14.4996 L42.9997,16.0796 Z M40.9907,18.1386 L39.2807,16.0006 L40.9887,13.8646 L40.9907,18.1386 Z M50.2567,17.9996 L46.9997,20.2796 L43.7437,17.9996 L46.9997,15.7206 L50.2567,17.9996 Z M50.9997,16.0796 L48.7437,14.4996 L50.9997,12.9206 L50.9997,16.0796 Z M50.9997,26.9206 L50.9997,30.0796 L48.7437,28.4996 L50.9997,26.9206 Z M50.9997,23.0796 L48.7437,21.4996 L50.9997,19.9206 L50.9997,23.0796 Z M43.7437,24.9996 L46.9997,22.7206 L50.2567,24.9996 L46.9997,27.2796 L43.7437,24.9996 Z M42.9937,26.9166 L45.2567,28.4996 L42.9947,30.0826 L42.9937,26.9166 Z M13.0027,20.0006 C13.0027,20.0006 13.0007,19.9996 12.9997,19.9996 L12.9987,20.0006 L12.0687,20.0006 L13.9877,17.6006 L15.9077,20.0006 L13.0027,20.0006 Z M8.9997,45.9996 L12.9997,40.6666 L16.9997,45.9996 L8.9997,45.9996 Z M58.9997,57.9996 L57.9997,57.9996 L57.9997,50.9996 C57.9997,50.4476 57.5527,49.9996 56.9997,49.9996 L55.9997,49.9996 L55.9997,42.9996 C55.9997,42.4476 55.5527,41.9996 54.9997,41.9996 L52.9997,41.9996 L52.9997,11.0006 C52.9997,10.9576 52.9847,10.9166 52.9797,10.8736 C52.9737,10.8306 52.9697,10.7896 52.9587,10.7466 C52.9537,10.7256 52.9557,10.7046 52.9487,10.6836 L49.6117,0.6836 C49.4757,0.2756 49.0927,-0.0004 48.6627,-0.0004 L45.3257,-0.0004 C44.8947,-0.0004 44.5127,0.2756 44.3767,0.6836 L41.2677,10.0006 L0.9997,10.0006 C0.6397,10.0006 0.3077,10.1946 0.1297,10.5076 C-0.0473,10.8216 -0.0433,11.2056 0.1427,11.5156 L6.1427,21.5156 C6.3237,21.8166 6.6487,22.0006 6.9997,22.0006 L11.9997,22.0006 L11.9997,23.6156 C10.7127,25.0526 9.9997,26.8836 9.9997,28.8286 L9.9997,29.9996 C9.9997,30.5526 10.4477,30.9996 10.9997,30.9996 L11.9997,30.9996 L11.9997,32.1416 C10.2797,32.5896 8.9997,34.1416 8.9997,35.9996 C8.9997,37.5946 9.9437,38.9626 11.2967,39.6046 L6.5007,45.9996 L3.9997,45.9996 C3.4477,45.9996 2.9997,46.4476 2.9997,46.9996 L2.9997,54.9996 C2.9997,55.5526 3.4477,55.9996 3.9997,55.9996 L21.9997,55.9996 C22.5527,55.9996 22.9997,55.5526 22.9997,54.9996 L22.9997,46.9996 C22.9997,46.4476 22.5527,45.9996 21.9997,45.9996 L19.4997,45.9996 L13.7997,38.3996 C13.7877,38.3846 13.7677,38.3796 13.7557,38.3646 C13.5717,38.1466 13.3077,37.9996 12.9997,37.9996 C11.8967,37.9996 10.9997,37.1026 10.9997,35.9996 C10.9997,34.8966 11.8967,33.9996 12.9997,33.9996 C13.5527,33.9996 13.9997,33.5526 13.9997,32.9996 L13.9997,30.9996 L14.9997,30.9996 C15.5527,30.9996 15.9997,30.5526 15.9997,29.9996 L15.9997,28.8286 C15.9997,26.8836 15.2877,25.0526 13.9997,23.6156 L13.9997,22.0006 L40.9917,22.0006 L40.9997,41.9996 L38.9997,41.9996 C38.4477,41.9996 37.9997,42.4476 37.9997,42.9996 L37.9997,49.9996 L36.9997,49.9996 C36.4477,49.9996 35.9997,50.4476 35.9997,50.9996 L35.9997,57.9996 L29.9997,57.9996 C29.4477,57.9996 28.9997,58.4476 28.9997,58.9996 C28.9997,59.5526 29.4477,59.9996 29.9997,59.9996 L36.9997,59.9996 L56.9997,59.9996 L58.9997,59.9996 C59.5527,59.9996 59.9997,59.5526 59.9997,58.9996 C59.9997,58.4476 59.5527,57.9996 58.9997,57.9996 L58.9997,57.9996 Z"></path></g></g></g></svg>