<svg fill="#FFFFFF" xmlns="http://www.w3.org/2000/svg" data-name="Layer 1" viewBox="0 0 96 96" x="0px" y="0px"><title>pos_payment</title><path d="M76.63,35.35c-4.34.86-26.59,20-29.31,23.7s-0.81,13.76-.81,13.76h0c5.47-5.1,17.8-16,30.18-23.06,0.43-.25.84-0.5,1.25-0.76C77.93,49,81,34.49,76.63,35.35Z"></path><path d="M34.57,61.89c5.59-10.47,24.27-30.6,46.34-39.94-5.86-1.24-13.31-2.57-13.31-2.57a24.4,24.4,0,0,0-15.66,2.3c-6.69,3.63-22.27,11-38.7,29.33C-2.23,69.2,20.07,70.93,34.45,75.64,34.45,75.64,29,72.36,34.57,61.89Zm3.1-10.1q-2.9-.72-5.69-1.47a60.1,60.1,0,0,1,4.32-4.55q2.75,0.66,5.6,1.29C40.57,48.5,39.31,50,37.68,51.78ZM25.91,48.59c1.37-1.49,2.83-2.92,4.36-4.31L35,45.45a61.69,61.69,0,0,0-4.34,4.5Q28.25,49.28,25.91,48.59Zm2.83,3.69A48.3,48.3,0,0,0,25,57.74Q22.52,56.9,20.11,56A53.16,53.16,0,0,1,24,50.81Q26.31,51.56,28.74,52.28ZM41.54,40c-1.52,1.11-3,2.29-4.46,3.53l-4.72-1.1c1.44-1.2,2.93-2.35,4.46-3.43Zm-2.67-2.4c1.41-.93,2.84-1.81,4.27-2.63l4.69,0.92c-1.42.82-2.84,1.71-4.24,2.66ZM44,45.1q-2.83-.6-5.57-1.22c1.44-1.25,2.93-2.44,4.45-3.56l5.23,1.07C46.69,42.53,45.37,43.81,44,45.1Zm5.72-5.17c-1.85-.37-3-0.7-4.79-1.06,1.4-1,2.82-1.84,4.23-2.67l4.52,0.91C52.48,37.93,50.88,39,49.68,39.93ZM60.42,20.66L75,23.38l-2.07,1.51L57.5,21.71Zm-6.51,2.6L69.7,26.36s-9.49,5.91-13,9.16c-9.1-1.81-17-3.58-17-3.58S49.06,25.26,53.92,23.25ZM37.9,34L42,34.8c-1.43.81-2.86,1.69-4.27,2.62l-4.11-.84C35,35.67,36.47,34.81,37.9,34Zm-6.3,3.93,4.1,0.87c-1.52,1.07-3,2.21-4.45,3.4l-4.06-1C28.61,40.08,30.09,39,31.6,37.94Zm-6.48,5,4,1.05c-1.53,1.37-3,2.79-4.36,4.26q-2-.61-4-1.24C22.15,45.62,23.6,44.26,25.12,42.95Zm-6.31,6.17q2,0.68,4,1.34A55,55,0,0,0,19,55.59q-2.08-.78-4.1-1.59A59,59,0,0,1,18.81,49.11ZM30.65,67.93c-16.16-5.24-19-6.2-19-6.2a6.76,6.76,0,0,1,1.27-4l19,6A39.91,39.91,0,0,0,30.65,67.93ZM26.42,58.2a46.8,46.8,0,0,1,3.66-5.53C32,53.21,34,53.73,36,54.24c-1.28,2-2.37,3.86-3.54,5.8Q29.36,59.16,26.42,58.2Z"></path><path d="M81.32,23.24C48.51,41,34.54,62.36,34.1,69.93c-0.22,3.73,2.25,6.91,5.51,7.1a5.49,5.49,0,0,0,4-1.43h0s0.57-.56,1.53-1.47l-0.17-.24c-0.56-.82-2.38-11.62.85-16C48.31,54.53,71,34.52,76.27,33.48a3.28,3.28,0,0,1,3.06.91c2.26,2.29,1.58,8.8.86,13C92.71,37.1,88,19.64,81.32,23.24Z"></path></svg>