<svg fill="#FFFFFF" xmlns="http://www.w3.org/2000/svg" xmlns:xlink="http://www.w3.org/1999/xlink" version="1.1" x="0px" y="0px" viewBox="0 0 100 100" enable-background="new 0 0 100 100" xml:space="preserve"><g><path d="M83.107,12.467h-9.315l-7.015-7.015c-0.072-0.072-0.154-0.134-0.236-0.195c-0.061-0.041-0.123-0.072-0.185-0.093   c-0.01-0.01-0.01-0.021-0.021-0.01c-0.092-0.051-0.195-0.093-0.308-0.113C65.914,5.01,65.811,5,65.688,5H34.312   c-0.236,0-0.452,0.051-0.647,0.154c-0.072,0.021-0.144,0.062-0.206,0.103c-0.082,0.061-0.164,0.123-0.236,0.195h-0.01l-7.005,7.015   h-9.315c-0.853,0-1.541,0.688-1.541,1.541v79.452c0,0.842,0.688,1.541,1.541,1.541h66.214c0.842,0,1.541-0.698,1.541-1.541V14.007   C84.647,13.155,83.949,12.467,83.107,12.467z M70.998,14.028L57.472,27.554l-5.31-5.299L65.688,8.718L70.998,14.028z M34.312,8.718   l13.526,13.537l-5.31,5.299L29.002,14.028L34.312,8.718z M48.465,91.919H18.434V15.548h7.734L41.439,30.83   c0.298,0.298,0.699,0.452,1.089,0.452c0.401,0,0.791-0.154,1.089-0.452l4.848-4.848V91.919z M38.03,8.081h23.94L50.005,20.056   L38.03,8.081z M81.566,91.919H51.546V25.993l4.837,4.837c0.298,0.298,0.688,0.452,1.089,0.452c0.39,0,0.781-0.154,1.088-0.452   l15.272-15.282h7.734V91.919z"></path></g><g><path d="M43.493,42.867c-0.41,0-0.8-0.164-1.098-0.452c-0.288-0.287-0.442-0.688-0.442-1.088c0-0.411,0.154-0.801,0.442-1.089   c0.585-0.575,1.602-0.575,2.177-0.01c0.298,0.298,0.461,0.688,0.461,1.099c0,0.4-0.163,0.79-0.451,1.088   C44.284,42.703,43.894,42.867,43.493,42.867z"></path></g><g><path d="M43.483,63.685c-0.4,0-0.801-0.163-1.088-0.451c-0.278-0.278-0.442-0.678-0.442-1.089c0-0.4,0.164-0.8,0.442-1.088   c0.575-0.576,1.602-0.576,2.187,0c0.288,0.288,0.451,0.688,0.451,1.088c0,0.411-0.175,0.811-0.451,1.089   C44.284,63.521,43.894,63.685,43.483,63.685z"></path></g><g><path d="M43.493,84.514c-0.41,0-0.811-0.164-1.098-0.451c-0.278-0.288-0.442-0.689-0.442-1.089c0-0.411,0.164-0.801,0.442-1.088   c0.575-0.576,1.612-0.576,2.187,0c0.288,0.287,0.451,0.677,0.451,1.088c0,0.411-0.163,0.801-0.451,1.089   C44.284,84.349,43.894,84.514,43.493,84.514z"></path></g><g><path d="M74.027,56.833H59.058c-0.851,0-1.541-0.69-1.541-1.541V38.61c0-0.851,0.69-1.541,1.541-1.541h14.968   c0.851,0,1.541,0.69,1.541,1.541v16.681C75.567,56.142,74.877,56.833,74.027,56.833z M60.599,53.751h11.887v-13.6H60.599V53.751z"></path></g></svg>