<svg fill="#FFFFFF" xmlns="http://www.w3.org/2000/svg" xmlns:xlink="http://www.w3.org/1999/xlink" xml:space="preserve" version="1.1" style="shape-rendering:geometricPrecision;text-rendering:geometricPrecision;image-rendering:optimizeQuality;" viewBox="0 0 301 275" x="0px" y="0px" fill-rule="evenodd" clip-rule="evenodd"><defs><style type="text/css">
   
    .fil0 {fill:#FFFFFF}
   
  </style></defs><g><path class="fil0" d="M174 115c-12,12 -21,21 -29,27 -4,-4 -8,-8 -14,-13 15,-22 10,-54 -13,-76 -25,-25 -90,-57 -111,-36 -21,21 10,86 35,112 22,22 55,27 76,13 5,5 9,9 13,13 -19,15 -28,19 -73,52 -63,47 -14,104 36,37 34,-45 38,-54 53,-72 21,25 11,20 51,74 44,61 100,14 35,-35 -54,-42 -48,-31 -73,-54 7,-8 16,-17 28,-29 12,8 29,8 43,-6l63 -72c5,-6 10,-11 5,-17l-76 76c-4,4 -10,-3 -7,-6l77 -77c-2,-2 -3,-4 -5,-6l-77 77c-4,4 -10,-3 -7,-6l77 -77c-2,-2 -4,-4 -6,-6l-76 77c-4,4 -11,-3 -7,-6l76 -77c-6,-5 -10,0 -16,5l-72 63c-15,15 -14,32 -6,45zm8 106c21,31 44,60 72,48 -33,7 -61,-37 -72,-48zm-173 -168c9,52 54,109 101,88 -40,11 -86,-42 -101,-88zm213 73c-25,4 -51,-22 -46,-46 -12,31 15,58 46,46zm-139 66c-32,22 -62,45 -49,74 -7,-35 38,-63 49,-74z"></path></g></svg>