<svg fill="#FFFFFF" xmlns="http://www.w3.org/2000/svg" xmlns:xlink="http://www.w3.org/1999/xlink" version="1.1" x="0px" y="0px" viewBox="0 0 100 100" enable-background="new 0 0 100 100" xml:space="preserve"><path d="M88.917,15.007c0-3.709-3.007-6.715-6.716-6.715L36.51,8.296c-3.709,0-6.716,3.007-6.715,6.716l0.001,10.297h4.303V19.5  c0-1.186,0.961-2.147,2.147-2.147h46.228c1.186,0,2.147,0.961,2.147,2.147v59.62c0,1.186-0.961,2.147-2.147,2.147H51.282v3.353  c0,2.763-1.136,5.273-2.963,7.087l33.891-0.003c3.709,0,6.716-3.007,6.715-6.716L88.917,15.007z M59.36,89.311  c-1.674,0-3.031-1.357-3.031-3.031c0-1.674,1.357-3.031,3.031-3.031c1.674,0,3.031,1.357,3.031,3.031  C62.391,87.954,61.034,89.311,59.36,89.311z M40.88,28.915H17.828c-3.714,0-6.753,3.039-6.753,6.753v49.267  c0,3.714,3.039,6.753,6.753,6.753H40.88c3.714,0,6.753-3.039,6.753-6.753V35.667C47.633,31.953,44.594,28.915,40.88,28.915z   M29.354,90.29c-1.733,0-3.139-1.405-3.139-3.139s1.405-3.139,3.139-3.139c1.733,0,3.139,1.405,3.139,3.139  S31.087,90.29,29.354,90.29z M44.05,80.763c0,0.954-0.78,1.734-1.734,1.734H16.392c-0.954,0-1.734-0.78-1.734-1.734V39.839  c0-0.954,0.78-1.734,1.734-1.734h25.924c0.954,0,1.734,0.78,1.734,1.734V80.763z"></path></svg>