<svg fill="#FFFFFF" xmlns="http://www.w3.org/2000/svg" xmlns:xlink="http://www.w3.org/1999/xlink" version="1.1" x="0px" y="0px" viewBox="0 0 100 100" enable-background="new 0 0 100 100" xml:space="preserve"><path d="M97.315,58.782H74.447v-23h9.046c0.899,0.002,1.701,0.563,2.013,1.406l3.882,9.868c0.161,0.432,0.475,0.791,0.886,1.001  l5.878,2.713c0.716,0.365,1.167,1.104,1.164,1.907V58.782z"></path><path d="M48.289,69.396c0,3.559-2.889,6.445-6.449,6.445c-3.561,0-6.447-2.887-6.447-6.445c0-3.563,2.886-6.449,6.447-6.449  C45.4,62.947,48.289,65.834,48.289,69.396z"></path><path d="M89.966,69.396c0,3.559-2.886,6.445-6.446,6.445s-6.448-2.887-6.448-6.445c0-3.563,2.888-6.449,6.448-6.449  S89.966,65.834,89.966,69.396z"></path><path d="M97.157,60.165H33.455H28.78h-0.009c-1.018,0-1.842,1.666-1.842,3.72c0,2.056,0.825,3.722,1.842,3.722l4.977-0.043  c0.716-3.1,3.134-5.518,6.232-6.232c4.477-1.035,8.944,1.755,9.98,6.232h25.473c0.727-3.097,3.148-5.511,6.25-6.216  c4.479-1.023,8.939,1.779,9.962,6.259l5.513,0.001c1.019,0,1.843-1.666,1.843-3.721C99,61.831,98.176,60.165,97.157,60.165z"></path><path d="M2.842,31.866C1.826,31.866,1,32.691,1,33.709c0,1.017,0.826,1.841,1.842,1.841H28.78v-3.684H2.842z"></path><path d="M7.631,39.654c-1.017,0-1.842,0.824-1.842,1.842c0,1.017,0.826,1.842,1.842,1.842H28.78v-3.684H7.631z"></path><path d="M12.42,47.44c-1.017,0-1.842,0.826-1.842,1.843c0,1.017,0.825,1.842,1.842,1.842H28.78V47.44H12.42z"></path><path d="M70.636,24.209H31.21c-1.342,0-2.431,1.087-2.431,2.429v5.039v0.189h5.276c1.018,0,1.843,0.825,1.843,1.843  c0,1.017-0.826,1.841-1.843,1.841H28.78v4.104h5.276c1.018,0,1.843,0.824,1.843,1.842c0,1.017-0.826,1.842-1.843,1.842H28.78v4.102  h5.276c1.018,0,1.843,0.826,1.843,1.843c0,1.017-0.826,1.842-1.843,1.842H28.78v7.657h44.285V26.638  C73.064,25.296,71.977,24.209,70.636,24.209z M52.26,52.087c-5.849,0-10.591-4.743-10.591-10.59c0-5.852,4.743-10.593,10.591-10.593  c5.851,0,10.595,4.742,10.595,10.593C62.854,47.344,58.11,52.087,52.26,52.087z"></path><polygon points="57.638,36.743 50.28,44.101 46.958,40.78 45.528,42.21 50.28,46.96 59.067,38.173 "></polygon></svg>