<?xml version="1.0" encoding="UTF-8" standalone="no"?>
<!-- Created with Inkscape (http://www.inkscape.org/) -->

<svg
   xmlns:dc="http://purl.org/dc/elements/1.1/"
   xmlns:cc="http://creativecommons.org/ns#"
   xmlns:rdf="http://www.w3.org/1999/02/22-rdf-syntax-ns#"
   xmlns:svg="http://www.w3.org/2000/svg"
   xmlns="http://www.w3.org/2000/svg"
   xmlns:sodipodi="http://sodipodi.sourceforge.net/DTD/sodipodi-0.dtd"
   xmlns:inkscape="http://www.inkscape.org/namespaces/inkscape"
   width="400px"
   height="256px"
   viewBox="0 0 400 256"
   version="1.1"
   id="SVGRoot"
   inkscape:export-filename="/home/dpk/set-gro.png"
   inkscape:export-xdpi="96"
   inkscape:export-ydpi="96"
   inkscape:version="0.92.1 15371"
   sodipodi:docname="sample.svg">
  <sodipodi:namedview
     id="base"
     pagecolor="#ffffff"
     bordercolor="#666666"
     borderopacity="1.0"
     inkscape:pageopacity="0.0"
     inkscape:pageshadow="2"
     inkscape:zoom="2.0898438"
     inkscape:cx="200"
     inkscape:cy="128"
     inkscape:document-units="px"
     inkscape:current-layer="layer1"
     showgrid="false"
     inkscape:window-width="1366"
     inkscape:window-height="709"
     inkscape:window-x="0"
     inkscape:window-y="35"
     inkscape:window-maximized="1" />
  <defs
     id="defs69717">
    <style
       id="style1776"
       type="text/css">
   
    .fil1 {fill:none}
    .fil0 {fill:#002451;fill-rule:nonzero}
   
  </style>
    <style
       id="style1720">

      .cls-3 {
        fill: #000000;
      }
    </style>
    <style
       id="style1736">

      .cls-3 {
        fill: #000000;
      }
    </style>
    <style
       id="style1752">

      .cls-3 {
        fill: #000000;
      }
    </style>
    <style
       id="style1768">

      .cls-3 {
        fill: #53ecf4;
      }

      .cls-4 {
        fill: #000000;
      }
    </style>
    <style
       id="style2481">.cls-1{opacity:0.2;}</style>
    <style
       id="style2661"
       type="text/css">
   
    .fil0 {fill:#002451}
   
  </style>
  </defs>
  <metadata
     id="metadata69720">
    <rdf:RDF>
      <cc:Work
         rdf:about="">
        <dc:format>image/svg+xml</dc:format>
        <dc:type
           rdf:resource="http://purl.org/dc/dcmitype/StillImage" />
        <dc:title></dc:title>
      </cc:Work>
    </rdf:RDF>
  </metadata>
  <g
     id="layer1"
     inkscape:groupmode="layer"
     inkscape:label="Layer 1">
    <g
       style="fill:#002451"
       id="g2594"
       transform="matrix(0.67081735,0,0,0.63981368,286.41552,81.135856)">
      <path
         id="path2583"
         d="M 23.96,23.182 V 12.445 c 0,-2.371 1.924,-4.293 4.295,-4.293 h 18.447 c 2.372,0 4.295,1.922 4.295,4.293 v 2.441 c 0.307,0 0.612,0 0.919,0 6.94,0 7.285,3.818 7.285,3.818 h -8.204 v 4.478 c 0,7.468 -6.052,13.519 -13.518,13.519 -7.467,0 -13.519,-6.051 -13.519,-13.519 z m 26.082,45.686 c 0,-3.244 -2.632,-5.877 -5.879,-5.877 H 26.405 l -3.802,-15.84 6.45,12.481 h 12.715 v -3.49 -1.679 h 1.679 12.138 0.978 7.728 L 61.554,43.062 C 60.906,40.364 58.498,38.577 55.837,38.574 V 38.522 H 15.904 l 0.013,0.053 c -0.457,-0.001 -0.918,0.034 -1.385,0.142 -3.156,0.758 -5.101,3.933 -4.343,7.091 l 5.865,24.435 c 0.635,2.642 2.998,4.505 5.716,4.505 h 22.393 c 3.246,-0.001 5.879,-2.633 5.879,-5.88 z M 56.564,56.142 H 55.586 43.449 v 3.49 h 0.714 c 5.092,0 9.237,4.144 9.237,9.236 0,5.092 -4.145,9.238 -9.237,9.238 h -0.714 v 0.968 h 12.138 0.251 0.727 26.456 V 74.747 62.991 56.141 H 64.694 56.564 Z M 43.449,80.755 H 41.77 V 79.074 78.106 H 25.013 l 0.97,4.215 v 9.526 H 55.838 V 80.755 H 55.587 Z M 84.7,63.051 v 11.636 c 2.959,-0.309 5.274,-2.778 5.274,-5.819 10e-4,-3.039 -2.315,-5.511 -5.274,-5.817 z"
         inkscape:connector-curvature="0" />
    </g>
    <g
       style="fill:#002451"
       id="g2659"
       transform="matrix(1.3987539,0,0,1.2148388,157.55889,29.810282)">
      <g
         id="g2637"
         style="fill:none;fill-rule:evenodd;stroke:none;stroke-width:1">
        <g
           id="g2635"
           transform="translate(-1200,-529)"
           style="fill:#002451">
          <g
             id="g2633"
             transform="translate(1200,529)">
            <path
               id="path2615"
               d="m 9,41 c -1.104,0 -2,0.896 -2,2 0,1.104 0.896,2 2,2 1.104,0 2,-0.896 2,-2 0,-1.104 -0.896,-2 -2,-2"
               inkscape:connector-curvature="0" />
            <path
               id="path2617"
               d="m 19,41 c -1.104,0 -2,0.896 -2,2 0,1.104 0.896,2 2,2 1.104,0 2,-0.896 2,-2 0,-1.104 -0.896,-2 -2,-2"
               inkscape:connector-curvature="0" />
            <path
               id="path2619"
               d="m 41,41 c -1.104,0 -2,0.896 -2,2 0,1.104 0.896,2 2,2 1.104,0 2,-0.896 2,-2 0,-1.104 -0.896,-2 -2,-2"
               inkscape:connector-curvature="0" />
            <path
               id="path2621"
               d="m 51,41 c -1.104,0 -2,0.896 -2,2 0,1.104 0.896,2 2,2 1.104,0 2,-0.896 2,-2 0,-1.104 -0.896,-2 -2,-2"
               inkscape:connector-curvature="0" />
            <path
               id="path2623"
               d="m 58,42 h -1.083 c -0.004,-0.023 -0.013,-0.044 -0.018,-0.067 -0.055,-0.304 -0.133,-0.6 -0.232,-0.887 -0.018,-0.052 -0.038,-0.104 -0.057,-0.156 -0.108,-0.285 -0.234,-0.562 -0.382,-0.825 -0.022,-0.038 -0.046,-0.074 -0.068,-0.112 -0.162,-0.272 -0.338,-0.533 -0.539,-0.775 -0.006,-0.007 -0.012,-0.013 -0.017,-0.019 -0.202,-0.242 -0.425,-0.464 -0.661,-0.67 -0.027,-0.024 -0.051,-0.049 -0.078,-0.071 -0.233,-0.197 -0.482,-0.372 -0.743,-0.532 -0.044,-0.027 -0.087,-0.054 -0.132,-0.08 -0.26,-0.151 -0.532,-0.281 -0.815,-0.392 -0.05,-0.019 -0.099,-0.037 -0.149,-0.055 -0.291,-0.104 -0.59,-0.19 -0.899,-0.249 -0.04,-0.008 -0.08,-0.012 -0.12,-0.019 C 51.679,37.036 51.344,37 51,37 c -0.238,0 -0.472,0.018 -0.703,0.045 -0.072,0.008 -0.142,0.021 -0.214,0.033 -0.159,0.024 -0.317,0.054 -0.473,0.091 -0.077,0.018 -0.153,0.038 -0.229,0.059 -0.156,0.044 -0.308,0.095 -0.458,0.15 -0.063,0.023 -0.127,0.044 -0.188,0.069 -0.207,0.085 -0.409,0.179 -0.604,0.285 -0.023,0.013 -0.044,0.028 -0.067,0.041 -0.171,0.096 -0.337,0.201 -0.497,0.313 -0.058,0.041 -0.114,0.085 -0.171,0.128 -0.123,0.093 -0.243,0.19 -0.359,0.293 -0.056,0.049 -0.111,0.099 -0.165,0.15 -0.119,0.113 -0.232,0.231 -0.341,0.353 -0.039,0.044 -0.081,0.086 -0.119,0.131 -0.142,0.169 -0.277,0.345 -0.4,0.529 -0.004,0.006 -0.008,0.011 -0.012,0.017 -0.004,-0.006 -0.008,-0.011 -0.012,-0.017 -0.123,-0.184 -0.258,-0.36 -0.4,-0.529 -0.038,-0.045 -0.08,-0.087 -0.119,-0.131 -0.109,-0.122 -0.222,-0.24 -0.341,-0.353 -0.054,-0.051 -0.109,-0.101 -0.165,-0.15 -0.116,-0.103 -0.236,-0.2 -0.359,-0.293 -0.057,-0.043 -0.113,-0.087 -0.171,-0.128 -0.16,-0.112 -0.326,-0.217 -0.497,-0.313 -0.023,-0.013 -0.044,-0.028 -0.067,-0.041 -0.195,-0.106 -0.397,-0.2 -0.604,-0.285 -0.061,-0.025 -0.125,-0.046 -0.188,-0.069 -0.15,-0.055 -0.302,-0.106 -0.458,-0.15 C 42.543,37.207 42.467,37.187 42.39,37.169 42.234,37.132 42.076,37.102 41.917,37.078 41.845,37.066 41.775,37.053 41.703,37.045 41.472,37.018 41.238,37 41,37 c -0.344,0 -0.679,0.036 -1.007,0.091 -0.04,0.007 -0.08,0.011 -0.12,0.019 -0.309,0.059 -0.608,0.145 -0.899,0.249 -0.05,0.018 -0.099,0.036 -0.149,0.055 -0.283,0.111 -0.555,0.241 -0.815,0.392 -0.045,0.026 -0.088,0.053 -0.132,0.08 -0.261,0.16 -0.51,0.335 -0.743,0.532 -0.027,0.022 -0.051,0.047 -0.078,0.071 -0.236,0.206 -0.459,0.428 -0.661,0.67 -0.005,0.006 -0.011,0.012 -0.017,0.019 -0.201,0.242 -0.378,0.504 -0.539,0.776 -0.022,0.037 -0.046,0.073 -0.068,0.111 -0.148,0.263 -0.274,0.539 -0.382,0.825 -0.019,0.052 -0.039,0.104 -0.057,0.156 -0.099,0.287 -0.177,0.583 -0.232,0.887 -0.005,0.023 -0.014,0.044 -0.018,0.067 H 24.917 c -0.004,-0.023 -0.013,-0.044 -0.018,-0.067 -0.055,-0.304 -0.133,-0.6 -0.232,-0.887 -0.018,-0.052 -0.038,-0.104 -0.057,-0.156 -0.108,-0.285 -0.234,-0.562 -0.382,-0.825 -0.022,-0.038 -0.046,-0.074 -0.068,-0.112 -0.162,-0.272 -0.338,-0.533 -0.539,-0.775 -0.006,-0.007 -0.012,-0.013 -0.017,-0.019 -0.202,-0.242 -0.425,-0.464 -0.661,-0.67 -0.027,-0.024 -0.051,-0.049 -0.078,-0.071 -0.233,-0.197 -0.482,-0.372 -0.743,-0.532 -0.044,-0.027 -0.087,-0.054 -0.132,-0.08 -0.26,-0.151 -0.532,-0.281 -0.815,-0.392 -0.05,-0.019 -0.099,-0.037 -0.149,-0.055 -0.291,-0.104 -0.59,-0.19 -0.899,-0.249 -0.04,-0.008 -0.08,-0.012 -0.12,-0.019 C 19.679,37.036 19.344,37 19,37 c -0.238,0 -0.472,0.018 -0.703,0.045 -0.072,0.008 -0.142,0.021 -0.214,0.033 -0.159,0.024 -0.317,0.054 -0.473,0.091 -0.077,0.018 -0.153,0.038 -0.229,0.059 -0.156,0.044 -0.308,0.095 -0.458,0.15 -0.063,0.023 -0.127,0.044 -0.188,0.069 -0.207,0.085 -0.409,0.179 -0.604,0.285 -0.023,0.013 -0.044,0.028 -0.067,0.041 -0.171,0.096 -0.337,0.201 -0.497,0.313 -0.058,0.041 -0.114,0.085 -0.171,0.128 -0.123,0.093 -0.243,0.19 -0.359,0.293 -0.056,0.049 -0.111,0.099 -0.165,0.15 -0.119,0.113 -0.232,0.231 -0.341,0.353 -0.039,0.044 -0.081,0.086 -0.119,0.131 -0.142,0.169 -0.277,0.345 -0.4,0.529 -0.004,0.006 -0.008,0.011 -0.012,0.017 -0.004,-0.006 -0.008,-0.011 -0.012,-0.017 -0.123,-0.184 -0.258,-0.36 -0.4,-0.529 -0.038,-0.045 -0.08,-0.087 -0.119,-0.131 -0.109,-0.122 -0.222,-0.24 -0.341,-0.353 -0.054,-0.051 -0.109,-0.101 -0.165,-0.15 -0.116,-0.103 -0.236,-0.2 -0.359,-0.293 -0.057,-0.043 -0.113,-0.087 -0.171,-0.128 -0.16,-0.112 -0.326,-0.217 -0.497,-0.313 -0.023,-0.013 -0.044,-0.028 -0.067,-0.041 -0.195,-0.106 -0.397,-0.2 -0.604,-0.285 -0.061,-0.025 -0.125,-0.046 -0.188,-0.069 -0.15,-0.055 -0.302,-0.106 -0.458,-0.15 C 10.543,37.207 10.467,37.187 10.39,37.169 10.234,37.132 10.076,37.102 9.917,37.078 9.845,37.066 9.775,37.053 9.703,37.045 9.472,37.018 9.238,37 9,37 8.656,37 8.321,37.036 7.993,37.091 7.953,37.098 7.913,37.102 7.873,37.11 7.564,37.169 7.265,37.255 6.974,37.359 6.924,37.377 6.875,37.395 6.825,37.414 6.542,37.525 6.27,37.655 6.01,37.806 5.965,37.832 5.922,37.859 5.878,37.886 5.617,38.046 5.368,38.221 5.135,38.418 5.108,38.44 5.084,38.465 5.057,38.489 4.821,38.695 4.598,38.917 4.396,39.159 4.391,39.165 4.385,39.171 4.379,39.178 4.178,39.42 4.001,39.682 3.84,39.954 3.818,39.991 3.794,40.027 3.772,40.065 3.624,40.328 3.498,40.604 3.39,40.89 3.371,40.942 3.351,40.994 3.333,41.046 3.234,41.333 3.156,41.629 3.101,41.933 3.096,41.956 3.087,41.977 3.083,42 H 2 v -6 h 14 28 14 z m -7,5 c -2.206,0 -4,-1.794 -4,-4 0,-2.206 1.794,-4 4,-4 2.206,0 4,1.794 4,4 0,2.206 -1.794,4 -4,4 z m -10,0 c -2.206,0 -4,-1.794 -4,-4 0,-2.206 1.794,-4 4,-4 2.206,0 4,1.794 4,4 0,2.206 -1.794,4 -4,4 z m -22,0 c -2.206,0 -4,-1.794 -4,-4 0,-2.206 1.794,-4 4,-4 2.206,0 4,1.794 4,4 0,2.206 -1.794,4 -4,4 z M 9,47 c -2.206,0 -4,-1.794 -4,-4 0,-2.206 1.794,-4 4,-4 2.206,0 4,1.794 4,4 0,2.206 -1.794,4 -4,4 z M 15,5 c 0,0.552 0.447,1 1,1 0.553,0 1,-0.448 1,-1 v 3 h 6 V 5 c 0,0.552 0.447,1 1,1 0.553,0 1,-0.448 1,-1 v 23 c 0,0.552 -0.447,1 -1,1 -0.553,0 -1,-0.448 -1,-1 v -2 h -6 v 2 c 0,0.552 -0.447,1 -1,1 -0.553,0 -1,-0.448 -1,-1 z m 3,-3 c 0.65,0 0.916,0.313 0.981,2 H 17.02 C 17.088,2.327 17.362,2 18,2 Z m 8,0 c 0.65,0 0.916,0.313 0.981,2 H 25.02 C 25.088,2.327 25.362,2 26,2 Z m 10,27 h 12 c 0.553,0 1,0.448 1,1 0,0.552 -0.447,1 -1,1 H 36 c -0.553,0 -1,-0.448 -1,-1 0,-0.552 0.447,-1 1,-1 z m 3,-4 h 9 c 0.553,0 1,0.448 1,1 0,0.552 -0.447,1 -1,1 h -9 c -0.553,0 -1,-0.448 -1,-1 0,-0.552 0.447,-1 1,-1 z m 20,9 H 51.729 C 56.655,31.269 60,26.02 60,20 60,11.178 52.822,4 44,4 H 28.987 C 28.925,2.136 28.528,0 26,0 23.49,0 23.081,2.189 23.014,4 H 20.987 C 20.925,2.136 20.528,0 18,0 15.467,0 15.074,2.23 15.013,4.05 6.651,4.564 0,11.511 0,20 0,26.02 3.345,31.269 8.271,34 H 1 c -0.553,0 -1,0.448 -1,1 v 8 c 0,0.552 0.447,1 1,1 h 2.09 c 0.479,2.833 2.943,5 5.91,5 2.086,0 3.925,-1.071 5,-2.69 1.075,1.619 2.914,2.69 5,2.69 2.967,0 5.431,-2.167 5.91,-5 h 10.18 c 0.479,2.833 2.943,5 5.91,5 2.086,0 3.925,-1.071 5,-2.69 1.075,1.619 2.914,2.69 5,2.69 2.967,0 5.431,-2.167 5.91,-5 H 59 c 0.553,0 1,-0.448 1,-1 v -8 c 0,-0.552 -0.447,-1 -1,-1 z"
               inkscape:connector-curvature="0" />
            <polygon
               id="polygon2625"
               points="17,16 23,16 23,14 17,14 " />
            <polygon
               id="polygon2627"
               points="17,20 23,20 23,18 17,18 " />
            <polygon
               id="polygon2629"
               points="17,24 23,24 23,22 17,22 " />
            <polygon
               id="polygon2631"
               points="17,12 23,12 23,10 17,10 " />
          </g>
        </g>
      </g>
    </g>
    <g
       style="clip-rule:evenodd;fill:#002451;fill-rule:evenodd;image-rendering:optimizeQuality;shape-rendering:geometricPrecision;text-rendering:geometricPrecision"
       id="g2678"
       transform="matrix(0.02765196,0,0,0.02487464,253.48253,28.896462)">
      <g
         id="g2667">
        <path
           id="path2665"
           d="m 2570,1345 c 161,0 270,130 243,291 -27,161 -179,292 -340,292 -161,0 -270,-131 -243,-292 27,-161 179,-291 340,-291 z m -19,112 c 99,0 166,80 149,179 -16,99 -110,179 -208,179 -99,0 -166,-80 -149,-179 16,-99 110,-179 208,-179 z m -901,-421 311,121 c 19,8 37,33 29,54 l -111,303 c -41,111 119,103 156,17 46,-109 141,-346 146,-395 12,-115 -192,-174 -288,-214 l 69,-226 c 3,-10 21,-18 28,-12 l 76,72 c 28,27 58,49 123,37 30,-6 153,-48 229,-81 124,-53 78,-152 -28,-122 -60,16 -140,54 -206,67 -41,-40 -100,-109 -151,-180 -63,-88 -250,-141 -292,-2 l -134,440 c -29,95 -24,95 43,121 z m 724,-243 50,355 c -191,154 -258,226 -374,479 h -344 l -79,-299 c 220,-101 215,-173 -1,-202 l -597,2 H 76 c -35,0 -69,28 -75,63 v 0 c -6,35 17,63 52,63 h 887 c -29,58 -48,124 -53,208 42,-21 244,-265 487,-132 123,68 168,254 248,379 h 507 c 88,-233 203,-494 517,-419 90,22 110,88 197,14 -59,-174 -232,-179 -271,-203 -35,-22 -25,-60 -42,-105 50,-12 126,-9 132,-100 -4,-78 -99,-83 -164,-89 l -24,-51 z M 967,498 h 322 210 c 38,0 65,31 58,69 l -76,416 c -6,38 -42,69 -80,69 H 869 c -38,0 -65,-31 -58,-69 v -3 H 297 c -35,0 -58,-28 -52,-63 v 0 c 7,-35 40,-63 75,-63 h 516 l 19,-103 h 387 c 35,0 69,-28 75,-63 v 0 c 7,-35 -17,-64 -51,-64 H 877 171 c -35,0 -58,-28 -52,-63 v 0 c 6,-35 40,-63 75,-63 z M 2062,0 c 53,0 95,25 118,64 v 0 l 68,79 c 4,4 -4,20 -11,19 l -40,-4 -1,3 c -15,88 -99,160 -187,160 -89,0 -149,-72 -134,-160 15,-89 99,-161 187,-161 z m -845,1345 c 161,0 270,130 243,291 -27,161 -179,292 -340,292 -161,0 -270,-131 -243,-292 27,-161 179,-291 340,-291 z m -19,112 c 99,0 166,80 149,179 -16,99 -110,179 -208,179 -99,0 -166,-80 -149,-179 16,-99 110,-179 208,-179 z"
           class="fil0"
           inkscape:connector-curvature="0"
           style="fill:#002451" />
      </g>
    </g>
    <g
       style="fill:#002451"
       id="g2854"
       transform="matrix(0.28105983,0,0,0.32153818,22.722213,109.64814)">
      <g
         id="g2806">
        <ellipse
           id="ellipse2732"
           ry="22.495001"
           rx="22.493999"
           cy="189.16901"
           cx="80.518997"
           transform="matrix(0.2268,-0.9739,0.9739,0.2268,-121.9813,224.6893)" />
        <path
           id="path2734"
           d="m 69.389,321.406 c 0.688,0.762 1.381,1.547 2.079,2.357 11.039,12.765 23.167,31.209 29.083,54.693 1.43,5.668 6.521,9.446 12.111,9.446 1.012,0 2.04,-0.124 3.066,-0.383 6.693,-1.69 10.752,-8.485 9.062,-15.178 l -0.002,-0.002 c -7.396,-29.26 -22.496,-51.447 -35.646,-66.345 -6.328,-7.158 -12.225,-12.656 -16.717,-16.491 -1.932,-16.92 2.748,-36.387 5.425,-50.06 0.038,-0.131 0.069,-0.263 0.104,-0.393 8.664,4.145 21.023,8.136 36.387,8.136 8.361,0 17.582,-1.186 27.486,-4.112 4.236,-1.251 6.658,-5.699 5.406,-9.938 -1.25,-4.236 -5.7,-6.657 -9.936,-5.406 -8.45,2.493 -16.101,3.454 -22.956,3.454 -12.99,0 -23.202,-3.465 -30.177,-6.9 -3.481,-1.716 -6.139,-3.421 -7.871,-4.653 -0.867,-0.616 -1.504,-1.113 -1.896,-1.436 -0.197,-0.159 -0.332,-0.275 -0.407,-0.338 -0.032,-0.029 -0.053,-0.047 -0.06,-0.054 -0.002,-0.001 -0.002,-0.002 -0.003,-0.002 -1.27,-1.149 -2.809,-1.809 -4.39,-2.002 -0.361,-0.132 -0.729,-0.253 -1.108,-0.348 -7.288,-1.817 -17.37,1.303 -23.298,11.364 6.748,-3.163 11.953,-4.639 13.838,-5.116 l 0.013,-0.002 0.083,-0.021 c 0.766,-0.184 1.551,-0.275 2.333,-0.275 4.641,0 8.639,3.154 9.722,7.67 1.281,5.365 -2.037,10.771 -7.396,12.055 l -0.186,0.05 c -0.207,0.055 -0.539,0.148 -0.983,0.281 -0.847,0.257 -2.23,0.704 -3.979,1.367 -3.129,1.193 -7.947,3.297 -13.107,6.542 -3.242,2.048 -6.209,4.268 -8.9,6.653 -1.393,9.74 -1.24,19.447 0.233,32.101 1.511,7.775 4.866,12.174 8.963,14.639 0.062,0.993 0.101,2.081 0.101,3.258 -0.006,6.846 -1.272,16.406 -6.656,26.651 -5.419,10.241 -14.93,21.477 -32.889,31.735 -6,3.414 -8.098,11.046 -4.684,17.047 3.415,6 11.048,8.098 17.047,4.684 21.617,-12.264 35.037,-27.27 42.654,-41.833 4.227,-8.037 6.692,-15.844 8.051,-22.895 z"
           inkscape:connector-curvature="0" />
        <path
           id="path2736"
           d="m 61.979,239.544 c 0.474,-0.143 0.826,-0.241 1.045,-0.3 0.11,-0.029 0.186,-0.05 0.225,-0.059 l 0.011,-0.004 c 4.297,-1.028 6.944,-5.346 5.917,-9.643 -1.03,-4.297 -5.348,-6.944 -9.645,-5.916 -0.544,0.142 -11.201,2.704 -23.644,10.507 -12.388,7.758 -26.792,21.119 -33.159,42.486 -1.264,4.232 1.144,8.689 5.379,9.953 0.763,0.227 1.533,0.336 2.29,0.336 3.446,0 6.63,-2.245 7.665,-5.715 4.966,-16.635 16.061,-27.023 26.342,-33.516 5.113,-3.217 9.959,-5.385 13.463,-6.719 1.754,-0.665 3.17,-1.126 4.111,-1.41 z"
           inkscape:connector-curvature="0" />
        <rect
           id="rect2738"
           height="144.015"
           width="405.91599"
           y="242.621"
           x="431.57401" />
        <path
           id="path2740"
           d="m 871.429,114.505 c 0.935,-4.318 -1.812,-8.575 -6.13,-9.507 -21.924,-4.817 -32.367,-14.945 -38.112,-23.729 -2.838,-4.411 -4.406,-8.551 -5.248,-11.513 -0.055,-0.19 -0.098,-0.361 -0.147,-0.542 -0.042,-1.849 -0.369,-3.62 -1.034,-5.216 -0.59,-2.182 -2.067,-3.965 -3.997,-4.981 -6.852,-5.071 -19.121,-6.018 -29.782,3.971 -15.456,14.644 -22.889,25.566 -30.997,46.411 -4.68,15.409 3.891,22.071 11.922,26.269 1.772,3.274 8.658,17.491 8.671,42.66 -0.002,12.012 -1.576,26.553 -6.122,43.682 -1.773,6.671 2.2,13.517 8.874,15.289 1.074,0.285 2.152,0.422 3.214,0.422 5.53,0 10.589,-3.698 12.075,-9.295 5.082,-19.142 6.96,-35.89 6.96,-50.098 0.014,-32.801 -10.009,-51.842 -12.551,-56.103 3.291,-6.788 7.679,-13.344 12.218,-19.406 -0.134,-0.285 -0.268,-0.569 -0.394,-0.848 -6.098,-13.339 -6.768,-24.128 -6.771,-28.148 0,-0.659 0.019,-1.077 0.027,-1.231 0.294,-5.287 4.677,-9.438 9.979,-9.438 0.186,0 0.371,0.004 0.558,0.015 5.475,0.302 9.71,5.006 9.438,10.483 v 0.137 c -0.002,0.952 0.108,9.275 4.957,19.861 1.231,2.675 2.658,5.271 4.262,7.792 6.408,6.052 14.995,11.678 26.238,15.698 l -2.996,7.596 c 1.564,1.067 3.173,2.114 4.843,3.128 4.712,2.856 6.222,9.018 3.365,13.734 -1.828,3.015 -5.029,4.816 -8.561,4.816 -1.82,0 -3.608,-0.501 -5.171,-1.446 -0.669,-0.405 -1.325,-0.812 -1.975,-1.221 l -0.284,0.72 36.278,14.31 14.31,-36.278 -18.148,-7.158 c 0.088,-0.271 0.17,-0.549 0.231,-0.836 z"
           inkscape:connector-curvature="0" />
        <path
           id="path2742"
           d="m 872.991,44.303 c 0.798,-1.623 -5.56,-6.477 -15.212,-11.92 -0.715,-0.403 -1.447,-0.809 -2.195,-1.217 -0.363,-2.05 -1.014,-4.083 -1.981,-6.043 -5.504,-11.14 -18.994,-15.708 -30.135,-10.207 -11.138,5.5 -15.708,18.993 -10.203,30.132 5.503,11.138 18.991,15.707 30.132,10.204 4.977,-2.459 8.638,-6.517 10.679,-11.244 -2.511,-1.783 -5.209,-3.621 -8.049,-5.399 -7.11,-4.451 -13.258,-8.892 -17.394,-12.432 4.255,2.727 9.775,5.825 15.942,8.863 7.71,3.8 14.883,6.747 20.103,8.382 4.702,1.472 7.821,1.88 8.313,0.881 z"
           inkscape:connector-curvature="0" />
        <path
           id="path2744"
           d="m 400.951,74.739 c 5.622,-3.957 10.598,-7.872 14.38,-11.226 -3.538,4.138 -8.924,9.477 -15.262,14.977 -2.53,2.196 -4.911,4.43 -7.116,6.58 2.749,4.354 6.993,7.796 12.292,9.456 11.858,3.711 24.476,-2.892 28.189,-14.747 3.713,-11.856 -2.892,-24.479 -14.747,-28.188 -11.856,-3.709 -24.478,2.893 -28.189,14.75 -0.653,2.086 -0.98,4.196 -1.022,6.277 -0.678,0.519 -1.338,1.033 -1.98,1.542 -8.693,6.872 -14.223,12.652 -13.184,14.131 0.641,0.91 3.659,0.025 8.076,-2.158 4.904,-2.424 11.534,-6.445 18.563,-11.394 z"
           inkscape:connector-curvature="0" />
        <path
           id="path2746"
           d="m 675.438,18.706 c 6.83,-0.788 13.071,-1.849 17.996,-2.987 -5.085,1.943 -12.368,4.059 -20.563,5.86 -3.27,0.719 -6.426,1.542 -9.388,2.375 0.332,5.139 2.407,10.192 6.269,14.183 8.642,8.928 22.881,9.16 31.809,0.521 8.93,-8.639 9.162,-22.883 0.522,-31.809 -8.642,-8.926 -22.883,-9.16 -31.812,-0.52 -1.569,1.519 -2.854,3.217 -3.885,5.022 -0.835,0.131 -1.654,0.266 -2.456,0.404 -10.938,1.882 -18.574,4.318 -18.368,6.117 0.128,1.106 3.202,1.771 8.125,1.966 5.466,0.217 13.212,-0.146 21.751,-1.132 z"
           inkscape:connector-curvature="0" />
        <path
           id="path2748"
           d="m 700.756,58.212 c 2.033,0 3.996,0.614 5.675,1.774 4.535,3.131 5.679,9.37 2.548,13.905 l -0.006,0.013 -0.065,0.089 c -1.071,1.51 -6.656,9.163 -16.672,19.283 3.435,10.457 6.504,22.054 6.618,32.933 0.003,0.04 0.008,0.076 0.011,0.115 -3.874,8.155 -10.229,25.545 -10.219,51.67 0,14.206 1.876,30.955 6.964,50.099 1.486,5.597 6.544,9.293 12.074,9.294 1.062,0 2.141,-0.137 3.215,-0.421 6.673,-1.774 10.645,-8.62 8.873,-15.291 -4.551,-17.129 -6.123,-31.668 -6.125,-43.681 0.002,-15.191 2.519,-26.359 4.893,-33.581 0.977,-2.965 1.929,-5.25 2.681,-6.874 6.472,-2.331 12.084,-7.314 12.646,-19.016 C 733.24,96.166 729.913,83.38 720.281,64.391 713.2,50.621 700.286,47.809 692.144,51.138 c -6.96,2.847 -9.421,12.263 -7.328,20.833 5.025,-5.654 7.616,-9.317 7.681,-9.412 1.888,-2.733 4.968,-4.347 8.259,-4.347 z"
           inkscape:connector-curvature="0" />
        <rect
           id="rect2750"
           height="64.496002"
           width="64.496002"
           y="167.98599"
           x="590.94702" />
        <rect
           id="rect2752"
           height="64.496002"
           width="64.496002"
           y="167.98599"
           x="518.95099" />
        <path
           id="path2754"
           d="m 590.947,161.148 h 64.496 v -37.863 c -1.524,0.996 -3.068,1.989 -4.656,2.972 -1.585,0.977 -3.398,1.494 -5.249,1.494 -3.496,0 -6.682,-1.774 -8.516,-4.743 -1.404,-2.272 -1.84,-4.955 -1.229,-7.554 0.615,-2.602 2.206,-4.808 4.48,-6.21 5.478,-3.383 10.532,-6.876 15.169,-10.358 v -2.233 h -64.496 v 64.495 z"
           inkscape:connector-curvature="0" />
        <path
           id="path2756"
           d="m 638.723,121.956 c 1.514,2.447 4.133,3.794 6.813,3.794 1.435,0 2.887,-0.386 4.197,-1.195 38.043,-23.543 57.187,-51.231 57.598,-51.797 2.51,-3.636 1.598,-8.617 -2.038,-11.127 -3.636,-2.512 -8.618,-1.598 -11.129,2.038 v -0.002 c 0,0 0,0.002 -0.017,0.024 -0.711,1.037 -18.637,26.143 -52.825,47.254 -3.759,2.322 -4.922,7.253 -2.599,11.011 z"
           inkscape:connector-curvature="0" />
        <path
           id="path2758"
           d="m 390.873,170.415 c 2.46,0 4.827,0.905 6.665,2.547 1.99,1.781 3.166,4.231 3.315,6.899 0.066,1.205 -0.092,2.388 -0.438,3.509 l 8.642,3.408 5.403,-13.699 c -0.756,-0.598 -1.439,-1.293 -2.006,-2.102 -1.528,-2.192 -2.115,-4.847 -1.648,-7.477 0.468,-2.63 1.932,-4.921 4.123,-6.45 2.934,-2.057 5.561,-4.308 7.906,-6.76 l -2.758,-1.088 c 4.446,-3.482 8.139,-7.171 11.177,-10.91 0.785,-1.572 1.505,-3.2 2.151,-4.894 3.3,-8.681 3.785,-16.907 3.779,-21.04 0,-2.993 -0.236,-4.818 -0.238,-4.835 -0.772,-5.45 3.035,-10.521 8.487,-11.301 0.474,-0.068 0.95,-0.101 1.424,-0.101 4.94,0 9.191,3.69 9.89,8.586 0.016,0.111 0.435,3.002 0.438,7.647 -0.005,5.549 -0.613,13.555 -3.172,22.395 4.684,4.549 9.32,9.485 13.289,14.728 l -26.306,20.39 c -2.749,2.132 -4.466,5.251 -4.788,8.716 -0.324,3.467 0.783,6.849 3.091,9.455 l 39.001,44 c 2.469,2.786 5.906,4.208 9.357,4.208 2.949,0 5.908,-1.037 8.288,-3.145 5.166,-4.579 5.643,-12.479 1.064,-17.645 l -30.145,-34.01 20.641,-15.997 c 1.341,-0.72 2.773,-1.709 4.369,-2.872 7.407,-5.396 15.253,-13.33 8.114,-28.097 -11.238,-19.338 -20.272,-28.977 -37.81,-41.052 -12.074,-8.215 -24.045,-5.386 -30.031,0.682 -1.744,1.296 -2.927,3.273 -3.181,5.509 -0.422,1.709 -0.479,3.541 -0.224,5.408 -0.403,3.689 -1.598,9.544 -5.014,15.863 -3.794,6.958 -10.132,14.667 -21.746,21.173 l -14.896,-5.875 -14.31,36.278 8.674,3.422 c 0.658,-0.705 1.315,-1.415 1.967,-2.142 1.894,-2.115 4.612,-3.331 7.456,-3.331 z"
           inkscape:connector-curvature="0" />
        <path
           id="path2760"
           d="m 846.186,144.417 c 2.705,0 5.345,-1.372 6.851,-3.854 2.29,-3.78 1.084,-8.699 -2.694,-10.988 -18.922,-11.498 -28.239,-24.479 -33.124,-35.09 -4.858,-10.604 -5.146,-18.959 -5.141,-20.663 -0.002,-0.138 0.002,-0.227 0.002,-0.269 0.219,-4.395 -3.153,-8.145 -7.549,-8.386 -4.411,-0.243 -8.185,3.135 -8.427,7.547 l -0.003,-0.002 c -0.008,0.139 -0.025,0.517 -0.025,1.109 0.005,3.366 0.52,14.033 6.592,27.32 6.048,13.28 17.788,29.06 39.382,42.117 1.294,0.786 2.724,1.159 4.136,1.159 z"
           inkscape:connector-curvature="0" />
        <path
           id="path2762"
           d="m 445.717,98.205 c -4.371,0.624 -7.409,4.671 -6.789,9.041 h -10e-4 v 0.008 h 10e-4 10e-4 v 0 h -10e-4 c 0.033,0.259 0.256,2.15 0.256,5.104 0.006,5.075 -0.678,13.253 -3.91,21.756 -3.256,8.523 -8.88,17.343 -19.201,24.577 -3.623,2.529 -4.509,7.516 -1.978,11.139 1.556,2.227 4.04,3.419 6.565,3.419 1.582,0.001 3.179,-0.467 4.574,-1.441 13.238,-9.227 20.881,-21.094 25,-32.023 4.142,-10.95 4.943,-20.987 4.949,-27.427 -0.002,-4.341 -0.373,-7.061 -0.417,-7.366 -0.624,-4.373 -4.675,-7.412 -9.049,-6.787 z"
           inkscape:connector-curvature="0" />
        <path
           id="path2764"
           d="m 318.211,155.735 -14.308,19.143 c 1.55,8.566 8.023,15.818 17.04,17.917 12.1,2.818 24.191,-4.707 27.01,-16.807 2.818,-12.1 -4.707,-24.191 -16.807,-27.008 -3.748,-0.873 -7.495,-0.751 -10.966,0.189 0.14,2.355 -0.543,4.659 -1.969,6.566 z"
           inkscape:connector-curvature="0" />
        <path
           id="path2766"
           d="m 334.88,225.822 c -5.837,1.124 -9.955,1.267 -11.582,1.267 -0.425,0 -0.694,-0.008 -0.791,-0.013 -5.483,-0.184 -9.817,-4.817 -9.633,-10.326 0.182,-5.422 4.57,-9.668 9.986,-9.668 l 0.314,0.007 0.123,-0.003 c 0.592,0 4.516,-0.06 10.552,-1.493 -1.767,-3.242 -4.417,-5.671 -7.84,-6.523 -8.537,-2.129 -20.912,2.508 -25.947,17.15 -6.805,20.174 -8.268,33.305 -5.682,55.52 2.112,10.871 7.829,15.151 14.142,16.752 2.546,8.387 5.723,22.19 5.701,38.757 -0.002,13.219 -1.979,28.171 -7.764,43.8 -2.397,6.475 0.908,13.666 7.38,16.064 1.431,0.53 2.897,0.781 4.339,0.781 5.082,10e-4 9.857,-3.119 11.725,-8.163 6.956,-18.782 9.321,-36.776 9.319,-52.482 -0.03,-25.05 -5.912,-44.317 -9.09,-52.939 -2.151,-16.089 1.964,-34.698 4.748,-48.488 z"
           inkscape:connector-curvature="0" />
        <path
           id="path2768"
           d="m 323.114,209.088 c -4.406,-0.137 -8.093,3.32 -8.241,7.729 -0.148,4.415 3.313,8.114 7.729,8.264 v -0.002 c 0.086,0.004 0.321,0.01 0.695,0.01 2.779,0 12.713,-0.396 26.229,-5.545 13.511,-5.136 30.568,-15.073 47.303,-33.792 2.946,-3.294 2.665,-8.35 -0.626,-11.297 -3.293,-2.946 -8.35,-2.665 -11.296,0.629 -15.036,16.786 -29.751,25.183 -41.077,29.509 -11.315,4.313 -19.283,4.496 -20.533,4.496 -0.095,0 -0.156,0 -0.184,-0.002 v 0.001 z"
           inkscape:connector-curvature="0" />
        <path
           id="path2770"
           d="m 240.557,171.329 c 0.19,10.054 7.152,19.083 17.393,21.467 2.436,0.567 4.872,0.709 7.232,0.484 l 19.948,-26.691 c -1.646,-8.431 -8.069,-15.534 -16.978,-17.608 -4.855,-1.131 -9.707,-0.593 -13.962,1.234 -0.089,1.984 -0.763,3.895 -1.98,5.52 z"
           inkscape:connector-curvature="0" />
        <path
           id="path2772"
           d="m 259.87,227.085 c -2.174,0 -4.243,-0.689 -5.982,-1.997 -2.136,-1.595 -3.525,-3.931 -3.908,-6.573 -0.384,-2.644 0.287,-5.279 1.889,-7.419 l 9.248,-12.375 c -8.381,-1.057 -19.374,3.91 -24.047,17.499 -6.805,20.174 -8.268,33.305 -5.682,55.52 2.112,10.871 7.83,15.151 14.141,16.752 2.547,8.387 5.725,22.19 5.703,38.757 -0.003,13.219 -1.98,28.171 -7.765,43.8 -2.397,6.475 0.905,13.666 7.38,16.064 1.432,0.53 2.898,0.781 4.34,0.781 5.08,10e-4 9.856,-3.119 11.725,-8.163 6.955,-18.782 9.32,-36.776 9.318,-52.482 -0.029,-25.05 -5.912,-44.317 -9.09,-52.939 -2.299,-17.188 2.558,-37.256 5.297,-51.247 0.689,-2.389 0.992,-4.889 0.943,-7.34 l -5.492,7.348 c -1.88,2.512 -4.876,4.014 -8.018,4.014 z"
           inkscape:connector-curvature="0" />
        <path
           id="path2774"
           d="m 253.469,212.294 c -2.646,3.538 -1.921,8.552 1.617,11.196 1.438,1.075 3.117,1.594 4.783,1.594 2.438,0 4.844,-1.109 6.414,-3.212 l 50.326,-67.333 c 2.644,-3.538 1.92,-8.553 -1.618,-11.197 -3.538,-2.645 -8.553,-1.92 -11.197,1.618 z"
           inkscape:connector-curvature="0" />
        <path
           id="path2776"
           d="m 202.153,148.981 c -12.1,-2.818 -24.193,4.707 -27.012,16.805 -2.816,12.1 4.709,24.193 16.809,27.01 2.436,0.567 4.871,0.709 7.23,0.484 l 19.95,-26.69 c -1.645,-8.432 -8.069,-15.535 -16.977,-17.609 z"
           inkscape:connector-curvature="0" />
        <path
           id="path2778"
           d="m 206.436,223.061 c 0.689,-2.39 0.992,-4.892 0.943,-7.344 l -5.496,7.352 c -1.876,2.514 -4.873,4.016 -8.015,4.016 -2.173,0 -4.239,-0.689 -5.982,-1.994 -4.414,-3.296 -5.322,-9.575 -2.023,-13.995 l 9.25,-12.376 c -8.381,-1.055 -19.373,3.912 -24.045,17.5 -6.805,20.174 -8.268,33.305 -5.682,55.52 2.112,10.871 7.83,15.151 14.142,16.752 2.546,8.387 5.723,22.192 5.701,38.757 -0.002,13.219 -1.98,28.171 -7.764,43.8 -2.397,6.475 0.907,13.666 7.38,16.064 1.431,0.53 2.898,0.781 4.34,0.781 5.08,10e-4 9.856,-3.119 11.724,-8.163 6.956,-18.782 9.321,-36.776 9.319,-52.482 -0.029,-25.05 -5.912,-44.317 -9.09,-52.939 -2.298,-17.189 2.559,-37.258 5.298,-51.249 z"
           inkscape:connector-curvature="0" />
        <path
           id="path2780"
           d="m 189.087,223.49 c 1.438,1.075 3.117,1.594 4.783,1.594 2.438,0 4.843,-1.109 6.414,-3.212 l 50.327,-67.333 c 2.645,-3.538 1.921,-8.553 -1.62,-11.197 -3.539,-2.645 -8.553,-1.92 -11.197,1.618 l -50.326,67.334 c -2.645,3.538 -1.92,8.551 1.619,11.196 z"
           inkscape:connector-curvature="0" />
        <ellipse
           id="ellipse2782"
           ry="22.493999"
           rx="22.495001"
           cy="189.16901"
           cx="1174.748"
           transform="matrix(0.9739,-0.2268,0.2268,0.9739,-12.2917,271.3535)" />
        <path
           id="path2784"
           d="m 1248.944,364.405 c -17.96,-10.259 -27.473,-21.493 -32.89,-31.735 -5.386,-10.246 -6.65,-19.808 -6.657,-26.652 0,-1.174 0.039,-2.263 0.101,-3.255 4.098,-2.464 7.456,-6.864 8.967,-14.641 1.472,-12.643 1.627,-22.345 0.237,-32.077 -2.436,-2.162 -5.088,-4.194 -7.976,-6.081 -9.907,-6.464 -19.082,-8.811 -19.168,-8.832 -5.378,-1.289 -8.697,-6.696 -7.415,-12.059 1.082,-4.519 5.08,-7.674 9.722,-7.674 0.78,0 1.567,0.093 2.333,0.276 l 0.016,0.005 0.097,0.024 c 1.889,0.481 7.097,1.964 13.827,5.116 -5.928,-10.065 -16.012,-13.188 -23.302,-11.369 -0.381,0.095 -0.749,0.216 -1.11,0.349 -1.58,0.193 -3.119,0.852 -4.388,2.001 l -10e-4,-10e-4 c -0.084,0.079 -3.955,3.485 -10.899,6.806 -6.957,3.325 -16.93,6.578 -29.517,6.578 -6.854,0 -14.507,-0.96 -22.952,-3.455 -4.238,-1.251 -8.688,1.17 -9.938,5.408 -1.253,4.237 1.168,8.686 5.406,9.938 9.9,2.926 19.125,4.113 27.484,4.11 0,0 0.01,0 0.012,0 15.361,0 27.716,-3.989 36.378,-8.138 0.036,0.133 0.067,0.266 0.105,0.396 2.677,13.672 7.357,33.14 5.425,50.059 -4.492,3.836 -10.389,9.335 -16.718,16.493 -13.152,14.896 -28.252,37.081 -35.647,66.344 -1.69,6.694 2.367,13.491 9.061,15.18 1.026,0.259 2.055,0.382 3.066,0.382 5.59,10e-4 10.682,-3.777 12.111,-9.443 6.104,-24.241 18.837,-43.118 30.146,-55.91 0.34,-0.386 0.678,-0.765 1.015,-1.139 1.36,7.05 3.824,14.857 8.049,22.893 7.618,14.563 21.038,29.569 42.655,41.832 6.001,3.414 13.633,1.316 17.047,-4.682 3.414,-6 1.318,-13.634 -4.682,-17.047 z"
           inkscape:connector-curvature="0" />
        <path
           id="path2786"
           d="m 1186.09,229.539 c -1.029,4.298 1.619,8.614 5.916,9.644 l 0.01,0.003 c 0.619,0.145 9.846,2.606 19.807,9.104 10.013,6.542 20.567,16.779 25.381,32.899 1.034,3.47 4.218,5.715 7.664,5.716 0.757,0 1.526,-0.108 2.289,-0.337 4.233,-1.261 6.644,-5.718 5.382,-9.952 -6.369,-21.367 -20.774,-34.728 -33.162,-42.486 -12.44,-7.805 -23.098,-10.365 -23.642,-10.507 -4.3,-1.031 -8.616,1.619 -9.644,5.916 z"
           inkscape:connector-curvature="0" />
        <path
           id="path2788"
           d="m 935.088,149.17 c -3.472,-0.94 -7.219,-1.062 -10.967,-0.189 -12.1,2.816 -19.625,14.908 -16.807,27.008 2.818,12.1 14.91,19.625 27.01,16.807 9.016,-2.099 15.488,-9.349 17.038,-17.913 l -14.31,-19.146 c -1.466,-1.963 -2.098,-4.293 -1.964,-6.567 z"
           inkscape:connector-curvature="0" />
        <path
           id="path2790"
           d="m 929.258,199.069 c -3.423,0.853 -6.074,3.281 -7.841,6.524 6.037,1.434 9.959,1.493 10.551,1.493 h 0.108 l 0.326,-0.004 c 5.424,0 9.81,4.248 9.988,9.67 0.089,2.668 -0.866,5.212 -2.692,7.163 -1.825,1.949 -4.299,3.073 -6.97,3.161 -0.13,0.004 -0.377,0.011 -0.761,0.011 -1.628,0 -5.744,-0.142 -11.58,-1.266 2.782,13.787 6.898,32.393 4.748,48.479 -3.178,8.619 -9.064,27.891 -9.094,52.947 -0.002,15.705 2.362,33.699 9.322,52.482 1.867,5.043 6.643,8.161 11.724,8.161 1.441,0 2.908,-0.251 4.34,-0.78 6.474,-2.398 9.777,-9.59 7.379,-16.064 -5.789,-15.628 -7.763,-30.581 -7.766,-43.8 -0.002,-14.127 2.281,-26.241 4.543,-34.71 0.391,-1.463 0.78,-2.81 1.156,-4.046 6.313,-1.599 12.033,-5.879 14.146,-16.753 2.586,-22.215 1.123,-35.346 -5.682,-55.52 -5.033,-14.64 -17.408,-19.277 -25.945,-17.148 z"
           inkscape:connector-curvature="0" />
        <path
           id="path2792"
           d="m 932.662,225.079 c 4.415,-0.148 7.877,-3.846 7.73,-8.261 -0.146,-4.411 -3.835,-7.867 -8.241,-7.73 v -0.002 c -0.026,0.002 -0.09,0.002 -0.184,0.002 -1.251,0 -9.218,-0.184 -20.536,-4.496 -11.324,-4.325 -26.039,-12.722 -41.073,-29.51 -2.947,-3.294 -8.005,-3.573 -11.297,-0.627 -3.292,2.945 -3.573,8.003 -0.627,11.297 16.734,18.719 33.791,28.656 47.302,33.791 13.518,5.147 23.451,5.545 26.231,5.545 0.376,0 0.61,-0.007 0.695,-0.009 z"
           inkscape:connector-curvature="0" />
        <path
           id="path2794"
           d="m 997.317,192.796 c 10.238,-2.383 17.199,-11.409 17.393,-21.459 l -11.658,-15.598 c -1.215,-1.628 -1.891,-3.539 -1.978,-5.524 -4.254,-1.826 -9.105,-2.364 -13.96,-1.233 -8.91,2.074 -15.333,9.179 -16.979,17.611 l 19.947,26.688 c 2.362,0.224 4.798,0.082 7.235,-0.485 z"
           inkscape:connector-curvature="0" />
        <path
           id="path2796"
           d="m 979.036,327.249 c -0.004,15.705 2.36,33.698 9.321,52.481 1.866,5.043 6.642,8.162 11.722,8.162 1.442,0 2.91,-0.252 4.342,-0.782 6.473,-2.397 9.776,-9.59 7.38,-16.064 -5.789,-15.628 -7.763,-30.58 -7.765,-43.798 0,-14.127 2.278,-26.242 4.542,-34.712 0.391,-1.463 0.779,-2.809 1.155,-4.045 6.314,-1.599 12.033,-5.879 14.146,-16.753 2.586,-22.215 1.123,-35.346 -5.682,-55.52 -4.673,-13.59 -15.667,-18.557 -24.049,-17.499 l 9.251,12.377 c 1.599,2.139 2.269,4.773 1.887,7.416 -0.383,2.645 -1.771,4.98 -3.911,6.581 -1.736,1.301 -3.801,1.988 -5.967,1.988 h -0.011 c -3.142,0 -6.14,-1.5 -8.018,-4.01 l -5.493,-7.349 c -0.048,2.45 0.255,4.95 0.943,7.337 2.739,13.989 7.595,34.053 5.298,51.238 -3.175,8.623 -9.061,27.895 -9.091,52.952 z"
           inkscape:connector-curvature="0" />
        <path
           id="path2798"
           d="m 995.397,225.083 c 1.666,0.001 3.346,-0.518 4.782,-1.592 3.538,-2.645 4.264,-7.659 1.617,-11.197 L 951.47,144.962 c -2.646,-3.54 -7.657,-4.264 -11.197,-1.619 -3.538,2.645 -4.264,7.657 -1.617,11.197 l 50.326,67.333 c 1.571,2.1 3.978,3.21 6.415,3.21 z"
           inkscape:connector-curvature="0" />
        <path
           id="path2800"
           d="m 1063.317,192.796 c 12.1,-2.816 19.625,-14.91 16.809,-27.01 -2.818,-12.098 -14.912,-19.623 -27.012,-16.805 -8.909,2.074 -15.332,9.179 -16.979,17.611 l 19.948,26.688 c 2.361,0.225 4.797,0.083 7.234,-0.484 z"
           inkscape:connector-curvature="0" />
        <path
           id="path2802"
           d="m 1071.286,218.511 c -0.381,2.646 -1.771,4.982 -3.91,6.581 -1.741,1.301 -3.81,1.992 -5.981,1.992 -3.142,0 -6.139,-1.503 -8.016,-4.017 l -5.491,-7.346 c -0.048,2.451 0.255,4.951 0.943,7.339 2.739,13.989 7.595,34.054 5.298,51.24 -3.178,8.62 -9.063,27.891 -9.094,52.947 0,15.704 2.361,33.698 9.321,52.481 1.867,5.042 6.644,8.161 11.723,8.161 1.443,10e-4 2.909,-0.251 4.342,-0.781 6.472,-2.398 9.777,-9.59 7.38,-16.061 -5.79,-15.629 -7.764,-30.582 -7.766,-43.8 -0.01,-14.128 2.281,-26.243 4.542,-34.71 0.391,-1.464 0.78,-2.81 1.156,-4.047 6.313,-1.6 12.033,-5.879 14.146,-16.753 2.586,-22.215 1.123,-35.346 -5.682,-55.52 -4.673,-13.59 -15.666,-18.557 -24.048,-17.499 l 9.248,12.373 c 1.601,2.142 2.27,4.777 1.889,7.42 z"
           inkscape:connector-curvature="0" />
        <path
           id="path2804"
           d="m 1054.98,221.871 c 1.571,2.102 3.979,3.212 6.415,3.212 1.666,0 3.347,-0.519 4.782,-1.594 3.54,-2.644 4.265,-7.657 1.618,-11.197 l -50.324,-67.33 c -2.644,-3.54 -7.658,-4.264 -11.198,-1.618 -3.539,2.644 -4.264,7.658 -1.618,11.197 z"
           inkscape:connector-curvature="0" />
      </g>
    </g>
    <g
       style="fill:#002451"
       id="g2944"
       transform="matrix(1.2538978,0,0,1.278028,17.653433,15.499098)">
      <path
         id="path2909"
         d="M 97.315,58.782 H 74.447 v -23 h 9.046 c 0.899,0.002 1.701,0.563 2.013,1.406 l 3.882,9.868 c 0.161,0.432 0.475,0.791 0.886,1.001 l 5.878,2.713 c 0.716,0.365 1.167,1.104 1.164,1.907 v 6.105 z"
         inkscape:connector-curvature="0" />
      <path
         id="path2911"
         d="m 48.289,69.396 c 0,3.559 -2.889,6.445 -6.449,6.445 -3.561,0 -6.447,-2.887 -6.447,-6.445 0,-3.563 2.886,-6.449 6.447,-6.449 3.56,0 6.449,2.887 6.449,6.449 z"
         inkscape:connector-curvature="0" />
      <path
         id="path2913"
         d="m 89.966,69.396 c 0,3.559 -2.886,6.445 -6.446,6.445 -3.56,0 -6.448,-2.887 -6.448,-6.445 0,-3.563 2.888,-6.449 6.448,-6.449 3.56,0 6.446,2.887 6.446,6.449 z"
         inkscape:connector-curvature="0" />
      <path
         id="path2915"
         d="M 97.157,60.165 H 33.455 28.78 28.771 c -1.018,0 -1.842,1.666 -1.842,3.72 0,2.056 0.825,3.722 1.842,3.722 l 4.977,-0.043 c 0.716,-3.1 3.134,-5.518 6.232,-6.232 4.477,-1.035 8.944,1.755 9.98,6.232 h 25.473 c 0.727,-3.097 3.148,-5.511 6.25,-6.216 4.479,-1.023 8.939,1.779 9.962,6.259 l 5.513,0.001 c 1.019,0 1.843,-1.666 1.843,-3.721 C 99,61.831 98.176,60.165 97.157,60.165 Z"
         inkscape:connector-curvature="0" />
      <path
         id="path2917"
         d="M 2.842,31.866 C 1.826,31.866 1,32.691 1,33.709 1,34.726 1.826,35.55 2.842,35.55 H 28.78 v -3.684 z"
         inkscape:connector-curvature="0" />
      <path
         id="path2919"
         d="m 7.631,39.654 c -1.017,0 -1.842,0.824 -1.842,1.842 0,1.017 0.826,1.842 1.842,1.842 H 28.78 v -3.684 z"
         inkscape:connector-curvature="0" />
      <path
         id="path2921"
         d="m 12.42,47.44 c -1.017,0 -1.842,0.826 -1.842,1.843 0,1.017 0.825,1.842 1.842,1.842 H 28.78 V 47.44 Z"
         inkscape:connector-curvature="0" />
      <path
         id="path2923"
         d="M 70.636,24.209 H 31.21 c -1.342,0 -2.431,1.087 -2.431,2.429 v 5.039 0.189 h 5.276 c 1.018,0 1.843,0.825 1.843,1.843 0,1.017 -0.826,1.841 -1.843,1.841 H 28.78 v 4.104 h 5.276 c 1.018,0 1.843,0.824 1.843,1.842 0,1.017 -0.826,1.842 -1.843,1.842 H 28.78 v 4.102 h 5.276 c 1.018,0 1.843,0.826 1.843,1.843 0,1.017 -0.826,1.842 -1.843,1.842 H 28.78 v 7.657 H 73.065 V 26.638 C 73.064,25.296 71.977,24.209 70.636,24.209 Z M 52.26,52.087 c -5.849,0 -10.591,-4.743 -10.591,-10.59 0,-5.852 4.743,-10.593 10.591,-10.593 5.851,0 10.595,4.742 10.595,10.593 -10e-4,5.847 -4.745,10.59 -10.595,10.59 z"
         inkscape:connector-curvature="0" />
      <polygon
         id="polygon2925"
         points="57.638,36.743 50.28,44.101 46.958,40.78 45.528,42.21 50.28,46.96 59.067,38.173 " />
    </g>
  </g>
  <style
     id="style1243"
     type="text/css">
	.st0{fill:#002451;}
</style>
  <style
     id="style1301"
     type="text/css">
	.st0{fill:none;stroke:#002451;stroke-linecap:round;stroke-linejoin:round;stroke-miterlimit:10;}
</style>
</svg>
