<?xml version="1.0" encoding="UTF-8" standalone="no"?>
<!-- Created with Inkscape (http://www.inkscape.org/) -->

<svg
   xmlns:dc="http://purl.org/dc/elements/1.1/"
   xmlns:cc="http://creativecommons.org/ns#"
   xmlns:rdf="http://www.w3.org/1999/02/22-rdf-syntax-ns#"
   xmlns:svg="http://www.w3.org/2000/svg"
   xmlns="http://www.w3.org/2000/svg"
   xmlns:sodipodi="http://sodipodi.sourceforge.net/DTD/sodipodi-0.dtd"
   xmlns:inkscape="http://www.inkscape.org/namespaces/inkscape"
   width="64"
   height="64"
   viewBox="0 0 16.933333 16.933334"
   version="1.1"
   id="svg9098"
   inkscape:version="0.92.1 15371"
   sodipodi:docname="hrm.svg">
  <defs
     id="defs9092" />
  <sodipodi:namedview
     id="base"
     pagecolor="#ffffff"
     bordercolor="#666666"
     borderopacity="1.0"
     inkscape:pageopacity="0.0"
     inkscape:pageshadow="2"
     inkscape:zoom="8.359375"
     inkscape:cx="32"
     inkscape:cy="32"
     inkscape:document-units="mm"
     inkscape:current-layer="layer1"
     showgrid="false"
     units="px"
     inkscape:window-width="1366"
     inkscape:window-height="709"
     inkscape:window-x="0"
     inkscape:window-y="35"
     inkscape:window-maximized="1" />
  <metadata
     id="metadata9095">
    <rdf:RDF>
      <cc:Work
         rdf:about="">
        <dc:format>image/svg+xml</dc:format>
        <dc:type
           rdf:resource="http://purl.org/dc/dcmitype/StillImage" />
        <dc:title></dc:title>
      </cc:Work>
    </rdf:RDF>
  </metadata>
  <g
     inkscape:label="Layer 1"
     inkscape:groupmode="layer"
     id="layer1"
     transform="translate(0,-280.06665)">
    <g
       style="fill:#002451"
       id="g6560"
       transform="matrix(0.05621963,0,0,0.05882195,1.3180028,281.27315)">
      <g
         id="g6536">
        <g
           id="g6534">
          <g
             id="g6524">
            <path
               id="path6510"
               d="m 203.026,185.688 v 29.159 c 0,7.172 -5.871,13.043 -13.043,13.043 h -78.178 v 13.713 h 78.178 c 14.737,0 26.756,-12.018 26.756,-26.756 v -29.869 c -3.468,0.512 -7.054,0.788 -10.679,0.788 -1.024,0.001 -2.009,-0.039 -3.034,-0.078 z M 189.983,1.906 H 42.177 c -14.698,0 -26.716,11.979 -26.716,26.756 v 93.073 H 29.174 V 28.661 c 0,-7.172 5.832,-13.003 13.003,-13.003 h 147.806 c 7.172,0 13.043,5.832 13.043,13.003 V 57.86 c 1.025,-0.039 2.01,-0.079 3.034,-0.079 3.625,0 7.211,0.276 10.679,0.788 V 28.661 c 0,-14.776 -12.019,-26.755 -26.756,-26.755 z"
               inkscape:connector-curvature="0"
               style="fill:#002451" />
            <g
               id="g6514">
              <path
                 id="path6512"
                 d="m 222.271,135.553 c -0.72,5.418 -4.19,8.593 -9.238,10.184 -1.207,0.384 -2.476,0.569 -3.895,0.892 v 6.275 h -5.233 v -6.22 c -10.431,-2.27 -14.964,-7.105 -14.161,-15.067 h 9.107 c 0.075,0.555 0.165,1.097 0.226,1.639 0.384,3.415 2.675,5.658 6.083,5.911 0.665,0.055 1.33,0.055 1.996,0.027 2.846,-0.096 4.732,-1.399 5.459,-3.744 0.857,-2.736 0.117,-5.685 -2.126,-7.139 -1.742,-1.132 -3.744,-1.865 -5.61,-2.805 -2.908,-1.447 -6.055,-2.572 -8.661,-4.437 -7.612,-5.459 -6.522,-17.501 1.872,-21.712 1.893,-0.946 4.046,-1.399 6.378,-2.181 V 90.64 h 5.198 v 6.885 c 4.526,0.837 8.401,2.613 10.801,6.686 1.296,2.195 1.989,5.356 1.714,7.9 h -9.169 c -0.233,-1.193 -0.343,-2.352 -0.706,-3.436 -0.864,-2.613 -2.949,-3.923 -5.898,-3.875 -2.853,0.048 -4.499,1.118 -5.267,3.443 -0.933,2.819 -0.322,5.767 1.858,7.187 1.872,1.228 3.991,2.085 6.021,3.079 2.572,1.262 5.281,2.291 7.708,3.786 4.94,3.04 6.27,7.847 5.543,13.258 z"
                 inkscape:connector-curvature="0"
                 style="fill:#002451" />
            </g>
            <path
               id="path6516"
               d="m 206.055,73.733 c -26.488,0 -48.04,21.55 -48.04,48.04 0,26.49 21.551,48.038 48.04,48.038 26.489,0 48.04,-21.548 48.04,-48.038 0,-26.49 -21.552,-48.04 -48.04,-48.04 z m 0,88.733 c -22.439,0 -40.695,-18.256 -40.695,-40.693 0,-22.439 18.256,-40.695 40.695,-40.695 22.439,0 40.695,18.256 40.695,40.695 0,22.437 -18.256,40.693 -40.695,40.693 z"
               inkscape:connector-curvature="0"
               style="fill:#002451" />
            <g
               id="g6522">
              <polygon
                 id="polygon6518"
                 points="31.43,244.709 31.43,244.687 31.429,244.687 "
                 style="fill:#002451" />
              <path
                 id="path6520"
                 d="m 99.058,147.234 c 0,-6.234 -2.277,-10.402 -6.581,-12.487 -2.027,-0.965 -4.497,-1.525 -7.449,-1.525 -23.024,-0.019 -46.048,-0.019 -69.092,0 -2.933,0 -5.365,0.54 -7.411,1.525 -4.323,2.065 -6.6,6.253 -6.6,12.487 -0.019,17.485 -0.019,22.773 -0.019,40.258 0,17.562 0,35.144 0.019,52.726 0,8.993 4.844,13.857 13.876,13.857 11.56,0.019 23.121,0.019 34.681,0.019 11.58,0 23.14,0 34.7,-0.019 9.013,0 13.857,-4.863 13.876,-13.857 0.019,-17.582 0,-35.163 0,-52.726 0,-17.484 0.019,-22.772 0,-40.258 z M 42.23,236.551 c -1.004,0.027 -2.032,0.035 -3.061,0.035 l -2.676,-0.008 0.002,1.193 c 0.004,1.458 0.008,2.917 -0.029,4.371 -0.071,2.628 -2.19,4.537 -5.035,4.537 l -0.208,-0.004 c -2.79,-0.069 -4.724,-1.901 -4.797,-4.556 -0.021,-0.893 -0.019,-1.766 -0.015,-2.644 l 0.002,-2.898 h -5.749 c -1.458,-0.008 -2.688,-0.485 -3.569,-1.381 -0.883,-0.893 -1.343,-2.132 -1.333,-3.579 0,-2.89 1.947,-4.845 4.845,-4.845 1.768,-0.015 3.554,-0.015 5.339,-0.015 l 0.477,-0.181 c -0.008,-1.762 -0.012,-3.452 0.019,-5.153 0.021,-2.467 1.378,-4.198 3.723,-4.725 3.386,-0.781 6.295,1.547 6.315,4.972 0.01,1.532 0.008,3.063 0.004,4.637 l -0.002,0.466 3.708,-0.012 2.007,0.012 c 2.848,0.05 4.926,2.066 4.949,4.799 0.044,2.828 -2.022,4.929 -4.916,4.979 z m -3.29,-43.457 c 1.174,1.166 2.347,2.336 3.496,3.529 1.826,1.897 2.074,4.31 0.648,6.295 -0.985,1.378 -2.438,2.17 -3.985,2.17 -1.289,0 -2.565,-0.558 -3.592,-1.562 -1.21,-1.193 -2.394,-2.417 -3.611,-3.675 l -0.387,-0.4 -3.756,3.806 c -1.226,1.247 -2.49,1.508 -3.332,1.508 -0.723,0 -1.443,-0.185 -2.143,-0.55 -1.734,-0.912 -2.878,-2.482 -3.071,-4.194 -0.179,-1.597 0.456,-3.105 1.793,-4.252 1.118,-0.977 2.19,-2.032 3.296,-3.117 l 0.198,-0.192 c -1.482,-1.443 -2.875,-2.801 -4.243,-4.191 -0.97,-0.981 -1.495,-2.217 -1.472,-3.471 0.021,-1.251 0.558,-2.432 1.549,-3.409 1.957,-1.959 4.835,-1.986 6.853,-0.031 0.741,0.708 1.466,1.439 2.195,2.174 l 1.98,1.974 c 1.233,-1.274 2.419,-2.501 3.646,-3.694 1.33,-1.301 2.647,-1.578 3.517,-1.578 0.956,0 2.384,0.327 3.762,1.87 1.909,2.113 1.839,4.722 -0.19,6.803 -1.051,1.07 -2.12,2.109 -3.2,3.159 l -0.494,0.485 z m 40.212,-2.239 c -2.778,0.015 -5.57,0.015 -8.36,0.015 -2.834,0 -5.653,0 -8.487,-0.015 -2.734,0 -4.666,-1.997 -4.687,-4.856 -0.012,-1.412 0.479,-2.698 1.387,-3.61 0.854,-0.866 2.026,-1.339 3.296,-1.339 h 16.835 c 1.466,0 2.721,0.485 3.623,1.405 0.889,0.9 1.347,2.128 1.324,3.544 -0.021,2.989 -1.91,4.856 -4.931,4.856 z m 4.878,8.658 c 0.179,1.551 -0.2,2.913 -1.095,3.929 -0.631,0.723 -1.814,1.585 -3.856,1.616 -1.126,0.023 -2.265,0.031 -3.406,0.031 l -13.195,-0.015 c -2.738,0 -3.885,-1.624 -4.331,-2.594 -0.779,-1.697 -0.671,-3.675 0.281,-5.16 0.885,-1.381 2.397,-2.174 4.15,-2.174 1.693,0.058 3.184,0.073 4.675,0.073 l 9.626,-0.038 c 0.829,0 1.659,0.012 2.484,0.042 2.637,0.115 4.378,1.72 4.667,4.29 z m -3.517,37.053 -18.211,0.012 h -0.013 c -2.717,-0.019 -4.631,-2.039 -4.656,-4.914 -0.012,-1.401 0.471,-2.667 1.358,-3.559 0.852,-0.858 2.038,-1.331 3.34,-1.331 2.998,-0.015 6.022,-0.015 9.045,-0.015 l 9.166,0.015 c 2.78,0.023 4.724,2.016 4.724,4.845 -0.022,2.985 -1.889,4.924 -4.753,4.947 z m 7.062,-69.357 H 13.543 l -1.698,-22.483 h 77.294 z"
                 inkscape:connector-curvature="0"
                 style="fill:#002451" />
            </g>
          </g>
          <g
             id="g6528">
            <path
               id="path6526"
               d="m 60.072,60.151 h 112.057 c 2.505,0 4.545,-2.039 4.545,-4.545 0,-2.505 -2.039,-4.541 -4.545,-4.541 H 60.072 c -2.505,0 -4.545,2.036 -4.545,4.541 0,2.505 2.04,4.545 4.545,4.545 z"
               inkscape:connector-curvature="0"
               style="fill:#002451" />
          </g>
          <g
             id="g6532">
            <path
               id="path6530"
               d="m 159.322,87.26 c -2.128,2.837 -3.98,5.911 -5.556,9.142 H 60.062 c -2.483,0 -4.531,-2.049 -4.531,-4.531 0,-2.522 2.049,-4.61 4.531,-4.61 h 99.26 z"
               inkscape:connector-curvature="0"
               style="fill:#002451" />
          </g>
        </g>
      </g>
    </g>
  </g>
</svg>
