<svg fill="#51A7F9" xmlns="http://www.w3.org/2000/svg" xmlns:xlink="http://www.w3.org/1999/xlink" version="1.1" x="0px" y="0px" viewBox="0 0 90 90" enable-background="new 0 0 90 90" xml:space="preserve"><g><path d="M85.092,22.748H72.8V8.189c0-0.048-0.011-0.092-0.014-0.139c0.047-0.948-0.51-1.858-1.448-2.203L56.5,0.137   c-1.156-0.425-2.438,0.168-2.862,1.324c-0.425,1.156,0.168,2.438,1.324,2.862L68.34,9.471v13.277H46.605   c-2.318,0-4.197,1.879-4.197,4.197v4.459h46.881v-4.459C89.289,24.627,87.41,22.748,85.092,22.748z"></path><path d="M42.855,66.804c0-2.318-1.879-4.197-4.197-4.197H10.154c-2.318,0-4.197,1.879-4.197,4.197v6.404h36.898V66.804z"></path><path d="M5.957,85.803c0,2.318,1.879,4.197,4.197,4.197h28.504c2.318,0,4.197-1.879,4.197-4.197v-0.22H5.957V85.803z"></path><path d="M43.905,75.199H4.908c-2.318,0-4.197,1.879-4.197,4.197s1.879,4.197,4.197,4.197h38.997c2.318,0,4.197-1.879,4.197-4.197   S46.223,75.199,43.905,75.199z"></path><polygon points="55.881,89.574 74.767,89.574 84.901,33.394 46.76,33.394  "></polygon></g></svg>