<svg fill="#51A7F9" xmlns="http://www.w3.org/2000/svg" xmlns:xlink="http://www.w3.org/1999/xlink" version="1.1" x="0px" y="0px" viewBox="0 0 100 100" enable-background="new 0 0 100 100" xml:space="preserve"><path d="M50,50L50,50L50,50z"></path><g><path d="M51.5,48.5C51.5,48.5,51.5,48.6,51.5,48.5C51.5,48.6,51.5,48.5,51.5,48.5"></path><path d="M48.6,51.5C48.6,51.5,48.6,51.5,48.6,51.5C48.6,51.5,48.6,51.5,48.6,51.5"></path><path d="M48.9,51.4C48.9,51.4,48.9,51.4,48.9,51.4C48.9,51.4,48.9,51.4,48.9,51.4"></path><path d="M50.8,50.3C50.7,50.3,50.7,50.3,50.8,50.3C50.7,50.3,50.7,50.3,50.8,50.3"></path><path d="M50.3,50.7C50.3,50.7,50.3,50.8,50.3,50.7C50.3,50.8,50.3,50.7,50.3,50.7"></path><path d="M51,50C50.9,50,50.9,50.1,51,50C50.9,50.1,50.9,50,51,50"></path><path d="M49.6,51.2C49.5,51.2,49.5,51.2,49.6,51.2C49.5,51.2,49.5,51.2,49.6,51.2"></path><polyline points="51.1,49.8 51.1,49.8 51.1,49.8  "></polyline><path d="M49.8,51.1C49.8,51.1,49.8,51.1,49.8,51.1C49.8,51.1,49.8,51.1,49.8,51.1"></path></g><g><path d="M50,50C50,50,50,50,50,50C50,50,50,50,50,50"></path></g><path d="M50,50L50,50L50,50z"></path><g><path d="M51.6,48.7C51.6,48.7,51.6,48.7,51.6,48.7C51.6,48.7,51.6,48.7,51.6,48.7"></path><path d="M49.4,51.2C49.4,51.2,49.4,51.2,49.4,51.2C49.4,51.2,49.4,51.2,49.4,51.2"></path><path d="M51.4,49.3C51.4,49.3,51.4,49.3,51.4,49.3C51.4,49.3,51.4,49.3,51.4,49.3"></path><path d="M50.2,50.8C50.2,50.8,50.2,50.7,50.2,50.8C50.2,50.7,50.2,50.7,50.2,50.8C50.2,50.8,50.2,50.8,50.2,50.8"></path><path d="M50.7,50.4c-0.1,0.1-0.1,0.1-0.2,0.2C50.6,50.5,50.6,50.4,50.7,50.4"></path><path d="M50.4,50.6c-0.1,0-0.1,0.1-0.2,0.1C50.3,50.7,50.4,50.6,50.4,50.6"></path><path d="M49.3,51.2c-0.1,0-0.2,0-0.3,0.1C49.2,51.2,49.3,51.2,49.3,51.2"></path><path d="M48.7,51.3c-0.1,0-0.2,0-0.3,0C48.5,51.3,48.6,51.3,48.7,51.3"></path></g><g><path d="M48.8,51.6c-0.1,0-0.1,0-0.2,0C48.6,51.6,48.7,51.6,48.8,51.6"></path><path d="M49.4,51.4c-0.1,0-0.2,0.1-0.2,0.1C49.2,51.5,49.3,51.5,49.4,51.4"></path><path d="M49.7,51.3c-0.1,0-0.1,0.1-0.2,0.1C49.6,51.4,49.6,51.3,49.7,51.3"></path><path d="M49.9,51.1c-0.1,0-0.1,0.1-0.2,0.1C49.8,51.2,49.9,51.2,49.9,51.1"></path><path d="M51.2,49.7c0,0.1-0.1,0.2-0.1,0.3C51.1,49.9,51.1,49.8,51.2,49.7"></path><path d="M51,50c0,0.1-0.1,0.2-0.1,0.2C51,50.1,51,50,51,50"></path><path d="M51.4,49.1c0,0.1,0,0.2-0.1,0.3C51.3,49.3,51.3,49.2,51.4,49.1"></path><path d="M50.9,50.3c-0.1,0.1-0.1,0.1-0.2,0.2C50.8,50.4,50.8,50.3,50.9,50.3"></path><path d="M51.3,49.4c0,0.1-0.1,0.2-0.1,0.3C51.2,49.6,51.3,49.5,51.3,49.4"></path><path d="M50.5,50.7c0.1-0.1,0.1-0.1,0.2-0.2C50.6,50.6,50.6,50.6,50.5,50.7"></path><path d="M51.4,48.4C51.4,48.4,51.4,48.4,51.4,48.4L51.4,48.4C51.4,48.4,51.4,48.4,51.4,48.4"></path></g><path d="M50,50L50,50L50,50z"></path><g><path d="M50,49.9c0,0.1,0,0.2,0,0.3C50,50,50,50,50,49.9"></path></g><g><path d="M50,49.9c0,0.1,0,0.2,0,0.3C50,50.1,50,50,50,49.9"></path></g><g><path d="M15.5,74.1h34.7c0,0,0,0,0,0c0.8,0,1.4-0.6,1.4-1.4c0-0.8-0.6-1.4-1.4-1.4c0,0,0,0,0,0H15.5c0,0,0,0,0,0   c-0.8,0-1.4,0.6-1.4,1.4C14.1,73.5,14.7,74.1,15.5,74.1C15.5,74.1,15.5,74.1,15.5,74.1z"></path><path d="M52.6,75.3L52.6,75.3l-39.5,0v0c-1.3,0-2.3,1-2.3,2.3c0,1.3,1,2.3,2.3,2.3c0,0,0,0,0.1,0h39.4c0,0,0,0,0.1,0   c1.3,0,2.3-1,2.3-2.3C54.9,76.4,53.9,75.3,52.6,75.3z"></path><path d="M52.6,65.4C52.6,65.4,52.6,65.4,52.6,65.4l-39.5,0c0,0,0,0,0,0c-1.3,0-2.3,1-2.3,2.3c0,1.3,1,2.3,2.3,2.3c0,0,0,0,0.1,0   h39.4c0,0,0,0,0.1,0c1.3,0,2.3-1,2.3-2.3C54.9,66.4,53.9,65.4,52.6,65.4z"></path><path d="M59,39.8l3.6,35.7c0,2.5,1.6,4.5,3.5,4.5h14.9c1.9,0,3.5-2,3.5-4.5c0,0,3-35.7,3.1-36.2H59C59,39.5,59,39.6,59,39.8z"></path><path d="M87.5,34.2C87.5,34.2,87.5,34.2,87.5,34.2l-6.5,0l4.5-12.8l0,0c0,0,0,0,0,0c0.2-0.6-0.1-1.2-0.6-1.3   c-0.6-0.2-1.2,0.1-1.3,0.6c0,0,0,0,0,0l-4.8,13.5H58.9c0,0,0,0,0,0c-0.9,0-1.6,0.7-1.6,1.6c0,0.9,0.7,1.7,1.6,1.7c0,0,0,0,0,0h28.5   c0,0,0,0,0,0c0.9,0,1.6-0.7,1.6-1.7C89.2,35,88.4,34.2,87.5,34.2z"></path></g></svg>