<?xml version="1.0" encoding="UTF-8" standalone="no"?>
<!-- Created with Inkscape (http://www.inkscape.org/) -->

<svg
   xmlns:dc="http://purl.org/dc/elements/1.1/"
   xmlns:cc="http://creativecommons.org/ns#"
   xmlns:rdf="http://www.w3.org/1999/02/22-rdf-syntax-ns#"
   xmlns:svg="http://www.w3.org/2000/svg"
   xmlns="http://www.w3.org/2000/svg"
   xmlns:sodipodi="http://sodipodi.sourceforge.net/DTD/sodipodi-0.dtd"
   xmlns:inkscape="http://www.inkscape.org/namespaces/inkscape"
   width="400px"
   height="256px"
   viewBox="0 0 400 256"
   version="1.1"
   id="SVGRoot"
   inkscape:export-filename="/home/dpk/set-gro.png"
   inkscape:export-xdpi="96"
   inkscape:export-ydpi="96"
   inkscape:version="0.92.1 15371"
   sodipodi:docname="furniture.svg">
  <sodipodi:namedview
     id="base"
     pagecolor="#ffffff"
     bordercolor="#666666"
     borderopacity="1.0"
     inkscape:pageopacity="0.0"
     inkscape:pageshadow="2"
     inkscape:zoom="2.0898438"
     inkscape:cx="200"
     inkscape:cy="128"
     inkscape:document-units="px"
     inkscape:current-layer="layer1"
     showgrid="false"
     inkscape:window-width="1366"
     inkscape:window-height="709"
     inkscape:window-x="0"
     inkscape:window-y="35"
     inkscape:window-maximized="1" />
  <defs
     id="defs69717">
    <style
       id="style1776"
       type="text/css">
   
    .fil1 {fill:none}
    .fil0 {fill:#002451;fill-rule:nonzero}
   
  </style>
    <style
       id="style1720">

      .cls-3 {
        fill: #000000;
      }
    </style>
    <style
       id="style1736">

      .cls-3 {
        fill: #000000;
      }
    </style>
    <style
       id="style1752">

      .cls-3 {
        fill: #000000;
      }
    </style>
    <style
       id="style1768">

      .cls-3 {
        fill: #53ecf4;
      }

      .cls-4 {
        fill: #000000;
      }
    </style>
  </defs>
  <metadata
     id="metadata69720">
    <rdf:RDF>
      <cc:Work
         rdf:about="">
        <dc:format>image/svg+xml</dc:format>
        <dc:type
           rdf:resource="http://purl.org/dc/dcmitype/StillImage" />
        <dc:title></dc:title>
      </cc:Work>
    </rdf:RDF>
  </metadata>
  <g
     id="layer1"
     inkscape:groupmode="layer"
     inkscape:label="Layer 1">
    <g
       style="clip-rule:evenodd;fill:#002451;fill-rule:evenodd;image-rendering:optimizeQuality;shape-rendering:geometricPrecision;text-rendering:geometricPrecision"
       id="g1811"
       transform="translate(-3221.5,-3287.5)">
      <g
         id="g1792">
        <path
           id="path1780"
           d="m 1158,2477 h 97 c 84,0 160,34 215,90 55,55 90,131 90,215 v 2997 80 h -80 -547 -80 v -80 -2997 c 0,-84 34,-160 90,-215 55,-55 131,-90 215,-90 z"
           class="fil0"
           inkscape:connector-curvature="0"
           style="fill:#002451;fill-rule:nonzero" />
        <path
           id="path1782"
           d="m 5572,3512 h 97 c 84,0 160,34 215,90 55,55 90,131 90,215 v 1962 80 h -80 -547 -80 v -80 -1962 c 0,-84 34,-160 90,-215 55,-55 131,-90 215,-90 z"
           class="fil0"
           inkscape:connector-curvature="0"
           style="fill:#002451;fill-rule:nonzero" />
        <polygon
           id="polygon1784"
           points="5347,4742 5347,4902 1480,4902 1480,4742 1480,3980 5347,3980 "
           class="fil0"
           style="fill:#002451;fill-rule:nonzero" />
        <polygon
           id="polygon1786"
           points="1480,5273 1480,5113 5347,5113 5347,5273 "
           class="fil0"
           style="fill:#002451;fill-rule:nonzero" />
        <path
           id="path1788"
           d="m 1898,3536 h 669 c 83,0 159,34 213,89 55,55 89,130 89,213 0,21 -2,42 -6,62 H 1603 c -4,-20 -6,-41 -6,-62 0,-83 34,-159 89,-213 55,-55 130,-89 213,-89 z"
           class="fil0"
           inkscape:connector-curvature="0"
           style="fill:#002451;fill-rule:nonzero" />
        <polygon
           id="polygon1790"
           points="3279,2496 3199,2496 3199,2416 3199,1946 2730,1946 2650,1946 2650,1866 2650,1598 2650,1518 2730,1518 3199,1518 3199,1048 3199,968 3279,968 3547,968 3627,968 3627,1048 3627,1518 4097,1518 4177,1518 4177,1598 4177,1866 4177,1946 4097,1946 3627,1946 3627,2416 3627,2496 3547,2496 "
           class="fil0"
           style="fill:#002451;fill-rule:nonzero" />
      </g>
      <rect
         id="rect1794"
         height="6827"
         width="6827"
         class="fil1"
         x="0"
         y="0"
         style="fill:none" />
    </g>
    <g
       style="fill:#002451"
       id="g1750"
       transform="matrix(1.0986087,0,0,1.2240623,322.06817,162.83029)">
      <path
         id="path1740"
         d="M 1.0625,0 C 0.2345,0 0,0.672 0,1.5 v 60.03125 c 0,0.829 0.2345,1.5 1.0625,1.5 h 5 c 0.828,0 1.9375,-0.671 1.9375,-1.5 v -5.5 h 40 v 5.5 c 0,0.829 0.2345,1.5 1.0625,1.5 h 5 c 0.828,0 1.9375,-0.671 1.9375,-1.5 V 1.5 C 56,0.672 54.8905,0 54.0625,0 Z M 3,3 h 50 v 57.03125 h -2 v -5.5 c 0,-0.829 -1.1095,-1.5 -1.9375,-1.5 h -43 c -0.828,0 -1.0625,0.671 -1.0625,1.5 v 5.5 H 3 Z M 7.5,6 C 6.671,6 6,6.67 6,7.5 v 41.03125 c 0,0.829 0.671,1.5 1.5,1.5 h 41 c 0.829,0 1.5,-0.671 1.5,-1.5 V 7.5 C 50,6.67 49.329,6 48.5,6 Z M 9,9 H 26 V 47.03125 H 9 Z M 29,9 H 47 V 47.03125 H 29 Z M 17.5625,27.03125 c -0.828,0 -1.5,0.671 -1.5,1.5 0,0.829 0.672,1.5 1.5,1.5 h 5 c 0.828,0 1.5,-0.671 1.5,-1.5 0,-0.829 -0.672,-1.5 -1.5,-1.5 z m 14,0 c -0.828,0 -1.5,0.671 -1.5,1.5 0,0.829 0.672,1.5 1.5,1.5 h 5 c 0.828,0 1.5,-0.671 1.5,-1.5 0,-0.829 -0.672,-1.5 -1.5,-1.5 z"
         style="fill:#002451;fill-rule:evenodd"
         inkscape:connector-curvature="0" />
    </g>
    <g
       style="fill:#002451"
       id="g1766"
       transform="matrix(1.0986087,0,0,1.2240623,204.9981,51.304272)">
      <path
         id="path1756"
         d="m 23.9375,0 c -0.625,0 -1.18525,0.38375 -1.40625,0.96875 l -4.125,11 c -0.173,0.461 -0.12375,1.00125 0.15625,1.40625 0.28,0.405 0.757,0.625 1.25,0.625 h 5.5625 c -1.664285,1.232808 -2.75,3.211068 -2.75,5.4375 0,1.309691 0.3848,2.525636 1.03125,3.5625 H 1.0625 C 0.2345,23 0,23.671 0,24.5 v 37.03125 c 0,0.828 0.2345,1.5 1.0625,1.5 h 5 c 0.828,0 1.9375,-0.672 1.9375,-1.5 v -3.5 h 42 v 3.5 c 0,0.828 0.2345,1.5 1.0625,1.5 h 5 c 0.828,0 1.9375,-0.672 1.9375,-1.5 V 24.5 C 58,23.671 56.8905,23 56.0625,23 H 35.09375 C 35.740317,21.963136 36.125,20.747191 36.125,19.4375 36.125,17.215773 35.06463,15.233345 33.40625,14 H 38.25 c 0.007,10e-4 0.02625,10e-4 0.03125,0 0.829,0 1.5,-0.672 1.5,-1.5 0,-0.271 -0.09275,-0.53 -0.21875,-0.75 L 35.53125,0.96875 C 35.31125,0.38375 34.75,0 34.125,0 Z m 1.03125,3 h 8.125 l 3,8 h -14.125 z M 29.375,15.65625 c 2.072,0 3.75,1.70825 3.75,3.78125 0,1.668081 -1.088598,3.071188 -2.59375,3.5625 h -2.3125 C 26.713598,22.508688 25.625,21.105581 25.625,19.4375 c 0,-2.073 1.678,-3.78125 3.75,-3.78125 z M 3,26 h 24.78125 c 0.509741,0.123352 1.046667,0.1875 1.59375,0.1875 0.546936,0 1.084079,-0.06415 1.59375,-0.1875 H 55 V 39.03125 H 3 Z m 2.5625,6.03125 c -0.828,0 -1.5,0.672 -1.5,1.5 0,0.829 0.672,1.5 1.5,1.5 h 4 c 0.828,0 1.5,-0.671 1.5,-1.5 0,-0.828 -0.672,-1.5 -1.5,-1.5 z m 41,0 c -0.828,0 -1.5,0.672 -1.5,1.5 0,0.829 0.672,1.5 1.5,1.5 h 4 c 0.828,0 1.5,-0.671 1.5,-1.5 0,-0.828 -0.672,-1.5 -1.5,-1.5 z M 3,42.03125 h 52 v 13 h -3.9375 -45 H 3 Z m 2.5625,5 c -0.828,0 -1.5,0.671 -1.5,1.5 0,0.828 0.672,1.5 1.5,1.5 h 4 c 0.828,0 1.5,-0.672 1.5,-1.5 0,-0.829 -0.672,-1.5 -1.5,-1.5 z m 41,0 c -0.828,0 -1.5,0.671 -1.5,1.5 0,0.828 0.672,1.5 1.5,1.5 h 4 c 0.828,0 1.5,-0.672 1.5,-1.5 0,-0.829 -0.672,-1.5 -1.5,-1.5 z M 3,58.03125 h 2 v 2 H 3 Z m 50,0 h 2 v 2 h -2 z"
         style="fill:#002451;fill-rule:evenodd"
         inkscape:connector-curvature="0" />
    </g>
    <g
       style="fill:#002451"
       id="g1785"
       transform="matrix(1.2206437,0,0,1.642226,15.737012,137.75377)">
      <path
         id="path1772"
         d="m 48.455,21.462 c 0,0 3.348,-9.005 3.348,-9.005 0,0 0,0 0,0"
         class="cls-3"
         style="fill:#53ecf4;fill-rule:evenodd"
         inkscape:connector-curvature="0" />
      <path
         id="path1774"
         d="M 1.0625,0 C 0.2345,0 0,0.671 0,1.5 v 60.03125 c 0,0.828 0.2345,1.5 1.0625,1.5 h 5 c 0.828,0 1.9375,-0.672 1.9375,-1.5 v -5.5 h 40 v 5.5 c 0,0.828 0.2345,1.5 1.0625,1.5 h 5 c 0.828,0 1.9375,-0.672 1.9375,-1.5 V 1.5 C 56,0.671 54.8905,0 54.0625,0 Z M 3,3 H 53 V 8.03125 C 52.894717,8.0082156 52.79759,8 52.6875,8 h -9.40625 c -0.612,0 -1.147,0.3685 -1.375,0.9375 L 38.25,18 H 22 V 9.5 C 22,8.67 21.329,8 20.5,8 H 8.5 C 7.671,8 7,8.67 7,9.5 V 18 H 3 Z m 7,8 h 9 v 2 h -9 z m 34.28125,0 H 46 l -2.59375,7 h -1.9375 z m 4.9375,0 h 1.34375 l -2.375,7 H 46.625 Z M 53,13.21875 V 18 H 51.375 Z M 10,16 h 9 v 2 h -9 z m -7,5 h 5.5 12 18.75 10 3.75 v 16.03125 h -2 v -8.5 c 0,-0.829 -0.671,-1.5 -1.5,-1.5 h -30 c -0.103625,0 -0.214814,-0.01999 -0.3125,0 C 18.503701,27.171209 18,27.805875 18,28.53125 v 8.5 H 3 Z m 18,9.03125 h 3 v 7 h -3 z m 6,0 h 3 v 7 h -3 z m 6,0 h 3 v 7 h -3 z m 6,0 h 3 v 7 h -3 z m 6,0 h 3 v 7 h -3 z m -42,10 h 23 v 13 H 6.0625 3 Z m 26,0 h 24 v 13 H 49.0625 29 Z m -6.5,4.5 c -0.828,0 -1.5,0.671 -1.5,1.5 v 2 c 0,0.829 0.672,1.5 1.5,1.5 0.828,0 1.5,-0.671 1.5,-1.5 v -2 c 0,-0.829 -0.672,-1.5 -1.5,-1.5 z m 10,0 c -0.828,0 -1.5,0.671 -1.5,1.5 v 2 c 0,0.829 0.672,1.5 1.5,1.5 0.828,0 1.5,-0.671 1.5,-1.5 v -2 c 0,-0.829 -0.672,-1.5 -1.5,-1.5 z m -29.5,11.5 h 2 v 4 H 3 Z m 48,0 h 2 v 4 h -2 z"
         style="fill:#002451;fill-rule:evenodd"
         inkscape:connector-curvature="0" />
    </g>
    <g
       style="fill:#002451"
       id="g1812"
       transform="matrix(1.0986087,0,0,1.2240623,10.284137,42.679061)">
      <g
         id="g1797"
         data-name="Layer 2">
        <g
           id="g1795"
           data-name="Layer 2">
          <path
             id="path1789"
             d="M 80.58,17.78 A 18.23,18.23 0 0 0 62.37,0 H 22.48 A 18.24,18.24 0 0 0 4.26,18.11 6.63,6.63 0 0 0 0,24.3 V 54.46 H 8 V 61 h 7.5 V 54.46 H 68.92 V 61 h 7.5 v -6.54 h 9.51 V 24.26 A 6.63,6.63 0 0 0 80.58,17.78 Z M 22.48,2 h 39.89 a 16.24,16.24 0 0 1 16.21,15.66 h -0.31 a 6.61,6.61 0 0 0 -6.6,6.6 v 7.4 H 48.35 A 5.75,5.75 0 0 0 43,35.28 5.8,5.8 0 0 0 37.63,31.66 H 14.26 V 24.3 A 6.65,6.65 0 0 0 7.62,17.66 h -1 a 2.17,2.17 0 0 0 -0.36,0 A 16.24,16.24 0 0 1 22.48,2 Z m 49.19,31.66 v 7.67 h -27.1 v -3.89 a 3.78,3.78 0 0 1 3.78,-3.78 z m -30.24,3.8 v 3.87 H 14.26 v -7.67 h 23.37 a 3.8,3.8 0 0 1 3.8,3.8 z M 2,24.3 a 4.64,4.64 0 0 1 2.26,-4 4.41,4.41 0 0 1 2,-0.64 h 0.37 1 a 4.64,4.64 0 0 1 4.64,4.64 v 17 H 2 Z M 13.47,59 H 10 v -4.21 h 3.5 z m 61,0 h -3.5 v -4.21 h 3.5 z m 9.51,-6.58 H 2 v -9.09 h 81.93 z m 0,-11.13 H 73.74 v -9.63 h -0.07 v -7.4 a 4.61,4.61 0 0 1 4.6,-4.6 h 1.06 a 4.36,4.36 0 0 1 1.26,0.18 4.61,4.61 0 0 1 3.34,4.42 z"
             inkscape:connector-curvature="0" />
          <polygon
             id="polygon1791"
             points="22.3,19.06 23.71,20.47 25.75,18.43 27.8,20.47 29.21,19.06 27.17,17.01 29.21,14.97 27.8,13.56 25.75,15.6 23.71,13.56 22.3,14.97 24.34,17.01 " />
          <polygon
             id="polygon1793"
             points="57.46,19.06 58.88,20.47 60.92,18.43 62.96,20.47 64.38,19.06 62.33,17.01 64.38,14.97 62.96,13.56 60.92,15.6 58.88,13.56 57.46,14.97 59.51,17.01 " />
        </g>
      </g>
    </g>
    <g
       style="fill:#002451"
       id="g1907"
       transform="matrix(-1.1385041,0,0,1.2240623,398.60619,20.446056)">
      <rect
         id="rect1839"
         height="13.966"
         width="21.724001"
         stroke-miterlimit="10"
         y="78.931"
         x="5.552"
         style="fill:none;stroke:#002451;stroke-width:2;stroke-linecap:round;stroke-miterlimit:10" />
      <line
         id="line1841"
         y2="64.966003"
         x2="16.414"
         y1="75.827003"
         x1="16.414"
         stroke-miterlimit="10"
         style="fill:none;stroke:#002451;stroke-width:2;stroke-linecap:round;stroke-miterlimit:10" />
      <rect
         id="rect1843"
         height="12.414"
         width="9.3100004"
         stroke-miterlimit="10"
         y="52.551998"
         x="11.759"
         style="fill:none;stroke:#002451;stroke-width:2;stroke-linecap:round;stroke-miterlimit:10" />
      <line
         id="line1845"
         y2="75.827003"
         x2="19.517"
         y1="75.827003"
         x1="13.311"
         stroke-miterlimit="10"
         style="fill:none;stroke:#002451;stroke-width:2;stroke-linecap:round;stroke-miterlimit:10" />
      <rect
         id="rect1847"
         height="86.896004"
         width="55.862"
         stroke-miterlimit="10"
         y="6"
         x="36.585999"
         style="fill:none;stroke:#002451;stroke-width:2;stroke-linecap:round;stroke-miterlimit:10" />
      <line
         id="line1849"
         y2="92.896004"
         x2="73.827003"
         y1="6"
         x1="73.827003"
         stroke-miterlimit="10"
         style="fill:none;stroke:#002451;stroke-width:2;stroke-linecap:round;stroke-miterlimit:10" />
      <rect
         id="rect1851"
         height="17.069"
         width="18.621"
         stroke-miterlimit="10"
         y="23.069"
         x="73.827003"
         style="fill:none;stroke:#002451;stroke-width:2;stroke-linecap:round;stroke-miterlimit:10" />
      <rect
         id="rect1853"
         height="17.068001"
         width="18.621"
         stroke-miterlimit="10"
         y="57.207001"
         x="73.827003"
         style="fill:none;stroke:#002451;stroke-width:2;stroke-linecap:round;stroke-miterlimit:10" />
      <line
         id="line1855"
         y2="23.069"
         x2="36.585999"
         y1="23.069"
         x1="73.827003"
         stroke-miterlimit="10"
         style="fill:none;stroke:#002451;stroke-width:2;stroke-linecap:round;stroke-miterlimit:10" />
      <line
         id="line1857"
         y2="96"
         x2="39.688999"
         y1="92.896004"
         x1="39.688999"
         stroke-miterlimit="10"
         style="fill:none;stroke:#002451;stroke-width:2;stroke-linecap:round;stroke-miterlimit:10" />
      <line
         id="line1859"
         y2="96"
         x2="25.724001"
         y1="92.896004"
         x1="25.724001"
         stroke-miterlimit="10"
         style="fill:none;stroke:#002451;stroke-width:2;stroke-linecap:round;stroke-miterlimit:10" />
      <line
         id="line1861"
         y2="96"
         x2="7.1040001"
         y1="92.896004"
         x1="7.1040001"
         stroke-miterlimit="10"
         style="fill:none;stroke:#002451;stroke-width:2;stroke-linecap:round;stroke-miterlimit:10" />
      <line
         id="line1863"
         y2="96"
         x2="90.896004"
         y1="92.896004"
         x1="90.896004"
         stroke-miterlimit="10"
         style="fill:none;stroke:#002451;stroke-width:2;stroke-linecap:round;stroke-miterlimit:10" />
      <line
         id="line1865"
         y2="29.275999"
         x2="73.827003"
         y1="29.275999"
         x1="36.585999"
         stroke-miterlimit="10"
         style="fill:none;stroke:#002451;stroke-width:2;stroke-linecap:round;stroke-miterlimit:10" />
      <line
         id="line1867"
         y2="33.931"
         x2="50.551998"
         y1="29.275999"
         x1="50.551998"
         stroke-miterlimit="10"
         style="fill:none;stroke:#002451;stroke-width:2;stroke-linecap:round;stroke-miterlimit:10" />
      <line
         id="line1869"
         y2="40.138"
         x2="44.345001"
         y1="33.931"
         x1="50.551998"
         stroke-miterlimit="10"
         style="fill:none;stroke:#002451;stroke-width:2;stroke-linecap:round;stroke-miterlimit:10" />
      <line
         id="line1871"
         y2="40.138"
         x2="56.758999"
         y1="33.931"
         x1="50.551998"
         stroke-miterlimit="10"
         style="fill:none;stroke:#002451;stroke-width:2;stroke-linecap:round;stroke-miterlimit:10" />
      <line
         id="line1873"
         y2="40.138"
         x2="56.758999"
         y1="40.138"
         x1="44.345001"
         stroke-miterlimit="10"
         style="fill:none;stroke:#002451;stroke-width:2;stroke-linecap:round;stroke-miterlimit:10" />
      <path
         id="path1875"
         d="M 67.621,92.896 H 56.759 c -2.562,0 -4.655,-2.094 -4.655,-4.655 0,-2.561 2.094,-4.655 4.655,-4.655 h 6.207"
         stroke-miterlimit="10"
         inkscape:connector-curvature="0"
         style="fill:none;stroke:#002451;stroke-width:2;stroke-linecap:round;stroke-miterlimit:10" />
      <path
         id="path1877"
         d="m 52.104,78.931 h 10.862 c 2.561,0 4.655,2.095 4.655,4.655 0,2.562 -2.095,4.655 -4.655,4.655 h -6.207"
         stroke-miterlimit="10"
         inkscape:connector-curvature="0"
         style="fill:none;stroke:#002451;stroke-width:2;stroke-linecap:round;stroke-miterlimit:10" />
    </g>
    <g
       style="fill:#002451"
       id="g2042"
       transform="matrix(1.0986087,0,0,1.2240623,124.30602,37.994528)">
      <g
         id="g2011"
         style="fill:none;fill-rule:evenodd;stroke:none;stroke-width:1">
        <g
           id="g2009"
           transform="translate(-120,-340)"
           style="fill:#002451">
          <g
             id="g2007"
             transform="translate(120,340)">
            <path
               id="path1971"
               d="M 2,50 H 20 V 34 H 2 Z m 19,2 H 1 C 0.448,52 0,51.552 0,51 V 33 c 0,-0.552 0.448,-1 1,-1 h 20 c 0.552,0 1,0.448 1,1 v 18 c 0,0.552 -0.448,1 -1,1 z"
               inkscape:connector-curvature="0" />
            <path
               id="path1973"
               d="M 22,50 H 40 V 34 H 22 Z m 19,2 H 21 c -0.552,0 -1,-0.448 -1,-1 V 33 c 0,-0.552 0.448,-1 1,-1 h 20 c 0.552,0 1,0.448 1,1 v 18 c 0,0.552 -0.448,1 -1,1 z"
               inkscape:connector-curvature="0" />
            <path
               id="path1975"
               d="M 42,50 H 58 V 34 H 42 Z m 17,2 H 41 c -0.552,0 -1,-0.448 -1,-1 V 33 c 0,-0.552 0.448,-1 1,-1 h 18 c 0.552,0 1,0.448 1,1 v 18 c 0,0.552 -0.448,1 -1,1 z"
               inkscape:connector-curvature="0" />
            <path
               id="path1977"
               d="m 26,42 c -0.552,0 -1,-0.448 -1,-1 v -3 c 0,-0.552 0.448,-1 1,-1 0.552,0 1,0.448 1,1 v 3 c 0,0.552 -0.448,1 -1,1"
               inkscape:connector-curvature="0" />
            <path
               id="path1979"
               d="m 16,42 c -0.552,0 -1,-0.448 -1,-1 v -3 c 0,-0.552 0.448,-1 1,-1 0.552,0 1,0.448 1,1 v 3 c 0,0.552 -0.448,1 -1,1"
               inkscape:connector-curvature="0" />
            <path
               id="path1981"
               d="M 8,24 H 52 V 2 H 8 Z m 45,2 H 7 C 6.448,26 6,25.552 6,25 V 1 C 6,0.448 6.448,0 7,0 h 46 c 0.552,0 1,0.448 1,1 v 24 c 0,0.552 -0.448,1 -1,1 z"
               inkscape:connector-curvature="0" />
            <path
               id="path1983"
               d="m 30,30 c -0.552,0 -1,-0.448 -1,-1 v -4 c 0,-0.552 0.448,-1 1,-1 0.552,0 1,0.448 1,1 v 4 c 0,0.552 -0.448,1 -1,1"
               inkscape:connector-curvature="0" />
            <path
               id="path1985"
               d="m 27,30 c -0.551,0 -1,0.449 -1,1 0,0.551 0.449,1 1,1 h 6 c 0.551,0 1,-0.449 1,-1 0,-0.551 -0.449,-1 -1,-1 z m 6,4 h -6 c -1.654,0 -3,-1.346 -3,-3 0,-1.654 1.346,-3 3,-3 h 6 c 1.654,0 3,1.346 3,3 0,1.654 -1.346,3 -3,3 z"
               inkscape:connector-curvature="0" />
            <path
               id="path1987"
               d="M 53,22 H 7 C 6.448,22 6,21.552 6,21 6,20.448 6.448,20 7,20 h 46 c 0.552,0 1,0.448 1,1 0,0.552 -0.448,1 -1,1"
               inkscape:connector-curvature="0" />
            <path
               id="path1989"
               d="M 53,6 H 7 C 6.448,6 6,5.552 6,5 6,4.448 6.448,4 7,4 h 46 c 0.552,0 1,0.448 1,1 0,0.552 -0.448,1 -1,1"
               inkscape:connector-curvature="0" />
            <path
               id="path1991"
               d="M 42,41 H 58 V 34 H 42 Z m 17,2 H 41 c -0.552,0 -1,-0.448 -1,-1 v -9 c 0,-0.552 0.448,-1 1,-1 h 18 c 0.552,0 1,0.448 1,1 v 9 c 0,0.552 -0.448,1 -1,1 z"
               inkscape:connector-curvature="0" />
            <path
               id="path1993"
               d="M 42,50 H 58 V 43 H 42 Z m 17,2 H 41 c -0.552,0 -1,-0.448 -1,-1 v -9 c 0,-0.552 0.448,-1 1,-1 h 18 c 0.552,0 1,0.448 1,1 v 9 c 0,0.552 -0.448,1 -1,1 z"
               inkscape:connector-curvature="0" />
            <path
               id="path1995"
               d="m 58,60 h -0.659 c -1.44,0 -2.735,-0.559 -3.742,-1.617 -1.327,-1.392 -1.869,-3.32 -1.811,-4.522 0.041,-0.853 -0.163,-1.609 -0.624,-2.313 l 1.672,-1.096 c 0.691,1.054 1.011,2.234 0.95,3.505 -0.033,0.681 0.337,2.077 1.261,3.046 0.271,0.286 0.569,0.51 0.891,0.673 -0.477,-1.146 -0.557,-2.404 -0.269,-3.882 0.15,-0.743 -0.026,-1.46 -0.523,-2.273 l 1.708,-1.042 c 0.759,1.246 1.026,2.466 0.793,3.627 -0.352,1.798 -0.062,2.938 1.019,4.139 l 0.078,0.087 c 0.264,0.293 0.33,0.715 0.169,1.075 C 58.752,59.768 58.395,60 58,60"
               inkscape:connector-curvature="0" />
            <path
               id="path1997"
               d="m 2.6587,60 h -0.659 c -0.394,0 -0.752,-0.232 -0.913,-0.593 -0.161,-0.36 -0.095,-0.782 0.169,-1.075 l 0.077,-0.086 c 1.082,-1.202 1.372,-2.342 1.035,-4.068 -0.248,-1.233 0.019,-2.453 0.778,-3.699 l 1.708,1.042 c -0.496,0.813 -0.673,1.53 -0.54,2.191 0.3,1.533 0.223,2.811 -0.256,3.966 0.324,-0.164 0.623,-0.388 0.895,-0.675 0.925,-0.969 1.294,-2.365 1.261,-3.045 -0.061,-1.272 0.259,-2.452 0.95,-3.506 l 1.673,1.096 c -0.462,0.704 -0.666,1.46 -0.625,2.313 0.058,1.202 -0.484,3.13 -1.81,4.522 C 5.3937,59.441 4.0987,60 2.6587,60"
               inkscape:connector-curvature="0" />
            <path
               id="path1999"
               d="m 29,39 h -3 c -0.552,0 -1,-0.448 -1,-1 0,-0.552 0.448,-1 1,-1 h 3 c 0.552,0 1,0.448 1,1 0,0.552 -0.448,1 -1,1"
               inkscape:connector-curvature="0" />
            <path
               id="path2001"
               d="m 52,39 h -4 c -0.552,0 -1,-0.448 -1,-1 0,-0.552 0.448,-1 1,-1 h 4 c 0.552,0 1,0.448 1,1 0,0.552 -0.448,1 -1,1"
               inkscape:connector-curvature="0" />
            <path
               id="path2003"
               d="m 52,48 h -4 c -0.552,0 -1,-0.448 -1,-1 0,-0.552 0.448,-1 1,-1 h 4 c 0.552,0 1,0.448 1,1 0,0.552 -0.448,1 -1,1"
               inkscape:connector-curvature="0" />
            <path
               id="path2005"
               d="m 16,39 h -3 c -0.552,0 -1,-0.448 -1,-1 0,-0.552 0.448,-1 1,-1 h 3 c 0.552,0 1,0.448 1,1 0,0.552 -0.448,1 -1,1"
               inkscape:connector-curvature="0" />
          </g>
        </g>
      </g>
    </g>
    <g
       style="fill:#002451"
       id="g2070"
       transform="matrix(1.0986087,0,0,1.2240623,204.47703,132.98894)">
      <g
         id="g2054">
        <path
           id="path2044"
           d="M 91.9,54 H 86.5 V 42.3 C 86.5,40.5 85,39 83.2,39 H 57.7 c -1.8,0 -3.3,1.5 -3.3,3.3 V 54 H 49 c -1.8,0 -3.3,1.5 -3.3,3.3 v 21.5 c 0,1.1 0.9,2 2,2 h 3.4 v 7.4 H 63 v -7.4 h 15 v 7.4 h 11.9 v -7.4 h 3.4 c 1.1,0 2,-0.9 2,-2 V 57.3 C 95.2,55.5 93.7,54 91.9,54 Z m -33.6,8.5 h 24.2 v 4.6 H 58.3 Z M 82.5,43 V 58.5 H 58.3 V 43 Z M 58.9,84.2 H 55 v -3.4 h 3.9 z m 26.9,0 h -3.9 v -3.4 h 3.9 z m 5.4,-7.4 H 49.6 V 58 h 4.7 V 71.2 H 86.5 V 58 h 4.7 z"
           inkscape:connector-curvature="0" />
        <path
           id="path2046"
           d="m 24.6,24.6 h 8.6 L 30.2,9.8 H 14.7 l -3,14.8 h 8.8 V 35.8 H 4.8 v 50.8 h 3.7 v 1.5 h 4 v -1.5 h 19.9 v 1.5 h 4 v -1.5 h 3.7 V 35.8 H 24.6 Z M 18,13.8 h 8.9 l 1.4,6.8 H 16.6 Z M 36.1,65.4 H 8.8 V 54.7 h 27.4 v 10.7 z m -27.3,4 H 36.2 V 82.7 H 8.8 Z M 36.1,50.7 H 8.8 V 39.8 h 27.4 v 10.9 z"
           inkscape:connector-curvature="0" />
        <rect
           id="rect2048"
           height="4"
           width="5.1999998"
           y="57.900002"
           x="19.799999" />
        <rect
           id="rect2050"
           height="4"
           width="5.1999998"
           y="43.299999"
           x="19.799999" />
        <rect
           id="rect2052"
           height="4"
           width="5.1999998"
           y="71.199997"
           x="19.799999" />
      </g>
    </g>
    <g
       style="fill:#002451"
       id="g2089"
       transform="matrix(1.0986087,0,0,1.2240623,89.931673,130.60108)">
      <g
         id="g2076">
        <rect
           id="rect2072"
           height="4"
           width="9"
           y="76.099998"
           x="19.1" />
        <path
           id="path2074"
           d="m 91,90.3 v -38.2 -4 -9 H 25.5 V 16.5 h 4.4 c -0.7,0.7 -0.8,1.7 -0.2,2.5 l 3.4,5.2 c 0,0.1 0,0.2 0,0.3 0,3 1.2,5.7 3.2,7.8 l 0.3,0.3 c 0.4,0.4 0.9,0.6 1.4,0.6 0,0 0,0 0,0 0.5,0 1,-0.2 1.4,-0.6 L 52.2,19.8 c 0.4,-0.4 0.6,-0.9 0.6,-1.4 0,-0.5 -0.2,-1 -0.6,-1.4 L 52,16.7 c -2.1,-2.1 -4.9,-3.2 -7.8,-3.2 -0.1,0 -0.2,0 -0.3,0 L 38.6,10 C 37.8,9.5 36.8,9.6 36.1,10.3 l -2.2,2.2 h -9.4 c -1.7,0 -3,1.3 -3,3 V 39.1 H 9 v 9 4 38.2 H 39.2 V 52.1 H 87 V 90.3 Z M 38.1,28.2 C 37.4,27.1 37,25.8 37,24.5 c 0,-1.9 0.7,-3.7 2.1,-5 1.3,-1.3 3.1,-2.1 5,-2.1 1.3,0 2.6,0.4 3.7,1.1 z m -0.3,-13.9 0.9,0.6 C 37.8,15.4 37,16 36.3,16.7 35.6,17.4 35,18.2 34.5,19.1 L 33.9,18.2 Z M 13,61.3 h 22.2 v 5 H 13 Z m 0,25 v -16 h 22.2 v 16 z m 22.2,-29 H 13 v -5.2 h 22.2 z m 4,-9.2 H 13 v -5 h 74 v 5 z"
           inkscape:connector-curvature="0" />
      </g>
    </g>
  </g>
  <style
     id="style1243"
     type="text/css">
	.st0{fill:#002451;}
</style>
  <style
     id="style1301"
     type="text/css">
	.st0{fill:none;stroke:#002451;stroke-linecap:round;stroke-linejoin:round;stroke-miterlimit:10;}
</style>
</svg>
