<svg fill="#0A5D19" xmlns:dc="http://purl.org/dc/elements/1.1/" xmlns:cc="http://creativecommons.org/ns#" xmlns:rdf="http://www.w3.org/1999/02/22-rdf-syntax-ns#" xmlns:svg="http://www.w3.org/2000/svg" xmlns="http://www.w3.org/2000/svg" xmlns:sodipodi="http://sodipodi.sourceforge.net/DTD/sodipodi-0.dtd" xmlns:inkscape="http://www.inkscape.org/namespaces/inkscape" version="1.1" x="0px" y="0px" viewBox="0 0 100 100"><g transform="translate(0,-952.36218)"><path style="text-indent:0;text-transform:none;direction:ltr;block-progression:tb;baseline-shift:baseline;color:#000000;enable-background:accumulate;" d="m 25.656257,958.60761 c -2.24567,1.50777 -3.624,4.0094 -3.65625,6.73861 0,3.04453 1.00322,5.62638 2.375,7.54969 -4.84785,0 -9.72883,0 -14.5625004,0 -0.98317,0.0925 -1.81676,1.01077 -1.8125,1.99662 l 0,13.97638 c 10e-5,1.04541 0.95283,1.99653 2.0000004,1.99663 l 3,0 0,54.90726 c 10e-6,1.0454 0.9528,1.9966 2,1.9966 23.42025,0.2088 45.95949,0 70.000003,0 1.0472,0 1.99999,-0.9512 2,-1.9966 0,-21.4765 0,-33.1218 0,-54.90726 l 3,0 c 1.04717,-10e-5 1.9999,-0.95122 2,-1.99663 l 0,-13.97638 c -1e-4,-1.0454 -0.95283,-1.99652 -2,-1.99662 l -14.375,0 c 1.59417,-2.17382 2.40389,-4.87031 2.375,-7.51854 0,-2.97649 -1.77146,-5.45351 -3.65625,-6.76976 -2.70555,-1.67173 -5.86177,-1.94437 -8.6875,-1.46627 -3.6089,1.13855 -6.115453,4.20517 -7.875003,6.67621 -1.07651,1.51858 -2.18311,3.14632 -3.34375,4.77318 -0.92707,-1.42708 -2.45886,-2.65176 -4.4375,-2.65176 -1.97864,0 -3.51043,1.22468 -4.4375,2.65176 -1.16064,-1.62686 -2.26724,-3.2546 -3.34375,-4.77318 -2.19458,-3.09579 -4.38343,-5.94249 -7.8125,-6.67621 -3.40625,-0.73034 -6.50606,0.0467 -8.75,1.46627 z m 8.00005,2.46458 c 1.45559,0.34585 3.22444,2.15252 5.28125,5.05396 1.41264,1.99274 2.95138,4.38575 4.78125,6.76981 l -11.75,0 c -1.79997,-0.28753 -3.36376,-1.07028 -4.28125,-2.24616 -1.0703,-1.40788 -1.7119,-3.41209 -1.6875,-5.24114 0.0122,-1.50959 0.63792,-2.66351 1.875,-3.49409 2.1077,-1.10595 3.66252,-1.13002 5.78125,-0.84238 z m 38.468753,0.84233 c 1.23708,0.83058 1.86278,1.9845 1.875,3.49409 0.0244,1.82905 -0.6172,3.83326 -1.6875,5.24114 -1.3796,1.32867 -2.83874,2.20917 -4.28125,2.24616 l -11.750003,0 c 1.82987,-2.38406 3.36861,-4.77707 4.78125,-6.76981 2.056813,-2.90144 3.825663,-4.70811 5.281253,-5.05396 1.90186,-0.33596 4.18966,-0.19537 5.78125,0.84238 z m -22.125053,8.0177 c 0.6112,0 0.86888,0.24237 1.3125,1.21669 0.40948,0.82189 0.2772,1.13847 -0.25,1.74705 l -2.125,0 c -0.69256,-0.58515 -0.49821,-1.01243 -0.25,-1.74705 0.44362,-0.97432 0.7013,-1.21669 1.3125,-1.21669 z m -38,6.95699 76.000003,0 0,9.98313 -76.000003,0 z m 5,13.97638 13.0625,0 c -0.39182,0.77677 -0.77257,1.559 -1.15625,2.33979 -1.9292,0.19946 -3.85477,0.43151 -5.78125,0.65515 1.37782,1.43239 2.75311,2.86717 4.125,4.30522 -0.42178,1.97265 -0.81679,3.95075 -1.21875,5.92745 1.74797,-0.8995 3.48845,-1.8125 5.21875,-2.7453 1.67178,1.0347 3.37064,2.0247 5.0625,3.0261 l -0.625,-4.1804 -0.28125,-1.80947 c 1.4367,-1.37412 2.89272,-2.72786 4.34375,-4.08684 -1.92522,-0.33388 -3.85199,-0.65758 -5.78125,-0.96712 -0.35964,-0.8192 -0.71341,-1.64086 -1.0625,-2.46458 l 50.093753,0 0,25.83141 c -0.72583,-1.6713 -1.43913,-3.3479 -2.15625,-5.0228 -0.89214,1.8009 -1.78749,3.6002 -2.6875,5.3971 -1.9292,0.1995 -3.85477,0.4315 -5.78125,0.6552 1.36263,1.4471 2.73578,2.8836 4.125,4.3052 -0.41113,1.9748 -0.81386,3.9514 -1.21875,5.9275 1.73899,-0.9059 3.47848,-1.8108 5.21875,-2.7142 0.82968,0.495 1.66415,0.9818 2.5,1.4663 l 0,17.0649 -13.875,0 c -0.21268,-1.3928 -0.41818,-2.7867 -0.625,-4.1804 1.61331,-1.5191 3.21136,-3.0542 4.8125,-4.586 -2.14663,-0.3488 -4.29222,-0.7038 -6.4375,-1.0608 -0.88392,-2.07 -1.77034,-4.139 -2.65625,-6.2082 -1.01297,2.0061 -1.99589,4.0266 -2.968753,6.0523 -2.16521,0.2522 -4.33284,0.4827 -6.5,0.7175 1.53138,1.6117 3.06259,3.2236 4.59375,4.8356 -0.28817,1.4795 -0.59643,2.9549 -0.90625,4.43 l -25.09375,0 -0.25,-1.6535 c 1.45265,-1.3357 2.87921,-2.6993 4.3125,-4.0556 -1.91807,-0.3249 -3.83483,-0.6569 -5.75,-0.9983 -0.79952,-1.8418 -1.60346,-3.6816 -2.40625,-5.5219 -0.88644,1.7985 -1.77194,3.5975 -2.65625,5.3971 -1.9292,0.1994 -3.85477,0.4315 -5.78125,0.6551 1.37874,1.4219 2.74495,2.8552 4.09375,4.3053 l -0.34375,1.8094 0,0.062 -7.5625,0 z m 52.593753,0.93592 c -0.90455,1.79475 -1.80114,3.59336 -2.6875,5.39713 -1.9292,0.19945 -3.85477,0.43151 -5.781253,0.65514 1.377823,1.43239 2.753113,2.86722 4.125003,4.30522 -0.42178,1.9726 -0.81679,3.9508 -1.21875,5.9275 1.74797,-0.8995 3.48845,-1.8126 5.21875,-2.7454 1.67178,1.0348 3.37064,2.0247 5.0625,3.0262 -0.29486,-1.9977 -0.59609,-3.9945 -0.90625,-5.9899 1.4367,-1.3741 2.89272,-2.72788 4.34375,-4.08686 -1.92522,-0.33388 -3.85199,-0.65758 -5.78125,-0.96712 -0.80273,-1.83587 -1.58639,-3.67997 -2.375,-5.52191 z m -25.250003,17.50169 c -1.01297,2.0061 -1.99589,4.0266 -2.96875,6.0523 -2.17064,0.2027 -4.33465,0.4662 -6.5,0.7175 1.55092,1.5934 3.07632,3.2105 4.59375,4.8356 -0.44064,2.2165 -0.89343,4.4305 -1.34375,6.645 1.95462,-1.0169 3.90048,-2.0502 5.84375,-3.0885 1.87598,1.1388 3.7677,2.2514 5.65625,3.3693 -0.33192,-2.2256 -0.66565,-4.451 -1,-6.6762 1.61331,-1.5191 3.21136,-3.0542 4.8125,-4.586 -2.15082,-0.3357 -4.29497,-0.708 -6.4375,-1.0919 -0.89531,-2.0548 -1.7741,-4.1167 -2.65625,-6.1771 z m 19.500003,33.6307 1.40625,0.8423 -3.03125,0 z" fill="#0A5D19" fill-opacity="1" stroke="none" marker="none" visibility="visible" display="inline" overflow="visible"></path></g></svg>