<?xml version="1.0" encoding="UTF-8" standalone="no"?>
<!-- Created with Inkscape (http://www.inkscape.org/) -->

<svg
   xmlns:dc="http://purl.org/dc/elements/1.1/"
   xmlns:cc="http://creativecommons.org/ns#"
   xmlns:rdf="http://www.w3.org/1999/02/22-rdf-syntax-ns#"
   xmlns:svg="http://www.w3.org/2000/svg"
   xmlns="http://www.w3.org/2000/svg"
   xmlns:sodipodi="http://sodipodi.sourceforge.net/DTD/sodipodi-0.dtd"
   xmlns:inkscape="http://www.inkscape.org/namespaces/inkscape"
   width="256"
   height="256"
   viewBox="0 0 67.733332 67.733335"
   version="1.1"
   id="svg6165"
   inkscape:version="0.92.1 15371"
   sodipodi:docname="gst-seal.svg">
  <defs
     id="defs6159" />
  <sodipodi:namedview
     id="base"
     pagecolor="#ffffff"
     bordercolor="#666666"
     borderopacity="1.0"
     inkscape:pageopacity="0.0"
     inkscape:pageshadow="2"
     inkscape:zoom="2.0898438"
     inkscape:cx="128"
     inkscape:cy="128"
     inkscape:document-units="mm"
     inkscape:current-layer="layer1"
     showgrid="false"
     units="px"
     inkscape:window-width="1366"
     inkscape:window-height="709"
     inkscape:window-x="0"
     inkscape:window-y="35"
     inkscape:window-maximized="1" />
  <metadata
     id="metadata6162">
    <rdf:RDF>
      <cc:Work
         rdf:about="">
        <dc:format>image/svg+xml</dc:format>
        <dc:type
           rdf:resource="http://purl.org/dc/dcmitype/StillImage" />
        <dc:title />
      </cc:Work>
    </rdf:RDF>
  </metadata>
  <g
     inkscape:label="Layer 1"
     inkscape:groupmode="layer"
     id="layer1"
     transform="translate(0,-229.26665)">
    <g
       style="fill:#002451"
       id="g6120"
       transform="matrix(0.7083828,0,0,0.70581159,-2.6134202,228.74617)">
      <path
         id="path6082"
         d="m 33.494576,69.270431 -7.119278,19.800202 12.81977,-7.171433 4.260365,13.898102 8.645771,-21.953926 c -0.280571,0.0063 -0.55888,0.02128 -0.840954,0.02128 -6.447544,0 -12.502544,-1.670669 -17.765674,-4.594223 z"
         inkscape:connector-curvature="0" />
      <path
         id="path6084"
         d="m 75.861748,64.37825 c -4.695717,4.255844 -10.501282,7.306069 -16.929245,8.675705 l 11.08715,19.005768 2.738274,-14.431755 13.388557,5.662018 z"
         inkscape:connector-curvature="0" />
      <polygon
         id="polygon6086"
         points="74.941834,28.599342 74.023056,27.165432 73.303116,28.708807 72.83136,28.832333 72.412331,28.941986 71.65461,29.140392 72.900406,30.301769 72.800728,32.002815 73.463547,31.635315 73.85672,31.417326 74.291069,31.176552 75.877312,31.796501 75.552681,30.124767 76.632904,28.807226 " />
      <polygon
         id="polygon6088"
         points="73.781403,38.739967 74.226799,38.678455 74.718636,38.610603 75.97448,39.760998 76.274757,38.084679 77.757561,37.245548 76.255295,36.441631 75.915604,34.772846 74.687256,35.952549 74.20269,35.897568 73.772362,35.848736 72.994057,35.760422 73.737091,37.292938 73.030456,38.843533 " />
      <polygon
         id="polygon6090"
         points="73.922752,43.479748 72.659126,42.528515 72.531334,44.104969 72.160507,44.365078 71.83123,44.596058 71.235703,45.013771 72.695785,45.621983 73.159004,47.13517 73.617454,46.600899 73.889236,46.283985 74.189514,45.933872 75.770859,45.960739 74.947609,44.610306 75.462051,43.113945 " />
      <polygon
         id="polygon6092"
         points="29.31844,47.929172 27.6516,47.579811 28.248013,49.174969 27.400408,50.652878 29.10252,50.578499 30.245632,51.84087 30.700693,50.199703 31.145584,49.999916 31.54064,49.822536 32.255302,49.501671 30.834637,48.562111 30.651859,46.86797 30.058712,47.339977 29.706966,47.619919 " />
      <polygon
         id="polygon6094"
         points="27.668297,40.66798 26.239721,39.740848 26.22064,41.443779 24.896885,42.516338 26.511251,43.061031 27.121973,44.65073 28.138546,43.284294 28.625492,43.258434 29.057957,43.235458 29.840159,43.19397 28.85409,41.805252 29.294838,40.159252 28.571386,40.385529 28.142313,40.519722 " />
      <polygon
         id="polygon6096"
         points="28.504854,33.418648 27.797848,32.002815 27.43405,32.605503 27.218384,32.962963 26.98012,33.357891 25.415968,33.592701 26.45112,34.788536 26.191013,36.349361 27.648714,35.734184 29.052181,36.463535 28.91761,34.887646 29.240482,34.569859 29.526951,34.287659 30.045406,33.777237 " />
      <path
         id="path6098"
         d="m 51.033661,70.200569 c 18.188728,0 32.933556,-14.744892 32.933556,-32.933616 0,-18.188725 -14.744828,-32.9336195 -32.933556,-32.9336195 -18.188851,0 -32.933678,14.7448925 -32.933678,32.9336205 0,18.188728 14.744827,32.933615 32.933678,32.933615 z m 0,-61.7537421 c 15.891456,0 28.820068,12.9286691 28.820068,28.8201261 0,15.891456 -12.928612,28.820129 -28.820068,28.820129 -15.891579,0 -28.820187,-12.928673 -28.820187,-28.820129 0,-15.891457 12.928608,-28.8201261 28.820187,-28.8201261 z"
         inkscape:connector-curvature="0" />
      <circle
         id="circle6100"
         r="19.294538"
         cy="37.266937"
         cx="51.033661" />
    </g>
    <text
       xml:space="preserve"
       style="font-style:normal;font-variant:normal;font-weight:bold;font-stretch:normal;font-size:11.66744614px;line-height:1.25;font-family:'DejaVu Sans';-inkscape-font-specification:'DejaVu Sans Bold';letter-spacing:0px;word-spacing:0px;fill:#000000;fill-opacity:1;stroke:none;stroke-width:0.29168615"
       x="-146.75285"
       y="198.64522"
       id="text6124"
       transform="matrix(0.70015169,-0.49060267,0.6623131,0.96417309,0,0)"><tspan
         sodipodi:role="line"
         id="tspan6122"
         x="-146.75285"
         y="198.64522"
         style="font-style:normal;font-variant:normal;font-weight:bold;font-stretch:normal;font-size:9.17222214px;font-family:'DejaVu Sans';-inkscape-font-specification:'DejaVu Sans Bold';fill:#ffffff;stroke-width:0.29168615">GST</tspan></text>
  </g>
</svg>
