<svg fill="#002451" xmlns="http://www.w3.org/2000/svg" xmlns:xlink="http://www.w3.org/1999/xlink" version="1.1" x="0px" y="0px" viewBox="0 0 100 100" enable-background="new 0 0 100 100" xml:space="preserve"><path d="M29.412,67.013V55.274h-4.587v-4.198h14.292v4.198h-4.588v11.739H29.412z M40.652,67.013l5.604-15.937h5.183l5.604,15.937  h-5.074l-0.596-2.11H46.3l-0.617,2.11H40.652z M47.229,61.56h3.214l-1.591-5.518L47.229,61.56z M59.086,67.013l5.475-8.287  l-4.988-7.649h5.756l2.132,4.036l2.326-4.036h5.625l-5.16,7.649l5.334,8.287h-5.777l-2.413-4.317l-2.423,4.317H59.086z   M85.248,2.083h-6.916H21.33H7.531c-2.205,0-4,1.795-4,4v34.854v37.89v15.09c0,2.205,1.795,4,4,4h84.932c2.205,0,4-1.795,4-4v-15.09  v-37.89V14.593L85.248,2.083z M59.998,21.166h4.416c1.381,0,2.5-1.245,2.5-2.782V5.083h8.418v19.166c0,0.552-0.449,1-1,1H33.459  V5.083h24.039v13.301C57.498,19.921,58.617,21.166,59.998,21.166z M30.459,5.083v20.166H25.33c-0.553,0-1-0.448-1-1V5.083H30.459z   M6.531,43.938h86.932v31.89H6.531V43.938z M93.463,93.917c0,0.551-0.449,1-1,1H7.531c-0.551,0-1-0.449-1-1v-15.09h86.932V93.917z   M6.531,40.938V6.083c0-0.551,0.449-1,1-1H21.33v19.166c0,2.206,1.793,4,4,4h49.002c2.205,0,4-1.794,4-4V5.083h5.576l9.555,10.657  v25.197H6.531z"></path></svg>