<svg fill="#002451" xmlns:dc="http://purl.org/dc/elements/1.1/" xmlns:cc="http://creativecommons.org/ns#" xmlns:rdf="http://www.w3.org/1999/02/22-rdf-syntax-ns#" xmlns:svg="http://www.w3.org/2000/svg" xmlns="http://www.w3.org/2000/svg" xmlns:sodipodi="http://sodipodi.sourceforge.net/DTD/sodipodi-0.dtd" xmlns:inkscape="http://www.inkscape.org/namespaces/inkscape" viewBox="0 0 36 36.000001" version="1.1" x="0px" y="0px"><g transform="translate(0,-1016.3622)"><path style="text-indent:0;text-transform:none;direction:ltr;block-progression:tb;baseline-shift:baseline;color:#000000;enable-background:accumulate;" d="m 19.980469,3.9804688 c -4.143121,0 -7.478516,3.3694999 -7.478516,7.5000002 0,4.132 3.335395,7.5 7.478516,7.5 4.142116,0 7.521484,-3.3644 7.521484,-7.5 2.08e-4,-0.06684 -0.01316,-0.133694 -0.03906,-0.195313 -6.51e-4,-1e-6 -0.0013,-1e-6 -0.002,0 C 27.349236,7.2473563 24.052491,3.9824219 19.980469,3.9824219 z m 0,1 c 3.602065,0 6.521484,2.9092999 6.521484,6.5000002 0,3.5924 -2.919421,6.5 -6.521484,6.5 -3.603219,0 -6.478516,-2.904 -6.478516,-6.5 0,-3.5943002 2.875316,-6.5000002 6.478516,-6.5000002 z m -2.478516,3 0,0.00977 -0.02344,0 0,1 1.027343,0 c 0.934285,0 1.404829,0.4413702 1.574219,0.9902344 l -2.578125,0 0,0.9999998 2.578125,0 c -0.169846,0.548091 -0.640877,0.990234 -1.574219,0.990234 l -0.353515,0 -0.0039,-0.0039 -0.0039,0.0039 -0.666015,0 0,0.681641 0,0.0586 0,0.259765 0.267578,0 3.080078,3.009766 0.699219,-0.714844 -2.41211,-2.355469 c 1.095766,-0.221299 1.798886,-1.033729 1.992188,-1.929687 l 1.365234,0 0,-0.9999998 -1.365234,0 c -0.07729,-0.3595844 -0.244111,-0.7000711 -0.478516,-1 l 1.84375,0 0,-1 z M 31.324219,22.052734 c -0.117628,6.32e-4 -0.235855,0.01095 -0.353516,0.0293 l -0.002,0 0,-0.01172 c -0.316687,0.05 -0.625721,0.16705 -0.908203,0.34375 l -6.695313,4.175782 c -0.03528,-0.8279 -0.352827,-1.515588 -0.902343,-1.929688 -0.580722,-0.4376 -1.330925,-0.595703 -2.132813,-0.595703 l -2.882812,0 c -0.427397,0 -1.198248,-0.30365 -1.97461,-0.65625 -0.776361,-0.3525 -1.551302,-0.749475 -2.316406,-0.796875 l -0.01563,0 -4.3398438,0 -0.00195,0 c -1.0773292,0.01 -1.9852161,0.416209 -2.7207031,0.78711 -0.735487,0.370899 -1.3353756,0.667968 -1.5976562,0.667968 l -2.4804688,0 0,1 2.4804688,0 c 0.7407592,0 1.3478269,-0.42289 2.046875,-0.77539 0.6979477,-0.352 1.4497585,-0.672588 2.2753906,-0.679688 l 4.2910155,0 c 0.408836,0.025 1.180588,0.352784 1.964844,0.708984 0.784256,0.3561 1.586798,0.746094 2.388672,0.746094 l 2.882812,0 c 0.664573,0 1.196861,0.142531 1.53125,0.394532 0.334389,0.251999 0.53125,0.602565 0.53125,1.259765 0,0.4484 -0.138981,0.74216 -0.320312,1.005859 -0.06256,0.079 -0.119001,0.181694 -0.191407,0.246094 -0.281263,0.2457 -0.70017,0.455078 -1.550781,0.455078 l -5.763672,0 0,1 5.751953,0 0.01172,0 c 0.796049,0 1.384129,-0.195768 1.871094,-0.480468 2.497011,-2.315906 5.704035,-4.037294 8.390625,-5.683594 0.174926,-0.1094 0.35138,-0.174725 0.533203,-0.203125 0.554327,-0.087 1.109452,0.149381 1.431641,0.675781 l 0.224609,0.361328 c 0.424242,0.6932 0.214496,1.616416 -0.466797,2.041016 l -0.002,0 -7.970703,4.996094 c -0.01173,0.01 -0.08876,0.02675 -0.269531,0.09375 l -0.01563,0.0098 -0.01367,0.0098 c -0.133526,0.06 -0.334238,0.09375 -0.560547,0.09375 -0.01958,-1e-4 -0.04412,0 -0.04492,0 l -21.4374999,0 0,1 21.4374999,0 c 0.03057,0 0.03742,9e-4 0.01953,0 l 0.01367,0 0.01172,0 c 0.308571,0 0.644269,-0.03504 0.970703,-0.181641 0.07122,-0.022 0.217792,-0.04197 0.419922,-0.167968 l 7.96875,-4.998047 c 1.151027,-0.7174 1.500146,-2.254557 0.792969,-3.410157 l -0.22461,-0.361328 -0.002,0 c -0.4607,-0.750837 -1.260592,-1.174344 -2.083984,-1.169922 z" transform="translate(0,1016.3622)" fill="#002451" fill-opacity="1" fill-rule="nonzero" stroke="none" visibility="visible" display="inline" overflow="visible"></path></g></svg>