<?xml version="1.0" encoding="UTF-8" standalone="no"?>
<!-- Created with Inkscape (http://www.inkscape.org/) -->

<svg
   xmlns:dc="http://purl.org/dc/elements/1.1/"
   xmlns:cc="http://creativecommons.org/ns#"
   xmlns:rdf="http://www.w3.org/1999/02/22-rdf-syntax-ns#"
   xmlns:svg="http://www.w3.org/2000/svg"
   xmlns="http://www.w3.org/2000/svg"
   xmlns:sodipodi="http://sodipodi.sourceforge.net/DTD/sodipodi-0.dtd"
   xmlns:inkscape="http://www.inkscape.org/namespaces/inkscape"
   width="128"
   height="128"
   viewBox="0 0 33.866666 33.866668"
   version="1.1"
   id="svg6587"
   inkscape:version="0.92.1 15371"
   sodipodi:docname="crm.svg">
  <defs
     id="defs6581" />
  <sodipodi:namedview
     id="base"
     pagecolor="#ffffff"
     bordercolor="#666666"
     borderopacity="1.0"
     inkscape:pageopacity="0.0"
     inkscape:pageshadow="2"
     inkscape:zoom="4.1796875"
     inkscape:cx="86.093244"
     inkscape:cy="64"
     inkscape:document-units="mm"
     inkscape:current-layer="layer1"
     showgrid="false"
     units="px"
     inkscape:window-width="1366"
     inkscape:window-height="709"
     inkscape:window-x="0"
     inkscape:window-y="35"
     inkscape:window-maximized="1" />
  <metadata
     id="metadata6584">
    <rdf:RDF>
      <cc:Work
         rdf:about="">
        <dc:format>image/svg+xml</dc:format>
        <dc:type
           rdf:resource="http://purl.org/dc/dcmitype/StillImage" />
        <dc:title></dc:title>
      </cc:Work>
    </rdf:RDF>
  </metadata>
  <g
     inkscape:label="Layer 1"
     inkscape:groupmode="layer"
     id="layer1"
     transform="translate(0,-263.13332)">
    <g
       style="fill:#002451"
       id="g2225"
       transform="matrix(0.33842355,0,0,0.34687617,0.47547707,262.97605)">
      <g
         id="g2207">
        <ellipse
           id="ellipse2193"
           ry="6.9000001"
           rx="6.5999999"
           cy="22"
           cx="28.5" />
        <path
           id="path2195"
           d="m 32,29.1 -3.4,2.6 -3.4,-2.6 c -1,0.2 -9,2.2 -9.7,8.4 -0.1,0.6 0.2,1.2 0.7,1.6 1.5,1 5.2,3 12.4,3 v 0 0 c 7.2,0 10.9,-2 12.4,-3 0.5,-0.4 0.8,-1 0.7,-1.6 -0.8,-6.2 -8.8,-8.2 -9.7,-8.4 z"
           inkscape:connector-curvature="0" />
        <ellipse
           id="ellipse2197"
           ry="5.1999998"
           rx="4.9000001"
           cy="48.400002"
           cx="74.599998" />
        <path
           id="path2199"
           d="m 77.2,53.8 -2.5,2 -2.5,-2 c -0.7,0.2 -6.7,1.7 -7.3,6.3 -0.1,0.5 0.1,0.9 0.5,1.2 1.1,0.8 3.9,2.2 9.3,2.2 v 0 0 c 5.4,0 8.2,-1.5 9.3,-2.2 0.4,-0.3 0.6,-0.7 0.5,-1.2 -0.6,-4.7 -6.6,-6.2 -7.3,-6.3 z"
           inkscape:connector-curvature="0" />
        <ellipse
           id="ellipse2201"
           ry="5.1999998"
           rx="4.9000001"
           cy="70.800003"
           cx="33.400002" />
        <path
           id="path2203"
           d="m 36,76.1 -2.5,2 -2.5,-2 c -0.7,0.2 -6.7,1.7 -7.3,6.3 -0.1,0.5 0.1,0.9 0.5,1.2 1.1,0.8 3.9,2.2 9.3,2.2 v 0 0 c 5.4,0 8.2,-1.5 9.3,-2.2 0.4,-0.3 0.6,-0.7 0.5,-1.2 -0.6,-4.6 -6.6,-6.1 -7.3,-6.3 z"
           inkscape:connector-curvature="0" />
        <path
           id="path2205"
           d="M 94.8,82.1 C 93.9,78.8 90.6,76.8 87.3,77.5 L 84,69.2 c 5.2,-3.2 8.6,-8.9 8.6,-15.3 0,-9.9 -8.1,-18 -18,-18 -6.3,0 -11.9,3.3 -15.1,8.2 l -9.6,-5.2 c 1.5,-3.1 2.4,-6.6 2.4,-10.3 0,-2.5 -0.4,-5 -1.2,-7.3 l 10.1,-2.7 c 1.3,2 3.8,3.2 6.4,2.8 3.5,-0.5 5.9,-3.8 5.4,-7.3 -0.5,-3.5 -3.8,-5.9 -7.3,-5.4 -3.5,0.5 -5.8,3.8 -5.4,7.2 L 50,18.7 C 46.3,10.6 38.1,5 28.6,5 15.6,5 5,15.6 5,28.6 c 0,13 10.6,23.6 23.6,23.6 0.2,0 0.4,0 0.6,0 L 30,59.4 C 21.8,61 15.5,68.3 15.5,77 c 0,9.9 8.1,18 18,18 9.9,0 18,-8.1 18,-18 0,-2.7 -0.6,-5.3 -1.7,-7.6 l 9.8,-5.5 c 3.2,4.8 8.7,8 14.9,8 2.4,0 4.7,-0.5 6.9,-1.4 l 3.2,8.2 c -2,1.5 -3,4.2 -2.3,6.8 0.9,3.4 4.5,5.4 7.9,4.5 3.5,-0.9 5.5,-4.5 4.6,-7.9 z M 8.4,28.6 c 0,-11.2 9.1,-20.2 20.2,-20.2 11.1,0 20.2,9.1 20.2,20.2 0,11.1 -9.1,20.2 -20.2,20.2 -11.1,0 -20.2,-9 -20.2,-20.2 z m 25.1,63 C 25.4,91.6 18.9,85 18.9,77 c 0,-8 6.6,-14.6 14.6,-14.6 8,0 14.6,6.6 14.6,14.6 0,8 -6.6,14.6 -14.6,14.6 z M 48.4,67 C 45.2,62.2 39.7,59 33.5,59 33.3,59 33,59 32.8,59 L 32,52 c 6.9,-1 12.8,-5 16.5,-10.6 l 9.7,5.2 c -1,2.2 -1.6,4.7 -1.6,7.3 0,2.7 0.6,5.3 1.7,7.6 z M 60,53.9 c 0,-8.1 6.6,-14.6 14.6,-14.6 8,0 14.6,6.6 14.6,14.6 0,8 -6.6,14.6 -14.6,14.6 C 66.6,68.5 60,62 60,53.9 Z"
           inkscape:connector-curvature="0" />
      </g>
    </g>
  </g>
</svg>
