<?xml version="1.0" encoding="UTF-8" standalone="no"?>
<!-- Created with Inkscape (http://www.inkscape.org/) -->

<svg
   xmlns:dc="http://purl.org/dc/elements/1.1/"
   xmlns:cc="http://creativecommons.org/ns#"
   xmlns:rdf="http://www.w3.org/1999/02/22-rdf-syntax-ns#"
   xmlns:svg="http://www.w3.org/2000/svg"
   xmlns="http://www.w3.org/2000/svg"
   xmlns:sodipodi="http://sodipodi.sourceforge.net/DTD/sodipodi-0.dtd"
   xmlns:inkscape="http://www.inkscape.org/namespaces/inkscape"
   width="256"
   height="256"
   viewBox="0 0 67.733332 67.733335"
   version="1.1"
   id="svg8"
   inkscape:version="0.92.1 15371"
   sodipodi:docname="integration.svg">
  <defs
     id="defs2" />
  <sodipodi:namedview
     id="base"
     pagecolor="#ffffff"
     bordercolor="#666666"
     borderopacity="1.0"
     inkscape:pageopacity="0.0"
     inkscape:pageshadow="2"
     inkscape:zoom="2.0898438"
     inkscape:cx="128"
     inkscape:cy="128"
     inkscape:document-units="mm"
     inkscape:current-layer="layer1"
     showgrid="false"
     units="px"
     inkscape:window-width="1366"
     inkscape:window-height="709"
     inkscape:window-x="0"
     inkscape:window-y="35"
     inkscape:window-maximized="1" />
  <metadata
     id="metadata5">
    <rdf:RDF>
      <cc:Work
         rdf:about="">
        <dc:format>image/svg+xml</dc:format>
        <dc:type
           rdf:resource="http://purl.org/dc/dcmitype/StillImage" />
        <dc:title />
      </cc:Work>
    </rdf:RDF>
  </metadata>
  <g
     inkscape:label="Layer 1"
     inkscape:groupmode="layer"
     id="layer1"
     transform="translate(0,-229.26665)">
    <g
       style="fill:#002451"
       id="g4290"
       transform="matrix(-0.08015678,0,0,0.0807267,20.922727,276.1673)">
      <g
         id="g4273">
        <polygon
           id="polygon4261"
           points="50.317,98.757 13.357,17.253 0,23.311 36.072,102.857 " />
        <path
           id="path4263"
           d="m 128.138,57.5 c 11.681,5.191 33.648,-13.268 38.84,-24.949 C 172.165,20.869 166.903,7.19 155.22,2 143.538,-3.191 129.86,2.07 124.669,13.754 119.48,25.438 116.454,52.311 128.138,57.5 Z m 0.199,-34.091 c 2.778,-6.664 7.991,-10.834 11.645,-9.311 3.653,1.521 4.363,8.16 1.587,14.824 -2.775,6.662 -7.991,10.832 -11.644,9.311 -3.655,-1.524 -4.365,-8.159 -1.588,-14.824 z"
           inkscape:connector-curvature="0" />
        <path
           id="path4265"
           d="m 144.427,73.43 c 1.388,-2.671 4.109,-4.324 7.11,-4.324 1.269,0 2.54,0.311 3.675,0.898 3.915,2.031 5.45,6.867 3.421,10.783 -0.997,1.86 -4.645,8.147 -11.541,14.551 -1.859,1.731 -4.066,3.547 -6.602,5.289 1.28,7.621 2.206,15.748 1.85,23.487 h -19.012 v 30.328 l 4.247,-11.327 h 28.083 c 0.68,0 1.342,-0.074 1.982,-0.21 7.1,-0.674 14.288,-3.806 16.622,-15.813 2.342,-20.119 1.018,-32.012 -5.145,-50.283 -4.561,-13.26 -15.768,-17.459 -23.5,-15.531 -7.675,1.912 -11.074,12.561 -8.578,21.536 4.895,-4.759 7.363,-9.335 7.388,-9.384 z"
           inkscape:connector-curvature="0" />
        <path
           id="path4267"
           d="m 110.953,107.831 c 0.016,0 0.033,0 0.048,0 15.713,10e-4 27.363,-7.098 34.731,-13.959 7.424,-6.896 10.914,-13.616 11.126,-14.003 1.525,-2.943 0.374,-6.564 -2.566,-8.089 -2.941,-1.524 -6.559,-0.375 -8.085,2.562 -0.169,0.333 -3.278,5.956 -9.194,11.238 -5.961,5.307 -14.402,10.237 -26.06,10.251 -4.113,0 -8.669,-0.617 -13.744,-2.132 -3.175,-0.946 -6.517,0.858 -7.464,4.034 -0.948,3.175 0.856,6.519 4.033,7.465 6.108,1.825 11.849,2.633 17.175,2.633 z"
           inkscape:connector-curvature="0" />
        <path
           id="path4269"
           d="m 190.244,160.853 10,-64.668 c 0.591,-3.82 -2.027,-7.395 -5.847,-7.985 -3.822,-0.591 -7.397,2.027 -7.988,5.847 l -9.084,58.736 h -42.333 c -3.865,0 -6.999,3.134 -6.999,7.001 0,3.865 3.134,7.001 6.999,7.001 l 48.335,-0.002 c 3.443,0 6.39,-2.529 6.917,-5.93 z"
           inkscape:connector-curvature="0" />
        <path
           id="path4271"
           d="m 121.328,121.784 -3.747,-1.147 1.142,-3.799 -11.015,-3.307 -1.123,3.737 -5.604,-1.716 1.114,-3.708 -11.015,-3.309 -1.096,3.648 -5.604,-1.716 1.087,-3.618 -11.014,-3.309 -1.069,3.559 -5.604,-1.716 1.061,-3.528 -11.015,-3.309 -1.042,3.469 -5.115,-1.566 L 7.66,113.116 V 196.45 H 121.328 Z M 24.66,130.45 h -6.333 v -12.667 h 6.333 z m 12.334,0 H 30.66 v -12.667 h 6.334 z m 6,-12.667 h 6.333 v 12.667 h -6.333 z m 38,52.334 c 0,-8.652 7.015,-15.667 15.668,-15.667 8.652,0 15.666,7.015 15.666,15.667 0,8.652 -7.014,15.667 -15.666,15.667 -8.653,0 -15.668,-7.015 -15.668,-15.667 z"
           inkscape:connector-curvature="0" />
      </g>
    </g>
    <g
       style="fill:#002451"
       id="g2912"
       transform="matrix(0.50467231,0,0,0.58665202,8.5402995,242.21256)">
      <path
         id="path2901"
         d="m 85.509846,-10.995294 c -4.657,0 -9.19,1.2279996 -13.184,3.5619995 -4.191,-5.3619995 -10.634,-8.5299995 -17.462,-8.5299995 -12.224,0 -22.168,9.9429995 -22.168,22.1659995 0,1.172 0.095,2.352 0.283,3.519 -7.051,2.2710005 -11.88,8.8370005 -11.88,16.3600005 0,8.529 6.447,15.858 14.822,17.035 3.664,10.042 13.173,16.733 23.912,16.733 11.359,0 21.253,-7.458 24.42,-18.265 0.423,0.023 0.839,0.035 1.256,0.035 14.507004,0 26.309004,-11.801 26.309004,-26.306 0,-14.50700047 -11.801,-26.309 -26.308004,-26.309 z m 0,50.115 c -0.678,0 -1.354,-0.034 -2.069,-0.104 -0.604,-0.055 -1.186,0.341 -1.335,0.942 -2.549,10.24 -11.708,17.391 -22.272,17.391 -9.927,0 -18.688,-6.34 -21.801,-15.776 -0.156,-0.473 -0.578,-0.808 -1.073,-0.854 -7.492,-0.686 -13.36,-7.116 -13.36,-14.639 0,-6.771 4.573,-12.633 11.12,-14.258 0.655,-0.162 1.063,-0.816 0.921,-1.477 -0.295,-1.3670005 -0.444,-2.7620005 -0.444,-4.1450005 0,-10.844 8.823,-19.6659995 19.668,-19.6659995 6.406,0 12.431,3.145 16.115,8.4119995 0.386,0.551 1.137,0.7 1.703,0.333 3.823,-2.471 8.259,-3.776 12.827,-3.776 13.128,0 23.809004,10.681 23.809004,23.8100005 -10e-4,13.128 -10.681004,23.807 -23.809004,23.807 z m -50.524,16.568 c -3.77,0 -6.836,3.067 -6.836,6.838 0,3.769 3.066,6.834 6.836,6.834 3.769,0 6.834,-3.065 6.834,-6.834 0,-3.77 -3.065,-6.838 -6.834,-6.838 z m 0,11.172 c -2.391,0 -4.336,-1.944 -4.336,-4.334 0,-2.392 1.945,-4.338 4.336,-4.338 2.39,0 4.334,1.946 4.334,4.338 0,2.39 -1.944,4.334 -4.334,4.334 z"
         inkscape:connector-curvature="0" />
    </g>
    <g
       style="fill:#002451"
       id="g3622"
       transform="matrix(0.15590793,0,0,0.14221765,34.575358,246.59853)">
      <g
         id="g3610">
        <path
           id="path3608"
           d="m 76.1,76.4 c -0.2,0.2 -0.5,0.4 -0.8,0.6 -1.5,1.1 -3,1.9 -4.8,2.4 -9.7,2.8 -24.1,4 -24.1,4 l -0.8,0.1 c -0.6,0.1 -1.2,-0.3 -1.4,-1 -0.1,-0.7 0.3,-1.4 1,-1.5 l 21.3,-3.5 c 2.3,-0.4 4.1,-2.8 3.6,-5.4 -0.4,-2.6 -2.8,-4.3 -5.2,-3.9 l -19.1,1 C 44.5,69.3 42.4,69.1 41.1,68.8 28.6,65.9 21.9,69.8 18.3,71.7 17.4,70.3 15.8,69.5 14,69.8 L 6,71 c -2.7,0.4 -4.6,2.9 -4.3,5.6 l 2.6,18.8 c 0.4,2.7 2.9,4.6 5.6,4.3 l 8.2,-1.1 c 1.7,-0.2 3.1,-1.4 3.6,-3 l 36.2,-0.8 c 4,0.2 7.8,-0.6 11.2,-2.7 l 1,-0.6 26.2,-18.4 c 1.3,-0.9 2.1,-2.4 2.1,-3.9 -0.1,-1.9 -1.3,-3.9 -3.9,-4 -1.9,0 -5.5,2.4 -6.5,3 -3.7,2.2 -8.7,5.5 -11.9,8.2 z M 12.6,95 c -1.5,0.1 -2.9,-1.1 -3,-2.6 -0.1,-1.5 1.1,-2.9 2.6,-3 1.5,-0.1 2.9,1.1 3,2.6 0.1,1.5 -1.1,2.9 -2.6,3 z M 74,69.4 c 2.8,-1.8 8.2,-5 11.2,-6.5 1.5,-0.7 3,-0.8 4.5,0.1 -1.1,0.5 -2.1,1.1 -3,1.6 -3.1,1.9 -8.6,5.5 -11.2,7.7 -0.3,0.2 -0.5,0.5 -0.8,0.7 0,-0.5 0,-1 -0.1,-1.6 -0.1,-0.7 -0.3,-1.3 -0.5,-1.9 -0.2,0 -0.2,0 -0.1,-0.1 z m 3.6,-8.2 c 1.5,-0.7 3,-0.8 4.4,0.1 -2.1,1.2 -6.3,3 -8.3,4.3 l -1.3,0.9 c -0.1,0.1 -0.2,0.2 -0.4,0.3 -0.7,-0.7 -1.4,-1.3 -2.3,-1.8 2,-1.2 6.1,-2.9 7.9,-3.8 z M 45.3,42.4 C 43.4,38.7 45,34.1 48.7,32.3 52.4,30.4 57,32 58.8,35.7 c 1.9,3.7 0.3,8.3 -3.4,10.1 -3.7,1.9 -8.3,0.3 -10.1,-3.4 z m -11,-13.6 -3.6,-1.2 c -0.9,-0.3 -1.8,0.2 -2.1,1.1 L 27,33 c -0.3,0.9 0.2,1.8 1.1,2.1 l 3.6,1.2 c -0.3,2.6 -0.2,5.3 0.5,8 L 28.8,46 C 28,46.4 27.6,47.4 28,48.3 l 2,4.1 c 0.4,0.8 1.4,1.2 2.3,0.8 l 3.4,-1.7 c 1.7,2.2 3.7,4 6,5.3 l -1.2,3.6 c -0.3,0.9 0.2,1.8 1.1,2.1 L 46,64 c 0.9,0.3 1.8,-0.2 2.1,-1.1 l 1.2,-3.6 c 2.6,0.3 5.3,0.2 8,-0.5 l 1.7,3.4 c 0.4,0.8 1.4,1.2 2.3,0.8 l 4.1,-2 c 0.8,-0.4 1.2,-1.4 0.8,-2.3 l -1.7,-3.4 c 2.2,-1.7 4,-3.7 5.3,-6 l 3.6,1.2 c 0.9,0.3 1.8,-0.2 2.1,-1.1 L 77,45 c 0.3,-0.9 -0.2,-1.8 -1.1,-2.1 l -3.6,-1.2 c 0.3,-2.6 0.2,-5.3 -0.5,-8 L 75.2,32 C 76,31.6 76.4,30.6 76,29.7 l -2,-4.1 c -0.4,-0.8 -1.4,-1.2 -2.3,-0.8 l -3.4,1.7 c -1.7,-2.2 -3.7,-4 -6,-5.3 l 1.2,-3.6 c 0.3,-0.9 -0.2,-1.8 -1.1,-2.1 L 58.1,14 c -0.9,-0.3 -1.8,0.2 -2.1,1.1 l -1.2,3.6 c -2.6,-0.3 -5.3,-0.2 -8,0.5 L 45,15.8 C 44.6,15 43.6,14.6 42.7,15 l -4.1,2 c -0.8,0.4 -1.2,1.4 -0.8,2.3 l 1.7,3.4 c -2.1,1.8 -3.9,3.8 -5.2,6.1 z m 12.5,-0.5 c 5.9,-2.9 13.1,-0.5 16,5.4 2.9,5.9 0.5,13.1 -5.4,16 -5.9,2.9 -13.1,0.5 -16,-5.4 -3,-5.9 -0.5,-13 5.4,-16 z M 10.5,12.4 c -0.6,0 -1.1,0.6 -1.1,1.2 l 0.1,1.9 c 0,0.6 0.6,1.1 1.2,1.1 l 1.8,-0.1 c 0.4,1.4 1,2.6 1.8,3.7 l -1.2,1.3 c -0.4,0.5 -0.4,1.2 0.1,1.6 l 1.4,1.3 c 0.5,0.4 1.2,0.4 1.6,-0.1 L 17.4,23 c 1.2,0.7 2.5,1.2 3.9,1.3 l 0.1,1.8 c 0,0.6 0.6,1.1 1.2,1.1 l 1.9,-0.1 c 0.6,0 1.1,-0.6 1.1,-1.2 l -0.1,-1.8 c 1.4,-0.4 2.6,-1 3.7,-1.8 l 1.3,1.2 c 0.5,0.4 1.2,0.4 1.6,-0.1 L 33.4,22 c 0.4,-0.5 0.4,-1.2 -0.1,-1.6 L 32,19.2 c 0.7,-1.2 1.2,-2.5 1.3,-3.9 l 1.8,-0.1 c 0.6,0 1.1,-0.6 1.1,-1.2 L 36.1,12.1 C 36.1,11.5 35.5,11 34.9,11 H 33.2 C 32.8,9.6 32.2,8.4 31.4,7.3 L 32.6,6 C 33,5.5 33,4.8 32.5,4.4 L 31,3 C 30.5,2.6 29.8,2.6 29.4,3.1 L 28.2,4.4 C 27,3.7 25.7,3.2 24.3,3.1 L 24.2,1.3 C 24.2,0.7 23.6,0.2 23,0.2 L 21,0.4 C 20.4,0.4 19.9,1 19.9,1.6 L 20,3.4 c -1.4,0.4 -2.6,1 -3.7,1.8 L 15,4.1 C 14.5,3.7 13.8,3.7 13.4,4.2 l -1.3,1.4 c -0.4,0.5 -0.4,1.2 0.1,1.6 l 1.3,1.2 c -0.7,1.2 -1.2,2.5 -1.3,3.9 z m 12,-3.8 c 2.8,-0.2 5.2,2 5.4,4.8 0.2,2.8 -2,5.2 -4.8,5.4 -2.8,0.2 -5.2,-2 -5.4,-4.8 -0.1,-2.8 2,-5.2 4.8,-5.4 z"
           inkscape:connector-curvature="0" />
      </g>
    </g>
  </g>
</svg>
