<?xml version="1.0" encoding="UTF-8" standalone="no"?>
<!-- Created with Inkscape (http://www.inkscape.org/) -->

<svg
   xmlns:dc="http://purl.org/dc/elements/1.1/"
   xmlns:cc="http://creativecommons.org/ns#"
   xmlns:rdf="http://www.w3.org/1999/02/22-rdf-syntax-ns#"
   xmlns:svg="http://www.w3.org/2000/svg"
   xmlns="http://www.w3.org/2000/svg"
   xmlns:sodipodi="http://sodipodi.sourceforge.net/DTD/sodipodi-0.dtd"
   xmlns:inkscape="http://www.inkscape.org/namespaces/inkscape"
   width="400px"
   height="256px"
   viewBox="0 0 400 256"
   version="1.1"
   id="SVGRoot"
   inkscape:export-filename="/home/dpk/set-gro.png"
   inkscape:export-xdpi="96"
   inkscape:export-ydpi="96"
   inkscape:version="0.92.1 15371"
   sodipodi:docname="jewellary.svg">
  <sodipodi:namedview
     id="base"
     pagecolor="#ffffff"
     bordercolor="#666666"
     borderopacity="1.0"
     inkscape:pageopacity="0.0"
     inkscape:pageshadow="2"
     inkscape:zoom="2.0898438"
     inkscape:cx="200"
     inkscape:cy="128"
     inkscape:document-units="px"
     inkscape:current-layer="layer1"
     showgrid="false"
     inkscape:window-width="1366"
     inkscape:window-height="709"
     inkscape:window-x="0"
     inkscape:window-y="35"
     inkscape:window-maximized="1" />
  <defs
     id="defs69717">
    <style
       id="style1776"
       type="text/css">
   
    .fil1 {fill:none}
    .fil0 {fill:#002451;fill-rule:nonzero}
   
  </style>
  </defs>
  <metadata
     id="metadata69720">
    <rdf:RDF>
      <cc:Work
         rdf:about="">
        <dc:format>image/svg+xml</dc:format>
        <dc:type
           rdf:resource="http://purl.org/dc/dcmitype/StillImage" />
        <dc:title></dc:title>
      </cc:Work>
    </rdf:RDF>
  </metadata>
  <g
     id="layer1"
     inkscape:groupmode="layer"
     inkscape:label="Layer 1">
    <g
       style="clip-rule:evenodd;fill:#002451;fill-rule:evenodd;image-rendering:optimizeQuality;shape-rendering:geometricPrecision;text-rendering:geometricPrecision"
       id="g1811"
       transform="translate(-3219.5,-3287.5)">
      <g
         id="g1792">
        <path
           id="path1780"
           d="m 1158,2477 h 97 c 84,0 160,34 215,90 55,55 90,131 90,215 v 2997 80 h -80 -547 -80 v -80 -2997 c 0,-84 34,-160 90,-215 55,-55 131,-90 215,-90 z"
           class="fil0"
           inkscape:connector-curvature="0"
           style="fill:#002451;fill-rule:nonzero" />
        <path
           id="path1782"
           d="m 5572,3512 h 97 c 84,0 160,34 215,90 55,55 90,131 90,215 v 1962 80 h -80 -547 -80 v -80 -1962 c 0,-84 34,-160 90,-215 55,-55 131,-90 215,-90 z"
           class="fil0"
           inkscape:connector-curvature="0"
           style="fill:#002451;fill-rule:nonzero" />
        <polygon
           id="polygon1784"
           points="1480,4742 1480,3980 5347,3980 5347,4742 5347,4902 1480,4902 "
           class="fil0"
           style="fill:#002451;fill-rule:nonzero" />
        <polygon
           id="polygon1786"
           points="5347,5273 1480,5273 1480,5113 5347,5113 "
           class="fil0"
           style="fill:#002451;fill-rule:nonzero" />
        <path
           id="path1788"
           d="m 1898,3536 h 669 c 83,0 159,34 213,89 55,55 89,130 89,213 0,21 -2,42 -6,62 H 1603 c -4,-20 -6,-41 -6,-62 0,-83 34,-159 89,-213 55,-55 130,-89 213,-89 z"
           class="fil0"
           inkscape:connector-curvature="0"
           style="fill:#002451;fill-rule:nonzero" />
        <polygon
           id="polygon1790"
           points="3199,1946 2730,1946 2650,1946 2650,1866 2650,1598 2650,1518 2730,1518 3199,1518 3199,1048 3199,968 3279,968 3547,968 3627,968 3627,1048 3627,1518 4097,1518 4177,1518 4177,1598 4177,1866 4177,1946 4097,1946 3627,1946 3627,2416 3627,2496 3547,2496 3279,2496 3199,2496 3199,2416 "
           class="fil0"
           style="fill:#002451;fill-rule:nonzero" />
      </g>
      <rect
         id="rect1794"
         height="6827"
         width="6827"
         class="fil1"
         x="0"
         y="0"
         style="fill:none" />
    </g>
    <g
       style="fill:#002451"
       id="g1241"
       transform="matrix(1.0939174,0,0,1.2457652,292.6478,122.25236)">
      <g
         id="g1216"
         transform="translate(0,-952.36216)">
        <path
           id="path1188"
           style="fill:#002451;fill-opacity:1;fill-rule:nonzero;stroke:none"
           d="m 13.739314,957.36216 c -3.43197,0 -6.2450557,2.81311 -6.2450557,6.24502 0,3.24443 2.4942778,5.92623 5.6449277,6.22632 -0.50636,0.91898 -0.82515,1.96918 -0.82515,3.09443 0,3.43191 2.813085,6.24502 6.263804,6.24502 0.35633,0 0.693903,-0.0186 1.03145,-0.0753 -0.131272,0.48766 -0.187535,0.99402 -0.187535,1.51908 0,3.4319 2.813112,6.24502 6.245082,6.24502 1.031451,0 2.006657,-0.24375 2.869348,-0.69385 0.206292,3.24443 2.92561,5.83249 6.226254,5.83249 1.51908,0 2.906879,-0.54384 3.994619,-1.44403 0.731409,2.62554 3.169442,4.57594 6.02006,4.57594 2.175473,0 4.107143,-1.12525 5.213634,-2.81312 1.125245,1.74413 3.075669,2.92564 5.28865,2.92564 2.887879,0 5.32591,-1.98787 6.038564,-4.65098 1.087737,0.88141 2.456784,1.40655 3.957111,1.40655 3.300718,0 6.038813,-2.58806 6.245109,-5.85127 0.862687,0.4501 1.837899,0.71263 2.888127,0.71263 3.431997,0 6.245109,-2.81312 6.245109,-6.24502 0,-0.52506 -0.07502,-1.03142 -0.18754,-1.51908 0.337573,0.0558 0.675146,0.0753 1.031473,0.0753 3.431997,0 6.245109,-2.81311 6.245109,-6.24502 0,-1.12525 -0.300065,-2.17545 -0.825179,-3.09443 3.131931,-0.33757 5.588465,-3.00059 5.588465,-6.22632 0,-3.43191 -2.812861,-6.24502 -6.244858,-6.24502 -3.431996,0 -6.245108,2.81311 -6.245108,6.24502 0,1.12524 0.300064,2.19423 0.825179,3.11321 -3.131931,0.31879 -5.588716,2.98181 -5.588716,6.20754 0,0.52505 0.05626,1.03141 0.187541,1.51908 -0.337573,-0.0558 -0.693901,-0.0753 -1.031475,-0.0753 -3.319472,0 -6.038813,2.58797 -6.245108,5.85118 -0.862687,-0.4501 -1.856654,-0.71262 -2.888128,-0.71262 -2.888128,0 -5.326159,1.96917 -6.038814,4.65089 -1.087736,-0.9002 -2.456534,-1.42525 -3.956861,-1.42525 -2.175473,0 -4.088389,1.12524 -5.213634,2.81311 -1.10649,-1.74413 -3.056915,-2.92564 -5.28865,-2.92564 -1.519081,0 -2.90688,0.56263 -3.99462,1.46282 -0.731409,-2.64423 -3.150685,-4.57593 -6.020059,-4.57593 -1.031478,0 -2.006684,0.24383 -2.850546,0.69393 -0.225049,-3.24452 -2.944367,-5.83249 -6.245056,-5.83249 -0.35633,0 -0.693904,0.0186 -1.031477,0.0753 0.131281,-0.48767 0.187544,-0.99403 0.187544,-1.51908 0,-3.24443 -2.494269,-5.92623 -5.644928,-6.22633 0.525091,-0.90019 0.82515,-1.96918 0.82515,-3.09442 0,-3.43191 -2.813085,-6.24502 -6.263812,-6.24502 z m 0,2.00666 c 2.362996,0 4.257155,1.89413 4.257155,4.23836 0,1.57534 -0.843934,2.94442 -2.11919,3.67583 -0.112525,0.0558 -0.225049,0.11252 -0.337574,0.18748 -0.543865,0.24383 -1.143993,0.39384 -1.800391,0.39384 -2.344231,0 -4.238381,-1.89414 -4.238381,-4.25715 0,-2.34423 1.89415,-4.23836 4.238381,-4.23836 z m 72.521578,0 c 2.363014,0 4.257176,1.89413 4.257176,4.23836 0,2.36301 -1.894162,4.25715 -4.257176,4.25715 -0.543869,0 -1.068982,-0.11253 -1.556589,-0.30001 -0.243802,-0.15009 -0.50636,-0.28131 -0.768917,-0.39384 -1.162753,-0.75019 -1.93167,-2.06291 -1.93167,-3.5633 0,-2.34423 1.894162,-4.23836 4.257176,-4.23836 z m -67.683052,9.30196 c 2.362996,0 4.23838,1.89413 4.23838,4.25715 0,1.08768 -0.393818,2.0817 -1.068965,2.8318 -0.206292,0.16879 -0.412584,0.35636 -0.600127,0.56263 -0.712652,0.52514 -1.612848,0.86271 -2.569288,0.86271 -2.363006,0 -4.257147,-1.89413 -4.257147,-4.25714 0,-1.57534 0.843934,-2.94442 2.119181,-3.67583 0.112525,-0.0558 0.225049,-0.11244 0.337574,-0.1687 0.543874,-0.26262 1.144002,-0.41262 1.800392,-0.41262 z m 62.919515,0 c 0.543869,0 1.068983,0.11253 1.55659,0.3001 0.243802,0.15 0.50636,0.28122 0.768917,0.39374 1.162752,0.76898 1.93167,2.06301 1.93167,3.56331 0,2.36301 -1.894163,4.25714 -4.257177,4.25714 -0.975211,0 -1.856653,-0.31887 -2.569308,-0.86271 -0.187541,-0.20627 -0.393836,-0.39384 -0.618885,-0.58132 -0.656392,-0.75019 -1.068982,-1.72543 -1.068982,-2.81311 0,-2.36302 1.894161,-4.25715 4.257175,-4.25715 z m -55.830518,7.68906 c 2.362988,0 4.257129,1.89422 4.257129,4.25723 0,0.58132 -0.112524,1.12525 -0.318825,1.63161 -0.206266,0.28122 -0.375052,0.58122 -0.506334,0.9001 -0.787671,1.03142 -2.02544,1.72535 -3.43197,1.72535 -2.363014,0 -4.238398,-1.89413 -4.238398,-4.25706 0,-1.08777 0.393836,-2.0817 1.068982,-2.83189 0.206275,-0.16879 0.412567,-0.35636 0.60011,-0.56263 0.712652,-0.54384 1.612848,-0.86271 2.569306,-0.86271 z m 48.741476,0 c 0.956458,0 1.837901,0.31887 2.550555,0.86271 0.206295,0.20627 0.412591,0.39384 0.618885,0.56263 0.675147,0.75019 1.068983,1.74412 1.068983,2.83189 0,2.36293 -1.894162,4.25706 -4.238423,4.25706 -1.462818,0 -2.756849,-0.73141 -3.525766,-1.85666 -0.09377,-0.20626 -0.206295,-0.41261 -0.337574,-0.6001 -0.243803,-0.54383 -0.393835,-1.16272 -0.393835,-1.8003 0,-2.36301 1.894161,-4.25723 4.257175,-4.25723 z m -39.645874,5.13864 c 2.363014,0 4.257173,1.89405 4.257173,4.25706 0,0.39384 -0.05626,0.76898 -0.168787,1.14403 -0.01878,0.0937 -0.05626,0.18757 -0.07505,0.28131 -0.58137,1.65039 -2.156713,2.8319 -4.013367,2.8319 -2.362943,0 -4.257102,-1.89423 -4.257102,-4.25724 0,-0.58132 0.131273,-1.12524 0.337573,-1.6316 0.187535,-0.28132 0.356322,-0.58132 0.506361,-0.9002 0.768914,-1.03133 2.006612,-1.72526 3.413168,-1.72526 z m 30.512638,0 c 1.462818,0 2.738096,0.73141 3.507013,1.85657 0.09377,0.20626 0.225049,0.41262 0.337573,0.6001 0.262558,0.54393 0.41259,1.16281 0.41259,1.80039 0,2.36301 -1.894162,4.25724 -4.257176,4.25724 -1.875408,0 -3.450751,-1.20029 -4.013373,-2.86938 -0.01876,-0.0558 -0.03751,-0.11252 -0.05626,-0.15009 -0.112525,-0.39384 -0.187541,-0.80637 -0.187541,-1.23777 0,-2.36301 1.894162,-4.25706 4.257176,-4.25706 z m -20.497959,3.13182 c 2.363014,0 4.257176,1.89422 4.257176,4.25723 0,2.36302 -1.894162,4.23836 -4.257176,4.23836 -2.363015,0 -4.238426,-1.87534 -4.238426,-4.23836 0,-0.39383 0.05626,-0.76898 0.150039,-1.14403 0.03748,-0.0937 0.05626,-0.18757 0.09377,-0.28131 0.58138,-1.65039 2.137965,-2.83189 3.99462,-2.83189 z m 10.502284,0.11252 c 1.875408,0 3.450501,1.18151 4.031878,2.86937 0,0.0372 0.01876,0.0938 0.03751,0.1501 0.131279,0.39383 0.187541,0.80636 0.187541,1.21898 0,2.36302 -1.893912,4.25715 -4.256926,4.25715 -2.363014,0 -4.238422,-1.89413 -4.238422,-4.25715 0,-2.34423 1.875408,-4.23845 4.238422,-4.23845 z"
           inkscape:connector-curvature="0" />
        <path
           id="path1190"
           style="fill:#002451;fill-opacity:1;fill-rule:evenodd;stroke:none"
           d="m 38.850825,998.97717 h 8.964454 l -4.369699,9.73313 h -9.452056 z"
           inkscape:connector-curvature="0" />
        <path
           id="path1192"
           style="fill:#002451;fill-opacity:1;fill-rule:evenodd;stroke:none"
           d="m 52.27875,998.97717 h 8.87043 l 4.857306,9.73313 h -9.433052 z"
           inkscape:connector-curvature="0" />
        <path
           id="path1194"
           style="fill:#002451;fill-opacity:1;fill-rule:evenodd;stroke:none"
           d="m 50.047014,998.97717 4.257177,9.73313 h -8.589369 z"
           inkscape:connector-curvature="0" />
        <path
           id="path1196"
           style="fill:#002451;fill-opacity:1;fill-rule:evenodd;stroke:none"
           d="m 34.38736,1010.7733 h 8.926939 l 4.444718,17.8163 z"
           inkscape:connector-curvature="0" />
        <path
           id="path1198"
           style="fill:#002451;fill-opacity:1;fill-rule:evenodd;stroke:none"
           d="m 45.433511,1010.7733 h 9.133237 l -4.557242,18.2664 z"
           inkscape:connector-curvature="0" />
        <path
           id="path1200"
           style="fill:#002451;fill-opacity:1;fill-rule:evenodd;stroke:none"
           d="m 56.704713,1010.7733 h 8.907938 l -13.37141,17.8163 z"
           inkscape:connector-curvature="0" />
        <path
           id="path1202"
           style="fill:#002451;fill-opacity:1;fill-rule:nonzero;stroke:none"
           d="m 33.805981,1043.8552 3.994619,-6.9388 -1.519081,-0.8814 -3.994539,6.9387 z"
           inkscape:connector-curvature="0" />
        <path
           id="path1204"
           style="fill:#002451;fill-opacity:1;fill-rule:nonzero;stroke:none"
           d="m 50.722161,1047.3622 v -8.0077 h -1.762883 v 8.0077 z"
           inkscape:connector-curvature="0" />
        <path
           id="path1206"
           style="fill:#002451;fill-opacity:1;fill-rule:nonzero;stroke:none"
           d="m 83.654075,1013.3238 h -8.007992 v 1.7441 h 8.007992 z"
           inkscape:connector-curvature="0" />
        <path
           id="path1208"
           style="fill:#002451;fill-opacity:1;fill-rule:nonzero;stroke:none"
           d="m 24.335301,1013.5864 h -8.007942 v 1.7441 h 8.007942 z"
           inkscape:connector-curvature="0" />
        <path
           id="path1210"
           style="fill:#002451;fill-opacity:1;fill-rule:nonzero;stroke:none"
           d="m 67.694354,1042.9737 -3.994619,-6.9387 -1.519081,0.8814 3.994619,6.9388 z"
           inkscape:connector-curvature="0" />
        <path
           id="path1212"
           style="fill:#002451;fill-opacity:1;fill-rule:nonzero;stroke:none"
           d="m 27.26091,1026.2829 -6.920211,3.9946 0.862691,1.5191 6.938959,-3.9946 z"
           inkscape:connector-curvature="0" />
        <path
           id="path1214"
           style="fill:#002451;fill-opacity:1;fill-rule:nonzero;stroke:none"
           d="m 79.640702,1030.2775 -6.920256,-3.9946 -0.881441,1.5191 6.939009,3.9946 z"
           inkscape:connector-curvature="0" />
      </g>
    </g>
    <g
       style="fill:#002451"
       id="g1299"
       transform="matrix(-1.2140983,0,0,1.2457652,217.65394,2.2230375)">
      <path
         id="path1267"
         d="M 59.78,76.25 62.89,79.93 75.15,69.58 65,57.65 A 4.73,4.73 0 0 0 61.83,56 H 39.42 a 4.72,4.72 0 0 1 -0.58,-0.09 h -0.32 a 3.7632067,3.7632067 0 1 0 -0.63,7.5 l 16,1.35 v 0 a 0.78270365,0.78270365 0 1 1 -0.13,1.56 v 0 l -16,-1.34 A 5.33,5.33 0 0 1 36.45,54.65 L 36.2,54.38 30.65,47.81 a 4.73,4.73 0 1 0 -7.22,6.1 l 12.24,16 a 4.73,4.73 0 0 0 3.21,1.66 l 17.67,3.06 a 4.73,4.73 0 0 1 3.23,1.62 z"
         inkscape:connector-curvature="0" />
      <rect
         id="rect1269"
         transform="rotate(-40.19,73.061125,79.214579)"
         ry="2.5999999"
         rx="2.5999999"
         height="8.2299995"
         width="21.75"
         y="75.110001"
         x="62.18" />
      <polygon
         id="polygon1271"
         points="48.76,20 56.97,19.48 52.99,14.48 " />
      <polygon
         id="polygon1273"
         points="47.24,20 43.05,14.53 39.12,19.48 " />
      <polygon
         id="polygon1275"
         points="48.04,19.97 51.95,14.25 44.13,14.25 " />
      <path
         id="path1277"
         d="m 48.49,23.11 -0.11,3.45 a 11.79,11.79 0 0 1 1.92,0.21 L 53.13,24 57,20.18 48.6,20.6 Z"
         inkscape:connector-curvature="0" />
      <path
         id="path1279"
         d="m 54.43,24.5 -2.68,2.64 a 11.8,11.8 0 1 1 -7.42,0 L 41.66,24.5 a 15.25,15.25 0 1 0 12.77,0 z"
         inkscape:connector-curvature="0" />
      <path
         id="path1281"
         d="m 45.79,26.77 a 11.79,11.79 0 0 1 1.92,-0.21 L 47.6,23.11 47.52,20.6 39.12,20.18 43,24 Z"
         inkscape:connector-curvature="0" />
    </g>
    <g
       style="fill:#002451"
       id="g1327"
       transform="matrix(2.9259734,0,0,3.0340785,201.80497,22.66676)">
      <g
         id="g1311">
        <path
           id="path1303"
           d="m 18.3,12.3 1.1,-1.5 c 0.1,-0.1 0.1,-0.3 0.1,-0.5 l -1,-2 C 18.4,8.1 18.2,8 18,8 h -4 c -0.2,0 -0.4,0.1 -0.5,0.3 l -1,2 c -0.1,0.2 -0.1,0.4 0.1,0.5 l 1.1,1.5 c -3.3,1 -5.7,4 -5.7,7.7 0,4.4 3.6,8 8,8 4.4,0 8,-3.6 8,-8 0,-3.7 -2.4,-6.7 -5.7,-7.7 z M 16,15 c 2.8,0 5,2.2 5,5 0,2.8 -2.2,5 -5,5 -2.8,0 -5,-2.2 -5,-5 0,-2.8 2.2,-5 5,-5 z m -2,-4 h 4 l -2,2.7 z m 0.3,-2 h 3.4 l 0.5,1 H 13.8 Z M 16,27 c -3.9,0 -7,-3.1 -7,-7 0,-3.4 2.3,-6.1 5.4,-6.8 l 0.7,0.9 C 12.2,14.5 10,17 10,20 c 0,3.3 2.7,6 6,6 3.3,0 6,-2.7 6,-6 0,-3 -2.2,-5.5 -5.1,-5.9 l 0.7,-0.9 c 3.1,0.7 5.4,3.4 5.4,6.8 0,3.9 -3.1,7 -7,7 z"
           inkscape:connector-curvature="0" />
        <path
           id="path1305"
           d="m 16,6 c 0.3,0 0.5,-0.2 0.5,-0.5 v -1 C 16.5,4.2 16.3,4 16,4 15.7,4 15.5,4.2 15.5,4.5 v 1 C 15.5,5.8 15.8,6 16,6 Z"
           inkscape:connector-curvature="0" />
        <path
           id="path1307"
           d="m 18.5,7 c 0.1,0 0.3,0 0.4,-0.1 L 19.6,6.2 C 19.8,6 19.8,5.7 19.6,5.5 19.4,5.3 19.1,5.3 18.9,5.5 L 18.2,6.2 C 18,6.4 18,6.7 18.2,6.9 18.3,7 18.4,7 18.5,7 Z"
           inkscape:connector-curvature="0" />
        <path
           id="path1309"
           d="M 12.9,6.9 C 13,7 13.1,7 13.2,7 c 0.1,0 0.3,0 0.4,-0.1 0.2,-0.2 0.2,-0.5 0,-0.7 L 12.9,5.5 C 12.7,5.3 12.4,5.3 12.2,5.5 12,5.6 12,6 12.2,6.1 Z"
           inkscape:connector-curvature="0" />
      </g>
    </g>
    <g
       style="fill:#002451"
       id="g1343"
       transform="matrix(1.0939174,0,0,1.2457652,-1.2650539,124.67576)">
      <g
         id="g1331">
        <path
           id="path1329"
           d="M 67.666,94.994 H 32.333 c -5.392,0 -8.208,-4.267 -8.944,-6.523 C 22.9,87.225 10.692,55.94 7.625,45.952 5.705,39.7 7.328,35.894 9.028,33.803 c 1.878,-2.31 4.264,-3.061 4.365,-3.092 l 9.899,-3.125 0.45,1.434 c 1.244,3.96 2.791,7.675 4.597,11.04 3.457,6.439 7.728,11.294 12.35,14.04 l 1.659,0.985 -8.433,8.437 c -0.08,0.08 -0.097,0.173 -0.097,0.236 0,0.064 0.017,0.158 0.096,0.238 l 16.09,16.093 c 0.163,0.162 0.319,0.162 0.479,0.001 L 66.577,63.997 c 0.08,-0.08 0.097,-0.173 0.097,-0.236 0,-0.064 -0.017,-0.158 -0.096,-0.237 l -8.588,-8.59 1.617,-0.995 c 4.501,-2.771 8.667,-7.569 12.049,-13.876 1.805,-3.36 3.351,-7.075 4.598,-11.041 l 0.45,-1.433 9.912,3.128 c 0.089,0.027 2.476,0.779 4.353,3.088 1.7,2.092 3.324,5.897 1.403,12.149 -3.065,9.989 -15.273,41.273 -15.791,42.6 -0.706,2.174 -3.522,6.44 -8.915,6.44 z M 21.345,31.346 14.284,33.575 c -0.684,0.221 -6.583,2.411 -3.791,11.496 3.034,9.882 15.592,42.066 15.719,42.389 0.088,0.256 1.584,4.534 6.121,4.534 h 35.333 c 4.537,0 6.034,-4.278 6.096,-4.461 C 73.915,87.137 86.473,54.953 89.507,45.071 92.298,35.986 86.4,33.796 85.718,33.576 l -7.065,-2.23 c -1.216,3.612 -2.677,7.015 -4.351,10.132 -3.295,6.146 -7.175,10.836 -11.552,13.97 l 5.95,5.951 c 0.629,0.628 0.976,1.467 0.976,2.36 0,0.893 -0.348,1.73 -0.977,2.358 l -16.092,16.09 c -1.255,1.26 -3.461,1.259 -4.722,0.001 L 31.795,66.114 c -0.629,-0.629 -0.976,-1.467 -0.975,-2.36 0,-0.893 0.347,-1.729 0.976,-2.357 l 5.753,-5.756 c -4.5,-3.129 -8.481,-7.884 -11.853,-14.165 -1.675,-3.12 -3.136,-6.522 -4.351,-10.13 z m 28.9,44.713 c -0.696,0 -1.352,-0.271 -1.844,-0.763 l -9.702,-9.705 c -0.492,-0.493 -0.762,-1.148 -0.762,-1.846 0.001,-0.697 0.272,-1.351 0.764,-1.841 l 6.827,-6.83 C 43.09,54.208 40.58,52.695 38.143,50.611 34.955,47.885 32.059,44.117 29.537,39.414 27.696,35.984 26.133,32.195 24.891,28.152 l -0.394,-1.284 1.233,-0.533 c 1.342,-0.58 2.585,-1.174 3.695,-1.767 l 1.622,-0.865 0.522,1.762 c 1.126,3.796 2.569,7.348 4.29,10.557 2.069,3.857 4.472,7.016 6.949,9.134 2.484,2.124 5.109,3.293 7.391,3.293 2.143,0 4.364,-1.046 6.991,-3.293 2.478,-2.12 4.881,-5.278 6.95,-9.135 1.708,-3.183 3.145,-6.713 4.271,-10.493 l 0.522,-1.754 1.617,0.857 c 1.11,0.589 2.355,1.179 3.699,1.756 l 1.24,0.531 -0.397,1.289 c -1.242,4.031 -2.801,7.802 -4.631,11.208 -2.523,4.705 -5.419,8.472 -8.604,11.195 -2.407,2.059 -4.6,3.47 -6.735,4.32 l 6.815,6.816 c 0.492,0.491 0.764,1.147 0.764,1.847 -10e-4,0.698 -0.273,1.354 -0.768,1.844 l -0.102,0.111 -9.743,9.746 c -0.49,0.493 -1.146,0.765 -1.843,0.765 z m -9.146,-12.311 9.146,9.148 9.299,-9.301 -9.147,-9.148 z M 28.162,28.536 c 1.113,3.383 2.462,6.56 4.02,9.46 2.346,4.375 5.008,7.852 7.912,10.335 2.92,2.498 5.887,4.045 8.58,4.473 l 1.669,0.266 1.655,-0.325 c 2.435,-0.479 4.949,-1.881 7.911,-4.415 2.901,-2.48 5.563,-5.957 7.91,-10.333 1.547,-2.877 2.891,-6.035 4.002,-9.403 -0.364,-0.166 -0.721,-0.333 -1.068,-0.5 -1.094,3.334 -2.425,6.472 -3.969,9.348 -2.243,4.18 -4.886,7.637 -7.644,9.995 -3.2,2.738 -6.041,4.014 -8.94,4.014 -3.04,0 -6.27,-1.388 -9.341,-4.013 -2.757,-2.358 -5.4,-5.814 -7.643,-9.996 -1.555,-2.898 -2.893,-6.056 -3.988,-9.407 -0.347,0.167 -0.703,0.335 -1.066,0.501 z M 50,46.916 c -4.229,0 -9.069,-4.312 -12.945,-11.535 C 35.24,31.998 33.68,28.019 32.544,23.873 l -0.21,-0.768 0.651,-0.787 0.16,-0.106 c 2.006,-1.446 2.07,-3.643 2.071,-3.735 v -7.478 c 0,-4.32 3.569,-5.951 5.968,-5.994 h 17.767 c 2.505,0 6.23,1.596 6.23,5.994 v 7.491 c 0,0.014 0.051,2.344 1.742,3.778 l 0.263,0.278 0.449,0.59 -0.18,0.737 c -1.138,4.15 -2.697,8.13 -4.512,11.508 C 59.069,42.604 54.23,46.916 50,46.916 Z M 35.695,23.995 c 1.05,3.6 2.425,7.029 4.003,9.968 3.245,6.047 7.289,9.954 10.302,9.954 3.014,0 7.057,-3.907 10.302,-9.953 1.587,-2.957 2.972,-6.414 4.024,-10.044 -2.118,-2.322 -2.145,-5.292 -2.145,-5.429 V 11 c 0,-2.808 -2.699,-2.986 -3.24,-2.994 H 41.21 C 40.536,8.029 38.215,8.314 38.215,11 v 7.491 c 10e-4,0.139 -0.03,3.188 -2.52,5.504 z"
           inkscape:connector-curvature="0" />
      </g>
    </g>
    <g
       style="fill:#002451"
       id="g1368"
       transform="matrix(1.0939174,0,0,1.2457652,289.40708,-1.3775745)">
      <g
         id="g1353">
        <path
           id="path1345"
           d="m 32.591,47.442 c -0.376,-0.521 -1.246,-0.521 -1.622,0 0,0 -2.286,3.161 -2.34,3.245 -0.006,0.01 -0.012,0.02 -0.019,0.029 -0.392,0.609 -0.599,1.312 -0.599,2.033 0,2.078 1.69,3.769 3.769,3.769 2.078,0 3.768,-1.69 3.768,-3.769 0,-0.732 -0.212,-1.443 -0.605,-2.045 -0.063,-0.098 -2.352,-3.262 -2.352,-3.262 z m -0.811,7.076 c -0.975,0 -1.769,-0.793 -1.769,-1.769 0,-0.342 0.1,-0.675 0.289,-0.965 0.027,-0.042 1.479,-2.048 1.479,-2.048 0,0 1.451,2.003 1.48,2.049 0.188,0.288 0.287,0.621 0.287,0.964 0.002,0.976 -0.791,1.769 -1.766,1.769 z"
           inkscape:connector-curvature="0" />
        <path
           id="path1347"
           d="m 42.093,50.772 c -0.898,0 -1.714,0.319 -2.372,0.834 -0.223,-0.632 -0.503,-1.244 -0.875,-1.813 -0.137,-0.21 -5.446,-7.549 -5.446,-7.549 0.899,-0.549 1.506,-1.531 1.506,-2.659 V 34.46 c 0,-1.372 -0.894,-2.526 -2.125,-2.946 v -8.025 c 0,-0.552 -0.448,-1 -1,-1 -0.043,0 -0.08,0.019 -0.122,0.025 -0.042,-0.006 -0.079,-0.025 -0.122,-0.025 -1.838,0 -3.334,-1.496 -3.334,-3.334 0,-1.838 1.496,-3.334 3.334,-3.334 0.552,0 1,-0.448 1,-1 0,-0.552 -0.448,-1 -1,-1 -2.941,0 -5.334,2.393 -5.334,5.334 0,2.683 1.997,4.887 4.578,5.257 v 7.102 c -1.231,0.419 -2.125,1.574 -2.125,2.946 v 5.125 c 0,1.128 0.607,2.11 1.506,2.659 0,0 -5.313,7.346 -5.446,7.549 -0.372,0.568 -0.652,1.181 -0.875,1.813 -0.658,-0.514 -1.475,-0.833 -2.372,-0.833 -2.137,0 -3.875,1.738 -3.875,3.875 0,2.137 1.738,3.875 3.875,3.875 0.958,0 1.826,-0.363 2.503,-0.941 0.19,0.466 0.424,0.909 0.692,1.329 -0.396,-0.137 -0.813,-0.227 -1.255,-0.227 -2.137,0 -3.875,1.738 -3.875,3.875 0,1.665 1.061,3.075 2.538,3.623 v 5.067 c 0,0 -1.929,2.668 -1.982,2.749 -0.006,0.009 -0.012,0.019 -0.018,0.028 -0.392,0.608 -0.599,1.311 -0.599,2.034 0,2.077 1.69,3.768 3.769,3.768 2.078,0 3.768,-1.69 3.768,-3.768 0,-0.733 -0.212,-1.445 -0.602,-2.04 -0.063,-0.101 -2.334,-3.24 -2.334,-3.24 v -4.414 c 1.82,-0.316 3.212,-1.897 3.212,-3.808 0,-0.404 -0.08,-0.786 -0.195,-1.153 0.504,0.339 1.049,0.618 1.622,0.843 -0.598,0.683 -0.974,1.565 -0.974,2.542 0,1.789 1.225,3.283 2.875,3.728 v 8.394 c 0,0 -1.929,2.668 -1.982,2.749 -0.006,0.009 -0.012,0.019 -0.018,0.028 -0.392,0.608 -0.599,1.311 -0.599,2.034 0,2.077 1.69,3.768 3.769,3.768 2.078,0 3.768,-1.69 3.768,-3.768 0,-0.733 -0.212,-1.445 -0.602,-2.04 -0.063,-0.101 -2.334,-3.24 -2.334,-3.24 v -7.925 c 1.65,-0.444 2.874,-1.938 2.874,-3.728 0,-0.933 -0.344,-1.777 -0.895,-2.446 0.468,-0.166 0.918,-0.369 1.345,-0.611 -0.048,0.243 -0.076,0.494 -0.076,0.751 0,1.727 1.143,3.176 2.707,3.675 v 5.091 c 0,0 -1.929,2.668 -1.982,2.749 -0.006,0.009 -0.012,0.019 -0.018,0.028 -0.392,0.608 -0.599,1.311 -0.599,2.034 0,2.077 1.69,3.768 3.769,3.768 2.078,0 3.768,-1.69 3.768,-3.768 0,-0.733 -0.212,-1.445 -0.602,-2.04 -0.063,-0.101 -2.334,-3.24 -2.334,-3.24 v -4.517 c 1.737,-0.383 3.043,-1.93 3.043,-3.78 0,-2.137 -1.738,-3.875 -3.875,-3.875 -0.238,0 -0.47,0.029 -0.696,0.07 0.208,-0.352 0.396,-0.716 0.551,-1.098 0.677,0.578 1.545,0.941 2.503,0.941 2.137,0 3.875,-1.738 3.875,-3.875 0,-2.137 -1.745,-3.875 -3.881,-3.875 z m -20.625,5.75 c -1.034,0 -1.875,-0.841 -1.875,-1.875 0,-1.034 0.841,-1.875 1.875,-1.875 1.034,0 1.875,0.841 1.875,1.875 0,1.034 -0.842,1.875 -1.875,1.875 z M 30.655,34.46 c 0,-0.62 0.505,-1.125 1.125,-1.125 0.62,0 1.125,0.505 1.125,1.125 v 5.125 c 0,0.62 -0.505,1.125 -1.125,1.125 -0.62,0 -1.125,-0.505 -1.125,-1.125 z m -5.934,40.638 c 0.188,0.287 0.287,0.62 0.287,0.963 0,0.975 -0.793,1.768 -1.768,1.768 -0.975,0 -1.769,-0.793 -1.769,-1.768 0,-0.342 0.1,-0.675 0.289,-0.965 0.029,-0.044 1.479,-2.05 1.479,-2.05 0,0 1.45,2.001 1.482,2.052 z M 23.408,64.434 c -1.034,0 -1.875,-0.841 -1.875,-1.875 0,-1.034 0.841,-1.875 1.875,-1.875 1.034,0 1.875,0.841 1.875,1.875 0,1.034 -0.841,1.875 -1.875,1.875 z m 9.853,16.326 c 0.188,0.287 0.287,0.62 0.287,0.963 0,0.975 -0.793,1.768 -1.768,1.768 -0.975,0 -1.769,-0.793 -1.769,-1.768 0,-0.342 0.1,-0.675 0.289,-0.965 0.029,-0.044 1.479,-2.05 1.479,-2.05 0,0 1.45,2.001 1.482,2.052 z m -1.65,-14.095 c -1.034,0 -1.875,-0.841 -1.875,-1.875 0,-1.034 0.841,-1.875 1.875,-1.875 1.033,0 1.874,0.841 1.874,1.875 0,1.034 -0.84,1.875 -1.874,1.875 z m 0.169,-5.83 c -3.55,0 -6.438,-2.888 -6.438,-6.438 0,-1.249 0.361,-2.463 1.05,-3.517 0.098,-0.148 0.203,-0.291 0.331,-0.456 l 5.057,-7.006 5.057,7.004 c 0.118,0.149 0.23,0.304 0.334,0.463 0.685,1.049 1.046,2.263 1.046,3.511 0.001,3.551 -2.887,6.439 -6.437,6.439 z m 9.436,14.263 c 0.188,0.287 0.287,0.62 0.287,0.963 0,0.975 -0.793,1.768 -1.768,1.768 -0.975,0 -1.769,-0.793 -1.769,-1.768 0,-0.342 0.1,-0.675 0.289,-0.965 0.029,-0.044 1.479,-2.05 1.479,-2.05 0,0 1.45,2.001 1.482,2.052 z m -1.482,-14.49 c 1.034,0 1.875,0.841 1.875,1.875 0,1.034 -0.841,1.875 -1.875,1.875 -1.034,0 -1.875,-0.841 -1.875,-1.875 0,-1.034 0.842,-1.875 1.875,-1.875 z m 2.359,-4.086 c -1.034,0 -1.875,-0.841 -1.875,-1.875 0,-1.034 0.841,-1.875 1.875,-1.875 1.034,0 1.875,0.841 1.875,1.875 0,1.034 -0.842,1.875 -1.875,1.875 z"
           inkscape:connector-curvature="0" />
        <path
           id="path1349"
           d="m 71.932,50.687 c -0.055,-0.083 -2.34,-3.245 -2.34,-3.245 -0.376,-0.521 -1.246,-0.521 -1.622,0 0,0 -2.288,3.164 -2.351,3.262 -0.395,0.602 -0.605,1.313 -0.605,2.045 0,2.078 1.689,3.769 3.768,3.769 2.079,0 3.768,-1.69 3.768,-3.769 0,-0.722 -0.207,-1.424 -0.598,-2.033 -0.008,-0.01 -0.014,-0.02 -0.02,-0.029 z m -3.151,3.831 c -0.975,0 -1.768,-0.793 -1.768,-1.769 0,-0.343 0.099,-0.676 0.287,-0.964 0.029,-0.046 1.48,-2.049 1.48,-2.049 0,0 1.451,2.006 1.479,2.048 0.189,0.29 0.289,0.623 0.289,0.965 0.001,0.976 -0.792,1.769 -1.767,1.769 z"
           inkscape:connector-curvature="0" />
        <path
           id="path1351"
           d="m 79.094,58.522 c 2.137,0 3.875,-1.738 3.875,-3.875 0,-2.137 -1.738,-3.875 -3.875,-3.875 -0.898,0 -1.715,0.319 -2.373,0.833 -0.223,-0.631 -0.503,-1.244 -0.875,-1.813 -0.133,-0.203 -5.445,-7.549 -5.445,-7.549 0.898,-0.549 1.506,-1.531 1.506,-2.659 V 34.46 c 0,-1.372 -0.895,-2.526 -2.125,-2.946 v -7.102 c 2.581,-0.371 4.578,-2.575 4.578,-5.257 0,-2.941 -2.393,-5.334 -5.334,-5.334 -0.553,0 -1,0.448 -1,1 0,0.552 0.447,1 1,1 1.838,0 3.334,1.496 3.334,3.334 0,1.838 -1.496,3.334 -3.334,3.334 -0.044,0 -0.08,0.019 -0.123,0.025 -0.041,-0.006 -0.078,-0.025 -0.121,-0.025 -0.553,0 -1,0.448 -1,1 v 8.025 c -1.232,0.419 -2.125,1.574 -2.125,2.946 v 5.125 c 0,1.128 0.606,2.11 1.506,2.659 0,0 -5.311,7.339 -5.447,7.549 -0.371,0.569 -0.651,1.181 -0.875,1.813 -0.657,-0.515 -1.474,-0.834 -2.371,-0.834 -2.137,0 -3.875,1.738 -3.875,3.875 0,2.137 1.738,3.875 3.875,3.875 0.958,0 1.826,-0.363 2.503,-0.941 0.155,0.382 0.343,0.746 0.552,1.098 -0.227,-0.041 -0.459,-0.07 -0.697,-0.07 -2.137,0 -3.875,1.738 -3.875,3.875 0,1.851 1.307,3.397 3.044,3.78 v 4.517 c 0,0 -2.271,3.14 -2.335,3.24 -0.389,0.595 -0.602,1.307 -0.602,2.04 0,2.077 1.689,3.768 3.768,3.768 2.079,0 3.769,-1.69 3.769,-3.768 0,-0.724 -0.207,-1.426 -0.599,-2.034 -0.006,-0.01 -0.013,-0.02 -0.019,-0.028 -0.054,-0.081 -1.982,-2.749 -1.982,-2.749 v -5.091 c 1.563,-0.499 2.706,-1.948 2.706,-3.675 0,-0.257 -0.027,-0.508 -0.076,-0.751 0.427,0.242 0.877,0.445 1.346,0.611 -0.551,0.669 -0.895,1.514 -0.895,2.446 0,1.789 1.224,3.283 2.873,3.728 v 7.925 c 0,0 -2.271,3.14 -2.334,3.24 -0.39,0.595 -0.602,1.307 -0.602,2.04 0,2.077 1.689,3.768 3.768,3.768 2.079,0 3.768,-1.69 3.768,-3.768 0,-0.724 -0.207,-1.426 -0.599,-2.034 -0.006,-0.01 -0.013,-0.02 -0.019,-0.028 -0.053,-0.081 -1.982,-2.749 -1.982,-2.749 v -8.394 c 1.65,-0.444 2.875,-1.938 2.875,-3.728 0,-0.977 -0.375,-1.859 -0.973,-2.542 0.572,-0.225 1.117,-0.504 1.621,-0.843 -0.115,0.367 -0.195,0.749 -0.195,1.153 0,1.91 1.393,3.491 3.213,3.808 v 4.414 c 0,0 -2.271,3.14 -2.335,3.24 -0.39,0.595 -0.603,1.307 -0.603,2.04 0,2.077 1.69,3.768 3.768,3.768 2.078,0 3.77,-1.69 3.77,-3.768 0,-0.724 -0.207,-1.426 -0.6,-2.034 -0.006,-0.01 -0.012,-0.02 -0.018,-0.028 -0.054,-0.081 -1.982,-2.749 -1.982,-2.749 v -5.067 c 1.477,-0.548 2.537,-1.958 2.537,-3.623 0,-2.137 -1.738,-3.875 -3.875,-3.875 -0.441,0 -0.859,0.09 -1.254,0.227 0.268,-0.42 0.501,-0.863 0.691,-1.329 0.677,0.577 1.544,0.94 2.503,0.94 z m 0,-5.75 c 1.033,0 1.875,0.841 1.875,1.875 0,1.034 -0.842,1.875 -1.875,1.875 -1.034,0 -1.875,-0.841 -1.875,-1.875 0,-1.034 0.841,-1.875 1.875,-1.875 z m -20.625,3.75 c -1.034,0 -1.875,-0.841 -1.875,-1.875 0,-1.034 0.841,-1.875 1.875,-1.875 1.033,0 1.875,0.841 1.875,1.875 0,1.034 -0.842,1.875 -1.875,1.875 z M 67.656,34.46 c 0,-0.62 0.504,-1.125 1.125,-1.125 0.619,0 1.125,0.505 1.125,1.125 v 5.125 c 0,0.62 -0.506,1.125 -1.125,1.125 -0.621,0 -1.125,-0.505 -1.125,-1.125 z m -5.35,40.636 c 0.189,0.29 0.289,0.623 0.289,0.965 0,0.975 -0.794,1.768 -1.769,1.768 -0.975,0 -1.768,-0.793 -1.768,-1.768 0,-0.343 0.1,-0.676 0.287,-0.963 0.031,-0.051 1.48,-2.052 1.48,-2.052 0,0 1.452,2.006 1.481,2.05 z m -1.48,-10.738 c -1.033,0 -1.875,-0.841 -1.875,-1.875 0,-1.034 0.842,-1.875 1.875,-1.875 1.034,0 1.875,0.841 1.875,1.875 0,1.034 -0.841,1.875 -1.875,1.875 z m 9.434,16.4 c 0.189,0.29 0.289,0.623 0.289,0.965 0,0.975 -0.793,1.768 -1.768,1.768 -0.975,0 -1.768,-0.793 -1.768,-1.768 0,-0.343 0.099,-0.676 0.286,-0.963 0.032,-0.051 1.481,-2.052 1.481,-2.052 0,0 1.451,2.006 1.48,2.05 z M 68.949,66.665 c -1.033,0 -1.873,-0.841 -1.873,-1.875 0,-1.034 0.84,-1.875 1.873,-1.875 1.034,0 1.875,0.841 1.875,1.875 0,1.034 -0.841,1.875 -1.875,1.875 z m -0.168,-5.83 c -3.551,0 -6.438,-2.888 -6.438,-6.438 0,-1.248 0.361,-2.462 1.046,-3.511 0.104,-0.16 0.217,-0.314 0.335,-0.463 l 5.057,-7.004 5.057,7.006 c 0.127,0.166 0.232,0.308 0.33,0.456 0.689,1.054 1.051,2.268 1.051,3.517 0,3.549 -2.889,6.437 -6.438,6.437 z m 10.02,14.261 c 0.189,0.29 0.289,0.623 0.289,0.965 0,0.975 -0.794,1.768 -1.77,1.768 -0.975,0 -1.768,-0.793 -1.768,-1.768 0,-0.343 0.1,-0.676 0.287,-0.963 0.032,-0.051 1.48,-2.052 1.48,-2.052 0,0 1.452,2.006 1.482,2.05 z M 77.152,60.684 c 1.034,0 1.875,0.841 1.875,1.875 0,1.034 -0.841,1.875 -1.875,1.875 -1.033,0 -1.875,-0.841 -1.875,-1.875 0,-1.034 0.842,-1.875 1.875,-1.875 z"
           inkscape:connector-curvature="0" />
      </g>
    </g>
    <g
       style="fill:#002451"
       id="g1405"
       transform="matrix(1.0939174,0,0,1.2457652,194.12163,127.7497)">
      <g
         id="g1386">
        <path
           id="path1370"
           d="m 21.414,35.212 c 0.167,0.369 0.531,0.587 0.911,0.587 0.138,0 0.279,-0.029 0.413,-0.09 0.503,-0.228 0.726,-0.821 0.498,-1.324 l -2.57,-5.667 c -0.228,-0.503 -0.821,-0.725 -1.324,-0.498 -0.503,0.228 -0.726,0.821 -0.498,1.324 z"
           inkscape:connector-curvature="0" />
        <path
           id="path1372"
           d="m 31.865,26.442 c 0.126,0.438 0.526,0.724 0.96,0.724 0.092,0 0.185,-0.013 0.277,-0.04 0.531,-0.153 0.837,-0.707 0.684,-1.238 l -2.59,-8.994 c -0.152,-0.531 -0.705,-0.836 -1.238,-0.684 -0.531,0.153 -0.837,0.707 -0.684,1.238 z"
           inkscape:connector-curvature="0" />
        <path
           id="path1374"
           d="m 71.737,35.709 c 0.134,0.061 0.274,0.09 0.412,0.09 0.381,0 0.744,-0.218 0.912,-0.587 l 2.57,-5.667 c 0.228,-0.503 0.005,-1.096 -0.498,-1.324 -0.505,-0.229 -1.096,-0.005 -1.324,0.498 l -2.57,5.667 c -0.227,0.503 -0.005,1.095 0.498,1.323 z"
           inkscape:connector-curvature="0" />
        <path
           id="path1376"
           d="m 61.372,27.126 c 0.092,0.027 0.186,0.04 0.276,0.04 0.435,0 0.835,-0.286 0.961,-0.724 l 2.59,-8.994 c 0.153,-0.531 -0.153,-1.085 -0.685,-1.238 -0.531,-0.154 -1.085,0.155 -1.237,0.684 l -2.59,8.994 c -0.153,0.531 0.154,1.086 0.685,1.238 z"
           inkscape:connector-curvature="0" />
        <path
           id="path1378"
           d="m 46.123,21.981 c 0.552,0 1,-0.448 1,-1 v -10.46 c 0,-0.552 -0.448,-1 -1,-1 -0.552,0 -1,0.448 -1,1 v 10.461 c 0,0.552 0.448,0.999 1,0.999 z"
           inkscape:connector-curvature="0" />
        <path
           id="path1380"
           d="m 92.255,66.201 c -0.002,-0.058 -0.026,-0.11 -0.038,-0.167 -0.014,-0.067 -0.016,-0.136 -0.045,-0.202 L 86.247,52.33 C 86.139,52.084 85.936,51.892 85.686,51.797 L 57.044,40.917 c -0.239,-0.09 -0.499,-0.087 -0.735,0.01 l -10.165,4.169 c -3.953,-3.653 -9.229,-5.895 -15.023,-5.895 -0.137,0 -0.271,0.008 -0.407,0.01 -0.019,0 -0.037,0.001 -0.056,0.001 -2.861,0.059 -5.592,0.658 -8.091,1.707 -0.011,0.004 -0.022,0.002 -0.033,0.006 -0.01,0.004 -0.015,0.012 -0.025,0.017 -2.497,1.057 -4.756,2.563 -6.688,4.409 -0.036,0.031 -0.069,0.061 -0.101,0.096 -1.959,1.896 -3.57,4.149 -4.728,6.653 -0.008,0.014 -0.021,0.022 -0.028,0.036 -0.01,0.02 -0.008,0.041 -0.016,0.061 -1.277,2.797 -1.994,5.9 -1.994,9.17 0,0.007 0,0.013 0,0.02 0,0 0,10e-4 0,0.002 0.002,2.725 0.502,5.335 1.408,7.747 0.004,0.014 0.002,0.027 0.007,0.041 0.007,0.02 0.021,0.034 0.03,0.053 1.054,2.769 2.648,5.271 4.652,7.384 0.033,0.04 0.066,0.076 0.105,0.11 3.391,3.524 7.931,5.931 13.013,6.609 H 11.305 c -0.552,0 -1,0.447 -1,1 0,0.553 0.448,1 1,1 h 73.528 c 0.553,0 1,-0.447 1,-1 0,-0.553 -0.447,-1 -1,-1 H 59.186 L 91.703,67.129 c 0.017,-0.009 0.027,-0.024 0.044,-0.033 0.076,-0.043 0.144,-0.097 0.206,-0.159 0.021,-0.021 0.047,-0.038 0.065,-0.061 0.071,-0.084 0.132,-0.179 0.173,-0.287 10e-4,-0.002 0,-0.005 10e-4,-0.007 0.044,-0.121 0.067,-0.25 0.063,-0.381 z M 18.374,76.979 h 4.773 L 22.26,79.457 C 20.87,78.772 19.562,77.95 18.374,76.979 Z m -5.988,-23.029 2.004,0.986 -3.208,3.569 c 0.227,-1.584 0.631,-3.109 1.204,-4.555 z m 10.002,-10.732 0.767,1.885 h -3.907 c 0.983,-0.72 2.032,-1.35 3.14,-1.885 z m 20.333,1.706 -3.952,-0.229 0.655,-1.67 c 1.162,0.53 2.264,1.166 3.297,1.899 z m 8.582,7.203 7.107,2.699 -1.64,20.854 z m 14.969,3.547 -4.956,-1.883 7.32,-4.341 z m 4.234,-5.514 2.592,8.106 -4.956,-1.882 z m -4.943,7.383 -6.759,17.793 1.555,-19.77 z m 1.869,0.71 5.625,2.137 -12.932,17.098 z m 7.573,2.877 7.109,2.701 -19.728,13.984 z m 1.069,-1.734 5.399,-5.765 1.554,8.406 z m -1.082,-1.769 -2.821,-8.825 8.177,3.106 z m -14.35,-5.762 -0.2,-7.518 7.851,2.982 z m -1.978,0.918 -6.951,-2.641 6.742,-5.255 z m -9.613,-1.512 0.162,0.698 -3.414,1.375 -1.571,-3.906 z m -18.342,29.382 -4.193,-4.565 4.223,-1.716 4.377,1.813 z m 10.811,-32.588 1.8,4.476 -2.872,-1.155 -1.979,-4.705 3.429,0.199 c -0.381,0.258 -0.557,0.741 -0.378,1.185 z m 2.727,7.004 -1.118,2.689 -1.589,-3.778 z m -7.648,-7.677 1.238,2.942 -4.305,-1.732 z m -5.766,0.125 -4.822,-1.94 4.661,-4.037 4.685,4.192 z m -5.651,-0.119 2.946,1.186 -4.13,1.629 z m 5.645,2.271 8.102,3.26 3.122,7.424 -3.634,8.74 -7.67,3.116 -7.854,-3.254 -3.369,-8.105 3.39,-8.059 z m 12.313,13.273 1.521,3.615 -3.637,1.478 z M 36.185,74.463 33.378,73.3 37.336,71.693 Z m -11.001,0.007 -1.205,-2.898 4.128,1.711 z M 20.276,67.872 17.12,66.564 18.434,63.44 Z m -1.831,-9.616 -1.322,-3.18 3.188,-1.258 z m -1.09,2.59 -1.963,4.669 -4.068,-4.175 4.264,-4.745 z m -0.546,7.755 4.555,1.887 1.867,4.491 H 16.81 v -6.378 z m 23.133,2.033 4.96,-2.015 -0.297,6.337 -6.396,-0.151 z m 9.451,-2.997 -1.893,-0.909 1.079,-1.112 z m -3.153,-2.483 -2.021,-4.806 1.14,-2.741 2.404,5.978 z M 36.77,44.312 33.461,41.351 c 1.419,0.166 2.79,0.486 4.104,0.934 z M 24.842,43.943 24.23,42.439 c 1.096,-0.4 2.232,-0.71 3.407,-0.917 z m -7.38,3.16 h 5.674 l -1.74,4.136 -3.934,1.553 z m -6.311,16.926 2.685,2.756 -1.916,0.73 c -0.359,-1.121 -0.609,-2.289 -0.769,-3.486 z m 3.658,4.526 v 4.622 c -0.854,-1.178 -1.594,-2.441 -2.181,-3.79 z m 10.279,8.934 3.562,3.879 C 27.068,81.173 25.548,80.789 24.1,80.249 Z m 11.369,0.185 1.192,2.764 c -1.569,0.541 -3.221,0.899 -4.938,1.034 z m 3.046,2.014 -1.243,-2.883 5.636,0.134 c -1.331,1.098 -2.809,2.019 -4.393,2.749 z m 7.4,-11.029 2.478,1.192 c -0.727,1.562 -1.653,3.01 -2.736,4.324 z M 46.545,55.2 l 3.126,-1.259 4.956,21.352 z m 37.82,9.486 4.399,1.671 -22.754,11.34 z m 5.017,-0.234 -4.167,-1.583 -1.811,-9.8 1.18,0.448 z m -32.679,-21.525 0.682,0.259 -7.859,6.126 -4.357,-1.655 z m -41.241,5.759 v 4.549 L 13.216,52.13 c 0.635,-1.226 1.384,-2.381 2.246,-3.444 z m 35.407,22.623 4.837,12.024 H 34.017 c 7.39,-0.975 13.619,-5.613 16.852,-12.024 z"
           inkscape:connector-curvature="0" />
        <path
           id="path1382"
           d="m 28.75,88.5 h -7.711 c -0.552,0 -1,0.447 -1,1 0,0.553 0.448,1 1,1 h 7.711 c 0.552,0 1,-0.447 1,-1 0,-0.553 -0.448,-1 -1,-1 z"
           inkscape:connector-curvature="0" />
        <path
           id="path1384"
           d="M 77,88.5 H 32.826 c -0.552,0 -1,0.447 -1,1 0,0.553 0.448,1 1,1 H 77 c 0.553,0 1,-0.447 1,-1 0,-0.553 -0.447,-1 -1,-1 z"
           inkscape:connector-curvature="0" />
      </g>
    </g>
    <g
       style="fill:#002451"
       id="g1436"
       transform="matrix(1.0939174,0,0,1.2457652,97.500574,129.11238)">
      <g
         id="g1419">
        <path
           id="path1407"
           d="M 86.159,76.126 C 86.154,76.022 86.134,75.92 86.096,75.82 86.089,75.8 86.085,75.78 86.076,75.76 86.072,75.75 86.071,75.74 86.066,75.731 l -7.5,-15.501 c -0.167,-0.345 -0.517,-0.564 -0.9,-0.564 H 74.818 L 73.866,57.5 h 2.466 c 0.103,0 0.208,-0.016 0.311,-0.05 0.005,-0.002 0.008,-0.006 0.013,-0.007 0.118,-0.041 0.227,-0.102 0.321,-0.182 0.026,-0.022 0.184,-0.204 0.227,-0.282 0.022,-0.041 0.1,-0.229 0.11,-0.286 l 6.835,-34.667 c 0.006,-0.03 -0.006,-0.06 -0.002,-0.09 0.004,-0.036 0.021,-0.067 0.021,-0.104 v -7.337 c 0,-1.287 -0.462,-2.372 -1.372,-3.224 C 80.404,9.033 75.636,9.319 75.501,9.333 H 25.333 c -7.909,0 -8,5.111 -8,5.163 v 7.337 c 0,0.035 0.017,0.065 0.02,0.099 0.003,0.028 -0.008,0.057 -0.003,0.085 l 6.5,34.667 c 0.008,0.042 0.075,0.214 0.098,0.26 0.034,0.068 0.18,0.257 0.215,0.289 0.072,0.065 0.278,0.187 0.3,0.195 0.004,0.002 0.008,0.001 0.011,0.002 0.11,0.043 0.229,0.067 0.353,0.068 0.002,0 0.003,0.001 0.005,0.001 v 0 c 0,0 0,0 0,0 h 1.077 l -0.78,2.166 h -2.464 c -0.399,0 -0.761,0.238 -0.918,0.604 L 15.08,75.77 c 0,0.001 0,0.002 -10e-4,0.003 -0.002,0.005 -0.002,0.011 -0.004,0.017 -0.044,0.108 -0.063,0.221 -0.068,0.335 0,0.015 -0.008,0.026 -0.008,0.041 v 10.5 c 0,1.577 1.126,4.687 5.39,5.16 0.037,0.004 0.073,0.006 0.11,0.006 h 59.167 c 0.067,0 1.617,-0.009 3.175,-0.74 1.517,-0.712 3.325,-2.231 3.325,-5.426 v -9.5 c 0.001,-0.014 -0.007,-0.025 -0.007,-0.04 z M 17,77.167 h 67.167 v 2.166 H 17 Z M 36.913,57.5 h 26.173 c 0.459,1.364 0.719,2.818 0.726,4.334 H 36.188 c 0.006,-1.516 0.266,-2.97 0.725,-4.334 z m 0.852,-2 C 40.077,51.095 44.69,48.078 50,48.078 c 5.31,0 9.923,3.017 12.234,7.422 z m 28.047,6.334 C 65.778,53.141 58.699,46.078 50,46.078 c -8.7,0 -15.779,7.063 -15.813,15.756 H 33.78 C 33.813,52.916 41.075,45.67 50,45.67 c 8.925,0 16.187,7.246 16.22,16.164 z M 26.308,55.5 30.344,45.356 H 42.393 C 38.06,47.358 34.651,51.005 32.959,55.5 Z M 19.333,18.167 h 62.833 v 2.667 H 19.333 Z m 54.331,4.666 -2.201,20.523 H 52.284 l 7.081,-7.671 c 0.037,-0.041 0.166,-0.245 0.191,-0.31 0.035,-0.087 0.074,-0.334 0.074,-0.369 0,-0.002 -0.002,-0.005 -0.002,-0.007 0,-0.128 -0.025,-0.256 -0.075,-0.377 -0.025,-0.061 -0.164,-0.271 -0.209,-0.316 L 55.928,30.828 C 55.74,30.637 55.483,30.529 55.214,30.529 h -10.13 c -0.254,0 -0.498,0.097 -0.683,0.27 l -3.716,3.478 c -0.401,0.375 -0.424,1.004 -0.052,1.408 l 7.082,7.671 H 30.563 L 28.361,22.833 Z M 56.347,36.007 50,42.882 43.653,36.007 Z m -12.446,-2 1.579,-1.478 h 9.315 l 1.451,1.478 z M 57.607,45.356 H 71.5 c 0.045,0 0.084,-0.02 0.128,-0.026 L 74.953,55.5 H 67.042 C 65.351,51.006 61.94,47.358 57.607,45.356 Z M 76.092,52.548 73.379,44.25 75.676,22.833 H 81.95 Z M 25.333,11.333 75.566,11.331 c 1.132,-0.076 4.396,0.03 5.862,1.401 0.497,0.465 0.738,1.042 0.738,1.764 v 1.67 H 19.333 v -1.67 c 0,-0.032 0.069,-3.163 6,-3.163 z m 1.018,11.5 2.294,21.383 -3.464,8.706 -5.642,-30.089 z M 32.335,57.5 c -0.346,1.392 -0.55,2.838 -0.555,4.334 h -2.115 c -0.552,0 -1,0.447 -1,1 0,0.553 0.448,1 1,1 h 40.333 c 0.553,0 1,-0.447 1,-1 0,-0.553 -0.447,-1 -1,-1 H 68.22 C 68.215,60.338 68.011,58.892 67.664,57.5 h 4.018 l 1.563,3.553 c 10e-4,0.002 10e-4,0.004 0.002,0.005 l 4.888,11.109 H 22.756 L 28.036,57.5 Z m -9.009,4.166 h 1.085 l -4.019,11.162 c -0.11,0.307 -0.064,0.647 0.123,0.914 0.188,0.267 0.493,0.425 0.818,0.425 h 58.333 c 0.338,0 0.653,-0.171 0.838,-0.453 0.185,-0.283 0.214,-0.641 0.077,-0.949 L 75.698,61.666 h 1.341 l 6.532,13.501 H 17.519 Z M 79.667,89.833 H 20.557 C 17.151,89.43 17.005,86.941 17,86.667 v -5.334 h 67.167 v 4.334 c 0,4.019 -4.042,4.163 -4.5,4.166 z"
           inkscape:connector-curvature="0" />
        <path
           id="path1409"
           d="m 49.832,29.125 c 0.552,0 1,-0.448 1,-1 V 24.75 c 0,-0.552 -0.448,-1 -1,-1 -0.552,0 -1,0.448 -1,1 v 3.375 c 0,0.552 0.447,1 1,1 z"
           inkscape:connector-curvature="0" />
        <path
           id="path1411"
           d="m 43.65,28.655 c 0.189,0.303 0.515,0.47 0.849,0.47 0.181,0 0.364,-0.049 0.529,-0.152 0.468,-0.293 0.61,-0.91 0.317,-1.378 l -1.79,-2.861 c -0.292,-0.467 -0.909,-0.609 -1.378,-0.317 -0.468,0.293 -0.61,0.91 -0.317,1.378 z"
           inkscape:connector-curvature="0" />
        <path
           id="path1413"
           d="m 37.332,29.687 2.478,2.292 c 0.192,0.178 0.436,0.266 0.679,0.266 0.269,0 0.538,-0.108 0.734,-0.321 0.375,-0.406 0.351,-1.038 -0.055,-1.413 L 38.69,28.219 c -0.405,-0.375 -1.038,-0.35 -1.413,0.055 -0.375,0.405 -0.351,1.038 0.055,1.413 z"
           inkscape:connector-curvature="0" />
        <path
           id="path1415"
           d="m 58.463,31.924 c 0.197,0.213 0.466,0.321 0.734,0.321 0.243,0 0.487,-0.088 0.68,-0.266 l 2.477,-2.292 c 0.405,-0.375 0.43,-1.008 0.055,-1.413 -0.377,-0.406 -1.01,-0.431 -1.414,-0.055 l -2.477,2.292 c -0.406,0.375 -0.43,1.008 -0.055,1.413 z"
           inkscape:connector-curvature="0" />
        <path
           id="path1417"
           d="m 55.116,28.973 c 0.165,0.103 0.348,0.152 0.529,0.152 0.333,0 0.659,-0.166 0.849,-0.469 l 1.791,-2.861 c 0.293,-0.468 0.151,-1.085 -0.317,-1.378 -0.469,-0.293 -1.086,-0.152 -1.378,0.317 l -1.791,2.861 c -0.293,0.468 -0.152,1.085 0.317,1.378 z"
           inkscape:connector-curvature="0" />
      </g>
    </g>
    <g
       style="fill:#002451"
       id="g1488"
       transform="matrix(1.0939174,0,0,1.2457652,-3.9695838,2.7071492)">
      <g
         id="g1464">
        <path
           id="path1438"
           d="m 82.591,27.113 c 0,-0.387 -0.313,-0.7 -0.7,-0.7 -0.387,0 -0.7,0.313 -0.7,0.7 0,17.199 -13.992,31.19 -31.19,31.19 -17.199,0 -31.191,-13.992 -31.191,-31.19 0,-0.387 -0.313,-0.7 -0.7,-0.7 -0.387,0 -0.7,0.313 -0.7,0.7 0,18.526 8.803,34.366 21.141,40.539 l -2.645,3.543 c -0.116,0.156 -0.163,0.354 -0.127,0.545 0.036,0.191 0.148,0.36 0.313,0.465 0.034,0.021 0.988,0.607 2.656,1.29 L 35.905,77.3 c -0.116,0.156 -0.163,0.354 -0.127,0.545 0.036,0.191 0.148,0.36 0.313,0.465 0.075,0.047 4.658,2.876 11.726,3.379 -1.972,0.85 -3.357,2.811 -3.357,5.091 0,3.056 2.486,5.541 5.541,5.541 3.056,0 5.541,-2.485 5.541,-5.541 0,-2.287 -1.393,-4.255 -3.375,-5.1 3.621,-0.267 7.671,-1.209 11.974,-3.333 0.191,-0.095 0.329,-0.271 0.374,-0.479 0.046,-0.208 -0.007,-0.426 -0.142,-0.591 l -3.096,-3.79 c 0.942,-0.365 1.894,-0.766 2.863,-1.244 0.191,-0.095 0.329,-0.271 0.374,-0.479 0.046,-0.208 -0.007,-0.426 -0.142,-0.591 L 61.483,67.636 C 73.804,61.45 82.591,45.623 82.591,27.113 Z M 45.859,63.908 c 0,-2.283 1.857,-4.141 4.141,-4.141 2.284,0 4.141,1.857 4.141,4.141 0,2.284 -1.858,4.141 -4.141,4.141 -2.283,0 -4.141,-1.858 -4.141,-4.141 z M 20.642,41.259 c 4.809,9.94 14.521,17.083 25.976,18.27 -1.311,1.015 -2.159,2.598 -2.159,4.38 0,2.182 1.271,4.067 3.108,4.971 C 35.125,67.582 24.708,56.444 20.642,41.259 Z m 33.499,45.52 c 0,2.283 -1.857,4.141 -4.141,4.141 -2.284,0 -4.141,-1.857 -4.141,-4.141 0,-2.284 1.857,-4.141 4.141,-4.141 2.284,0 4.141,1.858 4.141,4.141 z m 8.584,-9.307 c -12.479,5.771 -22.595,1.391 -25.22,0.025 l 2.604,-3.486 c 2.411,0.841 5.789,1.657 9.837,1.657 2.992,0 6.35,-0.458 9.94,-1.671 z m 0,-6.105 c -12.479,5.771 -22.595,1.39 -25.22,0.025 l 2.342,-3.137 c 3.198,1.396 6.608,2.163 10.153,2.163 3.553,0 6.972,-0.771 10.176,-2.173 z M 52.434,68.879 c 1.837,-0.903 3.107,-2.789 3.107,-4.971 0,-1.782 -0.849,-3.365 -2.159,-4.38 11.454,-1.187 21.166,-8.329 25.976,-18.269 -4.067,15.185 -14.483,26.322 -26.924,27.62 z"
           inkscape:connector-curvature="0" />
        <path
           id="path1440"
           d="m 50,62.336 c 0.387,0 0.7,-0.313 0.7,-0.7 0,-0.387 -0.313,-0.7 -0.7,-0.7 -1.639,0 -2.972,1.334 -2.972,2.973 0,1.639 1.333,2.973 2.972,2.973 0.387,0 0.7,-0.313 0.7,-0.7 0,-0.387 -0.313,-0.7 -0.7,-0.7 -0.867,0 -1.572,-0.705 -1.572,-1.572 0,-0.867 0.705,-1.574 1.572,-1.574 z"
           inkscape:connector-curvature="0" />
        <path
           id="path1442"
           d="m 47.028,86.779 c 0,1.639 1.333,2.973 2.972,2.973 0.387,0 0.7,-0.313 0.7,-0.7 0,-0.387 -0.313,-0.7 -0.7,-0.7 -0.867,0 -1.572,-0.705 -1.572,-1.572 0,-0.867 0.705,-1.572 1.572,-1.572 0.387,0 0.7,-0.313 0.7,-0.7 0,-0.387 -0.313,-0.7 -0.7,-0.7 -1.639,-0.001 -2.972,1.333 -2.972,2.971 z"
           inkscape:connector-curvature="0" />
        <path
           id="path1444"
           d="m 39.303,28.157 v -1.784 c 0,-0.387 -0.313,-0.7 -0.7,-0.7 -0.387,0 -0.7,0.313 -0.7,0.7 v 1.784 c 0,0.387 0.313,0.7 0.7,0.7 0.387,0 0.7,-0.313 0.7,-0.7 z"
           inkscape:connector-curvature="0" />
        <path
           id="path1446"
           d="m 35.137,25.527 c -0.358,-0.149 -0.767,0.017 -0.917,0.372 l -0.695,1.644 c -0.151,0.356 0.016,0.767 0.372,0.917 0.089,0.038 0.182,0.056 0.272,0.056 0.273,0 0.532,-0.161 0.645,-0.427 l 0.695,-1.644 c 0.151,-0.357 -0.016,-0.767 -0.372,-0.918 z"
           inkscape:connector-curvature="0" />
        <path
           id="path1448"
           d="m 42.587,27.792 c 0.113,0.267 0.372,0.427 0.645,0.427 0.091,0 0.184,-0.018 0.272,-0.056 0.356,-0.151 0.522,-0.562 0.372,-0.917 L 43.18,25.602 c -0.151,-0.356 -0.562,-0.521 -0.917,-0.372 -0.356,0.151 -0.522,0.562 -0.372,0.917 z"
           inkscape:connector-curvature="0" />
        <path
           id="path1450"
           d="m 38.603,46.128 c 0.387,0 0.7,-0.313 0.7,-0.7 0,-0.387 -0.313,-0.7 -0.7,-0.7 -1.28,0 -2.321,1.041 -2.321,2.32 0,1.28 1.042,2.321 2.321,2.321 0.387,0 0.7,-0.313 0.7,-0.7 0,-0.387 -0.313,-0.7 -0.7,-0.7 -0.508,0 -0.921,-0.413 -0.921,-0.921 0,-0.507 0.413,-0.92 0.921,-0.92 z"
           inkscape:connector-curvature="0" />
        <path
           id="path1452"
           d="m 28.262,40.712 c 0.035,0.191 0.148,0.359 0.313,0.464 0.208,0.132 3.139,1.947 7.719,2.424 -1.11,0.746 -1.843,2.013 -1.843,3.448 0,2.29 1.863,4.152 4.152,4.152 2.289,0 4.152,-1.863 4.152,-4.152 0,-1.449 -0.749,-2.724 -1.878,-3.467 2.408,-0.269 5.071,-0.972 7.898,-2.367 0.191,-0.095 0.329,-0.271 0.375,-0.479 0.046,-0.208 -0.007,-0.426 -0.142,-0.591 l -2.031,-2.486 c 0.592,-0.239 1.19,-0.497 1.799,-0.797 0.191,-0.095 0.329,-0.271 0.375,-0.479 0.046,-0.208 -0.007,-0.426 -0.142,-0.591 L 46.933,33.25 c 0.607,-0.244 1.22,-0.506 1.844,-0.814 0.191,-0.095 0.329,-0.271 0.375,-0.479 0.046,-0.208 -0.007,-0.426 -0.142,-0.591 l -2.033,-2.488 c 0.603,-0.242 1.204,-0.501 1.801,-0.796 0.191,-0.095 0.329,-0.271 0.374,-0.479 0.045,-0.208 -0.007,-0.426 -0.142,-0.591 L 46.557,24.01 c -0.133,-0.163 -0.332,-0.257 -0.542,-0.257 h -5.567 c 0.102,-0.232 0.16,-0.487 0.16,-0.757 v -2.889 c 0,-0.799 -0.497,-1.48 -1.197,-1.76 v -4.424 c 0,-0.387 -0.313,-0.7 -0.7,-0.7 -0.024,0 -0.045,0.012 -0.069,0.014 -0.024,-0.002 -0.044,-0.014 -0.069,-0.014 -0.961,0 -1.742,-0.781 -1.742,-1.742 0,-0.961 0.781,-1.743 1.742,-1.743 0.387,0 0.7,-0.313 0.7,-0.7 0,-0.387 -0.313,-0.7 -0.7,-0.7 -1.733,0 -3.143,1.41 -3.143,3.144 0,1.54 1.116,2.819 2.58,3.086 v 3.78 c -0.7,0.279 -1.197,0.961 -1.197,1.76 v 2.889 c 0,0.27 0.058,0.524 0.16,0.757 h -5.778 c -0.221,0 -0.429,0.104 -0.561,0.281 l -2.242,3.002 c -0.116,0.156 -0.163,0.354 -0.127,0.545 0.035,0.192 0.148,0.36 0.313,0.464 0.061,0.039 0.651,0.408 1.678,0.851 l -1.863,2.494 c -0.116,0.156 -0.163,0.354 -0.127,0.545 0.035,0.192 0.148,0.36 0.313,0.464 0.09,0.057 0.69,0.43 1.713,0.874 l -1.898,2.543 c -0.116,0.156 -0.163,0.354 -0.127,0.545 0.035,0.191 0.148,0.359 0.313,0.464 0.089,0.057 0.676,0.42 1.673,0.855 l -1.858,2.489 c -0.122,0.153 -0.168,0.351 -0.133,0.542 z m 9.949,-20.608 c 0,-0.274 0.223,-0.497 0.497,-0.497 0.274,0 0.497,0.223 0.497,0.497 v 2.889 c 0,0.274 -0.223,0.497 -0.497,0.497 -0.274,0 -0.497,-0.223 -0.497,-0.497 z M 38.603,49.8 c -1.518,0 -2.752,-1.234 -2.752,-2.752 0,-1.518 1.234,-2.752 2.752,-2.752 1.518,0 2.752,1.234 2.752,2.752 0,1.518 -1.235,2.752 -2.752,2.752 z M 31.543,25.15 H 45.68 l 1.676,2.051 c -2.893,1.302 -5.861,1.962 -8.836,1.962 -4.13,0 -7.229,-1.29 -8.527,-1.939 z m 0.066,4.266 c 0.456,0.157 0.958,0.311 1.503,0.453 l -0.578,1.365 c -0.151,0.356 0.016,0.767 0.372,0.917 0.089,0.038 0.182,0.056 0.272,0.056 0.273,0 0.532,-0.161 0.645,-0.427 l 0.675,-1.595 c 1.025,0.195 2.169,0.327 3.403,0.363 v 1.555 c 0,0.387 0.313,0.7 0.7,0.7 0.387,0 0.7,-0.313 0.7,-0.7 V 30.54 c 1.232,-0.045 2.461,-0.195 3.684,-0.45 l 0.588,1.393 c 0.113,0.267 0.373,0.428 0.646,0.428 0.091,0 0.183,-0.018 0.272,-0.055 0.356,-0.151 0.523,-0.562 0.373,-0.917 l -0.499,-1.181 c 0.407,-0.111 0.813,-0.235 1.218,-0.37 l 1.772,2.169 c -8.408,3.78 -15.257,1.067 -17.362,0.022 z m 0.036,4.378 c 0.77,0.267 1.668,0.523 2.683,0.727 -0.04,0.049 -0.082,0.096 -0.107,0.157 l -0.696,1.644 c -0.151,0.356 0.016,0.767 0.372,0.917 0.089,0.038 0.182,0.056 0.272,0.056 0.273,0 0.532,-0.16 0.645,-0.427 l 0.696,-1.644 c 0.07,-0.165 0.065,-0.34 0.012,-0.498 0.759,0.107 1.572,0.175 2.428,0.197 -0.025,0.073 -0.046,0.148 -0.046,0.229 v 1.784 c 0,0.387 0.313,0.7 0.7,0.7 0.387,0 0.7,-0.313 0.7,-0.7 v -1.784 c 0,-0.084 -0.021,-0.162 -0.048,-0.236 0.827,-0.029 1.688,-0.107 2.583,-0.247 0.001,0.087 0.017,0.175 0.053,0.259 l 0.696,1.644 c 0.113,0.267 0.372,0.427 0.645,0.427 0.091,0 0.184,-0.018 0.272,-0.056 0.356,-0.151 0.522,-0.562 0.372,-0.917 l -0.683,-1.611 c 0.763,-0.168 1.547,-0.389 2.348,-0.656 l 1.816,2.222 c -8.408,3.781 -15.255,1.067 -17.362,0.022 z m -0.043,4.411 c 0.456,0.159 0.959,0.314 1.505,0.458 l -0.571,1.351 c -0.151,0.356 0.016,0.767 0.372,0.917 0.089,0.038 0.182,0.056 0.272,0.056 0.273,0 0.532,-0.161 0.645,-0.427 l 0.667,-1.578 c 1.028,0.198 2.174,0.332 3.411,0.366 v 1.534 c 0,0.387 0.313,0.7 0.7,0.7 0.387,0 0.7,-0.313 0.7,-0.7 V 39.34 c 1.162,-0.044 2.395,-0.187 3.688,-0.46 l 0.584,1.382 c 0.113,0.267 0.373,0.428 0.646,0.428 0.091,0 0.183,-0.018 0.272,-0.055 0.356,-0.151 0.523,-0.562 0.373,-0.917 l -0.495,-1.172 c 0.401,-0.111 0.808,-0.238 1.218,-0.375 l 1.769,2.165 c -8.408,3.781 -15.255,1.067 -17.362,0.022 z"
           inkscape:connector-curvature="0" />
        <path
           id="path1454"
           d="m 62.097,28.157 v -1.784 c 0,-0.387 -0.313,-0.7 -0.7,-0.7 -0.387,0 -0.7,0.313 -0.7,0.7 v 1.784 c 0,0.387 0.313,0.7 0.7,0.7 0.387,0 0.7,-0.313 0.7,-0.7 z"
           inkscape:connector-curvature="0" />
        <path
           id="path1456"
           d="m 65.186,28.088 c 0.113,0.267 0.372,0.427 0.645,0.427 0.091,0 0.184,-0.018 0.272,-0.056 0.356,-0.15 0.522,-0.561 0.372,-0.917 L 65.78,25.898 c -0.151,-0.355 -0.561,-0.522 -0.917,-0.372 -0.356,0.15 -0.522,0.561 -0.372,0.917 z"
           inkscape:connector-curvature="0" />
        <path
           id="path1458"
           d="m 57.737,25.23 c -0.358,-0.15 -0.767,0.014 -0.918,0.372 l -0.696,1.644 c -0.15,0.356 0.016,0.767 0.371,0.917 0.09,0.038 0.182,0.056 0.273,0.056 0.272,0 0.531,-0.16 0.645,-0.427 l 0.696,-1.644 c 0.151,-0.356 -0.015,-0.767 -0.371,-0.918 z"
           inkscape:connector-curvature="0" />
        <path
           id="path1460"
           d="m 61.396,44.728 c -0.387,0 -0.7,0.313 -0.7,0.7 0,0.387 0.313,0.7 0.7,0.7 0.508,0 0.921,0.413 0.921,0.92 0,0.508 -0.413,0.921 -0.921,0.921 -0.387,0 -0.7,0.313 -0.7,0.7 0,0.387 0.313,0.7 0.7,0.7 1.28,0 2.321,-1.042 2.321,-2.321 0.001,-1.279 -1.04,-2.32 -2.321,-2.32 z"
           inkscape:connector-curvature="0" />
        <path
           id="path1462"
           d="m 50.849,40.734 c 0.045,0.208 0.183,0.385 0.375,0.479 2.828,1.396 5.491,2.098 7.898,2.367 -1.129,0.743 -1.878,2.018 -1.878,3.467 0,2.29 1.863,4.152 4.152,4.152 2.289,0 4.152,-1.863 4.152,-4.152 0,-1.436 -0.732,-2.702 -1.844,-3.448 4.58,-0.477 7.512,-2.291 7.72,-2.423 0.164,-0.104 0.277,-0.272 0.313,-0.464 0.035,-0.192 -0.011,-0.389 -0.128,-0.545 l -1.858,-2.489 c 0.998,-0.435 1.585,-0.799 1.674,-0.855 0.164,-0.104 0.277,-0.272 0.313,-0.464 0.035,-0.192 -0.011,-0.389 -0.128,-0.545 l -1.898,-2.543 c 1.023,-0.443 1.624,-0.816 1.714,-0.874 0.164,-0.104 0.277,-0.272 0.313,-0.464 0.035,-0.191 -0.011,-0.389 -0.128,-0.545 l -1.862,-2.494 c 1.026,-0.443 1.616,-0.812 1.678,-0.851 0.164,-0.104 0.277,-0.272 0.313,-0.464 0.035,-0.191 -0.011,-0.389 -0.128,-0.545 L 69.37,24.032 c -0.132,-0.177 -0.34,-0.281 -0.561,-0.281 h -5.778 c 0.102,-0.232 0.16,-0.487 0.16,-0.757 v -2.889 c 0,-0.799 -0.497,-1.48 -1.197,-1.76 v -3.78 c 1.464,-0.267 2.58,-1.546 2.58,-3.086 0,-1.733 -1.41,-3.144 -3.143,-3.144 -0.387,0 -0.7,0.313 -0.7,0.7 0,0.387 0.313,0.7 0.7,0.7 0.961,0 1.742,0.782 1.742,1.743 0,0.961 -0.781,1.742 -1.742,1.742 -0.024,0 -0.045,0.012 -0.069,0.014 -0.023,-0.002 -0.044,-0.014 -0.068,-0.014 -0.387,0 -0.7,0.313 -0.7,0.7 v 4.424 c -0.7,0.28 -1.197,0.961 -1.197,1.76 v 2.889 c 0,0.27 0.059,0.524 0.16,0.757 H 53.99 c -0.21,0 -0.409,0.095 -0.542,0.257 l -2.453,3.002 c -0.135,0.165 -0.188,0.383 -0.142,0.591 0.046,0.208 0.183,0.385 0.375,0.479 0.597,0.294 1.197,0.554 1.801,0.796 l -2.033,2.488 c -0.135,0.165 -0.188,0.383 -0.142,0.591 0.046,0.208 0.183,0.385 0.375,0.479 0.624,0.308 1.236,0.571 1.844,0.814 l -2.076,2.541 c -0.135,0.165 -0.188,0.383 -0.142,0.591 0.046,0.208 0.183,0.385 0.375,0.479 0.608,0.3 1.206,0.558 1.799,0.797 l -2.031,2.486 c -0.142,0.167 -0.194,0.385 -0.149,0.593 z m 9.945,-20.63 c 0,-0.274 0.223,-0.497 0.497,-0.497 0.274,0 0.497,0.223 0.497,0.497 v 2.889 c 0,0.274 -0.223,0.497 -0.497,0.497 -0.274,0 -0.497,-0.223 -0.497,-0.497 z M 61.396,49.8 c -1.518,0 -2.752,-1.234 -2.752,-2.752 0,-1.518 1.234,-2.752 2.752,-2.752 1.518,0 2.752,1.234 2.752,2.752 0,1.518 -1.234,2.752 -2.752,2.752 z M 54.318,25.15 h 14.138 l 1.55,2.076 c -1.292,0.649 -4.382,1.938 -8.528,1.938 -2.975,0 -5.942,-0.66 -8.836,-1.962 z m 0.096,4.237 c 0.405,0.135 0.812,0.259 1.22,0.371 l -0.499,1.18 c -0.15,0.356 0.016,0.767 0.372,0.917 0.089,0.038 0.182,0.055 0.272,0.055 0.272,0 0.532,-0.161 0.645,-0.428 l 0.588,-1.393 c 1.223,0.255 2.452,0.405 3.685,0.45 v 1.563 c 0,0.387 0.313,0.7 0.7,0.7 0.387,0 0.7,-0.313 0.7,-0.7 v -1.555 c 1.234,-0.035 2.378,-0.167 3.403,-0.363 l 0.675,1.595 c 0.113,0.267 0.372,0.427 0.645,0.427 0.091,0 0.184,-0.018 0.272,-0.056 0.356,-0.15 0.522,-0.561 0.372,-0.917 l -0.577,-1.365 c 0.545,-0.143 1.047,-0.296 1.503,-0.453 l 1.615,2.163 c -2.1,1.048 -8.931,3.77 -17.362,-0.023 z m 0.044,4.373 c 0.801,0.266 1.585,0.487 2.348,0.655 l -0.683,1.611 c -0.15,0.356 0.016,0.767 0.371,0.917 0.09,0.038 0.182,0.056 0.273,0.056 0.272,0 0.531,-0.16 0.645,-0.427 l 0.696,-1.644 c 0.036,-0.084 0.051,-0.172 0.053,-0.259 0.896,0.14 1.756,0.218 2.583,0.247 -0.027,0.074 -0.048,0.152 -0.048,0.236 v 1.784 c 0,0.387 0.313,0.7 0.7,0.7 0.387,0 0.7,-0.313 0.7,-0.7 v -1.784 c 0,-0.082 -0.021,-0.157 -0.046,-0.229 0.855,-0.022 1.669,-0.089 2.428,-0.197 -0.054,0.157 -0.059,0.333 0.012,0.498 l 0.696,1.644 c 0.113,0.267 0.372,0.427 0.645,0.427 0.092,0 0.184,-0.018 0.273,-0.056 0.355,-0.151 0.521,-0.562 0.371,-0.917 l -0.696,-1.644 c -0.025,-0.061 -0.068,-0.108 -0.107,-0.157 1.014,-0.204 1.912,-0.461 2.683,-0.727 l 1.651,2.211 c -2.101,1.049 -8.932,3.769 -17.363,-0.023 z m -0.047,4.41 c 0.411,0.138 0.817,0.264 1.219,0.375 l -0.495,1.172 c -0.15,0.356 0.016,0.767 0.372,0.917 0.089,0.038 0.182,0.055 0.272,0.055 0.272,0 0.532,-0.161 0.645,-0.428 l 0.584,-1.382 c 1.293,0.272 2.525,0.416 3.688,0.459 v 1.542 c 0,0.387 0.313,0.7 0.7,0.7 0.387,0 0.7,-0.313 0.7,-0.7 v -1.534 c 1.236,-0.035 2.383,-0.168 3.41,-0.366 l 0.668,1.579 c 0.113,0.267 0.372,0.427 0.645,0.427 0.091,0 0.184,-0.018 0.272,-0.056 0.356,-0.15 0.522,-0.561 0.372,-0.917 l -0.571,-1.351 c 0.546,-0.144 1.049,-0.299 1.506,-0.458 l 1.607,2.153 c -2.101,1.049 -8.932,3.77 -17.363,-0.023 z"
           inkscape:connector-curvature="0" />
      </g>
    </g>
  </g>
  <style
     id="style1243"
     type="text/css">
	.st0{fill:#002451;}
</style>
  <style
     id="style1301"
     type="text/css">
	.st0{fill:none;stroke:#002451;stroke-linecap:round;stroke-linejoin:round;stroke-miterlimit:10;}
</style>
</svg>
