<svg fill="#FFFFFF" xmlns="http://www.w3.org/2000/svg" xmlns:xlink="http://www.w3.org/1999/xlink" version="1.1" x="0px" y="0px" viewBox="0 0 200.327 196.45" style="enable-background:new 0 0 200.327 196.45;" xml:space="preserve"><g><polygon points="13.357,17.253 0,23.311 36.072,102.857 50.317,98.757  "></polygon><path d="M128.138,57.5c11.681,5.191,33.648-13.268,38.84-24.949C172.165,20.869,166.903,7.19,155.22,2   c-11.682-5.191-25.36,0.07-30.551,11.754C119.48,25.438,116.454,52.311,128.138,57.5z M128.337,23.409   c2.778-6.664,7.991-10.834,11.645-9.311c3.653,1.521,4.363,8.16,1.587,14.824c-2.775,6.662-7.991,10.832-11.644,9.311   C126.27,36.709,125.56,30.074,128.337,23.409z"></path><path d="M144.427,73.43c1.388-2.671,4.109-4.324,7.11-4.324c1.269,0,2.54,0.311,3.675,0.898c3.915,2.031,5.45,6.867,3.421,10.783   c-0.997,1.86-4.645,8.147-11.541,14.551c-1.859,1.731-4.066,3.547-6.602,5.289c1.28,7.621,2.206,15.748,1.85,23.487h-19.012v30.328   l4.247-11.327h28.083c0.68,0,1.342-0.074,1.982-0.21c7.1-0.674,14.288-3.806,16.622-15.813c2.342-20.119,1.018-32.012-5.145-50.283   c-4.561-13.26-15.768-17.459-23.5-15.531c-7.675,1.912-11.074,12.561-8.578,21.536C141.934,78.055,144.402,73.479,144.427,73.43z"></path><path d="M110.953,107.831c0.016,0,0.033,0,0.048,0c15.713,0.001,27.363-7.098,34.731-13.959   c7.424-6.896,10.914-13.616,11.126-14.003c1.525-2.943,0.374-6.564-2.566-8.089c-2.941-1.524-6.559-0.375-8.085,2.562   c-0.169,0.333-3.278,5.956-9.194,11.238c-5.961,5.307-14.402,10.237-26.06,10.251c-4.113,0-8.669-0.617-13.744-2.132   c-3.175-0.946-6.517,0.858-7.464,4.034c-0.948,3.175,0.856,6.519,4.033,7.465C99.886,107.023,105.627,107.831,110.953,107.831z"></path><path d="M190.244,160.853l10-64.668c0.591-3.82-2.027-7.395-5.847-7.985c-3.822-0.591-7.397,2.027-7.988,5.847l-9.084,58.736   h-42.333c-3.865,0-6.999,3.134-6.999,7.001c0,3.865,3.134,7.001,6.999,7.001l48.335-0.002   C186.77,166.783,189.717,164.254,190.244,160.853z"></path><path d="M121.328,121.784l-3.747-1.147l1.142-3.799l-11.015-3.307l-1.123,3.737l-5.604-1.716l1.114-3.708l-11.015-3.309   l-1.096,3.648l-5.604-1.716l1.087-3.618l-11.014-3.309l-1.069,3.559l-5.604-1.716l1.061-3.528l-11.015-3.309l-1.042,3.469   l-5.115-1.566L7.66,113.116v83.334h113.668V121.784z M24.66,130.45h-6.333v-12.667h6.333V130.45z M36.994,130.45H30.66v-12.667   h6.334V130.45z M42.994,117.783h6.333v12.667h-6.333V117.783z M80.994,170.117c0-8.652,7.015-15.667,15.668-15.667   c8.652,0,15.666,7.015,15.666,15.667c0,8.652-7.014,15.667-15.666,15.667C88.009,185.784,80.994,178.769,80.994,170.117z"></path></g></svg>