<?xml version="1.0" encoding="UTF-8" standalone="no"?>
<!-- Created with Inkscape (http://www.inkscape.org/) -->

<svg
   xmlns:dc="http://purl.org/dc/elements/1.1/"
   xmlns:cc="http://creativecommons.org/ns#"
   xmlns:rdf="http://www.w3.org/1999/02/22-rdf-syntax-ns#"
   xmlns:svg="http://www.w3.org/2000/svg"
   xmlns="http://www.w3.org/2000/svg"
   xmlns:sodipodi="http://sodipodi.sourceforge.net/DTD/sodipodi-0.dtd"
   xmlns:inkscape="http://www.inkscape.org/namespaces/inkscape"
   width="400px"
   height="256px"
   viewBox="0 0 400 256"
   version="1.1"
   id="SVGRoot"
   inkscape:export-filename="/home/dpk/set-gro.png"
   inkscape:export-xdpi="96"
   inkscape:export-ydpi="96"
   inkscape:version="0.92.1 15371"
   sodipodi:docname="sample.svg">
  <sodipodi:namedview
     id="base"
     pagecolor="#ffffff"
     bordercolor="#666666"
     borderopacity="1.0"
     inkscape:pageopacity="0.0"
     inkscape:pageshadow="2"
     inkscape:zoom="2.0898438"
     inkscape:cx="200"
     inkscape:cy="128"
     inkscape:document-units="px"
     inkscape:current-layer="layer1"
     showgrid="false"
     inkscape:window-width="1366"
     inkscape:window-height="709"
     inkscape:window-x="0"
     inkscape:window-y="35"
     inkscape:window-maximized="1" />
  <defs
     id="defs69717">
    <style
       id="style1776"
       type="text/css">
   
    .fil1 {fill:none}
    .fil0 {fill:#002451;fill-rule:nonzero}
   
  </style>
    <style
       id="style1720">

      .cls-3 {
        fill: #000000;
      }
    </style>
    <style
       id="style1736">

      .cls-3 {
        fill: #000000;
      }
    </style>
    <style
       id="style1752">

      .cls-3 {
        fill: #000000;
      }
    </style>
    <style
       id="style1768">

      .cls-3 {
        fill: #53ecf4;
      }

      .cls-4 {
        fill: #000000;
      }
    </style>
    <style
       id="style2481">.cls-1{opacity:0.2;}</style>
  </defs>
  <metadata
     id="metadata69720">
    <rdf:RDF>
      <cc:Work
         rdf:about="">
        <dc:format>image/svg+xml</dc:format>
        <dc:type
           rdf:resource="http://purl.org/dc/dcmitype/StillImage" />
        <dc:title></dc:title>
      </cc:Work>
    </rdf:RDF>
  </metadata>
  <g
     id="layer1"
     inkscape:groupmode="layer"
     inkscape:label="Layer 1">
    <g
       style="clip-rule:evenodd;fill:#002451;fill-rule:evenodd;image-rendering:optimizeQuality;shape-rendering:geometricPrecision;text-rendering:geometricPrecision"
       id="g1811"
       transform="translate(-3225.5,-3283.5)">
      <g
         id="g1792">
        <path
           id="path1780"
           d="m 1158,2477 h 97 c 84,0 160,34 215,90 55,55 90,131 90,215 v 2997 80 h -80 -547 -80 v -80 -2997 c 0,-84 34,-160 90,-215 55,-55 131,-90 215,-90 z"
           class="fil0"
           inkscape:connector-curvature="0"
           style="fill:#002451;fill-rule:nonzero" />
        <path
           id="path1782"
           d="m 5572,3512 h 97 c 84,0 160,34 215,90 55,55 90,131 90,215 v 1962 80 h -80 -547 -80 v -80 -1962 c 0,-84 34,-160 90,-215 55,-55 131,-90 215,-90 z"
           class="fil0"
           inkscape:connector-curvature="0"
           style="fill:#002451;fill-rule:nonzero" />
        <polygon
           id="polygon1784"
           points="1480,3980 5347,3980 5347,4742 5347,4902 1480,4902 1480,4742 "
           class="fil0"
           style="fill:#002451;fill-rule:nonzero" />
        <polygon
           id="polygon1786"
           points="1480,5273 1480,5113 5347,5113 5347,5273 "
           class="fil0"
           style="fill:#002451;fill-rule:nonzero" />
        <path
           id="path1788"
           d="m 1898,3536 h 669 c 83,0 159,34 213,89 55,55 89,130 89,213 0,21 -2,42 -6,62 H 1603 c -4,-20 -6,-41 -6,-62 0,-83 34,-159 89,-213 55,-55 130,-89 213,-89 z"
           class="fil0"
           inkscape:connector-curvature="0"
           style="fill:#002451;fill-rule:nonzero" />
        <polygon
           id="polygon1790"
           points="2730,1946 2650,1946 2650,1866 2650,1598 2650,1518 2730,1518 3199,1518 3199,1048 3199,968 3279,968 3547,968 3627,968 3627,1048 3627,1518 4097,1518 4177,1518 4177,1598 4177,1866 4177,1946 4097,1946 3627,1946 3627,2416 3627,2496 3547,2496 3279,2496 3199,2496 3199,2416 3199,1946 "
           class="fil0"
           style="fill:#002451;fill-rule:nonzero" />
      </g>
      <rect
         id="rect1794"
         height="6827"
         width="6827"
         class="fil1"
         x="0"
         y="0"
         style="fill:none" />
    </g>
    <g
       style="fill:#002451"
       id="g2235"
       transform="matrix(1.323908,0,0,1.6309781,261.64688,138.41317)">
      <path
         id="path2206"
         d="m 27.51,25.025 c -0.039,0.001 -0.078,0.004 -0.117,0.007 l -4.062,0.348 -4.757,-6.801 c -0.693,-0.992 -1.916,-1.469 -3.097,-1.211 -1.183,0.259 -2.093,1.203 -2.309,2.394 l -3.016,16.62 c -0.1,0.548 -0.044,1.113 0.16,1.632 l 1.298,3.302 -6.345,14.093 c -0.68,1.51 -0.006,3.285 1.503,3.965 0.444,0.2 0.913,0.283 1.369,0.261 1.092,-0.051 2.116,-0.699 2.595,-1.764 l 3.943,-8.759 3.502,8.908 c 0.482,1.227 1.683,1.957 2.93,1.898 0.319,-0.015 0.643,-0.082 0.956,-0.205 1.542,-0.606 2.299,-2.346 1.693,-3.887 l -7.553,-19.214 1.58,-8.704 1.625,2.323 c 0.613,0.876 1.647,1.361 2.713,1.269 l 5.784,-0.496 c 1.649,-0.141 2.873,-1.593 2.731,-3.242 -0.138,-1.609 -1.525,-2.813 -3.126,-2.737 z"
         inkscape:connector-curvature="0" />
      <path
         id="path2208"
         d="m 25.104,10.634 -2.863,-0.39 C 21.886,7.432 19.319,5.44 16.508,5.795 13.696,6.15 11.355,8.202 12.252,12.377 l 1.202,-0.152 0.915,1.221 c 0.541,1.79 2.307,2.981 4.224,2.74 2.076,-0.262 3.563,-2.107 3.404,-4.171 l 3.098,-0.789 z"
         inkscape:connector-curvature="0" />
      <polygon
         id="polygon2210"
         points="60.593,25.513 70.396,25.513 70.396,10.127 69.045,10.127 69.045,4.999 60.593,4.999 " />
      <polygon
         id="polygon2212"
         points="71.367,10.127 71.367,25.513 81.619,25.513 81.619,4.999 73.166,4.999 73.166,10.127 " />
      <circle
         id="circle2214"
         r="0.80299997"
         cy="56.262001"
         cx="47.166" />
      <path
         id="path2216"
         d="M 87.107,29.455 H 95 V 26.92 H 47.18 v 2.535 h 7.894 c 0.138,0.164 0.312,0.302 0.518,0.399 l 11.894,5.62 -11.781,5.566 c -0.36,0.137 -0.671,0.406 -0.849,0.782 -0.086,0.182 -0.132,0.372 -0.144,0.561 -0.001,0.008 -0.002,0.016 -0.002,0.022 -0.002,0.024 -10e-4,0.049 -10e-4,0.072 0,0.029 -0.001,0.059 10e-4,0.087 0,0.003 0,0.005 0,0.008 0.011,0.193 0.058,0.388 0.146,0.573 0.178,0.377 0.488,0.646 0.85,0.782 l 11.778,5.566 -10.548,4.983 H 50.36 c -0.626,-1.118 -1.821,-1.874 -3.194,-1.874 -0.744,0 -1.436,0.223 -2.014,0.604 V 51.941 H 42.309 V 30.68 l -9.378,-3.678 c -0.616,-0.241 -1.311,0.062 -1.552,0.678 -0.241,0.616 0.062,1.311 0.678,1.552 l 7.858,3.082 v 19.629 h -0.676 v 2.534 h 2.028 v 3.57 h 2.706 c 0.626,1.118 1.822,1.874 3.194,1.874 1.373,0 2.568,-0.756 3.194,-1.874 h 35.011 c 0.626,1.118 1.822,1.874 3.194,1.874 1.373,0 2.568,-0.756 3.194,-1.874 H 95 v -3.57 h -3.24 c -0.626,-1.118 -1.821,-1.874 -3.194,-1.874 -1.372,0 -2.568,0.756 -3.194,1.874 h -0.127 l -10.548,-4.983 11.78,-5.567 c 0.359,-0.136 0.67,-0.405 0.848,-0.781 0.084,-0.179 0.13,-0.365 0.143,-0.551 10e-4,-0.012 0.002,-0.022 0.003,-0.034 10e-4,-0.021 0,-0.041 0,-0.062 0.003,-0.227 -0.042,-0.458 -0.146,-0.677 -0.179,-0.377 -0.49,-0.647 -0.853,-0.783 L 74.697,35.475 86.59,29.855 c 0.206,-0.099 0.379,-0.237 0.517,-0.4 z M 47.166,58.61 c -1.296,0 -2.348,-1.051 -2.348,-2.348 0,-1.297 1.051,-2.348 2.348,-2.348 1.297,0 2.349,1.051 2.349,2.348 0,1.297 -1.052,2.348 -2.349,2.348 z m 41.399,-4.695 c 1.297,0 2.348,1.051 2.348,2.348 0,1.297 -1.051,2.348 -2.348,2.348 -1.297,0 -2.348,-1.051 -2.348,-2.348 0,-1.297 1.052,-2.348 2.348,-2.348 z M 56.682,43.363 c -0.488,0.23 -1.069,0.021 -1.3,-0.466 -0.057,-0.119 -0.086,-0.245 -0.093,-0.369 0,-0.017 0,-0.033 0,-0.051 0,-0.012 0,-0.024 0,-0.036 0.006,-0.125 0.036,-0.251 0.093,-0.371 0.23,-0.487 0.812,-0.695 1.3,-0.465 0.35,0.165 0.554,0.511 0.559,0.872 -10e-4,0.367 -0.207,0.719 -0.559,0.886 z m 21.35,11.114 H 64.148 l 6.941,-3.279 z m 7.467,-12.872 c 0.487,-0.23 1.069,-0.022 1.3,0.465 0.043,0.091 0.07,0.185 0.084,0.279 0.001,0.005 0.001,0.011 0.001,0.016 0.004,0.023 0.006,0.048 0.007,0.071 10e-4,0.022 10e-4,0.044 10e-4,0.066 0,0.007 0,0.015 -10e-4,0.021 -0.005,0.126 -0.035,0.252 -0.092,0.373 -0.23,0.487 -0.812,0.696 -1.3,0.466 -0.335,-0.158 -0.538,-0.481 -0.558,-0.827 0,-10e-4 0,-10e-4 0,-0.002 -0.001,-0.012 -0.001,-0.023 -0.001,-0.035 -0.003,-0.37 0.203,-0.725 0.559,-0.893 z M 82.317,42.484 71.09,47.79 59.862,42.484 71.09,37.178 Z M 71.09,33.77 61.958,29.455 h 18.265 z"
         inkscape:connector-curvature="0" />
      <circle
         id="circle2218"
         r="0.80299997"
         cy="56.262001"
         cx="88.565002" />
    </g>
    <g
       style="fill:#002451"
       id="g2291"
       transform="matrix(1.1632157,0,0,1.2624242,150.85559,129.7606)">
      <g
         id="g2275">
        <path
           id="path2265"
           d="m 62.337,28.697 h 1.003 c 0.537,5.797 4.105,10.438 8.421,10.438 4.317,0 7.884,-4.641 8.423,-10.438 h 1.004 c 0.584,0 0.975,-0.456 0.975,-1.04 v -1.919 c 0,-0.584 -0.391,-1.155 -0.975,-1.155 h -0.233 c -0.354,-2.991 -1.714,-5.571 -3.658,-7.286 l -2.359,6.929 0.819,-7.981 c -0.983,-0.554 -2.066,-0.885 -3.205,-0.984 -0.26,-0.034 -0.522,-0.055 -0.79,-0.055 -0.542,0 -1.069,0.084 -1.581,0.223 -0.693,0.162 -1.362,0.409 -1.992,0.745 l 0.83,8.077 -2.396,-7.058 c -2.011,1.711 -3.425,4.213 -3.787,7.391 h -0.497 c -0.585,0 -1.118,0.571 -1.118,1.155 v 1.919 c -0.002,0.583 0.531,1.039 1.116,1.039 z m 15.722,0 c -0.479,4.675 -3.116,8.321 -6.298,8.321 -3.18,0 -5.817,-3.646 -6.298,-8.321 z"
           inkscape:connector-curvature="0" />
        <rect
           id="rect2267"
           height="2.243"
           width="2.2449999"
           y="53.754002"
           x="61.592999" />
        <rect
           id="rect2269"
           height="2.243"
           width="2.2449999"
           y="53.754002"
           x="80.292" />
        <path
           id="path2271"
           d="m 59.537,52.071 h 24.869 v 9.162 h 7.293 v -6.191 c 0,-5.813 -3.18,-10.82 -8.041,-13.242 v 8.963 H 79.17 V 40.411 c -0.373,-0.069 -0.922,-0.12 -1.404,-0.146 -1.627,1.256 -3.684,2.01 -5.941,2.01 -2.257,0 -4.287,-0.754 -5.914,-2.01 -0.398,0.022 -0.764,0.069 -1.139,0.121 v 10.377 h -4.301 v -9.096 c -5.049,2.371 -8.602,7.46 -8.602,13.375 v 6.191 h 7.666 z"
           inkscape:connector-curvature="0" />
        <path
           id="path2273"
           d="M 49.251,62.917 V 59.81 c 0,-0.553 -0.313,-1.008 -0.865,-1.008 h -0.444 v -1.407 c 0,-0.552 -0.503,-1.022 -1.055,-1.022 H 46.072 V 47.396 H 42.52 v 8.977 h -0.879 c -0.552,0 -1.178,0.471 -1.178,1.022 v 1.407 h -0.488 c -0.552,0 -1.008,0.455 -1.008,1.008 v 3.107 h -8.415 v -9.77 c 0,-1.46 -0.631,-2.769 -1.64,-3.668 l 7.277,-10.188 c 0.344,-0.482 0.379,-1.094 0.144,-1.595 l 4.421,-0.917 0.828,0.866 c -0.228,0.274 -0.371,0.626 -0.371,1.011 v 2.332 0.666 4.498 c 0,0.138 0.125,0.31 0.263,0.31 h 2.165 c 0.139,0 0.19,-0.172 0.19,-0.31 v -2.87 h 0.748 v 2.87 c 0,0.138 0.257,0.31 0.395,0.31 h 2.165 c 0.139,0 0.245,-0.172 0.245,-0.31 v -4.498 -0.666 -2.333 c 0,-0.863 -0.69,-1.564 -1.55,-1.58 l -3.875,-4.028 -0.343,-1.659 c -0.087,-0.42 -0.498,-0.689 -0.917,-0.602 l -10.611,2.2 -1.445,-1.032 c -0.712,-0.508 -1.7,-0.388 -2.208,0.323 L 15.071,48.145 h -2.912 c -2.714,0 -4.98,2.29 -4.98,5.003 v 9.77 H 5.497 V 84.795 H 94.504 V 62.917 Z M 44.375,38.38 c 0.881,0 1.596,0.715 1.596,1.595 0,0.883 -0.715,1.596 -1.596,1.596 -0.881,0 -1.596,-0.713 -1.596,-1.596 0,-0.88 0.715,-1.595 1.596,-1.595 z m -5.481,-6.265 c 0.978,0 1.769,0.792 1.769,1.77 0,0.978 -0.792,1.77 -1.769,1.77 -0.978,0 -1.771,-0.792 -1.771,-1.77 0,-0.978 0.793,-1.77 1.771,-1.77 z M 18.904,59.56 c -2.188,0 -3.963,-1.774 -3.963,-3.962 0,-2.189 1.774,-3.964 3.963,-3.964 2.189,0 3.963,1.774 3.963,3.964 0,2.187 -1.774,3.962 -3.963,3.962 z m 7.927,-21.35 c 0,-1.411 1.144,-2.556 2.555,-2.556 1.411,0 2.555,1.145 2.555,2.556 0,1.411 -1.144,2.555 -2.555,2.555 -1.411,0 -2.555,-1.144 -2.555,-2.555 z"
           inkscape:connector-curvature="0" />
      </g>
    </g>
    <g
       style="fill:#002451"
       id="g2440"
       transform="matrix(1.5947362,0,0,1.627072,272.68549,29.573045)">
      <g
         id="g2418">
        <g
           id="g2416"
           transform="translate(-118,-589)">
          <g
             id="g2414"
             transform="translate(118,589)">
            <polygon
               id="polygon2396"
               points="6,25 6,27 8,27 8,25 " />
            <polygon
               id="polygon2398"
               points="6,33 6,35 16,35 16,33 " />
            <polygon
               id="polygon2400"
               points="14,25 14,27 16,27 16,25 " />
            <polygon
               id="polygon2402"
               points="6,6 6,12 16,12 16,6 " />
            <path
               id="path2404"
               d="m 28,38 c -0.6,0 -1,0.4 -1,1 0,0.6 0.4,1 1,1 0.6,0 1,-0.4 1,-1 0,-0.6 -0.4,-1 -1,-1"
               inkscape:connector-curvature="0" />
            <path
               id="path2406"
               d="m 36,38 c -0.6,0 -1,0.4 -1,1 0,0.6 0.4,1 1,1 0.6,0 1,-0.4 1,-1 0,-0.6 -0.4,-1 -1,-1"
               inkscape:connector-curvature="0" />
            <path
               id="path2408"
               d="m 44,38 c -0.6,0 -1,0.4 -1,1 0,0.6 0.4,1 1,1 0.6,0 1,-0.4 1,-1 0,-0.6 -0.4,-1 -1,-1"
               inkscape:connector-curvature="0" />
            <path
               id="path2410"
               d="m 52,40 c 0.6,0 1,-0.4 1,-1 0,-0.6 -0.4,-1 -1,-1 -0.6,0 -1,0.4 -1,1 0,0.6 0.4,1 1,1"
               inkscape:connector-curvature="0" />
            <path
               id="path2412"
               d="m 60,39 c 0,-3.9 -3.1,-7 -7,-7 h -7 v -4.7 l 7.8,-11.7 c 0,0 0,-0.1 0.1,-0.1 0,0 0,-0.1 0,-0.1 0,-0.1 0.1,-0.2 0.1,-0.3 0,0 0,0 0,0 v -4 c 0,-0.6 -0.4,-1 -1,-1 H 42 V 4 C 42,3.4 41.6,3 41,3 H 22 V 1 C 22,0.4 21.6,0 21,0 H 1 C 0.4,0 0,0.4 0,1 v 58 c 0,0.6 0.4,1 1,1 h 20 c 0.6,0 1,-0.4 1,-1 V 46 h 27 v 13 c 0,0.6 0.4,1 1,1 h 6 c 0.6,0 1,-0.4 1,-1 V 45 c 0,-0.1 0,-0.2 0,-0.2 1.8,-1.3 3,-3.4 3,-5.8 z M 4,17 c 0,-0.6 0.4,-1 1,-1 0.6,0 1,0.4 1,1 v 3 C 6,20.6 5.6,21 5,21 4.4,21 4,20.6 4,20 Z m 0,7 c 0,-0.6 0.4,-1 1,-1 h 4 c 0.6,0 1,0.4 1,1 v 4 c 0,0.6 -0.4,1 -1,1 H 5 C 4.4,29 4,28.6 4,28 Z m 4,-4 v -3 c 0,-0.6 0.4,-1 1,-1 0.6,0 1,0.4 1,1 v 3 C 10,20.6 9.6,21 9,21 8.4,21 8,20.6 8,20 Z M 6,55 C 6,55.6 5.6,56 5,56 4.4,56 4,55.6 4,55 V 40 c 0,-0.6 0.4,-1 1,-1 0.6,0 1,0.4 1,1 z m 4,0 C 10,55.6 9.6,56 9,56 8.4,56 8,55.6 8,55 V 40 c 0,-0.6 0.4,-1 1,-1 0.6,0 1,0.4 1,1 z m 4,0 c 0,0.6 -0.4,1 -1,1 -0.6,0 -1,-0.4 -1,-1 V 40 c 0,-0.6 0.4,-1 1,-1 0.6,0 1,0.4 1,1 z m 4,0 c 0,0.6 -0.4,1 -1,1 -0.6,0 -1,-0.4 -1,-1 V 40 c 0,-0.6 0.4,-1 1,-1 0.6,0 1,0.4 1,1 z m 0,-19 c 0,0.6 -0.4,1 -1,1 H 5 C 4.4,37 4,36.6 4,36 v -4 c 0,-0.6 0.4,-1 1,-1 h 12 c 0.6,0 1,0.4 1,1 z m 0,-8 c 0,0.6 -0.4,1 -1,1 h -4 c -0.6,0 -1,-0.4 -1,-1 v -4 c 0,-0.6 0.4,-1 1,-1 h 4 c 0.6,0 1,0.4 1,1 z m -6,-8 v -3 c 0,-0.6 0.4,-1 1,-1 0.6,0 1,0.4 1,1 v 3 c 0,0.6 -0.4,1 -1,1 -0.6,0 -1,-0.4 -1,-1 z m 6,0 c 0,0.6 -0.4,1 -1,1 -0.6,0 -1,-0.4 -1,-1 v -3 c 0,-0.6 0.4,-1 1,-1 0.6,0 1,0.4 1,1 z m 0,-7 c 0,0.6 -0.4,1 -1,1 H 5 C 4.4,14 4,13.6 4,13 V 5 C 4,4.4 4.4,4 5,4 h 12 c 0.6,0 1,0.4 1,1 z m 34,-1 v 2 H 30 v -2 z m -8,16 v 4 H 38 V 28 Z M 22,5 h 18 v 5 H 29 c -0.6,0 -1,0.4 -1,1 v 4 c 0,0 0,0 0,0 0,0.1 0,0.2 0.1,0.3 0,0 0,0.1 0,0.1 0,0 0,0.1 0.1,0.1 L 36,27.3 V 32 H 22 Z m 6,37 c -1.7,0 -3,-1.3 -3,-3 0,-1.7 1.3,-3 3,-3 1.7,0 3,1.3 3,3 0,1.7 -1.3,3 -3,3 z m 8,0 c -1.7,0 -3,-1.3 -3,-3 0,-1.7 1.3,-3 3,-3 1.7,0 3,1.3 3,3 0,1.7 -1.3,3 -3,3 z m 8,0 c -1.7,0 -3,-1.3 -3,-3 0,-1.7 1.3,-3 3,-3 1.7,0 3,1.3 3,3 0,1.7 -1.3,3 -3,3 z M 55,58 H 51 V 46 h 2 2 z M 52,42 c -1.7,0 -3,-1.3 -3,-3 0,-1.7 1.3,-3 3,-3 1.7,0 3,1.3 3,3 0,1.7 -1.3,3 -3,3 z"
               inkscape:connector-curvature="0" />
          </g>
        </g>
      </g>
    </g>
    <g
       style="fill:#002451"
       id="g2466"
       transform="matrix(1.594739,0,0,1.8332581,150.45994,26.813632)">
      <g
         id="g2452"
         style="fill:none;fill-rule:evenodd;stroke:none;stroke-width:1">
        <g
           id="g2450"
           transform="translate(-118,-829)"
           style="fill:#002451">
          <g
             id="g2448"
             transform="translate(118,829)">
            <path
               id="path2446"
               d="m 42.9987,39.5216 4.001,-2.801 4,2.8 v 2.479 h -8 z M 2.7667,12.0006 h 6.741 l 3.2,4 -3.2,4 h -1.941 z m 43.279,-10.001 h 1.896 l 2.873,8.609 -3.815,2.671 -3.825,-2.678 z m 4.954,31.921 v 3.159 l -2.256,-1.58 z m -7.256,-1.921 3.256,-2.279 3.257,2.279 -3.257,2.28 z m -0.747,1.918 2.26,1.582 -2.259,1.581 z m -0.005,-12.799 c 10e-4,-0.012 -0.001,-0.024 0,-0.037 v -0.039 c 10e-4,-0.015 0.008,-0.027 0.008,-0.042 v -1.08 l 2.257,1.579 -2.264,1.585 z m -4.992,-3.518 1.92,2.4 h -3.839 z m -8.006,0.008 1.914,2.392 h -3.827 z m -8.006,-0.008 1.92,2.4 h -3.839 z m -8,-3.201 -1.919,-2.399 h 3.839 z m 4,-1.799 2.72,3.4 -2.72,3.399 -2.719,-3.399 z m 4,1.799 -1.919,-2.399 h 3.839 z m 8.006,-0.007 -1.913,-2.392 h 3.827 z m 1.287,1.608 2.719,-3.4 2.72,3.4 -2.72,3.399 z m -2.573,0 -2.72,3.399 -2.719,-3.399 2.719,-3.4 z m 9.292,-1.601 -1.919,-2.399 h 3.839 z m 5,1.68 v -3.159 l 2.257,1.579 z m -2.009,2.059 -1.71,-2.138 1.708,-2.136 z m 9.266,-0.139 -3.257,2.28 -3.256,-2.28 3.256,-2.279 z m 0.743,-1.92 -2.256,-1.58 2.256,-1.579 z m 0,10.841 v 3.159 l -2.256,-1.58 z m 0,-3.841 -2.256,-1.58 2.256,-1.579 z m -7.256,1.92 3.256,-2.279 3.257,2.279 -3.257,2.28 z m -0.75,1.917 2.263,1.583 -2.262,1.583 z m -29.991,-6.916 c 0,0 -0.002,-10e-4 -0.003,-10e-4 l -0.001,10e-4 h -0.93 l 1.919,-2.4 1.92,2.4 z m -4.003,25.999 4,-5.333 4,5.333 z m 50,12 h -1 v -7 c 0,-0.552 -0.447,-1 -1,-1 h -1 v -7 c 0,-0.552 -0.447,-1 -1,-1 h -2 v -30.999 c 0,-0.043 -0.015,-0.084 -0.02,-0.127 -0.006,-0.043 -0.01,-0.084 -0.021,-0.127 -0.005,-0.021 -0.003,-0.042 -0.01,-0.063 l -3.337,-10 c -0.136,-0.408 -0.519,-0.684 -0.949,-0.684 h -3.337 c -0.431,0 -0.813,0.276 -0.949,0.684 l -3.109,9.317 H 0.9997 c -0.36,0 -0.692,0.194 -0.87,0.507 -0.177,0.314 -0.173,0.698 0.013,1.008 l 6,10 c 0.181,0.301 0.506,0.485 0.857,0.485 h 5 v 1.615 c -1.287,1.437 -2,3.268 -2,5.213 v 1.171 c 0,0.553 0.448,1 1,1 h 1 v 1.142 c -1.72,0.448 -3,2 -3,3.858 0,1.595 0.944,2.963 2.297,3.605 l -4.796,6.395 h -2.501 c -0.552,0 -1,0.448 -1,1 v 8 c 0,0.553 0.448,1 1,1 h 18 c 0.553,0 1,-0.447 1,-1 v -8 c 0,-0.552 -0.447,-1 -1,-1 h -2.5 l -5.7,-7.6 c -0.012,-0.015 -0.032,-0.02 -0.044,-0.035 -0.184,-0.218 -0.448,-0.365 -0.756,-0.365 -1.103,0 -2,-0.897 -2,-2 0,-1.103 0.897,-2 2,-2 0.553,0 1,-0.447 1,-1 v -2 h 1 c 0.553,0 1,-0.447 1,-1 v -1.171 c 0,-1.945 -0.712,-3.776 -2,-5.213 v -1.615 h 26.992 l 0.008,19.999 h -2 c -0.552,0 -1,0.448 -1,1 v 7 h -1 c -0.552,0 -1,0.448 -1,1 v 7 h -6 c -0.552,0 -1,0.448 -1,1 0,0.553 0.448,1 1,1 h 7 20 2 c 0.553,0 1,-0.447 1,-1 0,-0.552 -0.447,-1 -1,-1 z"
               inkscape:connector-curvature="0" />
          </g>
        </g>
      </g>
    </g>
    <g
       style="fill:#002451"
       id="g2479"
       transform="matrix(0.87834566,0,0,0.90403502,12.513676,90.594851)">
      <path
         id="path2468"
         d="m 18.94,87.422 v 2.556 c 2.841,0.57 5.643,3.138 5.643,6.82 l 0.013,22.309 h 5.655 V 96.89 c 0,-3.164 2.62,-6.394 5.642,-6.899 v -3.346 l -16.03,-0.013 c -0.688,0 -0.923,0.193 -0.923,0.79 z m 99.171,21.99 c -0.912,0 -1.823,0 -2.734,0 -0.062,-3.294 2.001,-8.795 5.106,-10.914 -0.349,-8.685 7.382,-11.249 11.281,-6.347 1.406,1.899 3.701,1.215 5.021,0.172 1.857,-2.366 5.245,-2.146 7.694,0.467 1.543,1.696 2.308,1.482 3.393,0.94 2.401,-1.199 4.016,-1.057 6.491,0.103 4.468,2.093 4.537,6.843 0.707,9.155 -2.513,1.518 -5.79,1.951 -8.329,0.41 -0.945,-0.573 -1.383,-1.585 -2.971,0.066 -2.369,2.043 -6.398,2.15 -8.302,-0.471 -1.242,-2.011 -2.566,-2.159 -4.033,-0.325 -2.526,3.295 -6.358,3.03 -9.114,0.425 -2.252,10e-4 -3.761,3.091 -4.21,6.319 z M 67.229,39.199 c -1.796,0 -3.592,0 -5.39,0 -0.12,-6.492 3.945,-17.336 10.065,-21.513 -0.686,-17.117 14.552,-22.173 22.238,-12.51 2.772,3.745 7.295,2.396 9.896,0.339 3.66,-4.662 10.337,-4.23 15.166,0.921 3.042,3.343 4.55,2.92 6.687,1.853 4.732,-2.365 7.915,-2.083 12.795,0.202 8.807,4.125 8.942,13.487 1.395,18.045 -4.954,2.992 -11.413,3.846 -16.419,0.808 -1.863,-1.13 -2.725,-3.124 -5.855,0.13 -4.668,4.028 -12.611,4.239 -16.364,-0.927 -2.448,-3.961 -5.057,-4.255 -7.947,-0.641 -4.98,6.494 -12.532,5.973 -17.966,0.84 -4.439,0.001 -7.416,6.091 -8.301,12.453 z m 13.614,106.945 h 10.269 v 10.271 H 80.843 Z m -50.542,0 H 40.57 v 10.271 H 30.301 Z m 17.37,0 h 10.27 v 10.271 h -10.27 z m 16.981,0 h 10.269 v 10.271 H 64.652 Z m 33.678,0 h 10.27 v 10.271 H 98.33 Z M 133.055,164 H 5.845 v -44.894 h 4.471 v -22.19 c 0,-3.566 2.633,-6.304 5.655,-6.938 v -3.346 c 0,-1.868 1.232,-2.828 2.983,-2.828 l 38.962,0.27 2.38,-42.341 h 8.7 l 2.825,42.082 16.895,0.003 c 2.01,0 2.982,0.909 2.982,2.776 l -0.013,12.891 15.378,-0.031 0.019,23.229 h 7.399 l 0.739,-11.781 c 1.198,0 2.396,0 3.593,0 l 0.673,11.781 h 6.762 l 0.741,-11.781 c 1.197,0 2.395,0 3.593,0 l 0.672,11.781 h 1.8 V 164 Z M 72.86,99.416 88.717,99.483 V 87.422 c 0,-0.506 -0.169,-0.804 -0.791,-0.804 L 71.94,86.621 Z M 57.787,86.888 38.901,86.632 v 3.384 c 2.944,0.506 5.628,3.425 5.628,6.938 v 22.152 l 11.958,-9.163 z"
         inkscape:connector-curvature="0"
         style="clip-rule:evenodd;fill-rule:evenodd" />
    </g>
    <g
       style="fill:#002451"
       id="g2515"
       transform="matrix(0.73334707,0,0,0.84166141,37.150832,9.7607821)">
      <path
         id="path2487"
         d="m 56.37,56.9 6.5,-7.74 -1.1,-4.76 -9.61,11.46 a 12.42,12.42 0 0 1 4.21,1.04 z"
         inkscape:connector-curvature="0" />
      <path
         id="path2489"
         d="m 35.46,43.11 1.21,3.32 19.73,-7.17 a 16.11,16.11 0 0 1 -3.1,-2.93 9,9 0 0 1 -1.73,-6.06 8.9,8.9 0 0 1 0.57,-2.53 l -11.91,4.33 -0.67,-1.85 c 5.35,-1.8 11.62,-3.65 17.48,-8.74 4.59,-4 8.2,-1.45 8.19,1.77 A 32.3,32.3 0 0 1 69,26.3 c 2.95,-8 -6.1,-15.73 -14.86,-8.12 -4.84,4.2 -10,6 -16.11,7.93 L 38,25.88 a 2.18,2.18 0 0 0 -2.8,-1.3 l -3.66,1.33 a 2.18,2.18 0 0 0 -1.3,2.8 l 3.46,9.51 -5.9,2.15 -1,-2.81 c -3,1.09 -6.07,2 -8.49,4.06 -2.42,2.06 -1.79,3.2 -1.52,3.93 l 7.76,-2.82 1,2.85 -7.76,2.82 a 2.21,2.21 0 0 0 1.26,1.6 c 1.66,0.77 5,0.47 8.39,-0.78 l 3.14,-1.14 -1,-2.81 z"
         inkscape:connector-curvature="0" />
      <path
         id="path2491"
         d="m 65.31,25.31 a 7.38,7.38 0 0 0 -10.92,1.6 7.18,7.18 0 0 0 -0.73,1.43 v 0 a 7.4,7.4 0 0 0 2.15,8.29 l 0.43,0.36 6.82,5.72 1.58,6.87 -6.79,8.1 a 12.49,12.49 0 0 1 2.83,2.38 l 6.8,-8.1 6.92,0.36 4.79,-5.71 a 7.39,7.39 0 0 0 -0.91,-10.4 l -10,-8.37 z m -6.14,4.48 a 2.28,2.28 0 1 1 3.42,3 v 0 a 2.26,2.26 0 0 1 -1.61,0.73 v 0 a 2.28,2.28 0 0 1 -1.81,-3.73 z"
         inkscape:connector-curvature="0" />
      <path
         id="path2493"
         d="M 77.49,62.19 H 66.13 l 7,-8.3 -4.88,-0.25 -6.5,7.75 a 12.52,12.52 0 1 1 -22,11.67 l -7.6,7.6 a 1.09,1.09 0 0 0 -0.32,0.77 v 3.65 h 51.28 c 0,-12.54 0,-11.79 -0.09,-12.1 L 78.48,62.83 A 1.09,1.09 0 0 0 77.49,62.19 Z M 69,70.48 67.1,66.21 H 69 l 1.9,4.27 z m 4,0 -1.9,-4.27 H 73 l 1.9,4.27 z m 4,0 -1.9,-4.27 H 77 l 1.9,4.27 z"
         inkscape:connector-curvature="0" />
      <g
         id="g2497"
         class="cls-1"
         style="opacity:0.2">
        <path
           id="path2495"
           d="m 39.75,73.12 v -0.07 l -0.07,0.07 z"
           inkscape:connector-curvature="0" />
      </g>
      <path
         id="path2499"
         d="m 42.35,74.51 a 10.88,10.88 0 0 0 19.1,-10.14 v 0 A 10.88,10.88 0 1 0 42.35,74.51 Z M 52.49,61.4 a 1.4,1.4 0 1 1 -2.58,0.77 1.56,1.56 0 0 1 0,-0.27 1.38,1.38 0 0 1 0.22,-0.51 1.41,1.41 0 0 1 2.36,0.01 z M 57,69.66 A 1.41,1.41 0 0 1 57.1,67 v 0 A 1.4,1.4 0 1 1 57,69.66 Z M 47.94,65 a 1.4,1.4 0 1 1 -1.5,-2.3 1.41,1.41 0 0 1 1.5,2.3 z m -1.51,2.84 a 1.4,1.4 0 1 1 -2.7,0.54 1.41,1.41 0 0 1 2.7,-0.57 z m -0.83,4.52 a 1.4,1.4 0 1 1 1.62,1.77 1.4,1.4 0 0 1 -1.62,-1.8 z m 5.72,0.8 a 1.4,1.4 0 1 1 -1.16,2.19 1.4,1.4 0 0 1 1.16,-2.23 z m 4.1,1 a 1.39,1.39 0 0 1 -0.73,-0.38 1.4,1.4 0 1 1 2.37,-1.26 1.38,1.38 0 0 1 0,0.53 1.4,1.4 0 0 1 -1.64,1.05 z M 56.68,65 A 1.4,1.4 0 1 1 56.9,63.31 1.41,1.41 0 0 1 56.68,65 Z"
         inkscape:connector-curvature="0" />
    </g>
  </g>
  <style
     id="style1243"
     type="text/css">
	.st0{fill:#002451;}
</style>
  <style
     id="style1301"
     type="text/css">
	.st0{fill:none;stroke:#002451;stroke-linecap:round;stroke-linejoin:round;stroke-miterlimit:10;}
</style>
</svg>
