<?xml version="1.0" encoding="UTF-8" standalone="no"?>
<!-- Created with Inkscape (http://www.inkscape.org/) -->

<svg
   xmlns:dc="http://purl.org/dc/elements/1.1/"
   xmlns:cc="http://creativecommons.org/ns#"
   xmlns:rdf="http://www.w3.org/1999/02/22-rdf-syntax-ns#"
   xmlns:svg="http://www.w3.org/2000/svg"
   xmlns="http://www.w3.org/2000/svg"
   xmlns:sodipodi="http://sodipodi.sourceforge.net/DTD/sodipodi-0.dtd"
   xmlns:inkscape="http://www.inkscape.org/namespaces/inkscape"
   width="64"
   height="64"
   viewBox="0 0 16.933333 16.933334"
   version="1.1"
   id="svg9098"
   inkscape:version="0.92.1 15371"
   sodipodi:docname="mobile.svg">
  <defs
     id="defs9092" />
  <sodipodi:namedview
     id="base"
     pagecolor="#ffffff"
     bordercolor="#666666"
     borderopacity="1.0"
     inkscape:pageopacity="0.0"
     inkscape:pageshadow="2"
     inkscape:zoom="8.359375"
     inkscape:cx="32"
     inkscape:cy="32"
     inkscape:document-units="mm"
     inkscape:current-layer="layer1"
     showgrid="false"
     units="px"
     inkscape:window-width="1366"
     inkscape:window-height="709"
     inkscape:window-x="0"
     inkscape:window-y="35"
     inkscape:window-maximized="1" />
  <metadata
     id="metadata9095">
    <rdf:RDF>
      <cc:Work
         rdf:about="">
        <dc:format>image/svg+xml</dc:format>
        <dc:type
           rdf:resource="http://purl.org/dc/dcmitype/StillImage" />
        <dc:title />
      </cc:Work>
    </rdf:RDF>
  </metadata>
  <g
     inkscape:label="Layer 1"
     inkscape:groupmode="layer"
     id="layer1"
     transform="translate(0,-280.06665)">
    <g
       style="fill:#002451"
       id="g2289"
       transform="matrix(0.38195612,0,0,0.35716277,-0.76358248,279.96141)">
      <g
         id="g2273">
        <path
           id="path2263"
           d="M 32,4 H 16 c -2.2,0 -4,1.8 -4,4 v 32 c 0,2.2 1.8,4 4,4 h 16 c 2.2,0 4,-1.8 4,-4 V 8 C 36,5.8 34.2,4 32,4 Z M 16,6.1 h 16 c 1,0 1.9,0.8 1.9,1.9 v 3.1 H 14.1 V 8 C 14.1,7 15,6.1 16,6.1 Z M 32,41.9 H 16 c -1,0 -1.9,-0.8 -1.9,-1.9 V 11.9 H 33.8 V 40 c 0.1,1 -0.8,1.9 -1.8,1.9 z"
           inkscape:connector-curvature="0" />
        <circle
           id="circle2265"
           r="2"
           cy="37.700001"
           cx="24" />
        <circle
           id="circle2267"
           r="1"
           cy="8.6000004"
           cx="17" />
        <circle
           id="circle2269"
           r="1"
           cy="8.6000004"
           cx="19.700001" />
        <circle
           id="circle2271"
           r="1"
           cy="8.6000004"
           cx="22.5" />
      </g>
    </g>
  </g>
</svg>
