<?xml version="1.0" encoding="UTF-8" standalone="no"?>
<!-- Created with Inkscape (http://www.inkscape.org/) -->

<svg
   xmlns:dc="http://purl.org/dc/elements/1.1/"
   xmlns:cc="http://creativecommons.org/ns#"
   xmlns:rdf="http://www.w3.org/1999/02/22-rdf-syntax-ns#"
   xmlns:svg="http://www.w3.org/2000/svg"
   xmlns="http://www.w3.org/2000/svg"
   xmlns:sodipodi="http://sodipodi.sourceforge.net/DTD/sodipodi-0.dtd"
   xmlns:inkscape="http://www.inkscape.org/namespaces/inkscape"
   width="256"
   height="256"
   viewBox="0 0 67.733331 67.733335"
   version="1.1"
   id="svg8"
   inkscape:version="0.92.1 15371"
   sodipodi:docname="moniter.svg">
  <defs
     id="defs2" />
  <sodipodi:namedview
     id="base"
     pagecolor="#ffffff"
     bordercolor="#666666"
     borderopacity="1.0"
     inkscape:pageopacity="0.0"
     inkscape:pageshadow="2"
     inkscape:zoom="2.0898438"
     inkscape:cx="128"
     inkscape:cy="128"
     inkscape:document-units="mm"
     inkscape:current-layer="layer1"
     showgrid="false"
     units="px"
     inkscape:window-width="1366"
     inkscape:window-height="709"
     inkscape:window-x="0"
     inkscape:window-y="35"
     inkscape:window-maximized="1" />
  <metadata
     id="metadata5">
    <rdf:RDF>
      <cc:Work
         rdf:about="">
        <dc:format>image/svg+xml</dc:format>
        <dc:type
           rdf:resource="http://purl.org/dc/dcmitype/StillImage" />
        <dc:title />
      </cc:Work>
    </rdf:RDF>
  </metadata>
  <g
     inkscape:label="Layer 1"
     inkscape:groupmode="layer"
     id="layer1"
     transform="translate(0,-229.26663)">
    <g
       style="fill:#002451"
       id="g4051"
       transform="matrix(0.89549502,0,0,1.0093149,-11.252293,212.8802)">
      <g
         id="g4039">
        <path
           id="path4037"
           d="m 21,64.5 h 28 v 9 H 37 v 2 h 26 v -2 H 51 v -9 h 28 c 0.6,0 1,-0.4 1,-1 v -38 c 0,-0.6 -0.4,-1 -1,-1 H 21 c -0.6,0 -1,0.4 -1,1 v 38 c 0,0.6 0.4,1 1,1 z m 1,-38 h 56 v 36 H 51 49 22 Z"
           inkscape:connector-curvature="0" />
      </g>
    </g>
    <g
       style="fill:#002451"
       id="g547"
       transform="matrix(0.21285246,0,0,0.21276628,34.634214,247.65147)">
      <path
         id="path536"
         d="M 94.718,10.097 C 94.536,9.688 94.274,9.325 93.949,9.026 93.626,8.727 93.24,8.493 92.812,8.339 92.385,8.186 91.916,8.115 91.424,8.143 l -49.777,2.815 c -0.427,0.024 -0.833,0.138 -1.202,0.323 -0.368,0.186 -0.7,0.441 -0.979,0.751 -0.278,0.309 -0.504,0.67 -0.659,1.065 -0.155,0.396 -0.241,0.826 -0.241,1.273 v 8.626 l -20.08,0.946 c -0.434,0.021 -0.846,0.131 -1.221,0.314 -0.375,0.183 -0.712,0.438 -0.995,0.747 -0.282,0.309 -0.512,0.671 -0.669,1.068 -0.158,0.397 -0.245,0.831 -0.245,1.282 V 37.85 L 7.59,38.077 C 7.231,38.087 6.89,38.173 6.58,38.315 6.269,38.46 5.99,38.663 5.757,38.91 5.523,39.157 5.334,39.45 5.203,39.77 5.072,40.092 5,40.444 5,40.811 v 35.884 c 0,0.367 0.072,0.719 0.203,1.041 0.131,0.322 0.319,0.613 0.554,0.861 0.233,0.246 0.513,0.449 0.823,0.594 0.31,0.143 0.65,0.229 1.01,0.238 l 7.767,0.227 v 6.459 c 0,0.449 0.087,0.883 0.245,1.279 0.157,0.398 0.387,0.76 0.669,1.068 0.283,0.311 0.62,0.564 0.995,0.748 0.375,0.184 0.787,0.295 1.221,0.314 l 38.144,1.799 c 0.483,0.023 0.944,-0.053 1.364,-0.209 0.421,-0.156 0.8,-0.393 1.118,-0.691 0.122,-0.115 0.233,-0.242 0.337,-0.375 l 31.976,1.809 c 0.492,0.027 0.961,-0.045 1.388,-0.197 0.428,-0.152 0.813,-0.387 1.137,-0.686 0.324,-0.299 0.587,-0.662 0.769,-1.072 C 94.898,89.492 95,89.037 95,88.555 V 11.446 c 0,-0.485 -0.102,-0.94 -0.282,-1.349 z M 6.129,74.562 V 42.948 l 16.576,-0.371 v 32.357 z m 12.357,5.186 2.694,0.08 c 0.374,0.01 0.729,-0.057 1.054,-0.184 0.324,-0.129 0.617,-0.32 0.863,-0.561 0.139,-0.135 0.261,-0.287 0.367,-0.451 -0.007,0.01 -0.012,0.021 -0.018,0.031 0.014,-0.014 0.25,-0.375 0.277,-0.416 0.069,-0.104 0.131,-0.211 0.186,-0.324 0.054,-0.115 0.1,-0.232 0.138,-0.355 0.038,-0.121 0.065,-0.248 0.086,-0.379 0.019,-0.129 0.029,-0.262 0.029,-0.398 V 40.715 c 0,-0.137 -0.011,-0.27 -0.029,-0.398 -0.021,-0.13 -0.048,-0.257 -0.086,-0.379 -0.038,-0.123 -0.084,-0.24 -0.138,-0.354 -0.055,-0.114 -0.115,-0.223 -0.186,-0.326 -0.092,-0.139 -0.186,-0.277 -0.277,-0.416 0.006,0.01 0.011,0.021 0.018,0.033 -0.106,-0.164 -0.229,-0.317 -0.367,-0.453 -0.246,-0.24 -0.539,-0.432 -0.863,-0.56 -0.324,-0.128 -0.68,-0.194 -1.054,-0.183 l -2.694,0.078 V 30.5 L 56.63,29.062 V 84.405 L 18.486,82.967 Z m 5.162,-1.451 c -0.005,0.012 -0.008,0.023 -0.013,0.035 -0.007,0.014 -0.017,0.027 -0.023,0.041 0.013,-0.025 0.025,-0.051 0.036,-0.076 z M 23.612,39.133 c 0.007,0.015 0.017,0.027 0.023,0.042 0.005,0.011 0.008,0.022 0.013,0.034 -0.011,-0.025 -0.023,-0.05 -0.036,-0.076 z m 0.169,38.814 c -0.002,0.006 -0.003,0.016 -0.005,0.023 -0.001,0.002 -0.002,0.002 -0.003,0.006 0.004,-0.009 0.006,-0.021 0.008,-0.029 z M 23.773,39.532 c 0.001,0.002 0.002,0.003 0.003,0.005 0.002,0.008 0.003,0.017 0.005,0.024 -0.002,-0.01 -0.004,-0.02 -0.008,-0.029 z m 0.094,38.007 c -0.002,0.014 -0.002,0.029 -0.004,0.045 -0.002,0.016 -0.008,0.031 -0.01,0.049 0.004,-0.031 0.01,-0.063 0.014,-0.094 z M 23.854,39.875 c 0.002,0.016 0.008,0.031 0.01,0.048 0.002,0.015 0.002,0.03 0.004,0.046 -0.005,-0.032 -0.011,-0.062 -0.014,-0.094 z M 90.536,84.84 60.144,83.406 v -57.95 c 0,-0.48 -0.099,-0.934 -0.277,-1.341 -0.178,-0.407 -0.437,-0.771 -0.755,-1.069 -0.318,-0.3 -0.697,-0.535 -1.118,-0.691 -0.42,-0.156 -0.881,-0.23 -1.364,-0.208 l -14.207,0.67 v -5.388 l 48.113,-2.268 -0.052,0.742 v 68.195 z"
         inkscape:connector-curvature="0" />
    </g>
    <g
       style="fill:#002451"
       id="g4099"
       transform="matrix(0.21958464,0,0,0.21787716,10.607081,248.94467)">
      <path
         id="path4081"
         d="M 86.7,43.6 C 85.5,44.9 84.1,46.1 82.5,47 87,49 90,53.5 90,58.5 90,65.4 84.4,71 77.5,71 H 72 v 0 H 28 v 0 H 22.5 C 15.6,71 10,65.4 10,58.5 10,52.2 14.7,46.9 20.9,46.1 l 5.4,-0.7 -1.1,-5.3 C 25.1,39.6 25,39 25,38.5 25,34.4 28.4,31 32.5,31 c 1.1,0 2.1,0.2 3.1,0.7 l 3.7,1.7 2.4,-3.3 c 2.9,-3.9 7.1,-6.6 11.8,-7.6 0.8,-2 1.9,-3.8 3.3,-5.4 -7.6,0.2 -14.7,4 -19.1,10.1 C 36,26.4 34.3,26 32.5,26 25.6,26 20,31.6 20,38.5 c 0,0.9 0.1,1.8 0.3,2.6 C 11.6,42.2 5,49.7 5,58.5 5,68.3 13.2,76.3 23,76 h 51.5 1.5 1 c 0.2,0 0.3,0 0.5,0 C 87.2,76 95,68.2 95,58.5 95,52.3 91.7,46.7 86.7,43.6 Z"
         inkscape:connector-curvature="0" />
      <path
         id="path4083"
         d="m 72,15.3 c -3,0 -5.8,0.9 -8.2,2.5 -1.7,1.1 -3.1,2.6 -4.2,4.3 -1.5,2.3 -2.3,5 -2.3,7.9 0,8.1 6.6,14.7 14.7,14.7 1.8,0 3.4,-0.3 5,-0.9 1.9,-0.7 3.6,-1.7 5,-3.1 C 84.9,38 86.7,34.2 86.7,30 86.7,21.9 80.1,15.3 72,15.3 Z M 70,36.1 63.9,30 66,27.9 l 3.9,3.9 8.9,-8.9 2.1,2.1 z"
         class="st0"
         inkscape:connector-curvature="0"
         style="fill:#002451" />
      <path
         id="path4085"
         d="m 72,15.3 c -3,0 -5.8,0.9 -8.2,2.5 -1.7,1.1 -3.1,2.6 -4.2,4.3 -1.5,2.3 -2.3,5 -2.3,7.9 0,8.1 6.6,14.7 14.7,14.7 1.8,0 3.4,-0.3 5,-0.9 1.9,-0.7 3.6,-1.7 5,-3.1 C 84.9,38 86.7,34.2 86.7,30 86.7,21.9 80.1,15.3 72,15.3 Z M 70,36.1 63.9,30 66,27.9 l 3.9,3.9 8.9,-8.9 2.1,2.1 z"
         inkscape:connector-curvature="0" />
    </g>
  </g>
  <style
     id="style2350"
     type="text/css">
	.st0{fill:#002451;}
</style>
  <style
     id="style4075"
     type="text/css">
	.st0{fill:#002451;}
</style>
</svg>
