<svg fill="#002451" xmlns="http://www.w3.org/2000/svg" xmlns:xlink="http://www.w3.org/1999/xlink" version="1.1" x="0px" y="0px" viewBox="0 0 100 100" enable-background="new 0 0 100 100" xml:space="preserve"><path d="M94.718,10.097c-0.182-0.409-0.444-0.772-0.769-1.071c-0.323-0.299-0.709-0.533-1.137-0.687  c-0.427-0.153-0.896-0.224-1.388-0.196l-49.777,2.815c-0.427,0.024-0.833,0.138-1.202,0.323c-0.368,0.186-0.7,0.441-0.979,0.751  c-0.278,0.309-0.504,0.67-0.659,1.065c-0.155,0.396-0.241,0.826-0.241,1.273v8.626l-20.08,0.946  c-0.434,0.021-0.846,0.131-1.221,0.314s-0.712,0.438-0.995,0.747c-0.282,0.309-0.512,0.671-0.669,1.068  c-0.158,0.397-0.245,0.831-0.245,1.282V37.85L7.59,38.077c-0.359,0.01-0.7,0.096-1.01,0.238c-0.311,0.145-0.59,0.348-0.823,0.595  c-0.234,0.247-0.423,0.54-0.554,0.86C5.072,40.092,5,40.444,5,40.811v35.884c0,0.367,0.072,0.719,0.203,1.041  s0.319,0.613,0.554,0.861c0.233,0.246,0.513,0.449,0.823,0.594c0.31,0.143,0.65,0.229,1.01,0.238l7.767,0.227v6.459  c0,0.449,0.087,0.883,0.245,1.279c0.157,0.398,0.387,0.76,0.669,1.068c0.283,0.311,0.62,0.564,0.995,0.748s0.787,0.295,1.221,0.314  l38.144,1.799c0.483,0.023,0.944-0.053,1.364-0.209c0.421-0.156,0.8-0.393,1.118-0.691c0.122-0.115,0.233-0.242,0.337-0.375  l31.976,1.809c0.492,0.027,0.961-0.045,1.388-0.197c0.428-0.152,0.813-0.387,1.137-0.686c0.324-0.299,0.587-0.662,0.769-1.072  C94.898,89.492,95,89.037,95,88.555V11.446C95,10.961,94.898,10.506,94.718,10.097z M6.129,74.562V42.948l16.576-0.371v32.357  L6.129,74.562z M18.486,79.748l2.694,0.08c0.374,0.01,0.729-0.057,1.054-0.184c0.324-0.129,0.617-0.32,0.863-0.561  c0.139-0.135,0.261-0.287,0.367-0.451c-0.007,0.01-0.012,0.021-0.018,0.031c0.014-0.014,0.25-0.375,0.277-0.416  c0.069-0.104,0.131-0.211,0.186-0.324c0.054-0.115,0.1-0.232,0.138-0.355c0.038-0.121,0.065-0.248,0.086-0.379  c0.019-0.129,0.029-0.262,0.029-0.398V40.715c0-0.137-0.011-0.27-0.029-0.398c-0.021-0.13-0.048-0.257-0.086-0.379  c-0.038-0.123-0.084-0.24-0.138-0.354c-0.055-0.114-0.115-0.223-0.186-0.326c-0.092-0.139-0.186-0.277-0.277-0.416  c0.006,0.01,0.011,0.021,0.018,0.033c-0.106-0.164-0.229-0.317-0.367-0.453c-0.246-0.24-0.539-0.432-0.863-0.56  s-0.68-0.194-1.054-0.183l-2.694,0.078v-7.257l38.144-1.438v55.343l-38.144-1.438V79.748z M23.648,78.297  c-0.005,0.012-0.008,0.023-0.013,0.035c-0.007,0.014-0.017,0.027-0.023,0.041C23.625,78.348,23.637,78.322,23.648,78.297z   M23.612,39.133c0.007,0.015,0.017,0.027,0.023,0.042c0.005,0.011,0.008,0.022,0.013,0.034  C23.637,39.184,23.625,39.159,23.612,39.133z M23.781,77.947c-0.002,0.006-0.003,0.016-0.005,0.023  c-0.001,0.002-0.002,0.002-0.003,0.006C23.777,77.967,23.779,77.955,23.781,77.947z M23.773,39.532  c0.001,0.002,0.002,0.003,0.003,0.005c0.002,0.008,0.003,0.017,0.005,0.024C23.779,39.551,23.777,39.541,23.773,39.532z   M23.867,77.539c-0.002,0.014-0.002,0.029-0.004,0.045s-0.008,0.031-0.01,0.049C23.857,77.602,23.863,77.57,23.867,77.539z   M23.854,39.875c0.002,0.016,0.008,0.031,0.01,0.048c0.002,0.015,0.002,0.03,0.004,0.046C23.863,39.937,23.857,39.907,23.854,39.875  z M90.536,84.84l-30.392-1.434V25.456c0-0.48-0.099-0.934-0.277-1.341s-0.437-0.771-0.755-1.069c-0.318-0.3-0.697-0.535-1.118-0.691  c-0.42-0.156-0.881-0.23-1.364-0.208l-14.207,0.67v-5.388l48.113-2.268l-0.052,0.742v68.195L90.536,84.84z"></path></svg>