<svg fill="#002451" xmlns="http://www.w3.org/2000/svg" xmlns:xlink="http://www.w3.org/1999/xlink" viewBox="0 0 60 34" version="1.1" x="0px" y="0px"><title>025-Special offer label</title><desc>Created with Sketch.</desc><g stroke="none" stroke-width="1" fill="none" fill-rule="evenodd"><g fill="#002451"><path d="M44.2319,11.6404 C44.2139,11.6184 44.2089,11.5914 44.1929,11.5684 C44.1509,11.5084 44.1179,11.4454 44.0889,11.3754 C44.0669,11.3224 44.0479,11.2724 44.0359,11.2174 C44.0299,11.1904 44.0139,11.1694 44.0099,11.1414 L43.1329,5.0004 L35.9999,5.0004 C35.9969,5.0004 35.9949,4.9984 35.9919,4.9984 C35.8719,4.9974 35.7529,4.9714 35.6379,4.9274 C35.5929,4.9094 35.5559,4.8804 35.5139,4.8564 C35.4619,4.8274 35.4059,4.8074 35.3589,4.7674 L29.9999,0.3014 L24.6399,4.7684 C24.5929,4.8074 24.5379,4.8264 24.4869,4.8564 C24.4449,4.8804 24.4079,4.9094 24.3619,4.9274 C24.2449,4.9724 24.1229,5.0004 24.0009,5.0004 L23.9999,5.0004 L23.9999,5.0004 L16.8669,5.0004 L15.9899,11.1414 C15.9859,11.1694 15.9699,11.1904 15.9639,11.2174 C15.9519,11.2724 15.9329,11.3224 15.9109,11.3754 C15.8829,11.4454 15.8489,11.5084 15.8069,11.5684 C15.7909,11.5914 15.7859,11.6184 15.7679,11.6404 L11.3019,17.0004 L15.7679,22.3594 C15.7839,22.3794 15.7889,22.4044 15.8029,22.4254 C15.8429,22.4794 15.8709,22.5384 15.8989,22.6014 C15.9259,22.6634 15.9499,22.7224 15.9649,22.7874 C15.9699,22.8124 15.9859,22.8324 15.9899,22.8584 L16.8669,29.0004 L23.9999,29.0004 C24.0469,29.0004 24.0869,29.0204 24.1329,29.0274 C24.2029,29.0364 24.2699,29.0444 24.3369,29.0684 C24.4049,29.0924 24.4619,29.1304 24.5209,29.1674 C24.5599,29.1924 24.6039,29.2024 24.6399,29.2324 L29.9999,33.6984 L35.3589,29.2324 C35.3959,29.2024 35.4399,29.1924 35.4789,29.1674 C35.5389,29.1304 35.5949,29.0924 35.6619,29.0684 C35.7289,29.0444 35.7959,29.0374 35.8649,29.0274 C35.9109,29.0214 35.9519,29.0004 35.9999,29.0004 L43.1329,29.0004 L44.0099,22.8584 C44.0139,22.8324 44.0299,22.8124 44.0359,22.7874 C44.0499,22.7234 44.0739,22.6644 44.1009,22.6034 C44.1289,22.5384 44.1579,22.4784 44.1979,22.4224 C44.2129,22.4024 44.2169,22.3784 44.2319,22.3594 L48.6979,17.0004 L44.2319,11.6404 Z"></path><path d="M7.9934,17.6537 C7.9434,17.5847 7.9004,17.5177 7.8674,17.4417 C7.8354,17.3707 7.8144,17.3007 7.7984,17.2267 C7.7824,17.1507 7.7724,17.0777 7.7724,17.0007 C7.7724,16.9227 7.7824,16.8497 7.7984,16.7747 C7.8144,16.6997 7.8354,16.6297 7.8674,16.5587 C7.9004,16.4837 7.9434,16.4157 7.9934,16.3467 C8.0204,16.3097 8.0294,16.2667 8.0614,16.2317 L12.8654,11.0007 L0.0004,11.0007 L4.8044,16.2317 C4.8364,16.2667 4.8454,16.3097 4.8724,16.3467 C4.9224,16.4157 4.9654,16.4837 4.9984,16.5587 C5.0304,16.6297 5.0514,16.6997 5.0674,16.7747 C5.0834,16.8497 5.0934,16.9227 5.0934,17.0007 C5.0934,17.0777 5.0834,17.1507 5.0674,17.2267 C5.0514,17.3007 5.0304,17.3707 4.9984,17.4417 C4.9654,17.5177 4.9224,17.5847 4.8724,17.6537 C4.8454,17.6907 4.8364,17.7337 4.8044,17.7687 L0.0004,23.0007 L12.8654,23.0007 L8.0614,17.7687 C8.0294,17.7337 8.0204,17.6907 7.9934,17.6537"></path><path d="M55.128,17.6537 C55.078,17.5847 55.035,17.5177 55.002,17.4417 C54.97,17.3707 54.949,17.3007 54.933,17.2267 C54.917,17.1507 54.907,17.0777 54.907,17.0007 C54.907,16.9227 54.917,16.8497 54.933,16.7747 C54.949,16.6997 54.97,16.6297 55.002,16.5587 C55.035,16.4837 55.078,16.4157 55.128,16.3467 C55.155,16.3097 55.164,16.2667 55.196,16.2317 L60,11.0007 L47.135,11.0007 L51.939,16.2317 C51.971,16.2667 51.98,16.3097 52.007,16.3467 C52.057,16.4157 52.1,16.4837 52.133,16.5587 C52.165,16.6297 52.186,16.6997 52.202,16.7747 C52.218,16.8497 52.228,16.9227 52.228,17.0007 C52.228,17.0777 52.218,17.1507 52.202,17.2267 C52.186,17.3007 52.165,17.3707 52.133,17.4417 C52.1,17.5177 52.057,17.5847 52.007,17.6537 C51.98,17.6907 51.971,17.7337 51.939,17.7687 L47.135,23.0007 L60,23.0007 L55.196,17.7687 C55.164,17.7337 55.155,17.6907 55.128,17.6537"></path></g></g></svg>