<svg fill="#002451" xmlns="http://www.w3.org/2000/svg" xmlns:xlink="http://www.w3.org/1999/xlink" version="1.1" x="0px" y="0px" viewBox="0 0 100 100" style="enable-background:new 0 0 100 100;" xml:space="preserve"><g><path d="M78.1,30.5c-0.4,0-0.8-0.2-1.1-0.1c-2.3,0.7-4.6,1.6-6.9,2.3c-2.3,0.7-4.6,1.2-6.9,1.8c0.1,1,0.7,1.2,1.5,1   c2.9-0.7,5.9-1.5,8.8-2.3c1.4-0.4,2.7-1,4.1-1.6C77.8,31.4,77.9,30.9,78.1,30.5z"></path><path d="M61.2,8.9C60.2,8,59.8,8,59.1,9c-1.8,2.5-3.6,5.1-5.3,7.7c-0.5,0.8-0.8,1.7-1.2,2.5c0.1,0.1,0.3,0.1,0.4,0.2   C56.3,16.3,58.3,12.2,61.2,8.9z"></path><path d="M37.3,23.5c2.3-0.2,4.6-0.3,6.8-0.7c1.5-0.2,2.9-0.7,4.5-1.1c-0.4-1.1-1-1.1-1.7-1c-3.5,0.7-7,1.3-10.6,2   C36.2,23.2,36.7,23.5,37.3,23.5z"></path><path d="M90.2,43.1c-4.4,1.5-8.9,0.7-13.3,1c-0.1,1.1,0.8,1.1,1.5,1.1c3.2,0,6.4-0.1,9.5-0.2c0.6,0,1.2-0.2,1.8-0.4   C90.7,44.2,90.8,43.8,90.2,43.1z"></path><path d="M55,47.7c0.5,0.5,0.8,1,1.1,1c3.3,0.6,6.5,1.2,9.8,1.7c0.4,0.1,0.8-0.1,1.2-0.1C66.6,49.4,57.2,47.3,55,47.7z"></path><path d="M52.3,59.1c-1.4,2.3-2.9,4.5-4.3,6.8c-0.3,0.4-0.4,0.9-0.6,1.4c0.1,0.1,0.2,0.1,0.4,0.2c0.2-0.2,0.6-0.3,0.7-0.6   c1.9-3,3.8-6.1,5.7-9.1c0.1-0.2,0-0.6-0.1-1c-0.3,0.1-0.8,0.2-0.9,0.4C52.8,57.8,52.6,58.5,52.3,59.1z"></path><path d="M13.5,14.8c0.5,0,1,0.2,1.4,0.4c1.7,0.7,3.4,1.5,5.1,2.1c0.4,0.2,1,0.1,1.7,0.2c-0.9-1.5-7.1-4.4-9.2-4.4   C12.2,14.1,12.2,14.8,13.5,14.8z"></path><path d="M21.4,30.4c2.2,1.4,4.5,2.8,6.7,4.2c0.7,0.4,1.5,0.7,2.2,1c0.1-0.2,0.2-0.3,0.3-0.5c-2.9-2.4-6-4.5-9.6-6   C21,29.7,21,30.2,21.4,30.4z"></path><path d="M34.3,58.7c0.8,0.1,1.6,0,2.6,0c-1.1-1.3-10.6-2.8-12.2-2.1c0.4,0.3,0.7,0.7,1.1,0.7C28.6,57.8,31.5,58.3,34.3,58.7z"></path><path d="M87.4,8.4c0.2-0.2,0-0.6,0-1c-0.4,0-0.9-0.1-1,0c-2.1,2.1-4.2,4.3-6.2,6.4c0,0.1,0,0.2,0,0.2c0.6-0.2,1.3-0.3,1.7-0.6   C83.8,11.9,85.6,10.2,87.4,8.4z"></path><path d="M34.3,11.5c1.9,0,3.9,0,5.8,0c0.9,0,1.9-0.1,2.8-0.2c0.1-0.1,0.1-0.3,0.2-0.4c-0.3-0.2-0.7-0.6-1-0.6c-2.9-0.1-5.9,0-8.8,0   C33.2,11.1,33.5,11.5,34.3,11.5z"></path><path d="M68,24.4c2.5-0.4,4.9-0.8,7.4-1.3c0.2,0,0.5-0.1,0.6-0.3c0.3-0.3,0.5-0.7,0.7-1c-0.4,0-0.8-0.1-1.1,0   c-2.9,0.6-5.7,1.2-8.7,1.8C66.8,24.3,67.3,24.5,68,24.4z"></path><path d="M57.3,67.5c-0.2-0.2-0.6-0.1-1-0.2c0.1,0.4,0.1,0.9,0.3,1.1c2.7,2.2,4,5.1,4.8,8.3c0.1,0.2,0.4,0.4,0.6,0.6   c0.2-0.2,0.4-0.4,0.5-0.6C61.6,73.1,60.2,69.8,57.3,67.5z"></path><path d="M50.8,38.7c-0.1-0.3,0-0.6-0.2-0.8c-0.3-0.3-0.7-0.6-1.1-0.7c-1.8-0.8-3.6-1.5-5.4-2.2c-0.6-0.2-1.1-0.4-1.9-0.7   c-0.2,0.1-0.4,0.3-0.6,0.4c0.3,0.3,0.4,0.8,0.8,0.9c2.5,1.1,5.1,2.1,7.6,3.2C50.2,38.8,50.5,38.7,50.8,38.7z"></path><path d="M83.8,59.1c0-0.3,0-0.7-0.1-0.9c-0.1-0.2-0.4-0.4-0.7-0.5c-2.8-1.1-5.8-1.4-8.7-1.6c-0.1,1,0.5,1.1,1.1,1.2   c0.8,0.1,1.6,0.1,2.4,0.3c1.8,0.4,3.5,0.9,5.3,1.4C83.3,58.9,83.5,59,83.8,59.1z"></path><path d="M81,32.1c0,0.2,0.1,0.6,0.3,0.6c0.3,0.1,0.7,0.1,1,0.2c1.9,0.1,3.8,0.3,5.7,0.4c0.3,0,0.6,0,0.9-0.1c0-0.1,0.1-0.2,0.1-0.4   c-0.3-0.2-0.6-0.7-0.9-0.7c-2.2-0.2-4.4-0.4-6.6-0.5C81.3,31.6,81,31.9,81,32.1z"></path><path d="M38.9,69.1c-0.2,0.1-0.5,0.3-0.6,0.5c-1.7,1.7-3.4,3.3-5.1,5c-0.4,0.4-0.6,0.8-0.9,1.2c0.1,0.1,0.2,0.2,0.3,0.3   c0.4-0.2,0.8-0.3,1.1-0.6c1.6-1.5,3.2-3,4.7-4.5c0.4-0.4,0.8-0.8,1.1-1.2c0.1-0.1,0.1-0.4,0-0.6C39.4,69,39.1,69,38.9,69.1z"></path><path d="M38.2,45.8c-1.3,1.4-3.1,5.5-2.8,6.2c0.7-0.3,3.7-4.6,4.3-6.4c-0.1-0.1-0.1-0.3-0.2-0.4C39.1,45.4,38.5,45.5,38.2,45.8z"></path><path d="M27.8,83.3c0.3,1.1,8,3.4,9.4,2.9C36.8,85.5,28.8,83.1,27.8,83.3z"></path><path d="M51.1,31.8c1.9,0.4,3.8,0.7,5.8,1c0.4,0.1,0.8-0.1,1.3-0.2c-0.7-1-5.7-2.1-8-1.6C50.5,31.3,50.8,31.7,51.1,31.8z"></path><path d="M12.7,53.9c-0.5,0.8-1,1.6-1.5,2.4c-0.9,1.3-1.9,2.6-3,4.2c0.5,0,0.7,0.1,0.8,0c1.6-2.1,3.3-4.2,4.9-6.3   c0.1-0.1-0.1-0.5-0.2-0.8C13.3,53.6,12.9,53.6,12.7,53.9z"></path><path d="M13.8,29.1c-0.3,0-0.7,0.1-0.9,0.2c-0.7,0.7-1.2,1.5-1.8,2.2c-0.6,0.7-1.2,1.3-1.7,2.1c-0.2,0.3-0.1,0.8-0.1,1.2   c0.4-0.2,0.8-0.3,1-0.5c1.2-1.3,2.3-2.6,3.5-3.9c0.2-0.2,0.3-0.5,0.6-0.8C14.2,29.4,14,29.2,13.8,29.1z"></path><path d="M65.4,90.3c0.1,0.1,0.2,0.2,0.3,0.3c2.2-1.7,4.4-3.4,6.7-5.2C70.9,84.8,65.5,88.9,65.4,90.3z"></path><path d="M84.7,71.5c-0.3-0.1-0.6-0.3-0.8-0.2c-0.4,0.2-0.8,0.5-1.1,0.8c-1.4,1.5-2.8,3-4.2,4.5c-0.1,0.2-0.1,0.5-0.2,0.7   c0.3,0,0.6,0.1,0.8,0c0.2-0.1,0.4-0.3,0.6-0.5c1.5-1.6,3-3.2,4.4-4.8C84.4,71.9,84.4,71.8,84.7,71.5z"></path><path d="M25.6,26.6c0.8-1.2,1.5-2.5,2.2-3.8c0.2-0.3,0.3-0.5,0.5-0.9c-0.2-0.2-0.4-0.5-0.5-0.5c-0.4,0.1-0.9,0.2-1,0.5   c-0.8,1.4-1.5,2.8-2.2,4.2c-0.2,0.3-0.1,0.8-0.1,1.1C24.9,27.1,25.4,26.9,25.6,26.6z"></path><path d="M19.2,11.5c1.3-1,2.5-2.2,3.8-3.3c0-0.2-0.1-0.3-0.1-0.5c-0.4,0-0.9-0.1-1.2,0.1c-1.1,0.8-2.2,1.8-3.2,2.7   c-0.3,0.2-0.3,0.7-0.5,1C18.4,11.6,19,11.7,19.2,11.5z"></path><path d="M54.8,84.3c-0.4-0.8-6.3-2.4-7.4-2.1C47.7,83.3,53.4,84.9,54.8,84.3z"></path><path d="M10.5,87.9c-0.3,0.3-0.7,0.3-1.1,0.5c0.2,0.2,0.4,0.5,0.6,0.7c0.5-0.2,1-0.3,1.3-0.6c1.4-1.1,2.7-2.3,4-3.4   c0.2-0.2,0.2-0.7,0.3-1.1c-0.4,0.1-0.8,0.2-1.1,0.4C13.1,85.6,11.9,86.8,10.5,87.9z"></path><path d="M72.1,69.9c-0.9,2.3-1.9,4.6-2.9,7.1c1.5-0.6,3.9-6,3.6-7.6C72.6,69.6,72.2,69.7,72.1,69.9z"></path><path d="M82.9,83.3c0.3,1.5,4.5,4.6,6.1,4.4C88.5,86.8,83.5,83.2,82.9,83.3z"></path><path d="M11.6,63.2c-0.1,0.1-0.1,0.2-0.2,0.4c0.3,0.2,0.6,0.7,0.9,0.7c2.1,0.1,4.4,0.9,6.4-0.1c0-0.1,0-0.3,0-0.4   C16.4,63.5,14,63.3,11.6,63.2z"></path><path d="M22.8,75.5c1.6-2.8,3-5.2,4.5-7.8C25.7,68,22.6,73.3,22.8,75.5z"></path><path d="M7.9,22.5c1.4,0.1,2.8,0.1,4.2,0.1c0.2,0,0.5-0.5,0.4-0.6c-0.1-0.3-0.4-0.6-0.7-0.6c-1.4-0.1-2.9,0-4.3,0   c0,0.1-0.1,0.2-0.1,0.4C7.5,22,7.7,22.5,7.9,22.5z"></path><path d="M22.6,49c0.3-0.3,0.6-0.4,0.7-0.7c1-1.5,2-3.1,2.9-4.7c0.1-0.2,0-0.6,0-0.9c-0.3,0.2-0.8,0.2-1,0.5c-1,1.6-2,3.3-3,5   c-0.1,0.1-0.1,0.3-0.1,0.5C22.2,48.8,22.4,48.9,22.6,49z"></path><path d="M23.1,42.9c-1.8-0.9-3.8-0.7-5.7-1.1c-0.1,0.1-0.1,0.2-0.2,0.4c0.3,0.3,0.6,0.7,1,0.8c1.3,0.2,2.7,0.4,4.1,0.5   c0.3,0,0.5-0.1,0.8-0.2C23.1,43.2,23.1,43.1,23.1,42.9z"></path><path d="M64.6,59.7c-0.2,0-0.5,0.1-0.7,0.2c-1,1-2.1,2.1-3.1,3.2c-0.2,0.2-0.2,0.6-0.3,0.8c0.3,0,0.7,0.1,0.8,0   c1.2-1,2.3-2.1,3.4-3.2c0.1-0.1,0.1-0.3,0.2-0.6C64.9,60,64.8,59.7,64.6,59.7z"></path><path d="M58.4,92.9c-1.6-1.4-3.3-1.9-5-3C53.5,91.4,56.7,93.2,58.4,92.9z"></path><path d="M9.6,74.6c-0.5,0-1-0.1-1.4,0.1c-0.7,0.3-1.3,0.8-1.9,1.2c-0.2,0.1-0.3,0.4-0.4,0.6c0.2,0.1,0.6,0.4,0.7,0.3   c1.1-0.5,2.1-1.1,3.1-1.7C9.7,75,9.7,74.8,9.6,74.6z"></path><path d="M23.9,90.4c-0.7,0.8-1.3,1.6-1.9,2.4c-0.1,0.1,0,0.3,0.1,0.5c0.2,0,0.6,0,0.7-0.2c0.7-0.8,1.4-1.7,2.1-2.5   c-0.1-0.1-0.2-0.2-0.2-0.3C24.4,90.3,24,90.2,23.9,90.4z"></path></g></svg>