<svg fill="#00882B" xmlns:dc="http://purl.org/dc/elements/1.1/" xmlns:cc="http://creativecommons.org/ns#" xmlns:rdf="http://www.w3.org/1999/02/22-rdf-syntax-ns#" xmlns:svg="http://www.w3.org/2000/svg" xmlns="http://www.w3.org/2000/svg" xmlns:sodipodi="http://sodipodi.sourceforge.net/DTD/sodipodi-0.dtd" xmlns:inkscape="http://www.inkscape.org/namespaces/inkscape" version="1.1" x="0px" y="0px" viewBox="0 0 100 100"><g transform="translate(0,-952.36218)"><path style="color:#000000;enable-background:accumulate;" d="m 12,966.36217 c -2.216,0 -4,1.6504 -4,3.7188 l 0,48.56243 c 0,2.0683 1.784,3.7188 4,3.7188 l 76,0 c 2.216,0 4,-1.6505 4,-3.7188 l 0,-48.56243 c 0,-2.0683 -1.784,-3.7188 -4,-3.7188 z m 56.03125,14 c 0.73438,0.016 1.46074,0.4597 1.78125,1.125 0.3663,0.7603 0.1472,1.7419 -0.4375,2.3125 l -24,24.00003 c -0.6964,0.6947 -1.9296,0.752 -2.6875,0.125 l -12,-10.00003 c -0.8099,-0.6709 -0.9209,-2.0025 -0.25,-2.8125 0.6709,-0.81 2.0026,-0.9522 2.8125,-0.2812 l 10.59375,8.84373 22.71875,-22.71873 c 0.46885,-0.4479 0.94273,-0.4842 1.46875,-0.5938 z M 42,1024.3622 l 0,8 16,0 0,-8 z m -6,10 c -1.10457,0 -2,0.8954 -2,2 0,1.1046 0.89543,2 2,2 l 28,0 c 1.10457,0 2,-0.8954 2,-2 0,-1.1046 -0.89543,-2 -2,-2 z" fill="#00882B" stroke="none" marker="none" visibility="visible" display="inline" overflow="visible"></path></g></svg>