<svg fill="#FFFFFF" xmlns="http://www.w3.org/2000/svg" xmlns:xlink="http://www.w3.org/1999/xlink" version="1.1" x="0px" y="0px" viewBox="0 0 128 128" enable-background="new 0 0 128 128" xml:space="preserve"><g><path fill="#FFFFFF" d="M126.7,95.2c-0.6-1-1.9-1.4-3-0.9c-8.2,3.5-14.4,1.4-16.2,0.6c-0.2-3.8-2.1-7.4-5.4-9.7   c-5.2-3.5-12-2.8-16.3,1.4L40.3,55.3l4.6-6.6c0.7-1,0.5-2.5-0.6-3.2l0,0c-1.1-0.7-2.5-0.5-3.2,0.6l-4.6,6.6l-2-1.4l4.6-6.5   c0.7-1,0.5-2.5-0.6-3.2l0,0c-1.1-0.7-2.5-0.5-3.2,0.6l-4.6,6.5l-2-1.4l4.6-6.5c0.7-1,0.5-2.5-0.6-3.2h0c-1.1-0.7-2.5-0.5-3.2,0.6   l-4.6,6.5l-2-1.4l4.5-6.5c0.7-1,0.5-2.5-0.6-3.2l0,0c-1.1-0.7-2.5-0.5-3.2,0.6l-4.5,6.5l-2-1.4l4.5-6.4c0.7-1,0.5-2.5-0.6-3.2l0,0   c-1.1-0.7-2.5-0.5-3.2,0.6l-4.5,6.4l-2-1.4l4.5-6.4c0.7-1,0.5-2.5-0.6-3.2l0,0c-1.1-0.7-2.5-0.5-3.2,0.6l-4.5,6.4l-2-1.4l4.5-6.4   c0.7-1,0.5-2.5-0.6-3.2l0,0c-1.1-0.7-2.5-0.5-3.2,0.6l-4.5,6.4l0,0l0,0c-0.6,0.8-0.4,1.9,0.3,2.5L55,77.3c0.8,0.7,1.9,1.1,3,1.2   l9.7,0.1l15.5,11.2c-2.9,5.6-1.2,12.6,4.2,16.2c4.8,3.2,11.3,2.7,15.6-1c1.8-1.5,2.9-3.4,3.6-5.3c3.3,1.2,10.3,2.6,18.9-1.1   c0.1,0,0.1-0.1,0.2-0.1C126.9,97.8,127.4,96.3,126.7,95.2z M57.7,75.9c-1.4,0-2.6-1.1-2.6-2.6c0-1.4,1.2-2.5,2.6-2.5   c1.4,0,2.6,1.1,2.6,2.6C60.3,74.8,59.1,75.9,57.7,75.9z M102,100.5c-2.8,4-8.4,5-12.5,2.2c-4.1-2.8-5.1-8.3-2.2-12.3   c2.8-4,8.4-5,12.5-2.2C103.8,91,104.8,96.5,102,100.5z"></path><path fill="#FFFFFF" d="M60.9,101.9l-1.3-18.3l-1.6,0c-0.7,0-1.4-0.1-2.1-0.2l0.9,18.9c-5.9,1.3-10.2,6.7-9.9,12.9   c0.3,6.9,6.4,12.3,13.4,12c7.1-0.3,12.5-6.3,12.2-13.2C72.2,107.4,67.2,102.4,60.9,101.9z M60.2,123.2c-5,0.2-9.2-3.5-9.4-8.4   c-0.2-4.9,3.6-9,8.5-9.3c5-0.2,9.2,3.5,9.4,8.4C69,118.8,65.2,123,60.2,123.2z"></path><path fill="#FFFFFF" d="M64.2,65.5L53.7,1.8C53.6,1.3,53.2,1,52.7,1l0,0c-0.5,0-0.9,0.4-0.9,0.9L54.7,59L64.2,65.5z"></path></g></svg>