<?xml version="1.0" encoding="UTF-8" standalone="no"?>
<!-- Created with Inkscape (http://www.inkscape.org/) -->

<svg
   xmlns:dc="http://purl.org/dc/elements/1.1/"
   xmlns:cc="http://creativecommons.org/ns#"
   xmlns:rdf="http://www.w3.org/1999/02/22-rdf-syntax-ns#"
   xmlns:svg="http://www.w3.org/2000/svg"
   xmlns="http://www.w3.org/2000/svg"
   xmlns:sodipodi="http://sodipodi.sourceforge.net/DTD/sodipodi-0.dtd"
   xmlns:inkscape="http://www.inkscape.org/namespaces/inkscape"
   width="400px"
   height="256px"
   viewBox="0 0 400 256"
   version="1.1"
   id="SVGRoot"
   inkscape:export-filename="/home/dpk/set-gro.png"
   inkscape:export-xdpi="96"
   inkscape:export-ydpi="96"
   inkscape:version="0.92.1 15371"
   sodipodi:docname="sample.svg">
  <sodipodi:namedview
     id="base"
     pagecolor="#ffffff"
     bordercolor="#666666"
     borderopacity="1.0"
     inkscape:pageopacity="0.0"
     inkscape:pageshadow="2"
     inkscape:zoom="2.0898438"
     inkscape:cx="200"
     inkscape:cy="128"
     inkscape:document-units="px"
     inkscape:current-layer="layer1"
     showgrid="false"
     inkscape:window-width="1366"
     inkscape:window-height="709"
     inkscape:window-x="0"
     inkscape:window-y="35"
     inkscape:window-maximized="1" />
  <defs
     id="defs69717">
    <style
       id="style1776"
       type="text/css">
   
    .fil1 {fill:none}
    .fil0 {fill:#002451;fill-rule:nonzero}
   
  </style>
    <style
       id="style1720">

      .cls-3 {
        fill: #000000;
      }
    </style>
    <style
       id="style1736">

      .cls-3 {
        fill: #000000;
      }
    </style>
    <style
       id="style1752">

      .cls-3 {
        fill: #000000;
      }
    </style>
    <style
       id="style1768">

      .cls-3 {
        fill: #53ecf4;
      }

      .cls-4 {
        fill: #000000;
      }
    </style>
    <style
       id="style2481">.cls-1{opacity:0.2;}</style>
    <style
       id="style2661"
       type="text/css">
   
    .fil0 {fill:#002451}
   
  </style>
  </defs>
  <metadata
     id="metadata69720">
    <rdf:RDF>
      <cc:Work
         rdf:about="">
        <dc:format>image/svg+xml</dc:format>
        <dc:type
           rdf:resource="http://purl.org/dc/dcmitype/StillImage" />
        <dc:title />
      </cc:Work>
    </rdf:RDF>
  </metadata>
  <g
     id="layer1"
     inkscape:groupmode="layer"
     inkscape:label="Layer 1">
    <g
       style="fill:#002451"
       id="g116"
       transform="matrix(1.0696984,0,0,1.1366802,94.32291,27.33363)">
      <g
         id="g104"
         transform="translate(0,-1020.3622)">
        <path
           id="path102"
           transform="translate(0,1020.3622)"
           d="m 17.701172,0 -0.0293,0.46484375 C 17.657305,0.68654375 17.547216,0.85 17.333984,1 17.120753,1.15 16.807261,1.2510312 16.527344,1.2695312 h -2.634766 c -1.752511,0 -3.175781,1.4339594 -3.175781,3.1933594 V 6.859375 c 0,0.067 0.002,0.084344 0.002,0.027344 -6e-5,-0.034 -0.002,-0.03875 -0.002,0.03125 v 1.046875 a 0.50004997,0.50004997 0 0 0 0,0.074219 v 2.111329 c 0,1.320226 0.49313,2.513703 1.28125,3.447265 V 14.41797 L 8.984375,11.404297 C 9.4564416,9.9373969 9.1798646,8.3207438 8.0742188,7.2148438 7.2670284,6.4076438 6.2043347,6.0039062 5.1425781,6.0039062 v -0.00195 c -1.0617565,0 -2.1224972,0.4037375 -2.9296875,1.2109375 -1.61438057,1.6144 -1.61438057,4.2470283 0,5.8613283 1.1059763,1.1035 2.7220462,1.379903 4.1875,0.908203 l 3.5039063,3.503906 -3.5664063,2.035156 c -1.4453762,0.8217 -2.3398437,2.353519 -2.3398437,4.011719 v 8.46875 h 10.5722651 8.927735 4.5 v -8.46875 c 0,-1.6577 -0.893249,-3.189819 -2.337891,-4.011719 h -0.002 l -3.574219,-2.041015 3.546875,-3.548828 c 1.456845,0.4679 3.063957,0.19165 4.16211,-0.90625 1.093389,-1.0937 1.482823,-2.710541 1.005859,-4.1816409 A 0.50005,0.50005 0 0 0 29.96875,8.6445312 L 27.626953,10.986328 26.169922,10.824219 26.009766,9.3671875 28.347656,7.0292969 A 0.50005,0.50005 0 0 0 28.148438,6.1992188 C 27.413661,5.9610187 26.642217,5.9396812 25.917969,6.1132812 v 0.00195 c -0.724248,0.1736 -1.402382,0.5422906 -1.949219,1.0878906 -1.095672,1.0983 -1.36979,2.7028031 -0.902344,4.1582032 l -3.068359,3.06836 v -0.744141 c 0.8321,-0.944768 1.353516,-2.173851 1.353515,-3.535156 V 6.9179688 c 0,-0.055 -0.0015,-0.049391 -0.002,-0.025391 3.27e-4,0.02 0.002,0.032656 0.002,-0.027344 V 3.3222656 l -0.0059,-0.03125 C 21.228199,2.3932156 20.952816,1.5831094 20.427734,0.97460938 19.902653,0.36620938 19.11565,-6.9375e-4 18.167969,0.00390625 V 0 Z m 0.648437,1.0742188 c 0.570144,0.044 1.01451,0.1944281 1.320313,0.5488281 0.345095,0.3998 0.57982,1.0181031 0.68164,1.7832031 v 3.4550781 c 2e-6,-0.052 -0.0013,-0.039516 -0.002,0.021484 0,0.077 0.002,0.07525 0.002,0.03125 V 7.2011719 C 20.068045,7.0420088 19.765013,6.9313771 19.457031,6.875 18.759421,6.7474 18.034224,6.8030313 17.335938,6.8320312 16.63765,6.8610312 15.97024,6.8650437 15.421875,6.7148438 14.87351,6.5641438 14.440481,6.2943219 14.078125,5.6699219 A 0.50004997,0.50004997 0 0 0 13.617188,5.421875 0.50004997,0.50004997 0 0 0 13.162109,5.7910156 c 0.01258,-0.047 -0.08477,0.1584688 -0.251953,0.3554688 -0.167179,0.197 -0.396031,0.4288781 -0.636718,0.6425781 -0.189604,0.168343 -0.377682,0.3047872 -0.556641,0.4296875 V 6.9140625 c 0,0.055 0.0016,0.036656 0.002,-0.027344 0,-0.077 -0.002,-0.071344 -0.002,-0.027344 V 4.4628906 c 0,-1.2266 0.963912,-2.1933594 2.175781,-2.1933594 h 2.685547 0.01563 c 0.454363,-0.03 0.921393,-0.1733718 1.316406,-0.4511718 0.228211,-0.1605841 0.299742,-0.4807401 0.439453,-0.7441406 z m -4.640625,5.6582031 c 0.430178,0.4559 0.916907,0.7990125 1.449219,0.9453125 0.742369,0.2039 1.506457,0.1838969 2.220703,0.1542968 0.714247,-0.03 1.382103,-0.066656 1.898438,0.027344 0.483789,0.088075 0.810963,0.2553374 1.074218,0.6601562 v 1.6269526 c 0,2.4211 -1.918932,4.351563 -4.316406,4.351563 -2.397462,0 -4.318359,-1.930463 -4.318359,-4.351563 V 8.3964844 c 0.130929,-0.059567 0.253479,-0.1357866 0.384765,-0.21875 0.277092,-0.1752 0.563534,-0.398725 0.835938,-0.640625 0.272404,-0.2418 0.527413,-0.5002407 0.734375,-0.7441406 0.01686,-0.02 0.02082,-0.041547 0.03711,-0.060547 z M 5.1445312,6.9960938 c 0.8037616,0 1.6065466,0.3096812 2.2226563,0.9257812 0.916995,0.9172 1.1770636,2.298628 0.65625,3.486328 a 0.50005,0.50005 0 0 0 0.1035156,0.552735 l 3.8710939,3.871093 v 0.458985 l -0.839844,0.478515 a 0.50005,0.50005 0 0 0 -0.183594,0.103516 L 10.804688,16.970703 6.9570312,13.125 A 0.50005,0.50005 0 0 0 6.4023438,13.019531 c -1.185732,0.5199 -2.5651821,0.261256 -3.4824219,-0.652343 h -0.00195 C 1.6877074,11.134787 1.6883585,9.153475 2.9199219,7.921875 3.5360316,7.305775 4.3407697,6.9960938 5.1445312,6.9960938 Z m 21.7070308,0.1152343 -1.71875,1.71875 a 0.50005,0.50005 0 0 0 -0.144531,0.4101563 l 0.232422,2.0917966 a 0.50005,0.50005 0 0 0 0.441406,0.441407 l 2.09375,0.232421 a 0.50005,0.50005 0 0 0 0.408203,-0.142578 l 1.720704,-1.720703 c -0.0083,0.8026 -0.21238,1.589281 -0.798828,2.175781 -0.909367,0.9092 -2.279336,1.166791 -3.457032,0.650391 a 0.50005,0.50005 0 0 0 -0.554687,0.105469 l -3.890625,3.892578 -1.185547,-0.675781 V 15.84375 l 3.925781,-3.925781 a 0.50005,0.50005 0 0 0 0.105469,-0.554688 c -0.515664,-1.1761 -0.259892,-2.5435248 0.646484,-3.4531248 0.586767,-0.5853999 1.373618,-0.7910281 2.175781,-0.7988281 z M 5.6972656,7.6484375 A 0.49432006,0.50584653 44.997016 0 0 5.5742188,7.6660156 L 3.5800781,8.2226562 A 0.49432006,0.50584653 44.997016 0 0 3.2226562,8.5800781 L 2.6679688,10.574219 a 0.49432006,0.50584653 44.997016 0 0 0.1230468,0.480469 l 1.4375,1.439453 a 0.49432006,0.50584653 44.997016 0 0 0.4824219,0.123047 l 1.9941406,-0.556641 a 0.49432006,0.50584653 44.997016 0 0 0.3125,-0.242188 0.49432006,0.50584653 44.997016 0 0 0.046875,-0.115234 L 7.6171875,9.7089844 A 0.49432006,0.50584653 44.997016 0 0 7.4941406,9.2285156 l -1.4375,-1.4394531 A 0.49432006,0.50584653 44.997016 0 0 5.6972656,7.6484375 Z M 5.5449219,8.7070312 6.578125,9.7421875 6.1796875,11.175781 4.7421875,11.576172 3.7070312,10.541016 4.1074219,9.1074219 Z m 7.4531251,5.8281248 c 0.861771,0.605646 1.905889,0.966797 3.037109,0.966797 1.097802,0 2.116304,-0.334893 2.962891,-0.908203 v 0.908203 c -2e-6,0.3158 -0.235184,0.672869 -0.773438,0.980469 -0.538253,0.3075 -1.33727,0.519531 -2.226562,0.519531 -0.889292,0 -1.688309,-0.212031 -2.226563,-0.519531 -0.538253,-0.3076 -0.773435,-0.664669 -0.773437,-0.980469 z M 12.773438,17 c 0.152529,0.129322 0.321901,0.246743 0.501953,0.349609 0.728497,0.4163 1.678957,0.652344 2.722656,0.652344 1.043699,0 1.994159,-0.236044 2.722656,-0.652344 C 18.900755,17.246743 19.070127,17.129322 19.222656,17 l 0.81836,0.466797 -1.634766,6.535156 h -4.890625 l -1.625,-6.498047 z m 8.169921,0.982422 1.722657,0.982422 -1.728516,6.916015 a 0.50005,0.50005 0 0 0 -0.002,0.01367 c -0.141599,0.6436 -0.556461,1.107422 -1.111328,1.107422 -0.574974,0 -0.969997,-0.353194 -0.902344,-0.933594 z M 10.988281,18.019531 13,26.068359 c 0.06765,0.5804 -0.32737,0.933594 -0.902344,0.933594 -0.554867,0 -0.969729,-0.463822 -1.111328,-1.107422 a 0.50005,0.50005 0 0 0 -0.002,-0.01563 l -1.71875,-6.876953 z m 12.582031,1.460938 1.59375,0.910156 c 1.135724,0.6456 1.833985,1.843478 1.833985,3.142578 v 7.46875 h -3 v -6.5 a 0.50005,0.50005 0 0 0 -0.5,-0.5 h -1.058594 z m -15.2089839,0.03711 1.1210938,4.484375 h -0.984375 a 0.50005,0.50005 0 0 0 -0.5,0.5 v 6.5 h -3 v -7.46875 c 0,-1.2991 0.6982605,-2.496978 1.8339843,-3.142578 h 0.00195 z M 11.898438,25 a 0.5,0.5 0 0 0 -0.5,0.5 0.5,0.5 0 0 0 0.5,0.5 0.5,0.5 0 0 0 0.5,-0.5 0.5,0.5 0 0 0 -0.5,-0.5 z m 8.125,0 a 0.5,0.5 0 0 0 -0.5,0.5 0.5,0.5 0 0 0 0.5,0.5 0.5,0.5 0 0 0 0.5,-0.5 0.5,0.5 0 0 0 -0.5,-0.5 z M 8.9980469,25.002 h 0.734375 l 0.2773441,1.107422 C 10.225776,27.088275 10.99116,28 12.097656,28 c 1.08455,0 2.038093,-0.9116 1.896485,-2.0625 a 0.50005,0.50005 0 0 0 -0.0098,-0.06055 l -0.21875,-0.875 h 4.390625 l -0.21875,0.878906 a 0.50005,0.50005 0 0 0 -0.0098,0.05859 c -0.141608,1.1509 0.811935,2.0625 1.896485,2.0625 1.106496,0 1.87188,-0.911725 2.08789,-1.890625 l 0.277344,-1.109375 h 0.808594 v 6 H 14.570312 8.9980469 Z"
           style="color:#000000;font-style:normal;font-variant:normal;font-weight:normal;font-stretch:normal;font-size:medium;line-height:normal;font-family:sans-serif;text-indent:0;text-align:start;text-decoration:none;text-decoration-line:none;text-decoration-style:solid;text-decoration-color:#000000;letter-spacing:normal;word-spacing:normal;text-transform:none;writing-mode:lr-tb;direction:ltr;baseline-shift:baseline;text-anchor:start;white-space:normal;clip-rule:nonzero;display:inline;overflow:visible;visibility:visible;opacity:1;isolation:auto;mix-blend-mode:normal;color-interpolation:sRGB;color-interpolation-filters:linearRGB;solid-color:#000000;solid-opacity:1;fill:#002451;fill-opacity:1;fill-rule:nonzero;stroke:none;stroke-width:1;stroke-linecap:round;stroke-linejoin:round;stroke-miterlimit:4;stroke-dasharray:none;stroke-dashoffset:2;stroke-opacity:1;color-rendering:auto;image-rendering:auto;shape-rendering:auto;text-rendering:auto;enable-background:accumulate"
           inkscape:connector-curvature="0" />
      </g>
    </g>
    <g
       style="fill:#002451"
       id="g162"
       transform="matrix(0.49104599,0,0,0.50731325,296.4995,120.72013)">
      <g
         id="g140">
        <path
           id="path118"
           d="m 44.202,209.263 c 0,0.355 0.301,0.682 0.847,0.983 -0.299,-0.333 -0.576,-0.687 -0.842,-1.05 0,0.022 -0.005,0.044 -0.005,0.067 z"
           inkscape:connector-curvature="0" />
        <path
           id="path120"
           d="m 76.692,206.962 c -0.906,-1.935 -1.322,-4.009 -1.27,-6.084 -0.431,-0.027 -0.865,-0.051 -1.304,-0.072 v -41.152 h 11.713 c 0.158,-1.741 0.208,-3.142 0.201,-4.232 0.002,-4.167 -0.682,-6.324 -1.11,-7.268 H 59.224 c -10e-4,0.003 -0.003,0.005 -0.004,0.008 -0.411,0.887 -1.111,3.028 -1.108,7.247 -0.007,1.094 0.044,2.5 0.202,4.246 h 8.305 v 33.285 c 0.415,1.186 0.845,2.397 1.3,3.646 0.491,1.354 0.752,2.751 0.803,4.15 0.013,0.362 0.021,0.724 0.005,1.084 -0.079,1.757 -0.504,3.5 -1.273,5.141 -1.11,2.372 -2.848,4.321 -5.009,5.69 6.219,0.24 13.092,0.189 19.031,-0.152 -2.055,-1.359 -3.712,-3.249 -4.784,-5.537 z"
           inkscape:connector-curvature="0" />
        <path
           id="path122"
           d="m 96.582,91.477 c 5.845,5.229 13.78,10.532 23.953,13.775 V 88.158 c -6.492,-2.863 -11.54,-6.779 -15.327,-10.527 -2.867,-2.844 -4.962,-5.565 -6.304,-7.516 -0.67,-0.977 -1.152,-1.759 -1.45,-2.264 -0.15,-0.254 -0.253,-0.438 -0.309,-0.542 -0.02,-0.036 -0.033,-0.063 -0.043,-0.08 -1.535,-2.992 -4.695,-4.601 -7.852,-4.312 -0.133,-0.007 -0.263,-0.02 -0.396,-0.02 H 50.218 c -0.657,0 -1.292,0.091 -1.901,0.246 -0.382,-0.056 -0.77,-0.095 -1.167,-0.095 -6.842,0.047 -12.554,3.361 -16.604,7.714 -4.036,4.404 -6.78,10.141 -6.829,16.644 -0.005,3.062 0.682,6.285 2.225,9.264 2.299,4.501 6.458,8.161 11.726,10.44 1.51,0.658 3.123,1.211 4.824,1.683 v 0.041 c 1.061,0.278 2.184,0.527 3.362,0.745 2.211,0.408 4.601,0.708 7.093,0.876 0.126,0.008 0.252,0.017 0.38,0.024 0.52,0.032 1.044,0.058 1.57,0.078 0.789,0.031 1.584,0.052 2.385,0.057 0.013,0 0.024,0 0.037,0 3.159,0 5.886,-1.838 7.186,-4.502 h -10e-4 c 0.512,-1.047 0.809,-2.218 0.814,-3.461 0,-0.083 -0.009,-0.163 -0.012,-0.245 -0.084,-3.197 -2.037,-5.926 -4.815,-7.129 -0.021,-0.01 -0.041,-0.023 -0.063,-0.032 -0.946,-0.4 -1.985,-0.625 -3.077,-0.629 -0.234,-0.001 -0.457,-0.007 -0.686,-0.01 -0.113,-0.002 -0.227,-0.003 -0.339,-0.005 -7.022,-0.149 -11.558,-1.672 -13.835,-3.007 v 0.039 c -0.175,-0.109 -0.339,-0.217 -0.486,-0.324 -1.065,-0.759 -1.543,-1.401 -1.847,-1.975 -0.294,-0.581 -0.436,-1.159 -0.44,-1.925 -0.049,-1.575 0.9,-4.017 2.568,-5.774 0.066,-0.073 0.137,-0.134 0.205,-0.204 v 7.724 c 0.209,0.174 0.476,0.384 0.675,0.526 0.881,0.642 4.193,2.582 12.111,2.889 l -3.416,-5.015 2.271,-1.548 4.577,6.719 c 4.873,0.691 8.627,4.885 8.608,9.936 -0.004,0.787 -0.108,1.549 -0.285,2.283 l 2.635,3.868 1.122,4.163 -3.395,-2.615 -1.64,-2.407 c -1.777,2.797 -4.895,4.665 -8.438,4.665 h -0.005 l -0.042,-0.002 c -5.363,-0.028 -10.556,-0.662 -14.779,-1.716 v 2.699 h 54.092 z"
           inkscape:connector-curvature="0" />
        <path
           id="path124"
           d="m 86.441,146.746 c 0.021,0.035 0.041,0.064 0.063,0.101 0.182,0.329 0.376,0.766 0.563,1.308 0.509,1.467 0.967,3.768 0.966,7.255 0.008,1.266 -0.061,2.691 -0.195,4.245 -0.716,8.281 -3.556,20.662 -9.732,37.615 -0.451,1.244 -0.663,2.513 -0.682,3.766 -0.073,4.796 2.854,9.326 7.616,11.052 0.137,0.05 0.275,0.085 0.413,0.129 1.17,0.376 2.358,0.566 3.529,0.566 4.732,0 9.172,-2.923 10.877,-7.628 v -0.002 c 7.776,-21.558 11.263,-37.168 11.312,-49.742 -0.004,-5.868 -0.811,-11.169 -2.644,-15.922 H 96.559 42.514 35.634 c -1.834,4.744 -2.658,10.062 -2.66,15.922 0.049,12.571 3.539,28.183 11.315,49.744 0.234,0.647 0.53,1.253 0.861,1.83 1.175,2.042 2.912,3.625 4.942,4.616 2.394,1.168 5.185,1.519 7.914,0.824 0.368,-0.093 0.735,-0.204 1.1,-0.336 4.503,-1.631 7.374,-5.767 7.613,-10.266 0.019,-0.338 0.017,-0.678 0.005,-1.019 -0.015,-0.404 -0.048,-0.809 -0.105,-1.215 -0.111,-0.775 -0.301,-1.552 -0.578,-2.318 -6.177,-16.955 -9.017,-29.334 -9.733,-37.615 -0.135,-1.553 -0.203,-2.978 -0.195,-4.245 -0.003,-3.482 0.458,-5.795 0.965,-7.255 0.11,-0.316 0.221,-0.606 0.331,-0.844 0.103,-0.217 0.199,-0.395 0.295,-0.565 h 2.621 23.492 2.624 z"
           inkscape:connector-curvature="0" />
        <path
           id="path126"
           d="m 43.688,44.751 h 3.991 C 45.076,39.626 44.36,33.806 45.68,28.141 46.516,24.554 48.105,21.321 50.246,18.577 51.9,9.852 59.887,4.921 69.537,4.905 c 9.661,0.017 17.658,4.967 19.291,13.722 4.395,5.638 6.309,13.137 4.564,20.626 -0.453,1.945 -1.138,3.781 -1.999,5.498 h 1.772 c -0.051,1.903 -0.579,4.901 -3.245,7.529 -2.381,2.348 -6.688,4.582 -14.487,5.2 -1.361,0.108 -2.816,0.172 -4.399,0.173 -0.526,0 -1.001,0.207 -1.358,0.539 -0.393,0.366 -0.643,0.883 -0.643,1.462 0,1.104 0.896,2 2.001,2 0.013,0 0.025,0 0.038,0 11.238,0 17.865,-2.791 21.656,-6.525 3.795,-3.741 4.457,-8.157 4.447,-10.659 0,-0.074 -0.002,-0.141 -0.003,-0.212 1.067,-0.619 1.792,-1.76 1.792,-3.084 V 30.445 c 0,-1.977 -1.6,-3.577 -3.578,-3.577 H 94.057 V 21.962 C 94.058,8.419 83.076,0 69.537,0 55.989,0 45.014,8.419 45.014,21.962 v 4.906 h -1.326 c -1.978,0 -3.577,1.6 -3.577,3.577 v 10.729 c -10e-4,1.979 1.599,3.577 3.577,3.577 z"
           inkscape:connector-curvature="0" />
        <path
           id="path128"
           d="M 89.129,44.751 C 90.155,42.93 90.948,40.938 91.446,38.799 92.771,33.104 91.805,27.411 89.15,22.686 86.165,17.372 81.043,13.28 74.639,11.79 64.656,9.465 54.682,14.185 49.913,22.702 c -1.011,1.806 -1.793,3.778 -2.286,5.895 -1.33,5.712 -0.354,11.421 2.319,16.155 2.988,5.294 8.1,9.369 14.488,10.856 9.963,2.319 19.914,-2.375 24.695,-10.857 z"
           inkscape:connector-curvature="0" />
        <path
           id="path130"
           d="m 4,137.488 h 7.795 c -1.271,19.505 -3.459,55.809 -3.466,74.667 h 13.999 c -0.004,-12.661 1.073,-34.495 2.155,-53.01 0.479,-8.208 0.957,-15.771 1.342,-21.657 h 8.461 2.193 6.011 54.092 11.099 2.181 45.348 c 0.385,5.886 0.862,13.449 1.342,21.658 1.081,18.514 2.157,40.349 2.155,53.008 h 14 c -0.007,-18.857 -2.197,-55.162 -3.468,-74.666 h 7.797 c 2.209,0 4,-1.791 4,-4 v -13.894 c 0,-2.209 -1.791,-4 -4,-4 H 96.582 42.49 4 c -2.209,0 -4,1.791 -4,4 v 13.894 c 0,2.209 1.791,4 4,4 z"
           inkscape:connector-curvature="0" />
        <polygon
           id="polygon132"
           points="122.369,102.739 122.369,105.792 122.369,113.405 169.702,113.405 169.702,102.739 137.839,102.739 " />
        <polygon
           id="polygon134"
           points="169.702,89.739 124.609,89.739 122.369,89.739 122.369,100.405 138.472,100.405 169.702,100.405 " />
        <rect
           id="rect136"
           height="10.667"
           width="47.333"
           y="76.738998"
           x="122.369" />
        <rect
           id="rect138"
           height="10.667"
           width="47.333"
           y="63.738998"
           x="122.369" />
      </g>
    </g>
    <g
       style="fill:#002451"
       id="g178"
       transform="matrix(0.23727174,0,0,0.32762736,149.41975,152.55836)">
      <g
         id="g166"
         transform="translate(-164.02939,-410.89407)">
        <path
           id="path164"
           d="m 362.53881,410.91107 c -20.92,0 -40.395,12.179 -49.841,31.069 -6.047,12.055 -16.181,21.403 -28.236,26.457 -0.704,-0.539 -1.433,-1.068 -2.428,-2.023 -1.076,-0.952 -1.287,-1.542 -1.535,-3.158 -0.292,-2.071 -0.777,-5.07 -4.048,-7.928 -3.022,-2.735 -5.818,-3.03 -7.847,-3.318 -1.492,-0.109 -2.155,-0.07 -3.398,-1.214 -1.368,-1.244 -1.645,-1.867 -2.184,-3.234 -0.54,-1.783 -1.426,-4.106 -4.451,-6.716 -2.319,-2.071 -3.811,-2.895 -5.178,-3.724 -1.075,-0.664 -2.136,-1.338 -4.043,-2.993 -2.858,-2.611 -6.221,-5.535 -10.033,-7.606 -2.735,-1.659 -5.723,-1.736 -8.333,-1.86 -1.491,0 -3.048,-0.11 -4.126,-0.415 -3.146,-0.828 -6.045,-0.97 -8.739,-0.97 -1.075,0 -2.037,-0.182 -3.156,-0.182 -2.196,-0.109 -3.165,-0.821 -4.532,-2.02 -1.906,-1.532 -4.337,-3.395 -9.142,-3.643 -2.196,-0.415 -4.245,1.488 -4.369,3.643 -0.107,2.154 1.689,4.164 3.881,4.288 2.319,0.109 3.122,0.904 4.612,2.02 1.782,1.491 4.337,3.554 9.143,3.802 1.075,0 2.242,0.183 3.317,0.183 2.611,0 4.682,0.02 6.878,0.729 2.031,0.539 4.043,0.645 5.825,0.645 1.907,0.109 3.691,0.255 4.935,0.81 3.023,1.655 5.761,4.148 8.496,6.634 2.486,2.071 3.852,3.055 5.178,3.881 1.075,0.704 2.22,1.338 4.125,2.997 1.368,1.2 1.646,1.867 2.185,3.234 0.58,1.783 1.513,4.105 4.369,6.716 3.15,2.734 5.939,2.989 8.01,3.157 1.491,0.109 2.155,0.292 3.398,1.374 0.952,0.828 1.087,1.499 1.374,3.158 0.292,1.659 0.799,4.271 2.994,6.715 -4.101,0.952 -8.473,1.619 -12.864,1.619 h -17.639 c -6.586,0 -12.888,0.901 -18.77,2.268 0,0 -0.373,-0.04 -1.054,0.07 -4.806,0.539 -26.419,3.004 -19.419,7.767 h 0.07 c 3.563,2.319 2.889,3.811 0.569,5.178 -2.859,1.659 -8.416,2.764 -10.032,3.882 -3.022,2.194 33.832,-0.937 29.855,6.149 -2.858,4.639 -4.807,15.463 -10.275,20.227 -2.611,2.195 -6.044,3.033 -10.518,1.374 -14.541,-5.053 -35.191,-12.59 -33.658,-3.558 0.107,1.243 0.704,2.483 1.783,3.558 0.703,0.952 1.513,1.761 2.505,2.589 0.951,0.828 1.88,1.48 2.833,2.184 -0.828,2.195 -2.316,5.151 -5.341,8.01 -5.757,5.592 -8.478,15.038 6.312,17.233 14.664,2.195 -3.753,11.314 -11.004,17.072 -7.25,5.882 -8.151,11.397 8.253,13.593 9.03,1.243 19.042,2.169 26.457,2.833 2.194,0.539 5.85,0.809 9.952,0.809 h 0.254 c 8.202,-0.109 17.396,-1.783 17.396,-5.097 0,-0.256 -0.03,-0.518 -0.183,-0.81 -2.858,-7.125 3.915,-35.37 12.945,-34.79 h 0.256 c 8.865,0.416 25.318,-14.847 34.224,-18.286 h 0.569 l 0.07,-0.182 c 9.031,-2.734 30.887,-1.115 36.894,10.276 0,0.109 0.07,0.182 0.07,0.328 5.882,10.936 10.659,19.081 18.447,24.839 l 0.182,0.182 c 7.788,5.592 9.223,17.638 9.223,17.638 h 83.498 l -5.178,-10.276 c -2.611,-5.178 -2.996,-11.074 -1.214,-16.666 1.699,-5.51 5.502,-10.093 10.679,-12.703 l 137.869,-69.986 c -5.758,-3.314 -10.34,-8.667 -12.784,-15.13 -9.694,-25.476 -34.351,-42.719 -61.733,-42.719 h -132.609 z m -0.81,12.217 h 120.068 c 15.866,0 30.65,7.401 38.189,19.581 l 13.835,22.168 h -221.041 l 15.21,-24.515 c 6.71,-10.688 19.53,-17.234 33.739,-17.234 z m 274.684,29.694 c -1.961,-0.638 -4.161,-0.532 -6.149,0.485 l -192.238,97.737 c -3.978,2.031 -5.59,6.865 -3.559,10.842 l 51.377,100.974 c 2.031,3.976 6.865,5.59 10.841,3.558 l 192.239,-97.657 c 3.977,-1.986 5.59,-6.904 3.558,-10.922 l -51.377,-100.974 c -1.014,-1.987 -2.73,-3.409 -4.692,-4.047 z m -33.496,32.525 c 9.859,12.345 26.262,17.696 41.507,13.512 l 16.019,31.554 c -12.428,9.901 -17.777,26.301 -13.592,41.587 l -122.658,62.38 c -9.901,-12.386 -26.342,-17.816 -41.586,-13.673 l -16.021,-31.473 c 12.345,-9.86 17.736,-26.262 13.593,-41.507 z m -42.315,33.658 c -5.308,0.372 -10.653,1.732 -15.696,4.288 -20.174,10.232 -28.194,34.925 -17.962,55.099 10.274,20.174 34.925,28.275 55.098,18.043 20.175,-10.274 28.194,-34.925 17.963,-55.099 -7.706,-15.131 -23.478,-23.442 -39.403,-22.331 z m -7.687,14.159 2.833,5.583 c 4.309,-2.031 7.703,-2.465 10.437,-2.589 l 1.783,8.253 c -1.987,0.04 -5.798,0.03 -10.438,2.428 -4.183,2.111 -4.551,4.691 -3.641,6.472 1.035,2.071 4.055,2.323 10.599,1.539 9.03,-1.159 13.766,0.875 16.748,6.715 2.898,5.634 1.37,12.464 -5.421,17.476 l 3.398,6.635 -6.392,3.234 -3.074,-6.068 c -4.391,1.987 -9.23,2.873 -12.379,2.749 l -1.859,-8.496 c 3.438,0.07 7.952,-0.433 12.136,-2.588 3.729,-1.907 5.451,-4.635 4.208,-7.12 -1.243,-2.443 -4.077,-2.932 -9.71,-2.104 -8.035,1.159 -14.328,0.292 -17.475,-5.906 -2.899,-5.717 -1.196,-12.146 5.016,-16.91 l -3.074,-6.149 6.311,-3.158 z m -259.068,1.13 c -3.044,0.576 -6.156,1.458 -9.304,1.458 -6.297,0 -10.309,2.213 -15.777,4.531 -5.759,2.319 -13.252,0.372 -17.477,4.612 -4.39,4.226 -3.827,11.357 -6.149,16.991 -2.195,5.468 -5.906,10.169 -5.906,16.424 0,6.256 3.707,10.794 6.068,16.263 2.319,5.758 4.633,9.728 8.9,14.078 4.349,4.267 5.002,14.509 10.761,16.829 5.468,2.318 13.283,-4.531 19.58,-4.531 6.297,0 12.251,2.359 17.719,0.182 5.757,-2.486 7.506,-9.04 11.73,-13.431 4.268,-4.267 11.435,-5.73 13.756,-11.489 2.318,-5.468 1.539,-11.665 1.539,-17.962 0,-6.296 1.268,-12.574 -1.054,-18.042 -2.319,-5.592 -5.241,-11.791 -9.467,-16.182 -4.266,-4.225 -10.548,-6.98 -16.181,-9.466 -2.735,-1.097 -5.694,-0.816 -8.739,-0.255 z m -9.304,8.657 c 8.616,0 16.733,7.187 22.492,12.946 5.758,5.633 10.923,13.751 10.923,22.492 -0.03,8.575 -2.778,19.12 -8.496,24.92 -5.757,5.592 -16.303,10.761 -24.919,10.761 -8.741,0 -17.828,-6.706 -23.545,-12.299 -5.759,-5.758 -7.2,-14.766 -7.2,-23.382 0,-8.741 -0.42,-19.728 5.339,-25.487 5.759,-5.591 16.624,-9.951 25.406,-9.951 z m -0.07,9.385 a 25.932117,25.932117 0 0 0 -25.972,25.972 25.932117,25.932117 0 0 0 25.972,25.891 25.932117,25.932117 0 0 0 25.89,-25.891 25.932117,25.932117 0 0 0 -25.89,-25.972 z"
           style="fill:#002451"
           inkscape:connector-curvature="0" />
      </g>
    </g>
    <g
       style="fill:#002451"
       id="g194"
       transform="matrix(0.19108085,0,0,0.25919595,14.450169,93.630545)">
      <g
         id="g182">
        <path
           id="path180"
           d="m 494.955,516.006 -11.281,-69.607 c -1.36,-6.271 -1.779,-12.487 -1,-18.622 l 2.691,-46.578 c 0.292,-4.972 -1.16,-7.024 -3.803,-10.989 l -33.198,-49.821 -34.306,21.703 c -5.789,3.248 -12.23,4.651 -18.763,3.372 l -48.344,-7.139 c -1.563,-0.233 -3.001,-0.611 -4.311,-1.109 l -2.876,4.983 11.363,2.598 c 12.909,2.955 30.014,9.709 41.438,16.364 4.892,3.275 7.985,6.832 9.912,10.765 3.145,6.417 3.02,19.654 2.784,27.065 l -2.365,24.385 4.246,6.012 c 1.945,3.509 2.592,7.949 2.13,13.187 l -5.753,37.383 c -1.217,8.913 -7.865,15.432 -17.349,17.123 -26.307,4.708 -47.785,4.798 -74.018,4.8 -9.543,14.332 -23.858,25.211 -40.681,30.367 h 150.962 c -5.282,-4.233 -7.468,-11.243 -5.97,-19.852 l 10.419,-83.883 c 1.052,-5.446 3.374,-9.497 6.713,-12.438 l 42.769,-42.005 c 1.669,2.471 2.726,3.633 2.541,6.751 l -2.684,46.365 c -0.102,0.875 -0.188,1.745 -0.249,2.616 l -14.711,12.166 -8.653,76.757 c -0.705,5.558 -3.107,10.333 -6.693,13.521 h 57.378 c -3.977,-3.199 -7.12,-8.505 -8.338,-16.24 z m -267.73,16.242 c -16.818,-5.156 -31.128,-16.03 -40.671,-30.356 l -166.915,0.01 V 333.229 l 124.583,3.637 c 7.57,0.791 17.824,-11.021 1.217,-19.674 L 54.959,281.598 C 43.262,277.447 31.543,275.109 19.64,273.63 V 252.9 c 14.057,1.72 27.643,4.462 42.045,9.342 37.168,13.762 76.032,29.752 113.601,42.016 l 85.806,-120.044 c 7.704,-10.774 20.529,-23.95 31.073,-31.923 4.905,-3.25 9.382,-4.735 13.752,-4.993 2.786,-0.17 6.335,0.521 10.027,1.614 l -114.989,161.545 120.918,27.652 25.9,-44.837 -2.14,-11.226 5.828,-10.295 10.327,-5.299 2.119,1.201 -6.758,11.959 c -0.442,0.784 -0.171,1.789 0.618,2.236 l 10.022,5.678 c 0.789,0.445 1.798,0.159 2.235,-0.618 l 6.759,-11.961 2.121,1.199 0.784,11.598 -5.828,10.292 -10.922,4.045 -5.034,8.709 37.136,3.105 c 1.525,0.05 2.729,-0.422 3.721,-1.264 8.091,-7.316 31.695,-27.389 41.221,-35.722 9.772,-8.548 17.841,-14.711 31.875,-12.909 10.604,1.355 19.911,7.914 24.388,17.646 l 31.419,62.838 c 4.228,11.254 5.33,22.646 3.282,34.189 l -8.671,42.538 c -0.923,5.027 -0.941,10.628 -0.296,16.663 l 9.732,71.341 c 2.435,10.593 -1.069,18.628 -6.768,23.034 h 67.415 V 553.89 H 19.639 v -21.641 h 207.586 z m 22.124,-122.581 c 27.878,0 50.478,22.6 50.478,50.475 0,27.875 -22.6,50.476 -50.478,50.476 -27.878,0 -50.478,-22.601 -50.478,-50.476 0,-27.875 22.6,-50.475 50.478,-50.475 z M 404.922,244.73 c 0.061,0.253 0.12,0.51 0.188,0.768 4.145,15.449 20.032,24.612 35.481,20.467 15.453,-4.142 24.618,-20.027 20.469,-35.481 -3.366,-42.271 -63.216,-33.77 -61.823,1.533 0.069,1.671 -0.424,3.654 -2.07,4.414 l -14.139,6.533 c -3.182,1.466 -0.005,4.767 2.31,6.461 1.151,0.844 2.415,0.699 4.587,0.016 z"
           inkscape:connector-curvature="0"
           style="clip-rule:evenodd;fill-rule:evenodd" />
      </g>
    </g>
    <g
       style="fill:#002451"
       id="g240"
       transform="matrix(0.49296022,0,0,0.51651458,235.15884,19.391352)">
      <g
         id="g218">
        <path
           id="path196"
           d="m 147.192,95.928 12.137,4.719 8.883,3.454 -8.883,3.454 -16.075,6.25 c -1.157,0.451 -1.912,1.555 -1.912,2.797 0,1.241 0.755,2.346 1.912,2.796 l 16.075,6.25 8.883,3.452 -8.883,3.456 -16.075,6.25 c -1.229,0.478 -1.95,1.676 -1.897,2.924 h -15.216 c -0.533,2.137 -1.559,4.07 -2.941,5.688 h 147.14 v -5.688 h -58.711 c 0.053,-1.248 -0.668,-2.446 -1.897,-2.923 l -16.076,-6.252 -8.884,-3.454 8.884,-3.452 16.076,-6.252 c 1.157,-0.449 1.913,-1.554 1.913,-2.796 0,-1.239 -0.756,-2.347 -1.913,-2.796 l -16.076,-6.249 -8.884,-3.454 8.884,-3.455 16.076,-6.249 c 0.493,-0.192 0.896,-0.509 1.211,-0.89 h 2.179 c 0.789,0 1.429,-0.64 1.429,-1.429 v -2.382 c 0,-0.789 -0.64,-1.43 -1.429,-1.43 h -62.675 c -0.41,2.86 -1.558,5.479 -3.255,7.661 z m 44.288,42.22 9.215,3.581 h -48.399 l 9.21,-3.581 14.987,-5.83 z m 0,-25.002 8.884,3.454 -8.884,3.454 -14.984,5.826 -14.992,-5.826 -8.884,-3.453 8.886,-3.455 14.987,-5.827 z m 0,-18.09 -14.986,5.826 -14.988,-5.827 -3.98,-1.547 h 37.936 z"
           inkscape:connector-curvature="0" />
        <path
           id="path198"
           d="m 122.346,76.905 c 2.738,-3.618 7.075,-5.96 11.965,-5.96 7.914,0 14.393,6.127 14.961,13.895 h 1.305 64.956 c 0.569,-7.768 7.048,-13.895 14.962,-13.895 7.916,0 14.393,6.127 14.963,13.895 h 9.655 c 1.474,0 2.669,-1.194 2.669,-2.668 v -2.001 c 0,-1.474 -1.195,-2.668 -2.669,-2.668 h -3.268 c 1.752,-4.346 3.604,-9.267 3.604,-10.672 0,-7.238 -39.406,-12.46 -39.406,-12.46 0,0 -17.564,-16 -20.009,-17.89 -2.446,-1.891 -18.345,-3.669 -33.018,-3.669 -24.577,0 -44.06,14.088 -51.707,22.145 1.209,1.371 2.356,2.849 3.411,4.449 3.147,4.815 5.684,10.63 7.626,17.499 z M 176,58.797 c 0,0.588 -0.475,1.063 -1.063,1.063 h -7.788 c -0.586,0 -1.062,-0.476 -1.062,-1.063 v -1.061 c 0,-0.588 0.476,-1.063 1.062,-1.063 h 7.788 c 0.588,0 1.063,0.475 1.063,1.063 z M 164.406,36.82 c 13.867,0.106 26.826,1.762 29.282,2.916 1.368,1.166 8.335,7.422 14.794,14.37 H 164.406 Z M 127.59,47.918 c 7.271,-4.456 18.57,-9.709 32.232,-10.436 v 16.624 h -40.875 c 2.335,-1.952 5.232,-4.096 8.643,-6.188 z"
           inkscape:connector-curvature="0" />
        <path
           id="path200"
           d="m 230.494,73.947 c -6.256,0 -11.391,4.785 -11.953,10.893 -0.032,0.366 -0.053,0.737 -0.053,1.112 0,6.631 5.375,12.006 12.006,12.006 6.633,0 12.006,-5.375 12.006,-12.006 0,-0.375 -0.02,-0.746 -0.053,-1.112 -0.56,-6.108 -5.697,-10.893 -11.953,-10.893 z m 0,16.453 c -2.456,0 -4.446,-1.992 -4.446,-4.447 0,-0.151 0.007,-0.299 0.022,-0.445 0.223,-2.247 2.118,-4.002 4.424,-4.002 2.305,0 4.2,1.755 4.424,4.002 0.015,0.147 0.023,0.294 0.023,0.445 0,2.455 -1.992,4.447 -4.447,4.447 z"
           inkscape:connector-curvature="0" />
        <path
           id="path202"
           d="m 134.336,97.959 c 6.631,0 12.006,-5.375 12.006,-12.006 0,-0.375 -0.02,-0.746 -0.053,-1.112 -0.561,-6.108 -5.697,-10.893 -11.953,-10.893 -4.872,0 -9.054,2.908 -10.936,7.078 0.96,4.083 1.729,8.509 2.317,13.275 2.183,2.253 5.234,3.658 8.619,3.658 z m -4.424,-12.451 c 0.223,-2.247 2.118,-4.002 4.424,-4.002 2.306,0 4.201,1.755 4.424,4.002 0.015,0.147 0.023,0.294 0.023,0.445 0,2.455 -1.991,4.447 -4.447,4.447 -2.457,0 -4.447,-1.992 -4.447,-4.447 0,-0.151 0.008,-0.299 0.023,-0.445 z"
           inkscape:connector-curvature="0" />
        <path
           id="path204"
           d="m 26.691,84.757 c 3.611,0.008 8.646,0.493 13.241,2.773 1.214,-5.638 2.691,-9.808 4.157,-12.81 v 26.048 c 8.15,-16.558 5.172,-42.282 4.067,-49.763 -1.452,0.311 -3.13,0.847 -4.92,1.75 -5.378,2.665 -11.177,8.5 -15.235,18.838 -1.486,3.758 -2.793,8.134 -3.859,13.248 0.729,-0.047 1.583,-0.084 2.549,-0.084 z"
           inkscape:connector-curvature="0" />
        <path
           id="path206"
           d="m 121.143,119.641 c -0.018,-12.853 -0.904,-23.255 -2.422,-31.746 -0.789,-0.07 -1.867,-0.137 -3.147,-0.137 -3.554,-0.009 -8.545,0.558 -12.63,2.838 1.324,7.347 2.205,16.854 2.199,29.045 0,5.513 -0.178,11.571 -0.566,18.223 -0.256,4.411 3.111,8.194 7.522,8.452 0.158,0.009 0.316,0.014 0.473,0.014 4.205,0 7.732,-3.283 7.979,-7.533 0.404,-6.935 0.592,-13.302 0.592,-19.156 z"
           inkscape:connector-curvature="0" />
        <path
           id="path208"
           d="M 98.182,100.77 V 74.764 c 0.592,1.216 1.189,2.61 1.779,4.237 0.852,2.361 1.662,5.188 2.379,8.524 4.589,-2.275 9.623,-2.762 13.233,-2.768 0.972,0 1.828,0.037 2.56,0.085 -2.045,-9.834 -4.996,-16.894 -8.426,-22.135 -3.283,-4.985 -7.127,-8.183 -10.678,-9.955 -1.789,-0.901 -3.465,-1.438 -4.917,-1.748 -1.104,7.482 -4.082,33.209 4.07,49.766 z"
           inkscape:connector-curvature="0" />
        <path
           id="path210"
           d="M 98.182,126.819 V 121.88 H 71.135 44.09 v 4.939 98 c 0,6.83 5.537,12.363 12.363,12.363 6.828,0 12.365,-5.533 12.365,-12.363 v -90.271 h 4.635 v 90.271 c 0,6.83 5.537,12.363 12.363,12.363 6.828,0 12.365,-5.533 12.365,-12.363 v -98 z"
           inkscape:connector-curvature="0" />
        <path
           id="path212"
           d="m 71.135,71.966 c 9.111,0 15.355,-15.829 17.231,-21.267 H 53.904 c 1.876,5.438 8.12,21.267 17.231,21.267 z"
           inkscape:connector-curvature="0" />
        <path
           id="path214"
           d="m 5.67,152.838 c 1.822,-1.67 4.652,-1.547 6.322,0.275 1.669,1.822 1.546,4.651 -0.275,6.322 l -5.086,4.66 c 3.899,1.709 8.604,1.086 11.945,-1.977 3.34,-3.06 4.369,-7.693 3.006,-11.727 l 0.42,-0.385 4.668,-4.278 c 0.938,0.386 1.961,0.6 3.028,0.6 0.157,0 0.316,-0.004 0.476,-0.014 4.411,-0.259 7.777,-4.045 7.517,-8.454 -0.043,-0.727 -0.073,-1.419 -0.111,-2.132 l 3.807,-3.488 c 1.822,-1.669 1.946,-4.501 0.276,-6.321 -1.175,-1.282 -2.919,-1.703 -4.487,-1.271 -0.031,-1.713 -0.051,-3.392 -0.051,-5.009 -0.017,-12.201 0.871,-21.705 2.199,-29.044 -4.089,-2.282 -9.079,-2.848 -12.633,-2.839 -1.277,0 -2.354,0.068 -3.143,0.138 -1.522,8.485 -2.415,18.879 -2.423,31.745 0,5.671 0.181,11.835 0.563,18.519 l -5.199,4.766 -0.951,0.871 c -3.898,-1.707 -8.605,-1.086 -11.945,1.977 -3.342,3.061 -4.37,7.695 -3.008,11.727 z"
           inkscape:connector-curvature="0" />
        <path
           id="path216"
           d="m 74.805,44.697 c 9.698,-1.592 17.302,-9.379 18.62,-19.166 -2.028,-0.104 -4.169,-0.322 -6.37,-0.664 -11.521,-1.792 -20.401,-6.306 -20.146,-10.171 1.524,3.461 10.442,6.12 21.247,6.12 8.154,0 15.247,-1.514 18.893,-3.743 1.662,-1.018 2.608,-2.184 2.608,-3.424 0,-3.958 -9.627,-7.167 -21.501,-7.167 -0.406,0 -0.803,0.013 -1.203,0.02 C 82.889,2.483 77.303,0 71.135,0 c -12.426,0 -22.5,10.074 -22.5,22.5 0,11.178 8.15,20.444 18.83,22.197 1.195,0.197 2.42,0.303 3.67,0.303 1.25,0 2.475,-0.106 3.67,-0.303 z"
           inkscape:connector-curvature="0" />
      </g>
    </g>
    <g
       style="fill:#002451"
       id="g256"
       transform="matrix(0.68416021,0,0,0.72951689,22.195231,41.556193)">
      <g
         id="g244">
        <path
           id="path242"
           d="m 37.879,76.983 c 0,8.726 3.062,16.735 8.168,23.017 H 16.438 V 60.787 H 12.58 V 100 H 0 V 62.357 C 0,50.111 9.927,40.182 22.173,40.182 l 19.26,0.004 c 5.515,0 10.542,2.014 14.401,5.345 C 45.088,51.888 37.879,63.593 37.879,76.983 Z M 31.757,37.509 c 10.358,0 18.755,-8.396 18.755,-18.755 C 50.512,8.396 42.115,0 31.757,0 21.399,0 13.002,8.396 13.002,18.754 c 0,10.358 8.397,18.755 18.755,18.755 z m 30.317,26.486 9.809,9.688 2.441,-2.281 -9.918,-9.766 -0.91,-2.771 -7.779,-5.813 -2.331,2.36 5.957,7.657 z m 20.301,13.416 -4.215,4.953 13.243,14.383 6.026,-6.101 z m 9.479,19.782 3.418,2.067 4.716,-4.775 -2.106,-3.394 z M 84.627,72.662 61.638,98.949 c 0,0 -2.835,2.835 -6.478,-0.809 0,0 -3.644,-3.643 -0.525,-6.76 3.119,-3.119 25.566,-23.145 25.566,-23.145 0,0 -3.178,-7.765 0.213,-11.155 l 9.419,9.419 9.901,-9.902 c 0,0 2.24,7.67 -6.303,16.214 z M 62.246,91.056 c -1.253,-1.254 -3.283,-1.252 -4.535,-0.002 -1.252,1.254 -1.252,3.282 0,4.536 1.252,1.252 3.282,1.252 4.535,-0.002 1.252,-1.252 1.252,-3.28 0,-4.532 z M 95.664,52.527 c 0,0 -9.148,-1.548 -14.352,3.655 l 5.348,5.347 z"
           inkscape:connector-curvature="0" />
      </g>
    </g>
    <g
       style="fill:#002451"
       id="g290"
       transform="matrix(1.3679495,0,0,1.3658658,134.37443,45.546147)">
      <path
         id="path258"
         d="m 3,62 h 28 c 0.552,0 1,-0.448 1,-1 V 37 29 c 0,-0.552 -0.448,-1 -1,-1 H 3 c -0.552,0 -1,0.448 -1,1 v 8 24 c 0,0.552 0.448,1 1,1 z M 30,60 H 4 V 38 H 30 Z M 4,30 h 26 v 6 H 4 Z"
         inkscape:connector-curvature="0" />
      <path
         id="path260"
         d="m 16,58 c 4.624,0 8.441,-3.507 8.941,-8 H 27 v -2 h -2.059 c -0.5,-4.493 -4.317,-8 -8.941,-8 -4.962,0 -9,4.038 -9,9 0,4.962 4.038,9 9,9 z m 0,-16 c 3.519,0 6.432,2.613 6.92,6 H 20.899 C 20.434,45.721 18.415,44 16,44 c -2.757,0 -5,2.243 -5,5 0,2.757 2.243,5 5,5 2.414,0 4.434,-1.721 4.899,-4 h 2.021 c -0.488,3.387 -3.401,6 -6.92,6 -3.86,0 -7,-3.14 -7,-7 0,-3.86 3.14,-7 7,-7 z m 3,7 c 0,1.654 -1.346,3 -3,3 -1.654,0 -3,-1.346 -3,-3 0,-1.654 1.346,-3 3,-3 1.654,0 3,1.346 3,3 z"
         inkscape:connector-curvature="0" />
      <rect
         id="rect262"
         height="2"
         width="2"
         y="32"
         x="18" />
      <rect
         id="rect264"
         height="2"
         width="2"
         y="32"
         x="22" />
      <rect
         id="rect266"
         height="2"
         width="2"
         y="32"
         x="26" />
      <rect
         id="rect268"
         height="2"
         width="8"
         y="32"
         x="6" />
      <path
         id="path270"
         d="m 61,38 h -2 v -1 h 1 c 0.3,0 0.583,-0.134 0.773,-0.366 0.19,-0.231 0.266,-0.536 0.207,-0.83 l -1,-5 C 59.887,30.336 59.477,30 59,30 H 47 c -0.265,0 -0.52,0.105 -0.707,0.293 C 46.106,30.481 46,30.735 46,31 v 3.101 C 44.044,34.5 42.5,36.044 42.102,38 H 35 c -0.552,0 -1,0.448 -1,1 v 4 c 0,0.552 0.448,1 1,1 h 3.63 l 7.562,6.482 -10.861,9.775 1.338,1.486 11.054,-9.949 11.626,9.965 L 60.651,60.24 49.223,50.444 56.384,44 H 61 c 0.552,0 1,-0.448 1,-1 v -4 c 0,-0.552 -0.448,-1 -1,-1 z M 48,32 h 10.18 l 0.444,2.218 C 58.577,34.18 58.518,34.158 58.465,34.129 58.431,34.111 58.401,34.088 58.365,34.073 58.251,34.029 58.13,34 58,34 H 48 Z m -1,4 h 10 v 2 H 44.172 C 44.584,36.836 45.697,36 47,36 Z M 47.691,49.133 41.703,44 H 53.394 Z M 60,42 H 36 v -2 h 7 15 2 z"
         inkscape:connector-curvature="0" />
      <path
         id="path272"
         d="m 60.153,18.564 v 0 L 50,14.333 v -1.505 c 1.164,-0.413 2,-1.525 2,-2.829 0,-1.654 -1.346,-3 -3,-3 -1.654,0 -3,1.346 -3,3 h 2 c 0,-0.551 0.449,-1 1,-1 0.551,0 1,0.449 1,1 0,0.551 -0.449,1 -1,1 -0.552,0 -1,0.448 -1,1 v 2.333 l -3.085,1.286 c -0.005,-0.019 -0.015,-0.035 -0.02,-0.054 -0.01,-0.037 -0.014,-0.075 -0.025,-0.111 -0.049,-0.159 -0.113,-0.311 -0.187,-0.459 -0.015,-0.03 -0.033,-0.057 -0.049,-0.087 -0.089,-0.164 -0.192,-0.319 -0.31,-0.464 -0.02,-0.025 -0.038,-0.051 -0.059,-0.075 -0.012,-0.014 -0.022,-0.03 -0.034,-0.044 -0.009,-0.01 -0.02,-0.018 -0.029,-0.028 -0.09,-0.097 -0.184,-0.19 -0.286,-0.274 -0.03,-0.025 -0.066,-0.045 -0.097,-0.069 -0.035,-0.026 -0.07,-0.05 -0.106,-0.075 -0.174,-0.121 -0.357,-0.231 -0.558,-0.315 v 0 L 33,9.333 V 7.829 C 34.164,7.416 35,6.304 35,5 35,3.346 33.654,2 32,2 30.346,2 29,3.346 29,5 h 2 c 0,-0.551 0.449,-1 1,-1 0.551,0 1,0.449 1,1 0,0.551 -0.449,1 -1,1 -0.552,0 -1,0.448 -1,1 v 2.333 l -10.153,4.23 c -0.201,0.084 -0.384,0.193 -0.557,0.314 -0.036,0.025 -0.073,0.05 -0.108,0.076 -0.163,0.124 -0.314,0.262 -0.446,0.415 -0.021,0.024 -0.038,0.051 -0.059,0.076 -0.118,0.145 -0.221,0.299 -0.31,0.463 -0.016,0.03 -0.035,0.057 -0.05,0.088 -0.09,0.181 -0.159,0.372 -0.212,0.57 -0.005,0.019 -0.016,0.035 -0.02,0.054 L 16,14.333 v -1.505 c 1.164,-0.413 2,-1.525 2,-2.829 0,-1.654 -1.346,-3 -3,-3 -1.654,0 -3,1.346 -3,3 h 2 c 0,-0.551 0.449,-1 1,-1 0.551,0 1,0.449 1,1 0,0.551 -0.449,1 -1,1 -0.552,0 -1,0.448 -1,1 v 2.333 L 3.847,18.562 C 2.725,19.031 2,20.118 2,21.333 V 22 c 0,1.654 1.346,3 3,3 h 20 c 1.654,0 3,-1.346 3,-3 V 21.333 C 28,20.859 27.89,20.405 27.689,20 h 8.622 C 36.11,20.406 36,20.86 36,21.333 V 22 c 0,1.654 1.346,3 3,3 h 20 c 1.654,0 3,-1.346 3,-3 v -0.667 c 0,-1.215 -0.725,-2.302 -1.847,-2.769 z M 25.385,20.411 C 25.758,20.566 26,20.929 26,21.333 V 22 c 0,0.551 -0.449,1 -1,1 H 5 C 4.449,23 4,22.551 4,22 V 21.333 C 4,20.928 4.242,20.565 4.616,20.41 L 15,16.083 19.122,17.8 C 19.475,19.065 20.625,20 22,20 h 2.4 z M 24.6,18 H 22 c -0.551,0 -1,-0.449 -1,-1 v -0.667 c 0,-0.405 0.242,-0.768 0.616,-0.923 L 32,11.083 42.385,15.41 C 42.758,15.566 43,15.929 43,16.333 v 0.621 c -0.003,0.03 -0.006,0.062 -0.007,0.081 0,0.012 -0.006,0.023 -0.007,0.035 -0.009,0.122 -0.035,0.24 -0.083,0.346 -0.007,0.016 -0.021,0.027 -0.029,0.043 -0.049,0.095 -0.108,0.185 -0.183,0.259 -0.04,0.038 -0.092,0.062 -0.138,0.093 -0.056,0.039 -0.108,0.086 -0.172,0.112 C 42.264,17.972 42.135,18 42,18 H 39.4 Z M 60,22 c 0,0.551 -0.449,1 -1,1 H 39 c -0.551,0 -1,-0.449 -1,-1 v -0.667 c 0,-0.405 0.242,-0.768 0.616,-0.923 L 39.6,20 H 42 c 0.204,0 0.404,-0.021 0.597,-0.06 0.048,-0.01 0.091,-0.03 0.138,-0.041 0.143,-0.036 0.286,-0.075 0.42,-0.131 0.051,-0.021 0.096,-0.052 0.146,-0.077 0.122,-0.059 0.245,-0.119 0.357,-0.194 0.058,-0.039 0.109,-0.088 0.164,-0.13 0.093,-0.072 0.188,-0.142 0.272,-0.225 0.067,-0.066 0.124,-0.142 0.185,-0.214 0.059,-0.07 0.122,-0.136 0.174,-0.211 0.072,-0.102 0.129,-0.213 0.188,-0.324 0.028,-0.054 0.062,-0.104 0.087,-0.16 0.062,-0.136 0.107,-0.28 0.148,-0.426 0.001,-0.002 0.002,-0.004 0.002,-0.006 L 49,16.083 59.384,20.41 c 0,0 0,0 0,0 0.374,0.156 0.616,0.519 0.616,0.923 z"
         inkscape:connector-curvature="0" />
    </g>
  </g>
  <style
     id="style1243"
     type="text/css">
	.st0{fill:#002451;}
</style>
  <style
     id="style1301"
     type="text/css">
	.st0{fill:none;stroke:#002451;stroke-linecap:round;stroke-linejoin:round;stroke-miterlimit:10;}
</style>
</svg>
