<svg fill="#FFFFFF" xmlns="http://www.w3.org/2000/svg" xmlns:xlink="http://www.w3.org/1999/xlink" version="1.1" x="0px" y="0px" viewBox="0 0 100 100" enable-background="new 0 0 100 100" xml:space="preserve"><g><path d="M92.222,31.418C91.461,30.502,90.333,30,89.143,30c0,0-0.001,0-0.002,0L88,30v-9c0-2.209-1.791-4-4-4h-6v-5   c0-2.209-1.791-4-4-4H44c-2.209,0-4,1.791-4,4v18h-5.002c-0.538,0-1.051,0.073-1.52,0.266l-2.964-12.194   C30.078,16.279,28.472,15,26.627,15c-0.002,0-0.004,0-0.006,0L10.94,15.025c-2.209,0.003-3.997,1.799-3.994,4.009   C6.949,21.241,8.74,23,10.946,23c0.002,0,0.004,0,0.006,0l12.532,0.006l11.902,48.947C35.823,73.746,37.429,75,39.273,75   c0.002,0,0.004,0,0.006,0l42.896-0.05c1.921-0.003,3.569-1.36,3.925-3.248l6.974-37.002C93.294,33.529,92.982,32.335,92.222,31.418   z M80,30H69v-5h11V30z M48,16h22v1h-5c-2.209,0-4,1.791-4,4v9H48V16z M78.852,66.959l-36.436,0.052l-7.064-29.038l48.125-0.026   C83.65,37.97,83.821,38,84,38c0.108,0,0.209-0.023,0.314-0.032L78.852,66.959z"></path><circle cx="74.427" cy="87.07" r="7.396"></circle><circle cx="46.692" cy="87.109" r="7.396"></circle></g></svg>