<svg fill="#FFFFFF" xmlns:x="http://ns.adobe.com/Extensibility/1.0/" xmlns:i="http://ns.adobe.com/AdobeIllustrator/10.0/" xmlns:graph="http://ns.adobe.com/Graphs/1.0/" xmlns="http://www.w3.org/2000/svg" xmlns:xlink="http://www.w3.org/1999/xlink" version="1.1" x="0px" y="0px" viewBox="0 0 100 100" enable-background="new 0 0 100 100" xml:space="preserve"><metadata><sfw xmlns="http://ns.adobe.com/SaveForWeb/1.0/"><slices></slices><sliceSourceBounds height="100" width="100" x="0" y="-100" bottomLeftOrigin="true"></sliceSourceBounds></sfw></metadata><rect fill="none" width="100" height="100"></rect><g><path d="M81.977,30.326H18.023c-1.867,0-3.381,1.514-3.381,3.381V76.53c0,1.866,1.514,3.38,3.381,3.38h63.953   c1.867,0,3.381-1.514,3.381-3.38V33.707C85.357,31.84,83.844,30.326,81.977,30.326z M61.838,58.395h-8.562v8.561h-6.553v-8.561   h-8.561v-6.553h8.561v-8.561h6.553v8.561h8.562V58.395z"></path><path d="M38.571,25.099c0-1.303,1.056-2.359,2.359-2.359h18.204c1.303,0,2.358,1.057,2.358,2.359v3.019h4.965V23.47   c0-1.866-1.514-3.38-3.381-3.38H36.987c-1.867,0-3.38,1.514-3.38,3.38v4.647h4.965V25.099z"></path></g></svg>