<svg fill="#002451" xmlns="http://www.w3.org/2000/svg" xmlns:xlink="http://www.w3.org/1999/xlink" version="1.1" x="0px" y="0px" viewBox="0 0 336 350" style="enable-background:new 0 0 336 350;" xml:space="preserve"><g><rect x="81.567" y="163.516" width="24" height="18.301"></rect><path d="M66.521,189.65V194h9.046v-30.484H74.25c-0.475,0-0.937,0.049-1.388,0.131c-1.166,0.039-2.341,0.325-3.443,0.903   c-0.919,0.474-8.331,4.619-15.844,15.677c-6.724,9.869-13.402,25.196-15.86,47.773h16.1   C56.112,209.099,61.569,197.106,66.521,189.65z"></path><path d="M111.567,194h9.046v-4.338c0.44,0.66,0.882,1.342,1.326,2.074c0.432,0.714,0.865,1.478,1.297,2.264h17.754   c-2.32-5.44-4.872-10.013-7.434-13.773c-7.512-11.058-14.924-15.203-15.841-15.677c-1.103-0.578-2.279-0.865-3.446-0.903   c-0.45-0.082-0.912-0.131-1.385-0.131h-1.317V194z"></path><circle cx="93.567" cy="134.316" r="22.5"></circle><path d="M175,102h87c5.521,0,10-4.477,10-10c0,5.523,4.477,10,10,10h44c5.521,0,10-4.477,10-10V72L175,6.834V0h-14v6.834L0,72v20   c0,5.523,4.477,10,10,10h44c5.522,0,10-4.477,10-10c0,5.523,4.478,10,10,10h87.001v92h14V102z"></path><path d="M278.25,350v-13h7.5V202h-67v135h7.5v13h8v-13h36v13H278.25z M228.752,212.001h46.996v114.997h-46.996V212.001z"></path><path d="M187,200H65h-3v34h-1H26h-5.5v94H27v4.359c-3.753,1.084-6.5,4.538-6.5,8.641c0,4.971,4.029,9,9,9s9-4.029,9-9   c0-4.102-2.747-7.557-6.5-8.641V328h34.521v9.637c0,6.828,5.537,12.363,12.363,12.363c6.828,0,12.365-5.535,12.365-12.363V328   h4.635v9.637c0,6.828,5.537,12.363,12.363,12.363c6.828,0,12.365-5.535,12.365-12.363V328H188v4.359   c-3.754,1.084-6.5,4.538-6.5,8.641c0,4.971,4.029,9,9,9c4.971,0,9-4.029,9-9c0-4.102-2.748-7.557-6.5-8.641V328h6.5v-94H187V200z"></path><rect x="235.25" y="219" width="34" height="5"></rect><rect x="235.25" y="231.167" width="34" height="5"></rect><rect x="235.25" y="243.333" width="34" height="5"></rect><rect x="235.25" y="255.5" width="34" height="5"></rect><rect x="235.25" y="267.667" width="34" height="5"></rect><rect x="235.25" y="279.833" width="34" height="5"></rect><rect x="235.25" y="292" width="34" height="5"></rect></g></svg>