<svg fill="#002451" xmlns="http://www.w3.org/2000/svg" xmlns:xlink="http://www.w3.org/1999/xlink" viewBox="0 0 100 100" style="background-color:#ffffff00;" version="1.1" xml:space="preserve" x="0px" y="0px"><g><g><path d="M 35.9273 34.705 L 35.9277 37.1876 L 33.4836 37.1894 L 33.4832 34.7067 L 35.9273 34.705 ZM 35.9266 30.4709 L 35.927 32.9536 L 33.483 32.9553 L 33.4825 30.4727 L 35.9266 30.4709 ZM 64.2635 34.6851 L 64.2639 37.1678 L 61.8198 37.1695 L 61.8194 34.6868 L 64.2635 34.6851 ZM 64.2628 30.4511 L 64.2632 32.9337 L 61.8191 32.9355 L 61.8187 30.4528 L 64.2628 30.4511 ZM 52.5783 38.3114 L 52.5787 40.7941 L 50.1346 40.7958 L 50.1342 38.3132 L 52.5783 38.3114 ZM 52.5776 34.3854 L 52.578 36.868 L 50.134 36.8697 L 50.1336 34.3871 L 52.5776 34.3854 ZM 52.577 30.4593 L 52.5774 32.9419 L 50.1333 32.9436 L 50.1329 30.461 L 52.577 30.4593 ZM 20.0787 74.5544 L 27.4775 74.5492 C 24.9968 77.0263 22.5465 79.5311 20.0959 82.0032 L 20.0787 74.5544 ZM 68.3463 73.4427 L 68.3439 58.2965 L 71.8955 58.294 L 71.8979 73.4403 L 68.3463 73.4427 ZM 67.2937 58.2973 L 67.2962 73.4435 L 62.5416 73.4468 L 62.5392 58.388 C 62.5392 58.3573 62.5353 58.3282 62.5281 58.3006 L 67.2937 58.2973 ZM 25.2692 73.473 L 25.2668 58.3267 L 29.6608 58.3236 C 29.6521 58.3509 29.6449 58.38 29.6394 58.411 L 29.6418 73.4699 L 25.2692 73.473 ZM 24.2166 58.3275 L 24.219 73.4737 L 20.2092 73.4766 L 20.2068 58.3303 L 24.2166 58.3275 ZM 87.647 61.1101 L 81.5482 61.1144 C 81.0136 61.134 80.2117 61.5002 79.8872 62.2125 C 79.6963 62.5976 79.6582 63.0595 79.6582 63.4444 L 73.1279 63.449 L 73.1271 58.2719 L 87.6145 58.2618 L 87.6103 58.2838 L 87.6107 60.9589 C 87.6107 61.0135 87.6242 61.0641 87.647 61.1101 ZM 89.9302 58.2601 L 89.9307 61.1085 L 88.5998 61.1095 C 88.6253 61.0597 88.646 61.003 88.6609 60.9389 L 88.6605 58.283 L 88.6597 58.2611 L 89.9302 58.2601 ZM 12.4922 55.8153 L 79.6093 55.7682 L 79.6095 57.0184 L 12.4924 57.0655 L 12.4922 55.8153 ZM 13.1338 48.8064 C 13.1208 48.9182 13.1052 49.0301 13.0831 49.1419 C 13.064 49.3344 13.0449 49.5461 13.0068 49.7385 C 12.9877 49.9503 12.9687 50.162 12.9305 50.3737 L 12.924 50.427 C 12.5563 50.2666 12.3862 49.9395 12.3862 49.6279 C 12.3861 49.4162 12.5388 48.8772 12.9398 48.8385 C 12.998 48.8286 13.0659 48.8187 13.1338 48.8064 ZM 16.959 47.715 L 17.302 50.4424 L 14.0086 50.4447 L 14.3622 47.7168 L 16.959 47.715 ZM 30.056 43.659 L 30.0558 42.9561 L 35.4595 42.9523 L 35.4598 43.6552 L 30.056 43.659 ZM 35.4602 46.1625 C 34.6626 45.8114 33.7675 45.6098 32.7975 45.6105 C 31.8668 45.6112 30.9257 45.8105 30.0564 46.2021 L 30.0562 44.7175 L 35.4599 44.7137 L 35.4602 46.1625 ZM 38.0348 48.1854 C 37.7353 47.7986 37.3915 47.4402 37.0077 47.1214 C 37.11 47.0073 37.2542 46.9257 37.495 46.9256 C 37.8769 46.9253 38.2397 47.2329 38.2398 47.6756 C 38.2398 47.9319 38.1536 48.0814 38.0348 48.1854 ZM 38.1066 50.6684 C 38.1448 50.8031 38.3359 51.7075 38.3359 51.8614 L 38.336 52.2271 L 27.2612 52.2349 L 27.2612 52.1002 C 27.4325 48.6166 30.1627 46.6901 32.7977 46.6883 C 33.7905 46.6876 34.9074 46.9802 35.8812 47.6241 C 35.943 47.7111 36.0319 47.7809 36.1482 47.8126 C 37.0057 48.4565 37.7253 49.3939 38.1066 50.6684 ZM 50.8629 48.2037 L 51.2777 51.5029 C 50.8979 51.0852 50.5107 50.6739 50.1414 50.2627 C 50.3277 50.0731 50.5077 49.8818 50.6706 49.6877 C 50.7279 49.6106 50.747 49.4759 50.747 49.4182 C 50.747 49.322 50.6896 49.168 50.6324 49.1103 C 50.5235 48.9824 50.4128 48.8558 50.3004 48.7303 C 50.4952 48.5567 50.6872 48.3779 50.8629 48.2037 ZM 49.1691 47.5097 L 50.0455 47.5091 C 49.9076 47.6469 49.7294 47.7873 49.5636 47.9317 C 49.4317 47.791 49.3 47.6506 49.1691 47.5097 ZM 47.7166 51.1924 L 48.1243 47.9435 C 48.5598 48.4423 49.0488 48.9308 49.4867 49.4191 C 48.9002 50.0108 48.2949 50.5933 47.7166 51.1924 ZM 50.351 52.0701 L 48.3606 52.0715 C 48.6608 51.7642 48.9561 51.4445 49.2579 51.1513 C 49.3013 51.1057 49.3454 51.0602 49.39 51.0146 C 49.6969 51.3704 50.0264 51.7211 50.351 52.0701 ZM 44.3707 48.2082 L 44.7856 51.5074 C 44.4058 51.0897 44.0186 50.6785 43.6493 50.2673 C 43.8355 50.0777 44.0156 49.8864 44.1785 49.6922 C 44.2358 49.6152 44.2548 49.4804 44.2548 49.4227 C 44.2548 49.3265 44.1975 49.1726 44.1402 49.1149 C 44.0314 48.987 43.9206 48.8603 43.8083 48.7348 C 44.0031 48.5612 44.1951 48.3824 44.3707 48.2082 ZM 42.6769 47.5143 L 43.5534 47.5137 C 43.4154 47.6515 43.2373 47.7918 43.0715 47.9363 C 42.9396 47.7956 42.8079 47.6552 42.6769 47.5143 ZM 41.2244 51.197 L 41.6322 47.948 C 42.0677 48.4469 42.5567 48.9353 42.9946 49.4236 C 42.4081 50.0153 41.8027 50.5978 41.2244 51.197 ZM 43.8589 52.0746 L 41.8685 52.076 C 42.1686 51.7687 42.464 51.449 42.7657 51.1559 C 42.8092 51.1103 42.8532 51.0648 42.8979 51.0191 C 43.2047 51.375 43.5343 51.7257 43.8589 52.0746 ZM 64.6282 46.5016 L 64.6285 48.2914 L 53.6682 48.2991 L 53.668 46.5093 L 64.6282 46.5016 ZM 63.8649 49.6103 L 63.8653 52.0352 L 54.4326 52.0419 L 54.4322 49.6169 L 63.8649 49.6103 ZM 71.8619 27.0008 L 71.8659 52.3857 L 67.8179 52.3885 L 67.8139 27.0036 L 71.8619 27.0008 ZM 79.6089 53.458 L 79.6091 54.7097 L 12.492 54.7568 L 12.4918 53.5051 L 79.6089 53.458 ZM 24.2021 27.0342 L 24.2061 52.4191 L 20.1581 52.4219 L 20.1541 27.0371 L 24.2021 27.0342 ZM 30.0933 30.475 L 30.0937 32.9577 L 27.6305 32.9594 L 27.6301 30.4768 L 30.0933 30.475 ZM 58.4295 30.4531 L 58.4299 32.9357 L 55.9667 32.9375 L 55.9663 30.4548 L 58.4295 30.4531 ZM 44.0434 31.0522 L 42.0102 31.0536 C 42.2312 30.614 42.6516 30.4285 43.0107 30.4282 C 43.3748 30.428 43.8335 30.6022 44.0434 31.0522 ZM 46.3907 32.1283 L 46.3908 33.2061 L 39.6696 33.2108 L 39.6694 32.1331 L 46.3907 32.1283 ZM 46.3923 42.367 L 46.3925 43.4447 L 39.6712 43.4494 L 39.671 42.3717 L 46.3923 42.367 ZM 41.2565 41.2928 L 41.2565 41.1781 C 41.2564 40.8509 41.5619 40.5236 41.9247 40.5618 L 43.9869 40.5603 C 44.2733 40.5601 44.5407 40.6947 44.6553 41.0603 L 44.6553 41.2904 L 41.2565 41.2928 ZM 44.6534 34.285 L 44.6539 37.3074 C 44.6348 37.5383 44.2721 37.8465 44.043 37.8274 L 41.8662 37.8289 C 41.5607 37.8292 41.2551 37.5407 41.2551 37.1943 L 41.2546 34.2874 L 44.6534 34.285 ZM 41.8377 38.8875 L 43.9954 38.886 L 43.9955 39.5018 L 41.8378 39.5033 L 41.8377 38.8875 ZM 40.2044 34.2882 L 40.2049 37.3875 C 40.2049 37.426 40.224 37.4837 40.224 37.5222 C 40.2348 37.8368 40.4762 38.2062 40.7874 38.4756 L 40.7877 39.8913 C 40.4126 40.2261 40.239 40.6585 40.2062 41.0056 L 40.2063 41.2936 L 39.5754 41.294 C 39.1553 41.275 38.6017 41.8143 38.6017 42.2377 L 38.602 43.5849 C 38.602 43.9506 39.1176 44.5083 39.5377 44.5273 L 46.5072 44.5224 C 46.9082 44.5221 47.4428 43.9636 47.4618 43.5595 L 47.4616 42.2315 C 47.4615 41.8273 46.9268 41.2889 46.4685 41.2892 L 45.7055 41.2905 C 45.7054 40.7473 45.6354 40.2466 45.0419 39.8244 L 45.0457 39.809 L 45.0455 38.5261 C 45.2547 38.3597 45.4423 38.1517 45.5324 37.9611 C 45.5896 37.8071 45.666 37.6531 45.7041 37.4798 L 45.7036 34.2843 L 46.5056 34.2838 C 46.9066 34.2835 47.4411 33.725 47.4602 33.3208 L 47.4599 31.9929 C 47.4599 31.5887 46.9252 31.031 46.4669 31.0505 L 45.1662 31.0514 C 45.1539 31.0044 45.1412 30.9602 45.1303 30.9271 C 45.0394 30.6573 44.9194 30.4277 44.778 30.2345 L 49.0724 30.2315 C 49.0666 30.2638 49.0636 30.2957 49.0636 30.327 L 49.0641 33.0791 C 49.0641 33.2544 49.1827 33.4739 49.3525 33.657 C 49.1831 33.8359 49.0642 34.0569 49.0642 34.2531 L 49.0647 37.0052 C 49.0647 37.1805 49.1834 37.4 49.3531 37.5831 C 49.1838 37.762 49.0648 37.983 49.0649 38.1792 L 49.0653 40.9313 C 49.0654 41.297 49.581 41.8547 50.0011 41.8737 L 52.6934 41.8718 C 53.0944 41.8715 53.6289 41.313 53.648 40.9088 L 53.6475 38.176 C 53.6475 37.9842 53.527 37.7578 53.3515 37.5749 C 53.518 37.3919 53.6385 37.1707 53.6474 36.9828 L 53.6469 34.2499 C 53.6469 34.0581 53.5263 33.8317 53.3509 33.6488 C 53.5174 33.4658 53.6379 33.2446 53.6467 33.0567 L 53.6463 30.3238 C 53.6463 30.2928 53.6431 30.2608 53.6371 30.2283 L 54.9054 30.2274 C 54.8998 30.259 54.897 30.2902 54.897 30.3208 L 54.8974 33.0729 C 54.8975 33.4386 55.4131 33.9964 55.8332 34.0153 L 58.5446 34.0134 C 58.9456 34.0131 59.4802 33.4547 59.4992 33.0505 L 59.4987 30.3176 C 59.4987 30.2871 59.4954 30.2559 59.4892 30.2242 L 60.7582 30.2233 C 60.7524 30.2556 60.7494 30.2875 60.7494 30.3188 L 60.7499 33.0709 C 60.7499 33.3002 60.9527 33.6048 61.2075 33.805 C 60.9536 33.9966 60.7501 34.2961 60.7501 34.5528 L 60.7505 37.3049 C 60.7506 37.6706 61.2663 38.2284 61.6863 38.2473 L 64.3786 38.2454 C 64.7796 38.2451 65.3142 37.6867 65.3332 37.2825 L 65.3328 34.5496 C 65.3328 34.3011 65.1306 33.9945 64.8683 33.7997 C 65.1168 33.6001 65.3209 33.2955 65.3326 33.0485 L 65.3321 30.3156 C 65.3321 30.2846 65.329 30.2526 65.3229 30.2201 L 66.7451 30.2191 L 66.7486 52.3892 L 64.8644 52.3906 C 64.9025 52.3034 64.9273 52.2153 64.9346 52.1307 L 64.9342 49.4748 C 64.9342 49.4309 64.928 49.3851 64.9162 49.3386 C 65.2827 49.2168 65.6814 48.7543 65.6978 48.4062 L 65.6974 46.3661 C 65.6974 45.962 65.1627 45.4042 64.7044 45.4238 L 63.9486 45.4243 C 63.9645 45.3864 63.9778 45.345 63.9883 45.2999 L 63.9878 42.1629 C 63.9878 41.8742 63.6441 41.7205 63.4531 41.7207 C 63.2431 41.7208 62.9949 41.8365 62.9376 42.1637 L 62.9381 45.3199 C 62.9381 45.3568 62.9443 45.3919 62.9553 45.425 L 62.1919 45.4255 C 62.2078 45.3876 62.2211 45.3462 62.2316 45.3012 L 62.2311 42.1642 C 62.2311 41.8755 61.8874 41.7218 61.6964 41.7219 C 61.4864 41.722 61.2382 41.8377 61.1809 42.1649 L 61.1814 45.3212 C 61.1814 45.3581 61.1877 45.3932 61.1986 45.4262 L 60.4352 45.4268 C 60.4512 45.3889 60.4644 45.3475 60.4749 45.3024 L 60.4745 42.1654 C 60.4744 41.8767 60.1307 41.723 59.9397 41.7231 C 59.7297 41.7233 59.4815 41.8389 59.4243 42.1661 L 59.4248 45.3224 C 59.4248 45.3593 59.4309 45.3944 59.442 45.4275 L 58.5796 45.4281 C 58.6056 45.3779 58.6267 45.3205 58.6419 45.2556 L 58.6414 42.1378 C 58.6413 41.8491 58.2976 41.6954 58.1067 41.6955 C 57.8966 41.6957 57.6484 41.8113 57.5912 42.1385 L 57.5917 45.2756 C 57.5917 45.3309 57.6053 45.3822 57.6288 45.4287 L 53.5723 45.4316 C 53.1522 45.4127 52.5986 45.9519 52.5986 46.3753 L 52.599 48.4346 C 52.599 48.7563 52.9981 49.2268 53.3801 49.3482 C 53.3689 49.3939 53.3629 49.439 53.3629 49.4829 L 53.3633 52.1581 C 53.3634 52.2354 53.3821 52.317 53.4157 52.3986 L 52.3842 52.3993 C 52.4201 52.2918 52.4373 52.1802 52.4372 52.0685 C 52.4372 52.0107 52.1887 50.0286 52.0549 49.0472 C 51.9593 48.3929 51.9592 47.7578 51.7681 47.1228 C 51.7449 47.029 51.6966 46.9375 51.6325 46.8533 C 51.6185 46.8348 51.6037 46.8167 51.5882 46.799 C 51.3847 46.5662 51.0662 46.4034 50.8515 46.4306 L 48.0828 46.4326 C 47.7009 46.4136 47.1091 46.9144 47.1091 47.357 C 47.1091 47.434 47.0901 47.5303 47.071 47.6073 C 47.071 47.7035 47.0519 47.819 47.0329 47.9152 C 46.9566 48.5889 46.8803 49.2625 46.7849 49.9169 C 46.7468 50.2249 46.7087 50.5328 46.6705 50.8216 C 46.6324 51.168 46.5942 51.5145 46.537 51.8417 L 46.5371 52.2073 C 46.5371 52.2685 46.5516 52.3349 46.5776 52.4034 L 45.8921 52.4039 C 45.928 52.2964 45.9451 52.1847 45.9451 52.073 C 45.9451 52.0153 45.6966 50.0332 45.5628 49.0518 C 45.4672 48.3975 45.4671 47.7624 45.276 47.1274 C 45.2527 47.0336 45.2045 46.942 45.1404 46.8578 C 45.1264 46.8394 45.1116 46.8213 45.0961 46.8036 C 44.8926 46.5708 44.5741 46.408 44.3594 46.4352 L 41.5907 46.4371 C 41.2088 46.4182 40.6169 46.919 40.617 47.3616 C 40.617 47.4386 40.5979 47.5348 40.5789 47.6118 C 40.5789 47.708 40.5598 47.8235 40.5407 47.9198 C 40.4645 48.5934 40.3882 49.2671 40.2928 49.9215 C 40.2547 50.2294 40.2165 50.5374 40.1784 50.8261 C 40.1402 51.1725 40.1021 51.519 40.0449 51.8462 L 40.045 52.2119 C 40.045 52.273 40.0595 52.3395 40.0855 52.4079 L 39.3813 52.4084 C 39.402 52.2798 39.4053 52.1519 39.4053 52.0339 C 39.4051 51.0283 39.1281 50.0071 38.6231 49.0837 C 39.1625 48.5964 39.2901 48.1447 39.29 47.6749 C 39.2898 46.6356 38.5068 45.8663 37.4948 45.8671 C 37.1608 45.8673 36.8268 45.9401 36.5104 46.1564 L 36.5101 44.3854 C 36.5421 44.3101 36.559 44.2345 36.5589 44.1741 C 36.5589 44.1029 36.5438 44.0273 36.51 43.9563 L 36.5096 42.3357 C 36.5096 42.124 36.1659 41.8548 36.0131 41.8934 L 29.4828 41.898 C 29.2918 41.8404 28.9864 42.1677 29.0055 42.3409 L 29.0062 46.7867 L 29.0063 46.796 C 27.4937 47.8466 26.3665 49.5846 26.1919 51.9662 L 26.1919 52.3511 C 26.1919 52.373 26.1936 52.3952 26.1965 52.4177 L 25.2754 52.4183 L 25.2719 30.2482 L 26.5696 30.2473 C 26.5638 30.2796 26.5608 30.3115 26.5608 30.3428 L 26.5612 33.0949 C 26.5613 33.4606 27.0769 34.0183 27.497 34.0373 L 30.2084 34.0354 C 30.6094 34.0351 31.1439 33.4766 31.163 33.0724 L 31.1625 30.3396 C 31.1625 30.3085 31.1594 30.2766 31.1534 30.2441 L 32.422 30.2432 C 32.4162 30.2755 32.4132 30.3074 32.4132 30.3387 L 32.4137 33.0908 C 32.4137 33.3201 32.6165 33.6247 32.8713 33.8249 C 32.6174 34.0165 32.4139 34.316 32.4139 34.5727 L 32.4143 37.3248 C 32.4144 37.6905 32.93 38.2482 33.3501 38.2672 L 36.0424 38.2653 C 36.4434 38.265 36.978 37.7065 36.997 37.3024 L 36.9966 34.5695 C 36.9966 34.3209 36.7944 34.0144 36.5321 33.8196 C 36.7806 33.62 36.9847 33.3153 36.9963 33.0683 L 36.9959 30.3355 C 36.9959 30.3045 36.9928 30.2725 36.9867 30.24 L 41.27 30.237 C 41.1401 30.4152 41.0248 30.6256 40.9295 30.8723 C 40.9094 30.9196 40.8917 30.9859 40.8772 31.0544 L 39.5738 31.0554 C 39.1537 31.0364 38.6 31.5757 38.6001 31.9991 L 38.6003 33.3463 C 38.6004 33.7119 39.116 34.2697 39.5361 34.2886 L 40.2044 34.2882 ZM 66.8573 15.0797 L 71.8419 20.9653 L 20.1722 21.0016 L 25.1549 15.1089 L 66.8573 15.0797 ZM 80.6737 24.892 L 80.6734 22.9097 L 81.9909 22.9088 L 81.9912 24.8911 L 80.6737 24.892 ZM 11.4177 22.9504 L 11.418 24.9466 C 11.4022 24.9426 11.3858 24.9391 11.369 24.9361 L 10.0515 24.937 L 10.0511 22.9547 L 11.3687 22.9538 C 11.3854 22.9538 11.4017 22.9527 11.4177 22.9504 ZM 25.271 26.8795 L 66.7449 26.8504 L 66.7446 26.8696 L 66.7449 29.1606 L 25.2717 29.1897 L 25.2713 26.8987 L 25.271 26.8795 ZM 57.2702 64.9963 L 57.2691 58.3917 C 57.2691 58.361 57.2652 58.3319 57.2581 58.3043 L 61.5104 58.3013 C 61.5017 58.3286 61.4945 58.3577 61.489 58.3887 L 61.4914 73.3244 C 61.4202 72.8608 61.3449 72.4422 61.3098 72.2745 C 61.1761 71.6972 61.0232 71.12 60.8131 70.5427 C 60.6603 70.1579 60.5075 69.7346 60.3356 69.3691 C 59.6967 67.9465 58.6879 66.3753 57.2702 64.9963 ZM 51.9232 61.7156 L 51.9227 58.3954 C 51.9227 58.3648 51.9188 58.3356 51.9116 58.308 L 56.2403 58.305 C 56.2317 58.3323 56.2244 58.3614 56.219 58.3924 L 56.2199 64.0725 C 54.8023 62.9419 53.3404 62.1999 51.9232 61.7156 ZM 46.653 60.9695 L 46.6526 58.3991 C 46.6526 58.3685 46.6487 58.3393 46.6415 58.3117 L 50.8939 58.3088 C 50.8852 58.336 50.8779 58.3651 50.8725 58.3961 L 50.873 61.3992 C 49.9087 61.1465 48.8617 60.9854 47.9037 60.9675 L 46.6817 60.9684 L 46.653 60.9695 ZM 45.603 62.1373 L 45.603 62.1485 C 45.9491 62.104 46.2993 62.0732 46.6532 62.0561 L 46.6532 62.0519 C 46.7136 62.0495 46.7741 62.0476 46.8346 62.046 L 47.7702 62.0454 C 48.725 62.0832 49.6415 62.2365 50.5963 62.4475 C 50.6876 62.4683 50.7799 62.4909 50.8732 62.5155 L 50.8731 62.5312 C 51.2295 62.6314 51.5798 62.7463 51.9234 62.875 L 51.9234 62.8561 C 53.4101 63.4251 55.0225 64.396 56.4057 65.6867 L 56.4179 65.6983 L 56.4305 65.7102 L 56.4324 65.7121 L 56.4344 65.7136 C 56.7258 65.9926 57.005 66.2851 57.2705 66.5895 L 57.2705 66.5718 C 57.8176 67.1875 58.3078 67.8595 58.7124 68.5812 C 58.9034 68.9275 59.1135 69.2737 59.2854 69.6585 C 59.4764 70.0433 59.6674 70.5243 59.8203 70.9669 C 59.9731 71.4479 60.1641 71.9866 60.2597 72.5062 C 60.2597 72.5409 60.3699 73.1103 60.458 73.6554 C 60.4957 73.9429 60.5245 74.233 60.5437 74.526 L 60.5655 74.526 L 60.5655 74.546 L 60.5658 76.2781 C 60.4895 77.1827 60.3369 78.0681 60.108 78.9536 C 59.7263 80.3972 59.02 81.9374 57.951 83.42 C 56.7674 85.0567 54.9918 86.4821 53.5217 87.253 C 53.2162 87.4072 52.8725 87.5614 52.567 87.7156 C 52.1088 87.9084 51.6123 88.0819 51.1541 88.2362 C 50.715 88.3712 50.2567 88.487 49.8366 88.5643 C 49.5693 88.603 49.2829 88.6609 48.9965 88.6996 C 48.6146 88.7576 47.889 88.8158 47.8318 88.8159 L 46.7625 88.8166 C 43.841 88.6455 40.8239 87.7238 37.9211 84.8967 C 36.0114 83.0505 34.7698 80.3185 34.3876 78.5675 C 34.3303 78.298 34.2539 78.0094 34.2156 77.7207 C 34.1392 77.2204 34.0436 76.2389 34.0435 76.2005 L 34.0433 74.6993 C 34.0814 74.1604 34.1577 73.583 34.234 73.0441 C 34.7109 70.0992 36.6197 66.3834 40.2091 64.1099 C 40.5528 63.898 40.8965 63.686 41.2783 63.4933 C 41.6411 63.3006 42.023 63.1271 42.4239 62.9729 C 43.4736 62.5406 44.5333 62.2692 45.603 62.1373 ZM 41.3068 62.2762 L 41.3062 58.4029 C 41.3062 58.3722 41.3022 58.3431 41.2951 58.3155 L 45.6238 58.3125 C 45.6151 58.3397 45.6078 58.3688 45.6024 58.3998 L 45.6028 61.0561 C 45.0388 61.124 44.4819 61.2251 43.9321 61.3552 C 43.4357 61.471 42.9202 61.6253 42.4619 61.7989 C 42.0834 61.9518 41.6674 62.1046 41.3068 62.2762 ZM 36.0374 66.4604 L 36.0361 58.4065 C 36.0361 58.3759 36.0322 58.3468 36.025 58.3192 L 40.2774 58.3162 C 40.2687 58.3435 40.2614 58.3726 40.256 58.4036 L 40.2567 62.8131 C 39.0239 63.5092 37.7601 64.4672 36.6006 65.7868 C 36.4028 66.0098 36.2152 66.2345 36.0374 66.4604 ZM 33.0762 73.4675 L 30.692 73.4691 L 30.6896 58.4103 C 30.6896 58.3797 30.6857 58.3505 30.6785 58.3229 L 35.0073 58.3199 C 34.9986 58.3472 34.9913 58.3763 34.9859 58.4073 L 34.9874 67.9858 C 34.3041 69.1307 33.8323 70.2876 33.5081 71.4087 C 33.3092 72.0858 33.1669 72.7791 33.0762 73.4675 ZM 19.0986 80.4704 L 19.0937 83.3029 C 19.0937 83.5724 19.3516 83.832 19.5425 83.8319 C 19.638 83.8318 19.7907 83.7932 19.8671 83.7162 L 21.995 81.5831 C 22.3962 82.0951 22.6356 82.741 22.6357 83.4448 C 22.636 85.1384 21.2805 86.4866 19.6193 86.4877 C 17.9581 86.4889 16.6212 85.0849 16.621 83.449 C 16.6207 81.9534 17.687 80.7179 19.0986 80.4704 ZM 19.1028 78.0962 L 19.1007 79.3814 C 17.4186 79.5998 15.7938 80.8759 15.5516 83.1803 L 15.5517 83.7192 C 15.5517 83.7577 15.6091 84.2196 15.6664 84.4697 C 16.1632 86.5671 18.0919 87.5665 19.6195 87.5655 C 21.8535 87.5639 23.7054 85.7535 23.705 83.4441 C 23.7049 82.4345 23.3522 81.5188 22.7633 80.8104 L 23.6663 79.9013 C 24.4836 80.845 24.9746 82.0773 24.9748 83.4143 C 24.9753 86.3781 22.5698 88.7663 19.6674 88.7683 C 17.8343 88.7695 15.7147 87.8088 14.6832 85.3076 C 14.6068 85.0959 14.3584 84.1338 14.3584 83.8259 L 14.3582 83.0176 C 14.7109 79.974 16.8763 78.3281 19.1028 78.0962 ZM 12.1573 51.2447 C 12.343 51.3381 12.6009 51.4861 12.7905 51.4941 L 12.8066 51.4944 C 12.9768 51.4943 13.1549 51.416 13.2617 51.2697 C 13.3297 51.3762 13.4434 51.4622 13.6181 51.5035 L 13.8713 51.5033 L 17.4351 51.5008 L 17.5326 52.2758 L 13.771 52.2784 L 13.8713 51.5033 L 13.6181 51.5035 C 13.4434 51.4622 13.3297 51.3762 13.2617 51.2697 C 13.1549 51.416 12.9768 51.4943 12.8066 51.4944 L 12.7905 51.4941 C 12.7513 51.8226 12.7017 52.2326 12.7017 52.2792 C 12.7017 52.3276 12.705 52.3771 12.712 52.4271 L 12.3962 52.4274 C 11.9761 52.4084 11.4415 52.9477 11.4225 53.3711 L 11.4231 57.1817 C 11.4232 57.5859 11.9388 58.1052 12.378 58.1433 L 19.1432 58.1386 C 19.1403 58.158 19.1383 58.1773 19.1374 58.1963 L 19.1049 76.8595 C 16.8437 77.0484 14.4074 78.3867 13.4032 81.4786 C 13.2505 81.9021 13.1552 82.441 13.1362 82.8837 L 13.1363 83.9615 C 13.1364 84.2694 13.4039 85.3277 13.4039 85.3662 C 14.4546 88.6372 17.2426 90.0017 19.6485 90 C 23.2192 89.9975 26.1974 87.1086 26.1968 83.4134 C 26.1966 81.72 25.5697 80.1839 24.5384 79.0228 L 26.2054 77.3414 C 26.6255 76.8985 27.1027 76.4363 27.5418 75.9933 C 27.9618 75.5504 28.5537 75.0303 28.8782 74.5875 C 28.8876 74.5748 28.8953 74.5617 28.9019 74.5482 L 32.9751 74.5453 L 32.974 74.5653 L 32.9743 76.3167 C 32.9743 76.7978 33.2419 78.3758 33.261 78.472 C 33.3375 78.8568 33.4521 79.2802 33.5667 79.665 C 33.6814 80.0691 33.8342 80.4731 33.987 80.8579 C 34.5601 82.3009 35.4577 83.8784 36.8137 85.3209 C 38.3415 86.9557 39.9456 87.9746 41.5115 88.6663 C 42.2944 89.0122 43.0773 89.2811 43.8602 89.473 C 44.7768 89.7033 45.7315 89.8374 46.6481 89.8944 L 47.9465 89.8936 C 48.6721 89.893 49.6077 89.6999 50.2569 89.584 C 50.7533 89.4874 51.3643 89.3138 51.8798 89.1402 C 53.7701 88.4653 55.7367 87.4439 57.5694 85.5373 C 59.574 83.4574 60.5666 81.3204 61.1391 79.2607 C 61.4444 78.1828 61.5779 77.1049 61.6541 76.0079 L 61.654 74.8147 C 61.6539 74.7331 61.6492 74.6349 61.6409 74.5252 L 72.0126 74.5179 C 72.4136 74.5177 72.9482 73.9592 72.9672 73.555 L 72.9658 64.5207 C 72.9818 64.5233 72.9977 64.5255 73.0135 64.5268 L 79.773 64.5221 C 80.0785 64.5219 80.5176 64.1559 80.6321 63.8671 C 80.7657 63.5398 80.7275 63.2512 80.7656 62.9433 C 80.8038 62.5391 81.3193 62.173 81.6821 62.192 L 90.0454 62.1862 C 90.4464 62.1859 90.981 61.6274 91 61.2232 L 90.9995 58.1247 C 90.9994 57.7205 90.4647 57.1628 90.0064 57.1823 L 80.6681 57.1889 C 80.6731 57.1637 80.6767 57.1386 80.6788 57.1139 L 80.6782 53.3225 C 80.6781 52.9184 80.1434 52.3799 79.6851 52.3802 L 72.9352 52.3849 L 72.9312 26.8653 L 72.9308 26.846 L 79.7193 26.8413 C 80.0975 26.841 80.5946 26.344 80.6658 25.9484 L 80.6738 25.9505 L 82.5833 25.9492 C 82.7742 25.9491 83.0224 25.6794 83.0415 25.487 L 83.041 22.2922 C 83.0409 22.0805 82.6972 21.8113 82.5444 21.8499 L 80.7114 21.8512 C 80.6839 21.8528 80.6579 21.8559 80.6331 21.8603 C 80.5004 21.4966 80.0634 21.109 79.6802 21.1254 L 72.8982 21.1301 C 72.9068 21.0753 72.9111 21.0199 72.9111 20.9646 C 72.9111 20.8106 72.8729 20.5412 72.7583 20.4258 C 71.2686 18.5793 69.7026 16.752 68.1557 14.9633 C 67.8119 14.5401 67.3917 13.963 66.9335 14.0019 L 25.0593 14.0312 C 24.8683 14.0506 24.6392 14.0893 24.5056 14.2433 C 23.4746 15.3795 22.4819 16.5927 21.4892 17.7674 C 21.241 18.0562 20.9737 18.3836 20.7256 18.6725 C 20.4392 19.0191 20.1146 19.385 19.8283 19.7316 C 19.351 20.3093 19.1028 20.4827 19.1029 21.0023 C 19.1029 21.0562 19.1073 21.1117 19.1159 21.1679 L 12.3912 21.1726 C 12.0324 21.1564 11.5901 21.5475 11.4568 21.9257 C 11.4182 21.9128 11.3761 21.9026 11.3303 21.8953 L 9.4781 21.8966 C 9.2872 21.839 8.9817 22.1664 9.0009 22.3396 L 9.0014 25.5536 C 9.0014 25.7268 9.2688 25.9768 9.4406 25.9959 L 11.3691 25.9946 C 11.3868 25.9946 11.4041 25.9933 11.4208 25.9908 C 11.4608 26.3555 11.9689 26.8703 12.3539 26.8886 L 19.0851 26.8838 L 19.0847 26.9031 L 19.0888 52.4227 L 18.5889 52.423 C 18.5979 52.3579 18.6019 52.295 18.6018 52.2365 C 18.6018 52.1788 18.2386 49.1768 18.0283 47.6757 C 18.0092 47.541 17.971 47.4064 17.9328 47.2909 C 17.8181 46.9446 17.3216 46.5985 17.0352 46.6372 L 14.2665 46.6391 C 13.5497 46.6903 13.3382 47.2419 13.2501 47.7886 C 13.1833 47.7698 13.1108 47.7606 13.0351 47.7606 C 12.195 47.7612 11.5267 48.3776 11.336 49.3977 L 11.336 49.8788 C 11.3361 50.2445 11.7372 51.0333 12.1573 51.2447 ZM 79.604 22.2032 L 79.6045 25.7636 L 12.4874 25.8107 L 12.4869 22.2503 L 79.604 22.2032 ZM 58.8854 75.5672 C 58.8843 69.1777 53.7662 63.8502 47.3122 63.8548 C 42.8823 63.8579 37.8609 66.498 36.1243 72.5616 C 35.9143 73.293 35.8572 74.0244 35.7618 74.7751 L 35.7429 76.0068 C 35.7812 76.4879 35.8195 77.0845 35.8959 77.5849 C 35.9724 78.0082 36.0679 78.4315 36.1825 78.8548 C 36.2972 79.2397 36.4309 79.6438 36.5837 80.0286 C 36.7174 80.3556 36.8702 80.6827 37.023 80.9905 C 37.6152 82.1641 38.6083 83.5491 39.926 84.6259 C 41.2437 85.7412 42.5804 86.4139 43.9362 86.8171 C 44.7764 87.0859 45.6356 87.2585 46.514 87.3156 L 48.0798 87.3145 C 48.4425 87.3143 49.4545 87.1211 49.6646 87.0825 C 50.0464 87.0053 50.5429 86.8702 50.9438 86.7352 C 51.2875 86.6002 51.6694 86.4652 52.0131 86.311 C 53.426 85.6749 54.9915 84.5961 56.2515 83.0363 C 57.397 81.6113 58.0459 80.1867 58.4467 78.7623 C 58.6757 77.9538 58.7901 77.1261 58.8664 76.3563 L 58.8854 75.5672 ZM 51.1505 65.6611 C 51.838 65.9686 52.6209 66.3529 53.3657 66.8721 C 54.0913 67.3912 55.0462 68.295 55.6192 69.0837 C 56.1921 69.8531 56.6887 70.6803 56.9944 71.4884 C 57.3764 72.4312 57.6439 73.4318 57.7395 74.4132 C 57.7586 74.548 57.7969 74.8366 57.7969 74.8944 L 57.7971 76.2608 C 57.7399 76.9729 57.6255 77.7235 57.4155 78.455 C 57.0339 79.8025 56.4231 81.1501 55.2967 82.4981 C 54.1894 83.8268 52.853 84.7323 51.6501 85.2912 C 51.4019 85.4069 51.1346 85.5033 50.9055 85.5997 C 50.4854 85.754 50.0272 85.889 49.6071 85.9855 C 49.5689 85.9855 48.2705 86.2367 47.9841 86.2369 L 46.6284 86.2378 C 45.5591 86.1423 44.5089 85.9314 43.4777 85.5087 C 42.1792 84.99 40.8615 84.2211 39.582 82.817 C 38.4361 81.5476 37.7294 80.1817 37.3282 78.931 C 37.2136 78.5462 37.099 78.1229 37.0225 77.7572 C 37.0225 77.6995 36.8314 76.4872 36.8314 76.2947 L 36.8311 74.909 C 36.8883 74.1969 37.0027 73.4463 37.1936 72.7341 C 37.7088 70.6744 39.446 67.8441 41.928 66.4374 C 42.138 66.3218 42.4053 66.1484 42.6535 66.0328 C 42.9781 65.8786 43.36 65.7051 43.7227 65.5701 C 44.1237 65.4159 44.582 65.2808 45.0211 65.1843 C 45.0211 65.1843 46.3577 64.9524 46.6632 64.9522 L 47.9425 64.9513 C 48.7063 64.9508 50.6349 65.4305 51.1505 65.6611 ZM 51.1998 75.5918 C 51.1995 73.3209 49.3852 71.4745 47.113 71.4761 C 45.2799 71.4774 43.3325 72.7682 43.0464 75.2511 L 43.0466 75.944 C 43.0466 76.2326 43.2377 76.8869 43.3141 77.0985 C 44.1163 79.0225 45.7204 79.6949 47.1143 79.694 C 49.3483 79.6924 51.2002 77.9205 51.1998 75.5918 ZM 50.1306 75.5926 C 50.1308 77.3054 48.7371 78.6151 47.1141 78.6162 C 46.0066 78.617 44.7845 78.002 44.2496 76.5205 C 44.1732 76.2896 44.1158 75.8662 44.1158 75.8277 L 44.1157 75.3658 C 44.2873 73.5181 45.7574 72.5548 47.1131 72.5539 C 48.7743 72.5527 50.1303 73.9374 50.1306 75.5926 Z" fill="#002451"></path></g></g></svg>