<svg fill="#002451" xmlns="http://www.w3.org/2000/svg" xmlns:xlink="http://www.w3.org/1999/xlink" version="1.1" x="0px" y="0px" viewBox="0 0 198.336 209.383" style="enable-background:new 0 0 198.336 209.383;" xml:space="preserve"><g><path d="M177.695,180.854c0-15.756-12.775-28.529-28.531-28.529c-15.758,0-28.529,12.773-28.529,28.529   c0,15.754,12.771,28.529,28.529,28.529C164.92,209.383,177.695,196.607,177.695,180.854z M124.258,180.854   c0-1.164,0.087-2.309,0.242-3.431l19.451,3.43l-19.451,3.43C124.345,183.161,124.258,182.018,124.258,180.854z M174.07,180.854   c0,1.164-0.087,2.308-0.242,3.429l-19.451-3.43l19.451-3.43C173.983,178.545,174.07,179.689,174.07,180.854z M154.065,179.069   l17.101-9.871c1.064,2.001,1.864,4.163,2.351,6.441L154.065,179.069z M150.07,175.718v-19.749c2.349,0.084,4.614,0.493,6.755,1.188   L150.07,175.718z M158.526,157.778c2.142,0.872,4.135,2.034,5.932,3.438l-12.685,15.118L158.526,157.778z M148.258,175.712   l-6.753-18.556c2.14-0.694,4.405-1.104,6.753-1.188V175.712z M146.557,176.336l-12.687-15.12c1.798-1.403,3.79-2.565,5.932-3.438   L146.557,176.336z M124.811,175.639c0.487-2.277,1.286-4.44,2.351-6.441l17.103,9.872L124.811,175.639z M148.258,185.993v19.743   c-2.348-0.084-4.613-0.493-6.754-1.187L148.258,185.993z M139.804,203.928c-2.144-0.873-4.137-2.035-5.935-3.439l12.689-15.123   L139.804,203.928z M150.07,185.988l6.756,18.561c-2.141,0.694-4.407,1.104-6.756,1.188V185.988z M151.772,185.369l12.688,15.12   c-1.798,1.403-3.791,2.565-5.934,3.438L151.772,185.369z M173.518,186.066c-0.487,2.277-1.286,4.439-2.351,6.441l-17.1-9.871   L173.518,186.066z M170.256,167.63l-17.099,9.872l12.691-15.125C167.548,163.913,169.031,165.683,170.256,167.63z M132.479,162.378   l12.69,15.121l-17.097-9.869C129.298,165.683,130.78,163.914,132.479,162.378z M124.811,186.066l19.455-3.431l-17.103,9.874   C126.098,190.508,125.298,188.345,124.811,186.066z M128.071,194.074l17.098-9.87l-12.69,15.124   C130.779,197.791,129.296,196.021,128.071,194.074z M165.849,199.328l-12.69-15.125l17.1,9.871   C169.032,196.022,167.549,197.792,165.849,199.328z"></path><path d="M49.172,209.383c15.758,0,28.531-12.775,28.531-28.529c0-15.756-12.773-28.529-28.531-28.529   c-15.756,0-28.531,12.773-28.531,28.529C20.641,196.607,33.416,209.383,49.172,209.383z M24.266,180.854   c0-1.165,0.087-2.309,0.242-3.432l19.453,3.431l-19.453,3.431C24.353,183.161,24.266,182.018,24.266,180.854z M74.08,180.854   c0,1.164-0.087,2.308-0.242,3.43l-19.452-3.431l19.452-3.431C73.993,178.545,74.08,179.688,74.08,180.854z M48.266,185.99v19.746   c-2.349-0.084-4.614-0.494-6.755-1.188L48.266,185.99z M39.811,203.928c-2.143-0.873-4.137-2.035-5.934-3.439l12.689-15.123   L39.811,203.928z M50.078,185.986l6.756,18.563c-2.141,0.693-4.407,1.104-6.756,1.188V185.986z M51.778,185.365l12.691,15.123   c-1.799,1.403-3.792,2.566-5.935,3.438L51.778,185.365z M54.071,179.069l17.104-9.873c1.064,2.002,1.864,4.165,2.352,6.442   L54.071,179.069z M50.078,175.718v-19.749c2.349,0.084,4.614,0.494,6.755,1.188L50.078,175.718z M58.534,157.778   c2.143,0.872,4.135,2.035,5.933,3.439l-12.689,15.121L58.534,157.778z M48.266,175.715l-6.755-18.559   c2.141-0.693,4.406-1.104,6.755-1.188V175.715z M46.566,176.338l-12.688-15.122c1.798-1.403,3.791-2.565,5.934-3.438   L46.566,176.338z M24.819,175.639c0.487-2.278,1.286-4.441,2.352-6.442l17.102,9.873L24.819,175.639z M32.487,199.328   c-1.7-1.537-3.184-3.307-4.408-5.254l17.101-9.872L32.487,199.328z M65.856,199.328l-12.691-15.126l17.1,9.872   C69.04,196.022,67.557,197.792,65.856,199.328z M71.175,192.509l-17.102-9.873l19.454,3.431   C73.04,188.345,72.24,190.507,71.175,192.509z M70.265,167.63l-17.1,9.873l12.691-15.126   C67.556,163.913,69.039,165.683,70.265,167.63z M32.487,162.378l12.691,15.123L28.08,167.63   C29.306,165.683,30.788,163.914,32.487,162.378z M24.818,186.066l19.455-3.431l-17.103,9.875   C26.105,190.508,25.306,188.345,24.818,186.066z"></path><path d="M9.088,135.947v55.375h8.734c-1.103-3.292-1.709-6.811-1.709-10.469c0-18.23,14.83-33.061,33.059-33.061   c18.231,0,33.06,14.83,33.06,33.061c0,3.658-0.606,7.177-1.709,10.469h37.291c-1.103-3.292-1.709-6.811-1.709-10.469   c0-18.23,14.83-33.061,33.059-33.061s33.059,14.83,33.059,33.061c0,3.658-0.606,7.177-1.709,10.469h8.734v-55.375h5.373v-10.469   H28.709v-63.49h-8.016v63.49H7.114c-0.006,3.354-0.076,6.857-0.202,10.469H9.088z"></path><path d="M120.275,118.965h63.457V64.602h-63.457V118.965z M123.398,67.953h56.477v22.041h-56.477V67.953z M123.398,93.576h56.477   v22.037h-56.477V93.576z"></path><rect x="126.43" y="84.828" width="16.346" height="2.205"></rect><rect x="126.43" y="80.902" width="16.346" height="2.203"></rect><rect x="126.43" y="76.977" width="16.346" height="2.205"></rect><ellipse cx="166.1" cy="108.167" rx="3.949" ry="3.109"></ellipse><ellipse transform="matrix(0.8203 -0.5719 0.5719 0.8203 -33.2194 109.4959)" cx="157.652" cy="107.616" rx="3.949" ry="3.109"></ellipse><ellipse transform="matrix(0.8205 -0.5717 0.5717 0.8205 -28.1867 112.2505)" cx="164.631" cy="101.004" rx="3.948" ry="3.109"></ellipse><ellipse transform="matrix(0.8205 -0.5717 0.5717 0.8205 -29.413 107.2715)" cx="156.09" cy="100.467" rx="3.949" ry="3.109"></ellipse><polygon points="173.359,99.421 170.594,111.749 153.435,111.749 150.666,99.421 147.74,100.079 151.031,114.749 172.994,114.749    176.287,100.079 173.361,99.421  "></polygon><polygon points="142.928,101.082 141.598,101.082 141.598,97.686 140.494,97.686 140.494,101.082 139.164,101.082 139.164,102.277    138.016,102.277 138.016,113.938 144.076,113.938 144.076,102.277 142.928,102.277  "></polygon><polygon points="134.203,101.082 132.873,101.082 132.873,97.686 131.771,97.686 131.771,101.082 130.439,101.082 130.439,102.277    129.291,102.277 129.291,113.938 135.352,113.938 135.352,102.277 134.203,102.277  "></polygon><rect x="153.061" y="78.949" width="23.693" height="8.084"></rect><rect x="163.529" y="75.094" width="11.754" height="2.021"></rect><rect x="39.893" y="116.045" width="69.334" height="2.92"></rect><path d="M198.336,44.744V29.662v-3.519V15.084c0-8.33-6.752-15.084-15.084-15.084H15.084C6.754,0,0,6.754,0,15.084v11.059v3.519   v15.082c0,6.941,5.629,12.568,12.57,12.568c6.204,0,11.345-4.499,12.37-10.41c1.025,5.911,6.168,10.41,12.372,10.41   c6.208,0,11.351-4.505,12.37-10.422c1.021,5.917,6.164,10.422,12.372,10.422s11.349-4.502,12.371-10.416   c1.022,5.914,6.165,10.416,12.371,10.416c6.206,0,11.349-4.502,12.371-10.416c1.022,5.914,6.165,10.416,12.371,10.416   c6.204,0,11.347-4.499,12.372-10.41c1.025,5.911,6.168,10.41,12.372,10.41c6.206,0,11.349-4.502,12.371-10.416   c1.022,5.914,6.165,10.416,12.371,10.416c6.206,0,11.349-4.502,12.371-10.416c1.023,5.914,6.165,10.416,12.371,10.416   C192.709,57.313,198.336,51.685,198.336,44.744z"></path></g></svg>