<?xml version="1.0" encoding="UTF-8" standalone="no"?>
<!-- Created with Inkscape (http://www.inkscape.org/) -->

<svg
   xmlns:dc="http://purl.org/dc/elements/1.1/"
   xmlns:cc="http://creativecommons.org/ns#"
   xmlns:rdf="http://www.w3.org/1999/02/22-rdf-syntax-ns#"
   xmlns:svg="http://www.w3.org/2000/svg"
   xmlns="http://www.w3.org/2000/svg"
   xmlns:sodipodi="http://sodipodi.sourceforge.net/DTD/sodipodi-0.dtd"
   xmlns:inkscape="http://www.inkscape.org/namespaces/inkscape"
   width="128"
   height="128"
   viewBox="0 0 33.866666 33.866668"
   version="1.1"
   id="svg6587"
   inkscape:version="0.92.1 15371"
   sodipodi:docname="tablet.svg">
  <defs
     id="defs6581" />
  <sodipodi:namedview
     id="base"
     pagecolor="#ffffff"
     bordercolor="#666666"
     borderopacity="1.0"
     inkscape:pageopacity="0.0"
     inkscape:pageshadow="2"
     inkscape:zoom="4.1796875"
     inkscape:cx="86.093244"
     inkscape:cy="64"
     inkscape:document-units="mm"
     inkscape:current-layer="layer1"
     showgrid="false"
     units="px"
     inkscape:window-width="1366"
     inkscape:window-height="709"
     inkscape:window-x="0"
     inkscape:window-y="35"
     inkscape:window-maximized="1" />
  <metadata
     id="metadata6584">
    <rdf:RDF>
      <cc:Work
         rdf:about="">
        <dc:format>image/svg+xml</dc:format>
        <dc:type
           rdf:resource="http://purl.org/dc/dcmitype/StillImage" />
        <dc:title />
      </cc:Work>
    </rdf:RDF>
  </metadata>
  <g
     inkscape:label="Layer 1"
     inkscape:groupmode="layer"
     id="layer1"
     transform="translate(0,-263.13332)">
    <g
       style="fill:#002451"
       id="g2342"
       transform="matrix(0.41632238,0,0,0.35250301,-3.8827857,262.56811)">
      <g
         id="g2330"
         transform="translate(0,-952.36218)">
        <path
           id="path2328"
           overflow="visible"
           display="inline"
           visibility="visible"
           marker="none"
           style="color:#000000;text-indent:0;text-transform:none;direction:ltr;baseline-shift:baseline;display:inline;overflow:visible;visibility:visible;fill:#002451;fill-opacity:1;stroke:none;enable-background:accumulate"
           d="m 22,957.36219 c -3.28941,0 -6,2.71059 -6,6 v 78.00001 c 0,3.2894 2.71059,6 6,6 h 56 c 3.28941,0 6,-2.7106 6,-6 v -78.00002 c 0,-3.28941 -2.71059,-6 -6,-6 z m 0,4 h 56 c 1.1426,0 2,0.8574 2,2 v 2 H 20 v -2 c 0,-1.1426 0.8574,-2 2,-2 z m -2,8 h 60 v 62.00001 H 20 Z m 0,66.00001 h 60 v 6 c 0,1.1426 -0.8574,2 -2,2 H 22 c -1.1426,0 -2,-0.8574 -2,-2 z m 30,2 c -1.10457,0 -2,0.8954 -2,2 0,1.1046 0.89543,2 2,2 1.10457,0 2,-0.8954 2,-2 0,-1.1046 -0.89543,-2 -2,-2 z"
           inkscape:connector-curvature="0" />
      </g>
    </g>
  </g>
</svg>
